0
SECTION
2
HEADER
9
$ACADVER
1
AC1009
9
$INSUNITS
70
1
0
ENDSEC
0
SECTION
2
TABLES
0
TABLE
2
LTYPE
70
2
0
LTYPE
2
CONTINUOUS
70
0
3
Solid line
72
65
73
0
40
0
0
LTYPE
2
DASHED
70
0
3
__ __ __
72
65
73
2
40
0.125
49
0.0833
49
-0.0417
0
ENDTAB
0
TABLE
2
LAYER
70
12
0
LAYER
2
S-GRID
70
0
62
1
6
CONTINUOUS
0
LAYER
2
A-WALL
70
0
62
2
6
CONTINUOUS
0
LAYER
2
A-GLAZ
70
0
62
3
6
CONTINUOUS
0
LAYER
2
A-DOOR
70
0
62
4
6
CONTINUOUS
0
LAYER
2
A-ANNO-SYMB
70
0
62
5
6
CONTINUOUS
0
LAYER
2
A-WALL-CMU
70
0
62
6
6
CONTINUOUS
0
LAYER
2
A-WALL-PATT
70
0
62
7
6
CONTINUOUS
0
LAYER
2
A-COLS
70
0
62
1
6
CONTINUOUS
0
LAYER
2
A-FLOR-STRS
70
0
62
2
6
CONTINUOUS
0
LAYER
2
A-ANNO-TEXT
70
0
62
3
6
CONTINUOUS
0
LAYER
2
A-ANNO-DIMS
70
0
62
4
6
CONTINUOUS
0
LAYER
2
G-ANNO-TTLB
70
0
62
5
6
CONTINUOUS
0
ENDTAB
0
ENDSEC
0
SECTION
2
ENTITIES
0
LINE
8
S-GRID
6
DASHED
10
3.19444
20
7.02778
30
0
11
3.19444
21
21.40278
31
0
0
LINE
8
S-GRID
10
3.36111
20
21.56944
30
0
11
3.35773
21
21.60303
31
0
0
LINE
8
S-GRID
10
3.35773
20
21.60303
30
0
11
3.34801
21
21.63432
31
0
0
LINE
8
S-GRID
10
3.34801
20
21.63432
30
0
11
3.33265
21
21.66263
31
0
0
LINE
8
S-GRID
10
3.33265
20
21.66263
30
0
11
3.3123
21
21.6873
31
0
0
LINE
8
S-GRID
10
3.3123
20
21.6873
30
0
11
3.28763
21
21.70765
31
0
0
LINE
8
S-GRID
10
3.28763
20
21.70765
30
0
11
3.25932
21
21.72301
31
0
0
LINE
8
S-GRID
10
3.25932
20
21.72301
30
0
11
3.22803
21
21.73273
31
0
0
LINE
8
S-GRID
10
3.22803
20
21.73273
30
0
11
3.19444
21
21.73611
31
0
0
LINE
8
S-GRID
10
3.19444
20
21.73611
30
0
11
3.16086
21
21.73273
31
0
0
LINE
8
S-GRID
10
3.16086
20
21.73273
30
0
11
3.12957
21
21.72301
31
0
0
LINE
8
S-GRID
10
3.12957
20
21.72301
30
0
11
3.10126
21
21.70765
31
0
0
LINE
8
S-GRID
10
3.10126
20
21.70765
30
0
11
3.07659
21
21.6873
31
0
0
LINE
8
S-GRID
10
3.07659
20
21.6873
30
0
11
3.05624
21
21.66263
31
0
0
LINE
8
S-GRID
10
3.05624
20
21.66263
30
0
11
3.04088
21
21.63432
31
0
0
LINE
8
S-GRID
10
3.04088
20
21.63432
30
0
11
3.03116
21
21.60303
31
0
0
LINE
8
S-GRID
10
3.03116
20
21.60303
30
0
11
3.02778
21
21.56944
31
0
0
LINE
8
S-GRID
10
3.02778
20
21.56944
30
0
11
3.03116
21
21.53586
31
0
0
LINE
8
S-GRID
10
3.03116
20
21.53586
30
0
11
3.04088
21
21.50457
31
0
0
LINE
8
S-GRID
10
3.04088
20
21.50457
30
0
11
3.05624
21
21.47626
31
0
0
LINE
8
S-GRID
10
3.05624
20
21.47626
30
0
11
3.07659
21
21.45159
31
0
0
LINE
8
S-GRID
10
3.07659
20
21.45159
30
0
11
3.10126
21
21.43124
31
0
0
LINE
8
S-GRID
10
3.10126
20
21.43124
30
0
11
3.12957
21
21.41588
31
0
0
LINE
8
S-GRID
10
3.12957
20
21.41588
30
0
11
3.16086
21
21.40616
31
0
0
LINE
8
S-GRID
10
3.16086
20
21.40616
30
0
11
3.19444
21
21.40278
31
0
0
LINE
8
S-GRID
10
3.19444
20
21.40278
30
0
11
3.22803
21
21.40616
31
0
0
LINE
8
S-GRID
10
3.22803
20
21.40616
30
0
11
3.25932
21
21.41588
31
0
0
LINE
8
S-GRID
10
3.25932
20
21.41588
30
0
11
3.28763
21
21.43124
31
0
0
LINE
8
S-GRID
10
3.28763
20
21.43124
30
0
11
3.3123
21
21.45159
31
0
0
LINE
8
S-GRID
10
3.3123
20
21.45159
30
0
11
3.33265
21
21.47626
31
0
0
LINE
8
S-GRID
10
3.33265
20
21.47626
30
0
11
3.34801
21
21.50457
31
0
0
LINE
8
S-GRID
10
3.34801
20
21.50457
30
0
11
3.35773
21
21.53586
31
0
0
LINE
8
S-GRID
10
3.35773
20
21.53586
30
0
11
3.36111
21
21.56944
31
0
0
TEXT
8
S-GRID
10
3.19444
20
21.51389
30
0
40
0.12
1
A
50
0
72
1
11
3.19444
21
21.51389
31
0
0
LINE
8
S-GRID
6
DASHED
10
6.94444
20
7.02778
30
0
11
6.94444
21
21.40278
31
0
0
LINE
8
S-GRID
10
7.11111
20
21.56944
30
0
11
7.10773
21
21.60303
31
0
0
LINE
8
S-GRID
10
7.10773
20
21.60303
30
0
11
7.09801
21
21.63432
31
0
0
LINE
8
S-GRID
10
7.09801
20
21.63432
30
0
11
7.08265
21
21.66263
31
0
0
LINE
8
S-GRID
10
7.08265
20
21.66263
30
0
11
7.0623
21
21.6873
31
0
0
LINE
8
S-GRID
10
7.0623
20
21.6873
30
0
11
7.03763
21
21.70765
31
0
0
LINE
8
S-GRID
10
7.03763
20
21.70765
30
0
11
7.00932
21
21.72301
31
0
0
LINE
8
S-GRID
10
7.00932
20
21.72301
30
0
11
6.97803
21
21.73273
31
0
0
LINE
8
S-GRID
10
6.97803
20
21.73273
30
0
11
6.94444
21
21.73611
31
0
0
LINE
8
S-GRID
10
6.94444
20
21.73611
30
0
11
6.91086
21
21.73273
31
0
0
LINE
8
S-GRID
10
6.91086
20
21.73273
30
0
11
6.87957
21
21.72301
31
0
0
LINE
8
S-GRID
10
6.87957
20
21.72301
30
0
11
6.85126
21
21.70765
31
0
0
LINE
8
S-GRID
10
6.85126
20
21.70765
30
0
11
6.82659
21
21.6873
31
0
0
LINE
8
S-GRID
10
6.82659
20
21.6873
30
0
11
6.80624
21
21.66263
31
0
0
LINE
8
S-GRID
10
6.80624
20
21.66263
30
0
11
6.79088
21
21.63432
31
0
0
LINE
8
S-GRID
10
6.79088
20
21.63432
30
0
11
6.78116
21
21.60303
31
0
0
LINE
8
S-GRID
10
6.78116
20
21.60303
30
0
11
6.77778
21
21.56944
31
0
0
LINE
8
S-GRID
10
6.77778
20
21.56944
30
0
11
6.78116
21
21.53586
31
0
0
LINE
8
S-GRID
10
6.78116
20
21.53586
30
0
11
6.79088
21
21.50457
31
0
0
LINE
8
S-GRID
10
6.79088
20
21.50457
30
0
11
6.80624
21
21.47626
31
0
0
LINE
8
S-GRID
10
6.80624
20
21.47626
30
0
11
6.82659
21
21.45159
31
0
0
LINE
8
S-GRID
10
6.82659
20
21.45159
30
0
11
6.85126
21
21.43124
31
0
0
LINE
8
S-GRID
10
6.85126
20
21.43124
30
0
11
6.87957
21
21.41588
31
0
0
LINE
8
S-GRID
10
6.87957
20
21.41588
30
0
11
6.91086
21
21.40616
31
0
0
LINE
8
S-GRID
10
6.91086
20
21.40616
30
0
11
6.94444
21
21.40278
31
0
0
LINE
8
S-GRID
10
6.94444
20
21.40278
30
0
11
6.97803
21
21.40616
31
0
0
LINE
8
S-GRID
10
6.97803
20
21.40616
30
0
11
7.00932
21
21.41588
31
0
0
LINE
8
S-GRID
10
7.00932
20
21.41588
30
0
11
7.03763
21
21.43124
31
0
0
LINE
8
S-GRID
10
7.03763
20
21.43124
30
0
11
7.0623
21
21.45159
31
0
0
LINE
8
S-GRID
10
7.0623
20
21.45159
30
0
11
7.08265
21
21.47626
31
0
0
LINE
8
S-GRID
10
7.08265
20
21.47626
30
0
11
7.09801
21
21.50457
31
0
0
LINE
8
S-GRID
10
7.09801
20
21.50457
30
0
11
7.10773
21
21.53586
31
0
0
LINE
8
S-GRID
10
7.10773
20
21.53586
30
0
11
7.11111
21
21.56944
31
0
0
TEXT
8
S-GRID
10
6.94444
20
21.51389
30
0
40
0.12
1
B
50
0
72
1
11
6.94444
21
21.51389
31
0
0
LINE
8
S-GRID
6
DASHED
10
10.69444
20
7.02778
30
0
11
10.69444
21
21.40278
31
0
0
LINE
8
S-GRID
10
10.86111
20
21.56944
30
0
11
10.85773
21
21.60303
31
0
0
LINE
8
S-GRID
10
10.85773
20
21.60303
30
0
11
10.84801
21
21.63432
31
0
0
LINE
8
S-GRID
10
10.84801
20
21.63432
30
0
11
10.83265
21
21.66263
31
0
0
LINE
8
S-GRID
10
10.83265
20
21.66263
30
0
11
10.8123
21
21.6873
31
0
0
LINE
8
S-GRID
10
10.8123
20
21.6873
30
0
11
10.78763
21
21.70765
31
0
0
LINE
8
S-GRID
10
10.78763
20
21.70765
30
0
11
10.75932
21
21.72301
31
0
0
LINE
8
S-GRID
10
10.75932
20
21.72301
30
0
11
10.72803
21
21.73273
31
0
0
LINE
8
S-GRID
10
10.72803
20
21.73273
30
0
11
10.69444
21
21.73611
31
0
0
LINE
8
S-GRID
10
10.69444
20
21.73611
30
0
11
10.66086
21
21.73273
31
0
0
LINE
8
S-GRID
10
10.66086
20
21.73273
30
0
11
10.62957
21
21.72301
31
0
0
LINE
8
S-GRID
10
10.62957
20
21.72301
30
0
11
10.60126
21
21.70765
31
0
0
LINE
8
S-GRID
10
10.60126
20
21.70765
30
0
11
10.57659
21
21.6873
31
0
0
LINE
8
S-GRID
10
10.57659
20
21.6873
30
0
11
10.55624
21
21.66263
31
0
0
LINE
8
S-GRID
10
10.55624
20
21.66263
30
0
11
10.54088
21
21.63432
31
0
0
LINE
8
S-GRID
10
10.54088
20
21.63432
30
0
11
10.53116
21
21.60303
31
0
0
LINE
8
S-GRID
10
10.53116
20
21.60303
30
0
11
10.52778
21
21.56944
31
0
0
LINE
8
S-GRID
10
10.52778
20
21.56944
30
0
11
10.53116
21
21.53586
31
0
0
LINE
8
S-GRID
10
10.53116
20
21.53586
30
0
11
10.54088
21
21.50457
31
0
0
LINE
8
S-GRID
10
10.54088
20
21.50457
30
0
11
10.55624
21
21.47626
31
0
0
LINE
8
S-GRID
10
10.55624
20
21.47626
30
0
11
10.57659
21
21.45159
31
0
0
LINE
8
S-GRID
10
10.57659
20
21.45159
30
0
11
10.60126
21
21.43124
31
0
0
LINE
8
S-GRID
10
10.60126
20
21.43124
30
0
11
10.62957
21
21.41588
31
0
0
LINE
8
S-GRID
10
10.62957
20
21.41588
30
0
11
10.66086
21
21.40616
31
0
0
LINE
8
S-GRID
10
10.66086
20
21.40616
30
0
11
10.69444
21
21.40278
31
0
0
LINE
8
S-GRID
10
10.69444
20
21.40278
30
0
11
10.72803
21
21.40616
31
0
0
LINE
8
S-GRID
10
10.72803
20
21.40616
30
0
11
10.75932
21
21.41588
31
0
0
LINE
8
S-GRID
10
10.75932
20
21.41588
30
0
11
10.78763
21
21.43124
31
0
0
LINE
8
S-GRID
10
10.78763
20
21.43124
30
0
11
10.8123
21
21.45159
31
0
0
LINE
8
S-GRID
10
10.8123
20
21.45159
30
0
11
10.83265
21
21.47626
31
0
0
LINE
8
S-GRID
10
10.83265
20
21.47626
30
0
11
10.84801
21
21.50457
31
0
0
LINE
8
S-GRID
10
10.84801
20
21.50457
30
0
11
10.85773
21
21.53586
31
0
0
LINE
8
S-GRID
10
10.85773
20
21.53586
30
0
11
10.86111
21
21.56944
31
0
0
TEXT
8
S-GRID
10
10.69444
20
21.51389
30
0
40
0.12
1
C
50
0
72
1
11
10.69444
21
21.51389
31
0
0
LINE
8
S-GRID
6
DASHED
10
14.11111
20
7.02778
30
0
11
14.11111
21
21.40278
31
0
0
LINE
8
S-GRID
10
14.27778
20
21.56944
30
0
11
14.27439
21
21.60303
31
0
0
LINE
8
S-GRID
10
14.27439
20
21.60303
30
0
11
14.26468
21
21.63432
31
0
0
LINE
8
S-GRID
10
14.26468
20
21.63432
30
0
11
14.24931
21
21.66263
31
0
0
LINE
8
S-GRID
10
14.24931
20
21.66263
30
0
11
14.22896
21
21.6873
31
0
0
LINE
8
S-GRID
10
14.22896
20
21.6873
30
0
11
14.2043
21
21.70765
31
0
0
LINE
8
S-GRID
10
14.2043
20
21.70765
30
0
11
14.17599
21
21.72301
31
0
0
LINE
8
S-GRID
10
14.17599
20
21.72301
30
0
11
14.1447
21
21.73273
31
0
0
LINE
8
S-GRID
10
14.1447
20
21.73273
30
0
11
14.11111
21
21.73611
31
0
0
LINE
8
S-GRID
10
14.11111
20
21.73611
30
0
11
14.07752
21
21.73273
31
0
0
LINE
8
S-GRID
10
14.07752
20
21.73273
30
0
11
14.04624
21
21.72301
31
0
0
LINE
8
S-GRID
10
14.04624
20
21.72301
30
0
11
14.01793
21
21.70765
31
0
0
LINE
8
S-GRID
10
14.01793
20
21.70765
30
0
11
13.99326
21
21.6873
31
0
0
LINE
8
S-GRID
10
13.99326
20
21.6873
30
0
11
13.97291
21
21.66263
31
0
0
LINE
8
S-GRID
10
13.97291
20
21.66263
30
0
11
13.95754
21
21.63432
31
0
0
LINE
8
S-GRID
10
13.95754
20
21.63432
30
0
11
13.94783
21
21.60303
31
0
0
LINE
8
S-GRID
10
13.94783
20
21.60303
30
0
11
13.94444
21
21.56944
31
0
0
LINE
8
S-GRID
10
13.94444
20
21.56944
30
0
11
13.94783
21
21.53586
31
0
0
LINE
8
S-GRID
10
13.94783
20
21.53586
30
0
11
13.95754
21
21.50457
31
0
0
LINE
8
S-GRID
10
13.95754
20
21.50457
30
0
11
13.97291
21
21.47626
31
0
0
LINE
8
S-GRID
10
13.97291
20
21.47626
30
0
11
13.99326
21
21.45159
31
0
0
LINE
8
S-GRID
10
13.99326
20
21.45159
30
0
11
14.01793
21
21.43124
31
0
0
LINE
8
S-GRID
10
14.01793
20
21.43124
30
0
11
14.04624
21
21.41588
31
0
0
LINE
8
S-GRID
10
14.04624
20
21.41588
30
0
11
14.07752
21
21.40616
31
0
0
LINE
8
S-GRID
10
14.07752
20
21.40616
30
0
11
14.11111
21
21.40278
31
0
0
LINE
8
S-GRID
10
14.11111
20
21.40278
30
0
11
14.1447
21
21.40616
31
0
0
LINE
8
S-GRID
10
14.1447
20
21.40616
30
0
11
14.17599
21
21.41588
31
0
0
LINE
8
S-GRID
10
14.17599
20
21.41588
30
0
11
14.2043
21
21.43124
31
0
0
LINE
8
S-GRID
10
14.2043
20
21.43124
30
0
11
14.22896
21
21.45159
31
0
0
LINE
8
S-GRID
10
14.22896
20
21.45159
30
0
11
14.24931
21
21.47626
31
0
0
LINE
8
S-GRID
10
14.24931
20
21.47626
30
0
11
14.26468
21
21.50457
31
0
0
LINE
8
S-GRID
10
14.26468
20
21.50457
30
0
11
14.27439
21
21.53586
31
0
0
LINE
8
S-GRID
10
14.27439
20
21.53586
30
0
11
14.27778
21
21.56944
31
0
0
TEXT
8
S-GRID
10
14.11111
20
21.51389
30
0
40
0.12
1
D
50
0
72
1
11
14.11111
21
21.51389
31
0
0
LINE
8
S-GRID
6
DASHED
10
17.86111
20
7.02778
30
0
11
17.86111
21
21.40278
31
0
0
LINE
8
S-GRID
10
18.02778
20
21.56944
30
0
11
18.02439
21
21.60303
31
0
0
LINE
8
S-GRID
10
18.02439
20
21.60303
30
0
11
18.01468
21
21.63432
31
0
0
LINE
8
S-GRID
10
18.01468
20
21.63432
30
0
11
17.99931
21
21.66263
31
0
0
LINE
8
S-GRID
10
17.99931
20
21.66263
30
0
11
17.97896
21
21.6873
31
0
0
LINE
8
S-GRID
10
17.97896
20
21.6873
30
0
11
17.9543
21
21.70765
31
0
0
LINE
8
S-GRID
10
17.9543
20
21.70765
30
0
11
17.92599
21
21.72301
31
0
0
LINE
8
S-GRID
10
17.92599
20
21.72301
30
0
11
17.8947
21
21.73273
31
0
0
LINE
8
S-GRID
10
17.8947
20
21.73273
30
0
11
17.86111
21
21.73611
31
0
0
LINE
8
S-GRID
10
17.86111
20
21.73611
30
0
11
17.82752
21
21.73273
31
0
0
LINE
8
S-GRID
10
17.82752
20
21.73273
30
0
11
17.79624
21
21.72301
31
0
0
LINE
8
S-GRID
10
17.79624
20
21.72301
30
0
11
17.76793
21
21.70765
31
0
0
LINE
8
S-GRID
10
17.76793
20
21.70765
30
0
11
17.74326
21
21.6873
31
0
0
LINE
8
S-GRID
10
17.74326
20
21.6873
30
0
11
17.72291
21
21.66263
31
0
0
LINE
8
S-GRID
10
17.72291
20
21.66263
30
0
11
17.70754
21
21.63432
31
0
0
LINE
8
S-GRID
10
17.70754
20
21.63432
30
0
11
17.69783
21
21.60303
31
0
0
LINE
8
S-GRID
10
17.69783
20
21.60303
30
0
11
17.69444
21
21.56944
31
0
0
LINE
8
S-GRID
10
17.69444
20
21.56944
30
0
11
17.69783
21
21.53586
31
0
0
LINE
8
S-GRID
10
17.69783
20
21.53586
30
0
11
17.70754
21
21.50457
31
0
0
LINE
8
S-GRID
10
17.70754
20
21.50457
30
0
11
17.72291
21
21.47626
31
0
0
LINE
8
S-GRID
10
17.72291
20
21.47626
30
0
11
17.74326
21
21.45159
31
0
0
LINE
8
S-GRID
10
17.74326
20
21.45159
30
0
11
17.76793
21
21.43124
31
0
0
LINE
8
S-GRID
10
17.76793
20
21.43124
30
0
11
17.79624
21
21.41588
31
0
0
LINE
8
S-GRID
10
17.79624
20
21.41588
30
0
11
17.82752
21
21.40616
31
0
0
LINE
8
S-GRID
10
17.82752
20
21.40616
30
0
11
17.86111
21
21.40278
31
0
0
LINE
8
S-GRID
10
17.86111
20
21.40278
30
0
11
17.8947
21
21.40616
31
0
0
LINE
8
S-GRID
10
17.8947
20
21.40616
30
0
11
17.92599
21
21.41588
31
0
0
LINE
8
S-GRID
10
17.92599
20
21.41588
30
0
11
17.9543
21
21.43124
31
0
0
LINE
8
S-GRID
10
17.9543
20
21.43124
30
0
11
17.97896
21
21.45159
31
0
0
LINE
8
S-GRID
10
17.97896
20
21.45159
30
0
11
17.99931
21
21.47626
31
0
0
LINE
8
S-GRID
10
17.99931
20
21.47626
30
0
11
18.01468
21
21.50457
31
0
0
LINE
8
S-GRID
10
18.01468
20
21.50457
30
0
11
18.02439
21
21.53586
31
0
0
LINE
8
S-GRID
10
18.02439
20
21.53586
30
0
11
18.02778
21
21.56944
31
0
0
TEXT
8
S-GRID
10
17.86111
20
21.51389
30
0
40
0.12
1
E
50
0
72
1
11
17.86111
21
21.51389
31
0
0
LINE
8
S-GRID
6
DASHED
10
21.61111
20
7.02778
30
0
11
21.61111
21
21.40278
31
0
0
LINE
8
S-GRID
10
21.77778
20
21.56944
30
0
11
21.77439
21
21.60303
31
0
0
LINE
8
S-GRID
10
21.77439
20
21.60303
30
0
11
21.76468
21
21.63432
31
0
0
LINE
8
S-GRID
10
21.76468
20
21.63432
30
0
11
21.74931
21
21.66263
31
0
0
LINE
8
S-GRID
10
21.74931
20
21.66263
30
0
11
21.72896
21
21.6873
31
0
0
LINE
8
S-GRID
10
21.72896
20
21.6873
30
0
11
21.7043
21
21.70765
31
0
0
LINE
8
S-GRID
10
21.7043
20
21.70765
30
0
11
21.67599
21
21.72301
31
0
0
LINE
8
S-GRID
10
21.67599
20
21.72301
30
0
11
21.6447
21
21.73273
31
0
0
LINE
8
S-GRID
10
21.6447
20
21.73273
30
0
11
21.61111
21
21.73611
31
0
0
LINE
8
S-GRID
10
21.61111
20
21.73611
30
0
11
21.57752
21
21.73273
31
0
0
LINE
8
S-GRID
10
21.57752
20
21.73273
30
0
11
21.54624
21
21.72301
31
0
0
LINE
8
S-GRID
10
21.54624
20
21.72301
30
0
11
21.51793
21
21.70765
31
0
0
LINE
8
S-GRID
10
21.51793
20
21.70765
30
0
11
21.49326
21
21.6873
31
0
0
LINE
8
S-GRID
10
21.49326
20
21.6873
30
0
11
21.47291
21
21.66263
31
0
0
LINE
8
S-GRID
10
21.47291
20
21.66263
30
0
11
21.45754
21
21.63432
31
0
0
LINE
8
S-GRID
10
21.45754
20
21.63432
30
0
11
21.44783
21
21.60303
31
0
0
LINE
8
S-GRID
10
21.44783
20
21.60303
30
0
11
21.44444
21
21.56944
31
0
0
LINE
8
S-GRID
10
21.44444
20
21.56944
30
0
11
21.44783
21
21.53586
31
0
0
LINE
8
S-GRID
10
21.44783
20
21.53586
30
0
11
21.45754
21
21.50457
31
0
0
LINE
8
S-GRID
10
21.45754
20
21.50457
30
0
11
21.47291
21
21.47626
31
0
0
LINE
8
S-GRID
10
21.47291
20
21.47626
30
0
11
21.49326
21
21.45159
31
0
0
LINE
8
S-GRID
10
21.49326
20
21.45159
30
0
11
21.51793
21
21.43124
31
0
0
LINE
8
S-GRID
10
21.51793
20
21.43124
30
0
11
21.54624
21
21.41588
31
0
0
LINE
8
S-GRID
10
21.54624
20
21.41588
30
0
11
21.57752
21
21.40616
31
0
0
LINE
8
S-GRID
10
21.57752
20
21.40616
30
0
11
21.61111
21
21.40278
31
0
0
LINE
8
S-GRID
10
21.61111
20
21.40278
30
0
11
21.6447
21
21.40616
31
0
0
LINE
8
S-GRID
10
21.6447
20
21.40616
30
0
11
21.67599
21
21.41588
31
0
0
LINE
8
S-GRID
10
21.67599
20
21.41588
30
0
11
21.7043
21
21.43124
31
0
0
LINE
8
S-GRID
10
21.7043
20
21.43124
30
0
11
21.72896
21
21.45159
31
0
0
LINE
8
S-GRID
10
21.72896
20
21.45159
30
0
11
21.74931
21
21.47626
31
0
0
LINE
8
S-GRID
10
21.74931
20
21.47626
30
0
11
21.76468
21
21.50457
31
0
0
LINE
8
S-GRID
10
21.76468
20
21.50457
30
0
11
21.77439
21
21.53586
31
0
0
LINE
8
S-GRID
10
21.77439
20
21.53586
30
0
11
21.77778
21
21.56944
31
0
0
TEXT
8
S-GRID
10
21.61111
20
21.51389
30
0
40
0.12
1
F
50
0
72
1
11
21.61111
21
21.51389
31
0
0
LINE
8
S-GRID
6
DASHED
10
25.36111
20
7.02778
30
0
11
25.36111
21
21.40278
31
0
0
LINE
8
S-GRID
10
25.52778
20
21.56944
30
0
11
25.52439
21
21.60303
31
0
0
LINE
8
S-GRID
10
25.52439
20
21.60303
30
0
11
25.51468
21
21.63432
31
0
0
LINE
8
S-GRID
10
25.51468
20
21.63432
30
0
11
25.49931
21
21.66263
31
0
0
LINE
8
S-GRID
10
25.49931
20
21.66263
30
0
11
25.47896
21
21.6873
31
0
0
LINE
8
S-GRID
10
25.47896
20
21.6873
30
0
11
25.4543
21
21.70765
31
0
0
LINE
8
S-GRID
10
25.4543
20
21.70765
30
0
11
25.42599
21
21.72301
31
0
0
LINE
8
S-GRID
10
25.42599
20
21.72301
30
0
11
25.3947
21
21.73273
31
0
0
LINE
8
S-GRID
10
25.3947
20
21.73273
30
0
11
25.36111
21
21.73611
31
0
0
LINE
8
S-GRID
10
25.36111
20
21.73611
30
0
11
25.32752
21
21.73273
31
0
0
LINE
8
S-GRID
10
25.32752
20
21.73273
30
0
11
25.29624
21
21.72301
31
0
0
LINE
8
S-GRID
10
25.29624
20
21.72301
30
0
11
25.26793
21
21.70765
31
0
0
LINE
8
S-GRID
10
25.26793
20
21.70765
30
0
11
25.24326
21
21.6873
31
0
0
LINE
8
S-GRID
10
25.24326
20
21.6873
30
0
11
25.22291
21
21.66263
31
0
0
LINE
8
S-GRID
10
25.22291
20
21.66263
30
0
11
25.20754
21
21.63432
31
0
0
LINE
8
S-GRID
10
25.20754
20
21.63432
30
0
11
25.19783
21
21.60303
31
0
0
LINE
8
S-GRID
10
25.19783
20
21.60303
30
0
11
25.19444
21
21.56944
31
0
0
LINE
8
S-GRID
10
25.19444
20
21.56944
30
0
11
25.19783
21
21.53586
31
0
0
LINE
8
S-GRID
10
25.19783
20
21.53586
30
0
11
25.20754
21
21.50457
31
0
0
LINE
8
S-GRID
10
25.20754
20
21.50457
30
0
11
25.22291
21
21.47626
31
0
0
LINE
8
S-GRID
10
25.22291
20
21.47626
30
0
11
25.24326
21
21.45159
31
0
0
LINE
8
S-GRID
10
25.24326
20
21.45159
30
0
11
25.26793
21
21.43124
31
0
0
LINE
8
S-GRID
10
25.26793
20
21.43124
30
0
11
25.29624
21
21.41588
31
0
0
LINE
8
S-GRID
10
25.29624
20
21.41588
30
0
11
25.32752
21
21.40616
31
0
0
LINE
8
S-GRID
10
25.32752
20
21.40616
30
0
11
25.36111
21
21.40278
31
0
0
LINE
8
S-GRID
10
25.36111
20
21.40278
30
0
11
25.3947
21
21.40616
31
0
0
LINE
8
S-GRID
10
25.3947
20
21.40616
30
0
11
25.42599
21
21.41588
31
0
0
LINE
8
S-GRID
10
25.42599
20
21.41588
30
0
11
25.4543
21
21.43124
31
0
0
LINE
8
S-GRID
10
25.4543
20
21.43124
30
0
11
25.47896
21
21.45159
31
0
0
LINE
8
S-GRID
10
25.47896
20
21.45159
30
0
11
25.49931
21
21.47626
31
0
0
LINE
8
S-GRID
10
25.49931
20
21.47626
30
0
11
25.51468
21
21.50457
31
0
0
LINE
8
S-GRID
10
25.51468
20
21.50457
30
0
11
25.52439
21
21.53586
31
0
0
LINE
8
S-GRID
10
25.52439
20
21.53586
30
0
11
25.52778
21
21.56944
31
0
0
TEXT
8
S-GRID
10
25.36111
20
21.51389
30
0
40
0.12
1
G
50
0
72
1
11
25.36111
21
21.51389
31
0
0
LINE
8
S-GRID
6
DASHED
10
29.11111
20
7.02778
30
0
11
29.11111
21
21.40278
31
0
0
LINE
8
S-GRID
10
29.27778
20
21.56944
30
0
11
29.27439
21
21.60303
31
0
0
LINE
8
S-GRID
10
29.27439
20
21.60303
30
0
11
29.26468
21
21.63432
31
0
0
LINE
8
S-GRID
10
29.26468
20
21.63432
30
0
11
29.24931
21
21.66263
31
0
0
LINE
8
S-GRID
10
29.24931
20
21.66263
30
0
11
29.22896
21
21.6873
31
0
0
LINE
8
S-GRID
10
29.22896
20
21.6873
30
0
11
29.2043
21
21.70765
31
0
0
LINE
8
S-GRID
10
29.2043
20
21.70765
30
0
11
29.17599
21
21.72301
31
0
0
LINE
8
S-GRID
10
29.17599
20
21.72301
30
0
11
29.1447
21
21.73273
31
0
0
LINE
8
S-GRID
10
29.1447
20
21.73273
30
0
11
29.11111
21
21.73611
31
0
0
LINE
8
S-GRID
10
29.11111
20
21.73611
30
0
11
29.07752
21
21.73273
31
0
0
LINE
8
S-GRID
10
29.07752
20
21.73273
30
0
11
29.04624
21
21.72301
31
0
0
LINE
8
S-GRID
10
29.04624
20
21.72301
30
0
11
29.01793
21
21.70765
31
0
0
LINE
8
S-GRID
10
29.01793
20
21.70765
30
0
11
28.99326
21
21.6873
31
0
0
LINE
8
S-GRID
10
28.99326
20
21.6873
30
0
11
28.97291
21
21.66263
31
0
0
LINE
8
S-GRID
10
28.97291
20
21.66263
30
0
11
28.95754
21
21.63432
31
0
0
LINE
8
S-GRID
10
28.95754
20
21.63432
30
0
11
28.94783
21
21.60303
31
0
0
LINE
8
S-GRID
10
28.94783
20
21.60303
30
0
11
28.94444
21
21.56944
31
0
0
LINE
8
S-GRID
10
28.94444
20
21.56944
30
0
11
28.94783
21
21.53586
31
0
0
LINE
8
S-GRID
10
28.94783
20
21.53586
30
0
11
28.95754
21
21.50457
31
0
0
LINE
8
S-GRID
10
28.95754
20
21.50457
30
0
11
28.97291
21
21.47626
31
0
0
LINE
8
S-GRID
10
28.97291
20
21.47626
30
0
11
28.99326
21
21.45159
31
0
0
LINE
8
S-GRID
10
28.99326
20
21.45159
30
0
11
29.01793
21
21.43124
31
0
0
LINE
8
S-GRID
10
29.01793
20
21.43124
30
0
11
29.04624
21
21.41588
31
0
0
LINE
8
S-GRID
10
29.04624
20
21.41588
30
0
11
29.07752
21
21.40616
31
0
0
LINE
8
S-GRID
10
29.07752
20
21.40616
30
0
11
29.11111
21
21.40278
31
0
0
LINE
8
S-GRID
10
29.11111
20
21.40278
30
0
11
29.1447
21
21.40616
31
0
0
LINE
8
S-GRID
10
29.1447
20
21.40616
30
0
11
29.17599
21
21.41588
31
0
0
LINE
8
S-GRID
10
29.17599
20
21.41588
30
0
11
29.2043
21
21.43124
31
0
0
LINE
8
S-GRID
10
29.2043
20
21.43124
30
0
11
29.22896
21
21.45159
31
0
0
LINE
8
S-GRID
10
29.22896
20
21.45159
30
0
11
29.24931
21
21.47626
31
0
0
LINE
8
S-GRID
10
29.24931
20
21.47626
30
0
11
29.26468
21
21.50457
31
0
0
LINE
8
S-GRID
10
29.26468
20
21.50457
30
0
11
29.27439
21
21.53586
31
0
0
LINE
8
S-GRID
10
29.27439
20
21.53586
30
0
11
29.27778
21
21.56944
31
0
0
TEXT
8
S-GRID
10
29.11111
20
21.51389
30
0
40
0.12
1
H
50
0
72
1
11
29.11111
21
21.51389
31
0
0
LINE
8
S-GRID
6
DASHED
10
1.19444
20
7.77778
30
0
11
29.94444
21
7.77778
31
0
0
LINE
8
S-GRID
10
1.19444
20
7.77778
30
0
11
1.19106
21
7.81137
31
0
0
LINE
8
S-GRID
10
1.19106
20
7.81137
30
0
11
1.18135
21
7.84265
31
0
0
LINE
8
S-GRID
10
1.18135
20
7.84265
30
0
11
1.16598
21
7.87096
31
0
0
LINE
8
S-GRID
10
1.16598
20
7.87096
30
0
11
1.14563
21
7.89563
31
0
0
LINE
8
S-GRID
10
1.14563
20
7.89563
30
0
11
1.12096
21
7.91598
31
0
0
LINE
8
S-GRID
10
1.12096
20
7.91598
30
0
11
1.09265
21
7.93135
31
0
0
LINE
8
S-GRID
10
1.09265
20
7.93135
30
0
11
1.06137
21
7.94106
31
0
0
LINE
8
S-GRID
10
1.06137
20
7.94106
30
0
11
1.02778
21
7.94444
31
0
0
LINE
8
S-GRID
10
1.02778
20
7.94444
30
0
11
0.99419
21
7.94106
31
0
0
LINE
8
S-GRID
10
0.99419
20
7.94106
30
0
11
0.9629
21
7.93135
31
0
0
LINE
8
S-GRID
10
0.9629
20
7.93135
30
0
11
0.93459
21
7.91598
31
0
0
LINE
8
S-GRID
10
0.93459
20
7.91598
30
0
11
0.90993
21
7.89563
31
0
0
LINE
8
S-GRID
10
0.90993
20
7.89563
30
0
11
0.88958
21
7.87096
31
0
0
LINE
8
S-GRID
10
0.88958
20
7.87096
30
0
11
0.87421
21
7.84265
31
0
0
LINE
8
S-GRID
10
0.87421
20
7.84265
30
0
11
0.8645
21
7.81137
31
0
0
LINE
8
S-GRID
10
0.8645
20
7.81137
30
0
11
0.86111
21
7.77778
31
0
0
LINE
8
S-GRID
10
0.86111
20
7.77778
30
0
11
0.8645
21
7.74419
31
0
0
LINE
8
S-GRID
10
0.8645
20
7.74419
30
0
11
0.87421
21
7.7129
31
0
0
LINE
8
S-GRID
10
0.87421
20
7.7129
30
0
11
0.88958
21
7.68459
31
0
0
LINE
8
S-GRID
10
0.88958
20
7.68459
30
0
11
0.90993
21
7.65993
31
0
0
LINE
8
S-GRID
10
0.90993
20
7.65993
30
0
11
0.93459
21
7.63958
31
0
0
LINE
8
S-GRID
10
0.93459
20
7.63958
30
0
11
0.9629
21
7.62421
31
0
0
LINE
8
S-GRID
10
0.9629
20
7.62421
30
0
11
0.99419
21
7.6145
31
0
0
LINE
8
S-GRID
10
0.99419
20
7.6145
30
0
11
1.02778
21
7.61111
31
0
0
LINE
8
S-GRID
10
1.02778
20
7.61111
30
0
11
1.06137
21
7.6145
31
0
0
LINE
8
S-GRID
10
1.06137
20
7.6145
30
0
11
1.09265
21
7.62421
31
0
0
LINE
8
S-GRID
10
1.09265
20
7.62421
30
0
11
1.12096
21
7.63958
31
0
0
LINE
8
S-GRID
10
1.12096
20
7.63958
30
0
11
1.14563
21
7.65993
31
0
0
LINE
8
S-GRID
10
1.14563
20
7.65993
30
0
11
1.16598
21
7.68459
31
0
0
LINE
8
S-GRID
10
1.16598
20
7.68459
30
0
11
1.18135
21
7.7129
31
0
0
LINE
8
S-GRID
10
1.18135
20
7.7129
30
0
11
1.19106
21
7.74419
31
0
0
LINE
8
S-GRID
10
1.19106
20
7.74419
30
0
11
1.19444
21
7.77778
31
0
0
TEXT
8
S-GRID
10
1.02778
20
7.72222
30
0
40
0.12
1
1
50
0
72
1
11
1.02778
21
7.72222
31
0
0
LINE
8
S-GRID
6
DASHED
10
1.19444
20
11.52778
30
0
11
29.94444
21
11.52778
31
0
0
LINE
8
S-GRID
10
1.19444
20
11.52778
30
0
11
1.19106
21
11.56137
31
0
0
LINE
8
S-GRID
10
1.19106
20
11.56137
30
0
11
1.18135
21
11.59265
31
0
0
LINE
8
S-GRID
10
1.18135
20
11.59265
30
0
11
1.16598
21
11.62096
31
0
0
LINE
8
S-GRID
10
1.16598
20
11.62096
30
0
11
1.14563
21
11.64563
31
0
0
LINE
8
S-GRID
10
1.14563
20
11.64563
30
0
11
1.12096
21
11.66598
31
0
0
LINE
8
S-GRID
10
1.12096
20
11.66598
30
0
11
1.09265
21
11.68135
31
0
0
LINE
8
S-GRID
10
1.09265
20
11.68135
30
0
11
1.06137
21
11.69106
31
0
0
LINE
8
S-GRID
10
1.06137
20
11.69106
30
0
11
1.02778
21
11.69444
31
0
0
LINE
8
S-GRID
10
1.02778
20
11.69444
30
0
11
0.99419
21
11.69106
31
0
0
LINE
8
S-GRID
10
0.99419
20
11.69106
30
0
11
0.9629
21
11.68135
31
0
0
LINE
8
S-GRID
10
0.9629
20
11.68135
30
0
11
0.93459
21
11.66598
31
0
0
LINE
8
S-GRID
10
0.93459
20
11.66598
30
0
11
0.90993
21
11.64563
31
0
0
LINE
8
S-GRID
10
0.90993
20
11.64563
30
0
11
0.88958
21
11.62096
31
0
0
LINE
8
S-GRID
10
0.88958
20
11.62096
30
0
11
0.87421
21
11.59265
31
0
0
LINE
8
S-GRID
10
0.87421
20
11.59265
30
0
11
0.8645
21
11.56137
31
0
0
LINE
8
S-GRID
10
0.8645
20
11.56137
30
0
11
0.86111
21
11.52778
31
0
0
LINE
8
S-GRID
10
0.86111
20
11.52778
30
0
11
0.8645
21
11.49419
31
0
0
LINE
8
S-GRID
10
0.8645
20
11.49419
30
0
11
0.87421
21
11.4629
31
0
0
LINE
8
S-GRID
10
0.87421
20
11.4629
30
0
11
0.88958
21
11.43459
31
0
0
LINE
8
S-GRID
10
0.88958
20
11.43459
30
0
11
0.90993
21
11.40993
31
0
0
LINE
8
S-GRID
10
0.90993
20
11.40993
30
0
11
0.93459
21
11.38958
31
0
0
LINE
8
S-GRID
10
0.93459
20
11.38958
30
0
11
0.9629
21
11.37421
31
0
0
LINE
8
S-GRID
10
0.9629
20
11.37421
30
0
11
0.99419
21
11.3645
31
0
0
LINE
8
S-GRID
10
0.99419
20
11.3645
30
0
11
1.02778
21
11.36111
31
0
0
LINE
8
S-GRID
10
1.02778
20
11.36111
30
0
11
1.06137
21
11.3645
31
0
0
LINE
8
S-GRID
10
1.06137
20
11.3645
30
0
11
1.09265
21
11.37421
31
0
0
LINE
8
S-GRID
10
1.09265
20
11.37421
30
0
11
1.12096
21
11.38958
31
0
0
LINE
8
S-GRID
10
1.12096
20
11.38958
30
0
11
1.14563
21
11.40993
31
0
0
LINE
8
S-GRID
10
1.14563
20
11.40993
30
0
11
1.16598
21
11.43459
31
0
0
LINE
8
S-GRID
10
1.16598
20
11.43459
30
0
11
1.18135
21
11.4629
31
0
0
LINE
8
S-GRID
10
1.18135
20
11.4629
30
0
11
1.19106
21
11.49419
31
0
0
LINE
8
S-GRID
10
1.19106
20
11.49419
30
0
11
1.19444
21
11.52778
31
0
0
TEXT
8
S-GRID
10
1.02778
20
11.47222
30
0
40
0.12
1
2
50
0
72
1
11
1.02778
21
11.47222
31
0
0
LINE
8
S-GRID
6
DASHED
10
1.19444
20
15.27778
30
0
11
29.94444
21
15.27778
31
0
0
LINE
8
S-GRID
10
1.19444
20
15.27778
30
0
11
1.19106
21
15.31137
31
0
0
LINE
8
S-GRID
10
1.19106
20
15.31137
30
0
11
1.18135
21
15.34265
31
0
0
LINE
8
S-GRID
10
1.18135
20
15.34265
30
0
11
1.16598
21
15.37096
31
0
0
LINE
8
S-GRID
10
1.16598
20
15.37096
30
0
11
1.14563
21
15.39563
31
0
0
LINE
8
S-GRID
10
1.14563
20
15.39563
30
0
11
1.12096
21
15.41598
31
0
0
LINE
8
S-GRID
10
1.12096
20
15.41598
30
0
11
1.09265
21
15.43135
31
0
0
LINE
8
S-GRID
10
1.09265
20
15.43135
30
0
11
1.06137
21
15.44106
31
0
0
LINE
8
S-GRID
10
1.06137
20
15.44106
30
0
11
1.02778
21
15.44444
31
0
0
LINE
8
S-GRID
10
1.02778
20
15.44444
30
0
11
0.99419
21
15.44106
31
0
0
LINE
8
S-GRID
10
0.99419
20
15.44106
30
0
11
0.9629
21
15.43135
31
0
0
LINE
8
S-GRID
10
0.9629
20
15.43135
30
0
11
0.93459
21
15.41598
31
0
0
LINE
8
S-GRID
10
0.93459
20
15.41598
30
0
11
0.90993
21
15.39563
31
0
0
LINE
8
S-GRID
10
0.90993
20
15.39563
30
0
11
0.88958
21
15.37096
31
0
0
LINE
8
S-GRID
10
0.88958
20
15.37096
30
0
11
0.87421
21
15.34265
31
0
0
LINE
8
S-GRID
10
0.87421
20
15.34265
30
0
11
0.8645
21
15.31137
31
0
0
LINE
8
S-GRID
10
0.8645
20
15.31137
30
0
11
0.86111
21
15.27778
31
0
0
LINE
8
S-GRID
10
0.86111
20
15.27778
30
0
11
0.8645
21
15.24419
31
0
0
LINE
8
S-GRID
10
0.8645
20
15.24419
30
0
11
0.87421
21
15.2129
31
0
0
LINE
8
S-GRID
10
0.87421
20
15.2129
30
0
11
0.88958
21
15.18459
31
0
0
LINE
8
S-GRID
10
0.88958
20
15.18459
30
0
11
0.90993
21
15.15993
31
0
0
LINE
8
S-GRID
10
0.90993
20
15.15993
30
0
11
0.93459
21
15.13958
31
0
0
LINE
8
S-GRID
10
0.93459
20
15.13958
30
0
11
0.9629
21
15.12421
31
0
0
LINE
8
S-GRID
10
0.9629
20
15.12421
30
0
11
0.99419
21
15.1145
31
0
0
LINE
8
S-GRID
10
0.99419
20
15.1145
30
0
11
1.02778
21
15.11111
31
0
0
LINE
8
S-GRID
10
1.02778
20
15.11111
30
0
11
1.06137
21
15.1145
31
0
0
LINE
8
S-GRID
10
1.06137
20
15.1145
30
0
11
1.09265
21
15.12421
31
0
0
LINE
8
S-GRID
10
1.09265
20
15.12421
30
0
11
1.12096
21
15.13958
31
0
0
LINE
8
S-GRID
10
1.12096
20
15.13958
30
0
11
1.14563
21
15.15993
31
0
0
LINE
8
S-GRID
10
1.14563
20
15.15993
30
0
11
1.16598
21
15.18459
31
0
0
LINE
8
S-GRID
10
1.16598
20
15.18459
30
0
11
1.18135
21
15.2129
31
0
0
LINE
8
S-GRID
10
1.18135
20
15.2129
30
0
11
1.19106
21
15.24419
31
0
0
LINE
8
S-GRID
10
1.19106
20
15.24419
30
0
11
1.19444
21
15.27778
31
0
0
TEXT
8
S-GRID
10
1.02778
20
15.22222
30
0
40
0.12
1
3
50
0
72
1
11
1.02778
21
15.22222
31
0
0
LINE
8
S-GRID
6
DASHED
10
1.19444
20
19.27778
30
0
11
29.94444
21
19.27778
31
0
0
LINE
8
S-GRID
10
1.19444
20
19.27778
30
0
11
1.19106
21
19.31137
31
0
0
LINE
8
S-GRID
10
1.19106
20
19.31137
30
0
11
1.18135
21
19.34265
31
0
0
LINE
8
S-GRID
10
1.18135
20
19.34265
30
0
11
1.16598
21
19.37096
31
0
0
LINE
8
S-GRID
10
1.16598
20
19.37096
30
0
11
1.14563
21
19.39563
31
0
0
LINE
8
S-GRID
10
1.14563
20
19.39563
30
0
11
1.12096
21
19.41598
31
0
0
LINE
8
S-GRID
10
1.12096
20
19.41598
30
0
11
1.09265
21
19.43135
31
0
0
LINE
8
S-GRID
10
1.09265
20
19.43135
30
0
11
1.06137
21
19.44106
31
0
0
LINE
8
S-GRID
10
1.06137
20
19.44106
30
0
11
1.02778
21
19.44444
31
0
0
LINE
8
S-GRID
10
1.02778
20
19.44444
30
0
11
0.99419
21
19.44106
31
0
0
LINE
8
S-GRID
10
0.99419
20
19.44106
30
0
11
0.9629
21
19.43135
31
0
0
LINE
8
S-GRID
10
0.9629
20
19.43135
30
0
11
0.93459
21
19.41598
31
0
0
LINE
8
S-GRID
10
0.93459
20
19.41598
30
0
11
0.90993
21
19.39563
31
0
0
LINE
8
S-GRID
10
0.90993
20
19.39563
30
0
11
0.88958
21
19.37096
31
0
0
LINE
8
S-GRID
10
0.88958
20
19.37096
30
0
11
0.87421
21
19.34265
31
0
0
LINE
8
S-GRID
10
0.87421
20
19.34265
30
0
11
0.8645
21
19.31137
31
0
0
LINE
8
S-GRID
10
0.8645
20
19.31137
30
0
11
0.86111
21
19.27778
31
0
0
LINE
8
S-GRID
10
0.86111
20
19.27778
30
0
11
0.8645
21
19.24419
31
0
0
LINE
8
S-GRID
10
0.8645
20
19.24419
30
0
11
0.87421
21
19.2129
31
0
0
LINE
8
S-GRID
10
0.87421
20
19.2129
30
0
11
0.88958
21
19.18459
31
0
0
LINE
8
S-GRID
10
0.88958
20
19.18459
30
0
11
0.90993
21
19.15993
31
0
0
LINE
8
S-GRID
10
0.90993
20
19.15993
30
0
11
0.93459
21
19.13958
31
0
0
LINE
8
S-GRID
10
0.93459
20
19.13958
30
0
11
0.9629
21
19.12421
31
0
0
LINE
8
S-GRID
10
0.9629
20
19.12421
30
0
11
0.99419
21
19.1145
31
0
0
LINE
8
S-GRID
10
0.99419
20
19.1145
30
0
11
1.02778
21
19.11111
31
0
0
LINE
8
S-GRID
10
1.02778
20
19.11111
30
0
11
1.06137
21
19.1145
31
0
0
LINE
8
S-GRID
10
1.06137
20
19.1145
30
0
11
1.09265
21
19.12421
31
0
0
LINE
8
S-GRID
10
1.09265
20
19.12421
30
0
11
1.12096
21
19.13958
31
0
0
LINE
8
S-GRID
10
1.12096
20
19.13958
30
0
11
1.14563
21
19.15993
31
0
0
LINE
8
S-GRID
10
1.14563
20
19.15993
30
0
11
1.16598
21
19.18459
31
0
0
LINE
8
S-GRID
10
1.16598
20
19.18459
30
0
11
1.18135
21
19.2129
31
0
0
LINE
8
S-GRID
10
1.18135
20
19.2129
30
0
11
1.19106
21
19.24419
31
0
0
LINE
8
S-GRID
10
1.19106
20
19.24419
30
0
11
1.19444
21
19.27778
31
0
0
TEXT
8
S-GRID
10
1.02778
20
19.22222
30
0
40
0.12
1
4
50
0
72
1
11
1.02778
21
19.22222
31
0
0
LINE
8
A-WALL
10
3.15734
20
7.74067
30
0
11
5.44444
21
7.74067
31
0
0
LINE
8
A-WALL
10
5.94444
20
7.74067
30
0
11
10.44444
21
7.74067
31
0
0
LINE
8
A-WALL
10
10.94444
20
7.74067
30
0
11
15.44444
21
7.74067
31
0
0
LINE
8
A-WALL
10
15.94444
20
7.74067
30
0
11
19.66905
21
7.74067
31
0
0
LINE
8
A-WALL
10
19.71984
20
7.74067
30
0
11
20.44444
21
7.74067
31
0
0
LINE
8
A-WALL
10
20.94444
20
7.74067
30
0
11
23.79405
21
7.74067
31
0
0
LINE
8
A-WALL
10
23.84484
20
7.74067
30
0
11
29.14822
21
7.74067
31
0
0
LINE
8
A-WALL
10
3.15734
20
7.73416
30
0
11
5.44444
21
7.73416
31
0
0
LINE
8
A-WALL
10
5.94444
20
7.73416
30
0
11
10.44444
21
7.73416
31
0
0
LINE
8
A-WALL
10
10.94444
20
7.73416
30
0
11
15.44444
21
7.73416
31
0
0
LINE
8
A-WALL
10
15.94444
20
7.73416
30
0
11
19.66905
21
7.73416
31
0
0
LINE
8
A-WALL
10
19.71984
20
7.73416
30
0
11
20.44444
21
7.73416
31
0
0
LINE
8
A-WALL
10
20.94444
20
7.73416
30
0
11
23.79405
21
7.73416
31
0
0
LINE
8
A-WALL
10
23.84484
20
7.73416
30
0
11
29.14822
21
7.73416
31
0
0
LINE
8
A-WALL
10
3.06489
20
7.67166
30
0
11
5.44444
21
7.67166
31
0
0
LINE
8
A-WALL
10
5.94444
20
7.67166
30
0
11
10.44444
21
7.67166
31
0
0
LINE
8
A-WALL
10
10.94444
20
7.67166
30
0
11
15.44444
21
7.67166
31
0
0
LINE
8
A-WALL
10
15.94444
20
7.67166
30
0
11
20.44444
21
7.67166
31
0
0
LINE
8
A-WALL
10
20.94444
20
7.67166
30
0
11
29.24067
21
7.67166
31
0
0
LINE
8
A-WALL
10
3.06489
20
7.66515
30
0
11
5.44444
21
7.66515
31
0
0
LINE
8
A-WALL
10
5.94444
20
7.66515
30
0
11
10.44444
21
7.66515
31
0
0
LINE
8
A-WALL
10
10.94444
20
7.66515
30
0
11
15.44444
21
7.66515
31
0
0
LINE
8
A-WALL
10
15.94444
20
7.66515
30
0
11
20.44444
21
7.66515
31
0
0
LINE
8
A-WALL
10
20.94444
20
7.66515
30
0
11
29.24067
21
7.66515
31
0
0
LINE
8
A-WALL
10
3.06489
20
7.64822
30
0
11
5.44444
21
7.64822
31
0
0
LINE
8
A-WALL
10
5.94444
20
7.64822
30
0
11
10.44444
21
7.64822
31
0
0
LINE
8
A-WALL
10
10.94444
20
7.64822
30
0
11
15.44444
21
7.64822
31
0
0
LINE
8
A-WALL
10
15.94444
20
7.64822
30
0
11
20.44444
21
7.64822
31
0
0
LINE
8
A-WALL
10
20.94444
20
7.64822
30
0
11
29.24067
21
7.64822
31
0
0
LINE
8
A-WALL
10
5.44444
20
7.74067
30
0
11
5.44444
21
7.64822
31
0
0
LINE
8
A-WALL
10
5.94444
20
7.74067
30
0
11
5.94444
21
7.64822
31
0
0
LINE
8
A-WALL
10
10.44444
20
7.74067
30
0
11
10.44444
21
7.64822
31
0
0
LINE
8
A-WALL
10
10.94444
20
7.74067
30
0
11
10.94444
21
7.64822
31
0
0
LINE
8
A-WALL
10
15.44444
20
7.74067
30
0
11
15.44444
21
7.64822
31
0
0
LINE
8
A-WALL
10
15.94444
20
7.74067
30
0
11
15.94444
21
7.64822
31
0
0
LINE
8
A-WALL
10
20.44444
20
7.74067
30
0
11
20.44444
21
7.64822
31
0
0
LINE
8
A-WALL
10
20.94444
20
7.74067
30
0
11
20.94444
21
7.64822
31
0
0
LINE
8
A-GLAZ
10
5.44444
20
7.64822
30
0
11
5.94444
21
7.64822
31
0
0
LINE
8
A-GLAZ
10
5.44444
20
7.69444
30
0
11
5.94444
21
7.69444
31
0
0
LINE
8
A-GLAZ
10
5.44444
20
7.74067
30
0
11
5.94444
21
7.74067
31
0
0
LINE
8
A-GLAZ
10
10.44444
20
7.64822
30
0
11
10.94444
21
7.64822
31
0
0
LINE
8
A-GLAZ
10
10.44444
20
7.69444
30
0
11
10.94444
21
7.69444
31
0
0
LINE
8
A-GLAZ
10
10.44444
20
7.74067
30
0
11
10.94444
21
7.74067
31
0
0
LINE
8
A-GLAZ
10
15.44444
20
7.64822
30
0
11
15.94444
21
7.64822
31
0
0
LINE
8
A-GLAZ
10
15.44444
20
7.69444
30
0
11
15.94444
21
7.69444
31
0
0
LINE
8
A-GLAZ
10
15.44444
20
7.74067
30
0
11
15.94444
21
7.74067
31
0
0
LINE
8
A-GLAZ
10
20.44444
20
7.64822
30
0
11
20.94444
21
7.64822
31
0
0
LINE
8
A-GLAZ
10
20.44444
20
7.69444
30
0
11
20.94444
21
7.69444
31
0
0
LINE
8
A-GLAZ
10
20.44444
20
7.74067
30
0
11
20.94444
21
7.74067
31
0
0
LINE
8
A-WALL
10
29.14822
20
7.74067
30
0
11
29.14822
21
9.00239
31
0
0
LINE
8
A-WALL
10
29.14822
20
9.05317
30
0
11
29.14822
21
12.75239
31
0
0
LINE
8
A-WALL
10
29.14822
20
12.80317
30
0
11
29.14822
21
15.48806
31
0
0
LINE
8
A-WALL
10
29.14822
20
15.56749
30
0
11
29.14822
21
19.31879
31
0
0
LINE
8
A-WALL
10
29.15473
20
7.74067
30
0
11
29.15473
21
9.00239
31
0
0
LINE
8
A-WALL
10
29.15473
20
9.05317
30
0
11
29.15473
21
12.75239
31
0
0
LINE
8
A-WALL
10
29.15473
20
12.80317
30
0
11
29.15473
21
15.48806
31
0
0
LINE
8
A-WALL
10
29.15473
20
15.56749
30
0
11
29.15473
21
19.31879
31
0
0
LINE
8
A-WALL
10
29.21723
20
7.64822
30
0
11
29.21723
21
19.40343
31
0
0
LINE
8
A-WALL
10
29.22374
20
7.64822
30
0
11
29.22374
21
19.40343
31
0
0
LINE
8
A-WALL
10
29.24067
20
7.64822
30
0
11
29.24067
21
19.40343
31
0
0
LINE
8
A-WALL
10
29.14822
20
19.31879
30
0
11
26.98416
21
19.31879
31
0
0
LINE
8
A-WALL
10
26.90473
20
19.31879
30
0
11
25.46918
21
19.31879
31
0
0
LINE
8
A-WALL
10
25.4197
20
19.31879
30
0
11
21.96984
21
19.31879
31
0
0
LINE
8
A-WALL
10
21.91905
20
19.31879
30
0
11
21.21984
21
19.31879
31
0
0
LINE
8
A-WALL
10
21.16905
20
19.31879
30
0
11
21.00694
21
19.31879
31
0
0
LINE
8
A-WALL
10
20.38194
20
19.31879
30
0
11
16.00694
21
19.31879
31
0
0
LINE
8
A-WALL
10
15.38194
20
19.31879
30
0
11
11.00694
21
19.31879
31
0
0
LINE
8
A-WALL
10
10.38194
20
19.31879
30
0
11
6.00694
21
19.31879
31
0
0
LINE
8
A-WALL
10
5.38194
20
19.31879
30
0
11
3.15734
21
19.31879
31
0
0
LINE
8
A-WALL
10
29.14822
20
19.3253
30
0
11
26.98416
21
19.3253
31
0
0
LINE
8
A-WALL
10
26.90473
20
19.3253
30
0
11
25.46918
21
19.3253
31
0
0
LINE
8
A-WALL
10
25.4197
20
19.3253
30
0
11
21.96984
21
19.3253
31
0
0
LINE
8
A-WALL
10
21.91905
20
19.3253
30
0
11
21.21984
21
19.3253
31
0
0
LINE
8
A-WALL
10
21.16905
20
19.3253
30
0
11
21.00694
21
19.3253
31
0
0
LINE
8
A-WALL
10
20.38194
20
19.3253
30
0
11
16.00694
21
19.3253
31
0
0
LINE
8
A-WALL
10
15.38194
20
19.3253
30
0
11
11.00694
21
19.3253
31
0
0
LINE
8
A-WALL
10
10.38194
20
19.3253
30
0
11
6.00694
21
19.3253
31
0
0
LINE
8
A-WALL
10
5.38194
20
19.3253
30
0
11
3.15734
21
19.3253
31
0
0
LINE
8
A-WALL
10
29.24067
20
19.3878
30
0
11
21.00694
21
19.3878
31
0
0
LINE
8
A-WALL
10
20.38194
20
19.3878
30
0
11
16.00694
21
19.3878
31
0
0
LINE
8
A-WALL
10
15.38194
20
19.3878
30
0
11
11.00694
21
19.3878
31
0
0
LINE
8
A-WALL
10
10.38194
20
19.3878
30
0
11
6.00694
21
19.3878
31
0
0
LINE
8
A-WALL
10
5.38194
20
19.3878
30
0
11
3.06489
21
19.3878
31
0
0
LINE
8
A-WALL
10
29.24067
20
19.40343
30
0
11
21.00694
21
19.40343
31
0
0
LINE
8
A-WALL
10
20.38194
20
19.40343
30
0
11
16.00694
21
19.40343
31
0
0
LINE
8
A-WALL
10
15.38194
20
19.40343
30
0
11
11.00694
21
19.40343
31
0
0
LINE
8
A-WALL
10
10.38194
20
19.40343
30
0
11
6.00694
21
19.40343
31
0
0
LINE
8
A-WALL
10
5.38194
20
19.40343
30
0
11
3.06489
21
19.40343
31
0
0
LINE
8
A-WALL
10
6.00694
20
19.31879
30
0
11
6.00694
21
19.40343
31
0
0
LINE
8
A-WALL
10
5.38194
20
19.31879
30
0
11
5.38194
21
19.40343
31
0
0
LINE
8
A-WALL
10
11.00694
20
19.31879
30
0
11
11.00694
21
19.40343
31
0
0
LINE
8
A-WALL
10
10.38194
20
19.31879
30
0
11
10.38194
21
19.40343
31
0
0
LINE
8
A-WALL
10
16.00694
20
19.31879
30
0
11
16.00694
21
19.40343
31
0
0
LINE
8
A-WALL
10
15.38194
20
19.31879
30
0
11
15.38194
21
19.40343
31
0
0
LINE
8
A-WALL
10
21.00694
20
19.31879
30
0
11
21.00694
21
19.40343
31
0
0
LINE
8
A-WALL
10
20.38194
20
19.31879
30
0
11
20.38194
21
19.40343
31
0
0
LINE
8
A-GLAZ
10
6.00694
20
19.40343
30
0
11
5.38194
21
19.40343
31
0
0
LINE
8
A-GLAZ
10
6.00694
20
19.36111
30
0
11
5.38194
21
19.36111
31
0
0
LINE
8
A-GLAZ
10
6.00694
20
19.31879
30
0
11
5.38194
21
19.31879
31
0
0
LINE
8
A-GLAZ
10
11.00694
20
19.40343
30
0
11
10.38194
21
19.40343
31
0
0
LINE
8
A-GLAZ
10
11.00694
20
19.36111
30
0
11
10.38194
21
19.36111
31
0
0
LINE
8
A-GLAZ
10
11.00694
20
19.31879
30
0
11
10.38194
21
19.31879
31
0
0
LINE
8
A-GLAZ
10
16.00694
20
19.40343
30
0
11
15.38194
21
19.40343
31
0
0
LINE
8
A-GLAZ
10
16.00694
20
19.36111
30
0
11
15.38194
21
19.36111
31
0
0
LINE
8
A-GLAZ
10
16.00694
20
19.31879
30
0
11
15.38194
21
19.31879
31
0
0
LINE
8
A-GLAZ
10
21.00694
20
19.40343
30
0
11
20.38194
21
19.40343
31
0
0
LINE
8
A-GLAZ
10
21.00694
20
19.36111
30
0
11
20.38194
21
19.36111
31
0
0
LINE
8
A-GLAZ
10
21.00694
20
19.31879
30
0
11
20.38194
21
19.31879
31
0
0
LINE
8
A-WALL
10
3.15734
20
19.31879
30
0
11
3.15734
21
16.55317
31
0
0
LINE
8
A-WALL
10
3.15734
20
16.50239
30
0
11
3.15734
21
13.55317
31
0
0
LINE
8
A-WALL
10
3.15734
20
13.50239
30
0
11
3.15734
21
12.80317
31
0
0
LINE
8
A-WALL
10
3.15734
20
12.75239
30
0
11
3.15734
21
7.74067
31
0
0
LINE
8
A-WALL
10
3.15082
20
19.31879
30
0
11
3.15082
21
16.55317
31
0
0
LINE
8
A-WALL
10
3.15082
20
16.50239
30
0
11
3.15082
21
13.55317
31
0
0
LINE
8
A-WALL
10
3.15082
20
13.50239
30
0
11
3.15082
21
12.80317
31
0
0
LINE
8
A-WALL
10
3.15082
20
12.75239
30
0
11
3.15082
21
7.74067
31
0
0
LINE
8
A-WALL
10
3.08832
20
19.40343
30
0
11
3.08832
21
7.64822
31
0
0
LINE
8
A-WALL
10
3.08181
20
19.40343
30
0
11
3.08181
21
7.64822
31
0
0
LINE
8
A-WALL
10
3.06489
20
19.40343
30
0
11
3.06489
21
7.64822
31
0
0
LINE
8
A-WALL
10
3.15734
20
12.80317
30
0
11
5.25694
21
12.80317
31
0
0
LINE
8
A-WALL
10
5.63194
20
12.80317
30
0
11
6.75694
21
12.80317
31
0
0
LINE
8
A-WALL
10
7.13194
20
12.80317
30
0
11
8.25694
21
12.80317
31
0
0
LINE
8
A-WALL
10
8.63194
20
12.80317
30
0
11
9.75694
21
12.80317
31
0
0
LINE
8
A-WALL
10
10.13194
20
12.80317
30
0
11
11.25694
21
12.80317
31
0
0
LINE
8
A-WALL
10
11.63194
20
12.80317
30
0
11
12.75694
21
12.80317
31
0
0
LINE
8
A-WALL
10
13.13194
20
12.80317
30
0
11
14.25694
21
12.80317
31
0
0
LINE
8
A-WALL
10
14.63194
20
12.80317
30
0
11
15.75694
21
12.80317
31
0
0
LINE
8
A-WALL
10
16.13194
20
12.80317
30
0
11
17.25694
21
12.80317
31
0
0
LINE
8
A-WALL
10
17.63194
20
12.80317
30
0
11
18.75694
21
12.80317
31
0
0
LINE
8
A-WALL
10
19.13194
20
12.80317
30
0
11
21.91905
21
12.80317
31
0
0
LINE
8
A-WALL
10
3.15734
20
12.75239
30
0
11
4.66905
21
12.75239
31
0
0
LINE
8
A-WALL
10
4.71984
20
12.75239
30
0
11
5.25694
21
12.75239
31
0
0
LINE
8
A-WALL
10
5.63194
20
12.75239
30
0
11
6.16905
21
12.75239
31
0
0
LINE
8
A-WALL
10
6.21984
20
12.75239
30
0
11
6.75694
21
12.75239
31
0
0
LINE
8
A-WALL
10
7.13194
20
12.75239
30
0
11
7.66905
21
12.75239
31
0
0
LINE
8
A-WALL
10
7.71984
20
12.75239
30
0
11
8.25694
21
12.75239
31
0
0
LINE
8
A-WALL
10
8.63194
20
12.75239
30
0
11
9.16905
21
12.75239
31
0
0
LINE
8
A-WALL
10
9.21984
20
12.75239
30
0
11
9.75694
21
12.75239
31
0
0
LINE
8
A-WALL
10
10.13194
20
12.75239
30
0
11
10.66905
21
12.75239
31
0
0
LINE
8
A-WALL
10
10.71984
20
12.75239
30
0
11
11.25694
21
12.75239
31
0
0
LINE
8
A-WALL
10
11.63194
20
12.75239
30
0
11
12.16905
21
12.75239
31
0
0
LINE
8
A-WALL
10
12.21984
20
12.75239
30
0
11
12.75694
21
12.75239
31
0
0
LINE
8
A-WALL
10
13.13194
20
12.75239
30
0
11
13.66905
21
12.75239
31
0
0
LINE
8
A-WALL
10
13.71984
20
12.75239
30
0
11
14.25694
21
12.75239
31
0
0
LINE
8
A-WALL
10
14.63194
20
12.75239
30
0
11
15.16905
21
12.75239
31
0
0
LINE
8
A-WALL
10
15.21984
20
12.75239
30
0
11
15.75694
21
12.75239
31
0
0
LINE
8
A-WALL
10
16.13194
20
12.75239
30
0
11
16.66905
21
12.75239
31
0
0
LINE
8
A-WALL
10
16.71984
20
12.75239
30
0
11
17.25694
21
12.75239
31
0
0
LINE
8
A-WALL
10
17.63194
20
12.75239
30
0
11
18.16905
21
12.75239
31
0
0
LINE
8
A-WALL
10
18.21984
20
12.75239
30
0
11
18.75694
21
12.75239
31
0
0
LINE
8
A-WALL
10
19.13194
20
12.75239
30
0
11
19.66905
21
12.75239
31
0
0
LINE
8
A-WALL
10
19.71984
20
12.75239
30
0
11
21.96984
21
12.75239
31
0
0
LINE
8
A-WALL
10
5.25694
20
12.80317
30
0
11
5.25694
21
12.75239
31
0
0
LINE
8
A-WALL
10
5.63194
20
12.80317
30
0
11
5.63194
21
12.75239
31
0
0
LINE
8
A-WALL
10
6.75694
20
12.80317
30
0
11
6.75694
21
12.75239
31
0
0
LINE
8
A-WALL
10
7.13194
20
12.80317
30
0
11
7.13194
21
12.75239
31
0
0
LINE
8
A-WALL
10
8.25694
20
12.80317
30
0
11
8.25694
21
12.75239
31
0
0
LINE
8
A-WALL
10
8.63194
20
12.80317
30
0
11
8.63194
21
12.75239
31
0
0
LINE
8
A-WALL
10
9.75694
20
12.80317
30
0
11
9.75694
21
12.75239
31
0
0
LINE
8
A-WALL
10
10.13194
20
12.80317
30
0
11
10.13194
21
12.75239
31
0
0
LINE
8
A-WALL
10
11.25694
20
12.80317
30
0
11
11.25694
21
12.75239
31
0
0
LINE
8
A-WALL
10
11.63194
20
12.80317
30
0
11
11.63194
21
12.75239
31
0
0
LINE
8
A-WALL
10
12.75694
20
12.80317
30
0
11
12.75694
21
12.75239
31
0
0
LINE
8
A-WALL
10
13.13194
20
12.80317
30
0
11
13.13194
21
12.75239
31
0
0
LINE
8
A-WALL
10
14.25694
20
12.80317
30
0
11
14.25694
21
12.75239
31
0
0
LINE
8
A-WALL
10
14.63194
20
12.80317
30
0
11
14.63194
21
12.75239
31
0
0
LINE
8
A-WALL
10
15.75694
20
12.80317
30
0
11
15.75694
21
12.75239
31
0
0
LINE
8
A-WALL
10
16.13194
20
12.80317
30
0
11
16.13194
21
12.75239
31
0
0
LINE
8
A-WALL
10
17.25694
20
12.80317
30
0
11
17.25694
21
12.75239
31
0
0
LINE
8
A-WALL
10
17.63194
20
12.80317
30
0
11
17.63194
21
12.75239
31
0
0
LINE
8
A-WALL
10
18.75694
20
12.80317
30
0
11
18.75694
21
12.75239
31
0
0
LINE
8
A-WALL
10
19.13194
20
12.80317
30
0
11
19.13194
21
12.75239
31
0
0
LINE
8
A-DOOR
10
5.25694
20
12.80317
30
0
11
5.25694
21
13.17817
31
0
0
LINE
8
A-DOOR
10
5.25694
20
13.17817
30
0
11
5.27517
21
13.17817
31
0
0
LINE
8
A-DOOR
10
5.27517
20
13.17817
30
0
11
5.27517
21
12.80317
31
0
0
LINE
8
A-DOOR
10
5.27517
20
12.80317
30
0
11
5.25694
21
12.80317
31
0
0
LINE
8
A-DOOR
10
5.63194
20
12.80317
30
0
11
5.62433
21
12.87874
31
0
0
LINE
8
A-DOOR
10
5.62433
20
12.87874
30
0
11
5.60248
21
12.94914
31
0
0
LINE
8
A-DOOR
10
5.60248
20
12.94914
30
0
11
5.5679
21
13.01283
31
0
0
LINE
8
A-DOOR
10
5.5679
20
13.01283
30
0
11
5.52211
21
13.06833
31
0
0
LINE
8
A-DOOR
10
5.52211
20
13.06833
30
0
11
5.46661
21
13.11412
31
0
0
LINE
8
A-DOOR
10
5.46661
20
13.11412
30
0
11
5.40291
21
13.1487
31
0
0
LINE
8
A-DOOR
10
5.40291
20
13.1487
30
0
11
5.33252
21
13.17055
31
0
0
LINE
8
A-DOOR
10
5.33252
20
13.17055
30
0
11
5.25694
21
13.17817
31
0
0
LINE
8
A-ANNO-SYMB
10
5.51389
20
12.47739
30
0
11
5.51248
21
12.49138
31
0
0
LINE
8
A-ANNO-SYMB
10
5.51248
20
12.49138
30
0
11
5.50843
21
12.50442
31
0
0
LINE
8
A-ANNO-SYMB
10
5.50843
20
12.50442
30
0
11
5.50203
21
12.51621
31
0
0
LINE
8
A-ANNO-SYMB
10
5.50203
20
12.51621
30
0
11
5.49355
21
12.52649
31
0
0
LINE
8
A-ANNO-SYMB
10
5.49355
20
12.52649
30
0
11
5.48327
21
12.53497
31
0
0
LINE
8
A-ANNO-SYMB
10
5.48327
20
12.53497
30
0
11
5.47148
21
12.54137
31
0
0
LINE
8
A-ANNO-SYMB
10
5.47148
20
12.54137
30
0
11
5.45844
21
12.54542
31
0
0
LINE
8
A-ANNO-SYMB
10
5.45844
20
12.54542
30
0
11
5.44444
21
12.54683
31
0
0
LINE
8
A-ANNO-SYMB
10
5.44444
20
12.54683
30
0
11
5.43045
21
12.54542
31
0
0
LINE
8
A-ANNO-SYMB
10
5.43045
20
12.54542
30
0
11
5.41741
21
12.54137
31
0
0
LINE
8
A-ANNO-SYMB
10
5.41741
20
12.54137
30
0
11
5.40562
21
12.53497
31
0
0
LINE
8
A-ANNO-SYMB
10
5.40562
20
12.53497
30
0
11
5.39534
21
12.52649
31
0
0
LINE
8
A-ANNO-SYMB
10
5.39534
20
12.52649
30
0
11
5.38686
21
12.51621
31
0
0
LINE
8
A-ANNO-SYMB
10
5.38686
20
12.51621
30
0
11
5.38046
21
12.50442
31
0
0
LINE
8
A-ANNO-SYMB
10
5.38046
20
12.50442
30
0
11
5.37641
21
12.49138
31
0
0
LINE
8
A-ANNO-SYMB
10
5.37641
20
12.49138
30
0
11
5.375
21
12.47739
31
0
0
LINE
8
A-ANNO-SYMB
10
5.375
20
12.47739
30
0
11
5.37641
21
12.46339
31
0
0
LINE
8
A-ANNO-SYMB
10
5.37641
20
12.46339
30
0
11
5.38046
21
12.45036
31
0
0
LINE
8
A-ANNO-SYMB
10
5.38046
20
12.45036
30
0
11
5.38686
21
12.43856
31
0
0
LINE
8
A-ANNO-SYMB
10
5.38686
20
12.43856
30
0
11
5.39534
21
12.42828
31
0
0
LINE
8
A-ANNO-SYMB
10
5.39534
20
12.42828
30
0
11
5.40562
21
12.4198
31
0
0
LINE
8
A-ANNO-SYMB
10
5.40562
20
12.4198
30
0
11
5.41741
21
12.4134
31
0
0
LINE
8
A-ANNO-SYMB
10
5.41741
20
12.4134
30
0
11
5.43045
21
12.40935
31
0
0
LINE
8
A-ANNO-SYMB
10
5.43045
20
12.40935
30
0
11
5.44444
21
12.40794
31
0
0
LINE
8
A-ANNO-SYMB
10
5.44444
20
12.40794
30
0
11
5.45844
21
12.40935
31
0
0
LINE
8
A-ANNO-SYMB
10
5.45844
20
12.40935
30
0
11
5.47148
21
12.4134
31
0
0
LINE
8
A-ANNO-SYMB
10
5.47148
20
12.4134
30
0
11
5.48327
21
12.4198
31
0
0
LINE
8
A-ANNO-SYMB
10
5.48327
20
12.4198
30
0
11
5.49355
21
12.42828
31
0
0
LINE
8
A-ANNO-SYMB
10
5.49355
20
12.42828
30
0
11
5.50203
21
12.43856
31
0
0
LINE
8
A-ANNO-SYMB
10
5.50203
20
12.43856
30
0
11
5.50843
21
12.45036
31
0
0
LINE
8
A-ANNO-SYMB
10
5.50843
20
12.45036
30
0
11
5.51248
21
12.46339
31
0
0
LINE
8
A-ANNO-SYMB
10
5.51248
20
12.46339
30
0
11
5.51389
21
12.47739
31
0
0
TEXT
8
A-ANNO-SYMB
10
5.44444
20
12.44961
30
0
40
0.05
1
210
50
0
72
1
11
5.44444
21
12.44961
31
0
0
LINE
8
A-DOOR
10
6.75694
20
12.80317
30
0
11
6.75694
21
13.17817
31
0
0
LINE
8
A-DOOR
10
6.75694
20
13.17817
30
0
11
6.77517
21
13.17817
31
0
0
LINE
8
A-DOOR
10
6.77517
20
13.17817
30
0
11
6.77517
21
12.80317
31
0
0
LINE
8
A-DOOR
10
6.77517
20
12.80317
30
0
11
6.75694
21
12.80317
31
0
0
LINE
8
A-DOOR
10
7.13194
20
12.80317
30
0
11
7.12433
21
12.87874
31
0
0
LINE
8
A-DOOR
10
7.12433
20
12.87874
30
0
11
7.10248
21
12.94914
31
0
0
LINE
8
A-DOOR
10
7.10248
20
12.94914
30
0
11
7.0679
21
13.01283
31
0
0
LINE
8
A-DOOR
10
7.0679
20
13.01283
30
0
11
7.02211
21
13.06833
31
0
0
LINE
8
A-DOOR
10
7.02211
20
13.06833
30
0
11
6.96661
21
13.11412
31
0
0
LINE
8
A-DOOR
10
6.96661
20
13.11412
30
0
11
6.90291
21
13.1487
31
0
0
LINE
8
A-DOOR
10
6.90291
20
13.1487
30
0
11
6.83252
21
13.17055
31
0
0
LINE
8
A-DOOR
10
6.83252
20
13.17055
30
0
11
6.75694
21
13.17817
31
0
0
LINE
8
A-ANNO-SYMB
10
7.01389
20
12.47739
30
0
11
7.01248
21
12.49138
31
0
0
LINE
8
A-ANNO-SYMB
10
7.01248
20
12.49138
30
0
11
7.00843
21
12.50442
31
0
0
LINE
8
A-ANNO-SYMB
10
7.00843
20
12.50442
30
0
11
7.00203
21
12.51621
31
0
0
LINE
8
A-ANNO-SYMB
10
7.00203
20
12.51621
30
0
11
6.99355
21
12.52649
31
0
0
LINE
8
A-ANNO-SYMB
10
6.99355
20
12.52649
30
0
11
6.98327
21
12.53497
31
0
0
LINE
8
A-ANNO-SYMB
10
6.98327
20
12.53497
30
0
11
6.97148
21
12.54137
31
0
0
LINE
8
A-ANNO-SYMB
10
6.97148
20
12.54137
30
0
11
6.95844
21
12.54542
31
0
0
LINE
8
A-ANNO-SYMB
10
6.95844
20
12.54542
30
0
11
6.94444
21
12.54683
31
0
0
LINE
8
A-ANNO-SYMB
10
6.94444
20
12.54683
30
0
11
6.93045
21
12.54542
31
0
0
LINE
8
A-ANNO-SYMB
10
6.93045
20
12.54542
30
0
11
6.91741
21
12.54137
31
0
0
LINE
8
A-ANNO-SYMB
10
6.91741
20
12.54137
30
0
11
6.90562
21
12.53497
31
0
0
LINE
8
A-ANNO-SYMB
10
6.90562
20
12.53497
30
0
11
6.89534
21
12.52649
31
0
0
LINE
8
A-ANNO-SYMB
10
6.89534
20
12.52649
30
0
11
6.88686
21
12.51621
31
0
0
LINE
8
A-ANNO-SYMB
10
6.88686
20
12.51621
30
0
11
6.88046
21
12.50442
31
0
0
LINE
8
A-ANNO-SYMB
10
6.88046
20
12.50442
30
0
11
6.87641
21
12.49138
31
0
0
LINE
8
A-ANNO-SYMB
10
6.87641
20
12.49138
30
0
11
6.875
21
12.47739
31
0
0
LINE
8
A-ANNO-SYMB
10
6.875
20
12.47739
30
0
11
6.87641
21
12.46339
31
0
0
LINE
8
A-ANNO-SYMB
10
6.87641
20
12.46339
30
0
11
6.88046
21
12.45036
31
0
0
LINE
8
A-ANNO-SYMB
10
6.88046
20
12.45036
30
0
11
6.88686
21
12.43856
31
0
0
LINE
8
A-ANNO-SYMB
10
6.88686
20
12.43856
30
0
11
6.89534
21
12.42828
31
0
0
LINE
8
A-ANNO-SYMB
10
6.89534
20
12.42828
30
0
11
6.90562
21
12.4198
31
0
0
LINE
8
A-ANNO-SYMB
10
6.90562
20
12.4198
30
0
11
6.91741
21
12.4134
31
0
0
LINE
8
A-ANNO-SYMB
10
6.91741
20
12.4134
30
0
11
6.93045
21
12.40935
31
0
0
LINE
8
A-ANNO-SYMB
10
6.93045
20
12.40935
30
0
11
6.94444
21
12.40794
31
0
0
LINE
8
A-ANNO-SYMB
10
6.94444
20
12.40794
30
0
11
6.95844
21
12.40935
31
0
0
LINE
8
A-ANNO-SYMB
10
6.95844
20
12.40935
30
0
11
6.97148
21
12.4134
31
0
0
LINE
8
A-ANNO-SYMB
10
6.97148
20
12.4134
30
0
11
6.98327
21
12.4198
31
0
0
LINE
8
A-ANNO-SYMB
10
6.98327
20
12.4198
30
0
11
6.99355
21
12.42828
31
0
0
LINE
8
A-ANNO-SYMB
10
6.99355
20
12.42828
30
0
11
7.00203
21
12.43856
31
0
0
LINE
8
A-ANNO-SYMB
10
7.00203
20
12.43856
30
0
11
7.00843
21
12.45036
31
0
0
LINE
8
A-ANNO-SYMB
10
7.00843
20
12.45036
30
0
11
7.01248
21
12.46339
31
0
0
LINE
8
A-ANNO-SYMB
10
7.01248
20
12.46339
30
0
11
7.01389
21
12.47739
31
0
0
TEXT
8
A-ANNO-SYMB
10
6.94444
20
12.44961
30
0
40
0.05
1
211
50
0
72
1
11
6.94444
21
12.44961
31
0
0
LINE
8
A-DOOR
10
8.25694
20
12.80317
30
0
11
8.25694
21
13.17817
31
0
0
LINE
8
A-DOOR
10
8.25694
20
13.17817
30
0
11
8.27517
21
13.17817
31
0
0
LINE
8
A-DOOR
10
8.27517
20
13.17817
30
0
11
8.27517
21
12.80317
31
0
0
LINE
8
A-DOOR
10
8.27517
20
12.80317
30
0
11
8.25694
21
12.80317
31
0
0
LINE
8
A-DOOR
10
8.63194
20
12.80317
30
0
11
8.62433
21
12.87874
31
0
0
LINE
8
A-DOOR
10
8.62433
20
12.87874
30
0
11
8.60248
21
12.94914
31
0
0
LINE
8
A-DOOR
10
8.60248
20
12.94914
30
0
11
8.5679
21
13.01283
31
0
0
LINE
8
A-DOOR
10
8.5679
20
13.01283
30
0
11
8.52211
21
13.06833
31
0
0
LINE
8
A-DOOR
10
8.52211
20
13.06833
30
0
11
8.46661
21
13.11412
31
0
0
LINE
8
A-DOOR
10
8.46661
20
13.11412
30
0
11
8.40291
21
13.1487
31
0
0
LINE
8
A-DOOR
10
8.40291
20
13.1487
30
0
11
8.33252
21
13.17055
31
0
0
LINE
8
A-DOOR
10
8.33252
20
13.17055
30
0
11
8.25694
21
13.17817
31
0
0
LINE
8
A-ANNO-SYMB
10
8.51389
20
12.47739
30
0
11
8.51248
21
12.49138
31
0
0
LINE
8
A-ANNO-SYMB
10
8.51248
20
12.49138
30
0
11
8.50843
21
12.50442
31
0
0
LINE
8
A-ANNO-SYMB
10
8.50843
20
12.50442
30
0
11
8.50203
21
12.51621
31
0
0
LINE
8
A-ANNO-SYMB
10
8.50203
20
12.51621
30
0
11
8.49355
21
12.52649
31
0
0
LINE
8
A-ANNO-SYMB
10
8.49355
20
12.52649
30
0
11
8.48327
21
12.53497
31
0
0
LINE
8
A-ANNO-SYMB
10
8.48327
20
12.53497
30
0
11
8.47148
21
12.54137
31
0
0
LINE
8
A-ANNO-SYMB
10
8.47148
20
12.54137
30
0
11
8.45844
21
12.54542
31
0
0
LINE
8
A-ANNO-SYMB
10
8.45844
20
12.54542
30
0
11
8.44444
21
12.54683
31
0
0
LINE
8
A-ANNO-SYMB
10
8.44444
20
12.54683
30
0
11
8.43045
21
12.54542
31
0
0
LINE
8
A-ANNO-SYMB
10
8.43045
20
12.54542
30
0
11
8.41741
21
12.54137
31
0
0
LINE
8
A-ANNO-SYMB
10
8.41741
20
12.54137
30
0
11
8.40562
21
12.53497
31
0
0
LINE
8
A-ANNO-SYMB
10
8.40562
20
12.53497
30
0
11
8.39534
21
12.52649
31
0
0
LINE
8
A-ANNO-SYMB
10
8.39534
20
12.52649
30
0
11
8.38686
21
12.51621
31
0
0
LINE
8
A-ANNO-SYMB
10
8.38686
20
12.51621
30
0
11
8.38046
21
12.50442
31
0
0
LINE
8
A-ANNO-SYMB
10
8.38046
20
12.50442
30
0
11
8.37641
21
12.49138
31
0
0
LINE
8
A-ANNO-SYMB
10
8.37641
20
12.49138
30
0
11
8.375
21
12.47739
31
0
0
LINE
8
A-ANNO-SYMB
10
8.375
20
12.47739
30
0
11
8.37641
21
12.46339
31
0
0
LINE
8
A-ANNO-SYMB
10
8.37641
20
12.46339
30
0
11
8.38046
21
12.45036
31
0
0
LINE
8
A-ANNO-SYMB
10
8.38046
20
12.45036
30
0
11
8.38686
21
12.43856
31
0
0
LINE
8
A-ANNO-SYMB
10
8.38686
20
12.43856
30
0
11
8.39534
21
12.42828
31
0
0
LINE
8
A-ANNO-SYMB
10
8.39534
20
12.42828
30
0
11
8.40562
21
12.4198
31
0
0
LINE
8
A-ANNO-SYMB
10
8.40562
20
12.4198
30
0
11
8.41741
21
12.4134
31
0
0
LINE
8
A-ANNO-SYMB
10
8.41741
20
12.4134
30
0
11
8.43045
21
12.40935
31
0
0
LINE
8
A-ANNO-SYMB
10
8.43045
20
12.40935
30
0
11
8.44444
21
12.40794
31
0
0
LINE
8
A-ANNO-SYMB
10
8.44444
20
12.40794
30
0
11
8.45844
21
12.40935
31
0
0
LINE
8
A-ANNO-SYMB
10
8.45844
20
12.40935
30
0
11
8.47148
21
12.4134
31
0
0
LINE
8
A-ANNO-SYMB
10
8.47148
20
12.4134
30
0
11
8.48327
21
12.4198
31
0
0
LINE
8
A-ANNO-SYMB
10
8.48327
20
12.4198
30
0
11
8.49355
21
12.42828
31
0
0
LINE
8
A-ANNO-SYMB
10
8.49355
20
12.42828
30
0
11
8.50203
21
12.43856
31
0
0
LINE
8
A-ANNO-SYMB
10
8.50203
20
12.43856
30
0
11
8.50843
21
12.45036
31
0
0
LINE
8
A-ANNO-SYMB
10
8.50843
20
12.45036
30
0
11
8.51248
21
12.46339
31
0
0
LINE
8
A-ANNO-SYMB
10
8.51248
20
12.46339
30
0
11
8.51389
21
12.47739
31
0
0
TEXT
8
A-ANNO-SYMB
10
8.44444
20
12.44961
30
0
40
0.05
1
212
50
0
72
1
11
8.44444
21
12.44961
31
0
0
LINE
8
A-DOOR
10
9.75694
20
12.80317
30
0
11
9.75694
21
13.17817
31
0
0
LINE
8
A-DOOR
10
9.75694
20
13.17817
30
0
11
9.77517
21
13.17817
31
0
0
LINE
8
A-DOOR
10
9.77517
20
13.17817
30
0
11
9.77517
21
12.80317
31
0
0
LINE
8
A-DOOR
10
9.77517
20
12.80317
30
0
11
9.75694
21
12.80317
31
0
0
LINE
8
A-DOOR
10
10.13194
20
12.80317
30
0
11
10.12433
21
12.87874
31
0
0
LINE
8
A-DOOR
10
10.12433
20
12.87874
30
0
11
10.10248
21
12.94914
31
0
0
LINE
8
A-DOOR
10
10.10248
20
12.94914
30
0
11
10.0679
21
13.01283
31
0
0
LINE
8
A-DOOR
10
10.0679
20
13.01283
30
0
11
10.02211
21
13.06833
31
0
0
LINE
8
A-DOOR
10
10.02211
20
13.06833
30
0
11
9.96661
21
13.11412
31
0
0
LINE
8
A-DOOR
10
9.96661
20
13.11412
30
0
11
9.90291
21
13.1487
31
0
0
LINE
8
A-DOOR
10
9.90291
20
13.1487
30
0
11
9.83252
21
13.17055
31
0
0
LINE
8
A-DOOR
10
9.83252
20
13.17055
30
0
11
9.75694
21
13.17817
31
0
0
LINE
8
A-ANNO-SYMB
10
10.01389
20
12.47739
30
0
11
10.01248
21
12.49138
31
0
0
LINE
8
A-ANNO-SYMB
10
10.01248
20
12.49138
30
0
11
10.00843
21
12.50442
31
0
0
LINE
8
A-ANNO-SYMB
10
10.00843
20
12.50442
30
0
11
10.00203
21
12.51621
31
0
0
LINE
8
A-ANNO-SYMB
10
10.00203
20
12.51621
30
0
11
9.99355
21
12.52649
31
0
0
LINE
8
A-ANNO-SYMB
10
9.99355
20
12.52649
30
0
11
9.98327
21
12.53497
31
0
0
LINE
8
A-ANNO-SYMB
10
9.98327
20
12.53497
30
0
11
9.97148
21
12.54137
31
0
0
LINE
8
A-ANNO-SYMB
10
9.97148
20
12.54137
30
0
11
9.95844
21
12.54542
31
0
0
LINE
8
A-ANNO-SYMB
10
9.95844
20
12.54542
30
0
11
9.94444
21
12.54683
31
0
0
LINE
8
A-ANNO-SYMB
10
9.94444
20
12.54683
30
0
11
9.93045
21
12.54542
31
0
0
LINE
8
A-ANNO-SYMB
10
9.93045
20
12.54542
30
0
11
9.91741
21
12.54137
31
0
0
LINE
8
A-ANNO-SYMB
10
9.91741
20
12.54137
30
0
11
9.90562
21
12.53497
31
0
0
LINE
8
A-ANNO-SYMB
10
9.90562
20
12.53497
30
0
11
9.89534
21
12.52649
31
0
0
LINE
8
A-ANNO-SYMB
10
9.89534
20
12.52649
30
0
11
9.88686
21
12.51621
31
0
0
LINE
8
A-ANNO-SYMB
10
9.88686
20
12.51621
30
0
11
9.88046
21
12.50442
31
0
0
LINE
8
A-ANNO-SYMB
10
9.88046
20
12.50442
30
0
11
9.87641
21
12.49138
31
0
0
LINE
8
A-ANNO-SYMB
10
9.87641
20
12.49138
30
0
11
9.875
21
12.47739
31
0
0
LINE
8
A-ANNO-SYMB
10
9.875
20
12.47739
30
0
11
9.87641
21
12.46339
31
0
0
LINE
8
A-ANNO-SYMB
10
9.87641
20
12.46339
30
0
11
9.88046
21
12.45036
31
0
0
LINE
8
A-ANNO-SYMB
10
9.88046
20
12.45036
30
0
11
9.88686
21
12.43856
31
0
0
LINE
8
A-ANNO-SYMB
10
9.88686
20
12.43856
30
0
11
9.89534
21
12.42828
31
0
0
LINE
8
A-ANNO-SYMB
10
9.89534
20
12.42828
30
0
11
9.90562
21
12.4198
31
0
0
LINE
8
A-ANNO-SYMB
10
9.90562
20
12.4198
30
0
11
9.91741
21
12.4134
31
0
0
LINE
8
A-ANNO-SYMB
10
9.91741
20
12.4134
30
0
11
9.93045
21
12.40935
31
0
0
LINE
8
A-ANNO-SYMB
10
9.93045
20
12.40935
30
0
11
9.94444
21
12.40794
31
0
0
LINE
8
A-ANNO-SYMB
10
9.94444
20
12.40794
30
0
11
9.95844
21
12.40935
31
0
0
LINE
8
A-ANNO-SYMB
10
9.95844
20
12.40935
30
0
11
9.97148
21
12.4134
31
0
0
LINE
8
A-ANNO-SYMB
10
9.97148
20
12.4134
30
0
11
9.98327
21
12.4198
31
0
0
LINE
8
A-ANNO-SYMB
10
9.98327
20
12.4198
30
0
11
9.99355
21
12.42828
31
0
0
LINE
8
A-ANNO-SYMB
10
9.99355
20
12.42828
30
0
11
10.00203
21
12.43856
31
0
0
LINE
8
A-ANNO-SYMB
10
10.00203
20
12.43856
30
0
11
10.00843
21
12.45036
31
0
0
LINE
8
A-ANNO-SYMB
10
10.00843
20
12.45036
30
0
11
10.01248
21
12.46339
31
0
0
LINE
8
A-ANNO-SYMB
10
10.01248
20
12.46339
30
0
11
10.01389
21
12.47739
31
0
0
TEXT
8
A-ANNO-SYMB
10
9.94444
20
12.44961
30
0
40
0.05
1
213
50
0
72
1
11
9.94444
21
12.44961
31
0
0
LINE
8
A-DOOR
10
11.25694
20
12.80317
30
0
11
11.25694
21
13.17817
31
0
0
LINE
8
A-DOOR
10
11.25694
20
13.17817
30
0
11
11.27517
21
13.17817
31
0
0
LINE
8
A-DOOR
10
11.27517
20
13.17817
30
0
11
11.27517
21
12.80317
31
0
0
LINE
8
A-DOOR
10
11.27517
20
12.80317
30
0
11
11.25694
21
12.80317
31
0
0
LINE
8
A-DOOR
10
11.63194
20
12.80317
30
0
11
11.62433
21
12.87874
31
0
0
LINE
8
A-DOOR
10
11.62433
20
12.87874
30
0
11
11.60248
21
12.94914
31
0
0
LINE
8
A-DOOR
10
11.60248
20
12.94914
30
0
11
11.5679
21
13.01283
31
0
0
LINE
8
A-DOOR
10
11.5679
20
13.01283
30
0
11
11.52211
21
13.06833
31
0
0
LINE
8
A-DOOR
10
11.52211
20
13.06833
30
0
11
11.46661
21
13.11412
31
0
0
LINE
8
A-DOOR
10
11.46661
20
13.11412
30
0
11
11.40291
21
13.1487
31
0
0
LINE
8
A-DOOR
10
11.40291
20
13.1487
30
0
11
11.33252
21
13.17055
31
0
0
LINE
8
A-DOOR
10
11.33252
20
13.17055
30
0
11
11.25694
21
13.17817
31
0
0
LINE
8
A-ANNO-SYMB
10
11.51389
20
12.47739
30
0
11
11.51248
21
12.49138
31
0
0
LINE
8
A-ANNO-SYMB
10
11.51248
20
12.49138
30
0
11
11.50843
21
12.50442
31
0
0
LINE
8
A-ANNO-SYMB
10
11.50843
20
12.50442
30
0
11
11.50203
21
12.51621
31
0
0
LINE
8
A-ANNO-SYMB
10
11.50203
20
12.51621
30
0
11
11.49355
21
12.52649
31
0
0
LINE
8
A-ANNO-SYMB
10
11.49355
20
12.52649
30
0
11
11.48327
21
12.53497
31
0
0
LINE
8
A-ANNO-SYMB
10
11.48327
20
12.53497
30
0
11
11.47148
21
12.54137
31
0
0
LINE
8
A-ANNO-SYMB
10
11.47148
20
12.54137
30
0
11
11.45844
21
12.54542
31
0
0
LINE
8
A-ANNO-SYMB
10
11.45844
20
12.54542
30
0
11
11.44444
21
12.54683
31
0
0
LINE
8
A-ANNO-SYMB
10
11.44444
20
12.54683
30
0
11
11.43045
21
12.54542
31
0
0
LINE
8
A-ANNO-SYMB
10
11.43045
20
12.54542
30
0
11
11.41741
21
12.54137
31
0
0
LINE
8
A-ANNO-SYMB
10
11.41741
20
12.54137
30
0
11
11.40562
21
12.53497
31
0
0
LINE
8
A-ANNO-SYMB
10
11.40562
20
12.53497
30
0
11
11.39534
21
12.52649
31
0
0
LINE
8
A-ANNO-SYMB
10
11.39534
20
12.52649
30
0
11
11.38686
21
12.51621
31
0
0
LINE
8
A-ANNO-SYMB
10
11.38686
20
12.51621
30
0
11
11.38046
21
12.50442
31
0
0
LINE
8
A-ANNO-SYMB
10
11.38046
20
12.50442
30
0
11
11.37641
21
12.49138
31
0
0
LINE
8
A-ANNO-SYMB
10
11.37641
20
12.49138
30
0
11
11.375
21
12.47739
31
0
0
LINE
8
A-ANNO-SYMB
10
11.375
20
12.47739
30
0
11
11.37641
21
12.46339
31
0
0
LINE
8
A-ANNO-SYMB
10
11.37641
20
12.46339
30
0
11
11.38046
21
12.45036
31
0
0
LINE
8
A-ANNO-SYMB
10
11.38046
20
12.45036
30
0
11
11.38686
21
12.43856
31
0
0
LINE
8
A-ANNO-SYMB
10
11.38686
20
12.43856
30
0
11
11.39534
21
12.42828
31
0
0
LINE
8
A-ANNO-SYMB
10
11.39534
20
12.42828
30
0
11
11.40562
21
12.4198
31
0
0
LINE
8
A-ANNO-SYMB
10
11.40562
20
12.4198
30
0
11
11.41741
21
12.4134
31
0
0
LINE
8
A-ANNO-SYMB
10
11.41741
20
12.4134
30
0
11
11.43045
21
12.40935
31
0
0
LINE
8
A-ANNO-SYMB
10
11.43045
20
12.40935
30
0
11
11.44444
21
12.40794
31
0
0
LINE
8
A-ANNO-SYMB
10
11.44444
20
12.40794
30
0
11
11.45844
21
12.40935
31
0
0
LINE
8
A-ANNO-SYMB
10
11.45844
20
12.40935
30
0
11
11.47148
21
12.4134
31
0
0
LINE
8
A-ANNO-SYMB
10
11.47148
20
12.4134
30
0
11
11.48327
21
12.4198
31
0
0
LINE
8
A-ANNO-SYMB
10
11.48327
20
12.4198
30
0
11
11.49355
21
12.42828
31
0
0
LINE
8
A-ANNO-SYMB
10
11.49355
20
12.42828
30
0
11
11.50203
21
12.43856
31
0
0
LINE
8
A-ANNO-SYMB
10
11.50203
20
12.43856
30
0
11
11.50843
21
12.45036
31
0
0
LINE
8
A-ANNO-SYMB
10
11.50843
20
12.45036
30
0
11
11.51248
21
12.46339
31
0
0
LINE
8
A-ANNO-SYMB
10
11.51248
20
12.46339
30
0
11
11.51389
21
12.47739
31
0
0
TEXT
8
A-ANNO-SYMB
10
11.44444
20
12.44961
30
0
40
0.05
1
214
50
0
72
1
11
11.44444
21
12.44961
31
0
0
LINE
8
A-DOOR
10
12.75694
20
12.80317
30
0
11
12.75694
21
13.17817
31
0
0
LINE
8
A-DOOR
10
12.75694
20
13.17817
30
0
11
12.77517
21
13.17817
31
0
0
LINE
8
A-DOOR
10
12.77517
20
13.17817
30
0
11
12.77517
21
12.80317
31
0
0
LINE
8
A-DOOR
10
12.77517
20
12.80317
30
0
11
12.75694
21
12.80317
31
0
0
LINE
8
A-DOOR
10
13.13194
20
12.80317
30
0
11
13.12433
21
12.87874
31
0
0
LINE
8
A-DOOR
10
13.12433
20
12.87874
30
0
11
13.10248
21
12.94914
31
0
0
LINE
8
A-DOOR
10
13.10248
20
12.94914
30
0
11
13.0679
21
13.01283
31
0
0
LINE
8
A-DOOR
10
13.0679
20
13.01283
30
0
11
13.02211
21
13.06833
31
0
0
LINE
8
A-DOOR
10
13.02211
20
13.06833
30
0
11
12.96661
21
13.11412
31
0
0
LINE
8
A-DOOR
10
12.96661
20
13.11412
30
0
11
12.90291
21
13.1487
31
0
0
LINE
8
A-DOOR
10
12.90291
20
13.1487
30
0
11
12.83252
21
13.17055
31
0
0
LINE
8
A-DOOR
10
12.83252
20
13.17055
30
0
11
12.75694
21
13.17817
31
0
0
LINE
8
A-ANNO-SYMB
10
13.01389
20
12.47739
30
0
11
13.01248
21
12.49138
31
0
0
LINE
8
A-ANNO-SYMB
10
13.01248
20
12.49138
30
0
11
13.00843
21
12.50442
31
0
0
LINE
8
A-ANNO-SYMB
10
13.00843
20
12.50442
30
0
11
13.00203
21
12.51621
31
0
0
LINE
8
A-ANNO-SYMB
10
13.00203
20
12.51621
30
0
11
12.99355
21
12.52649
31
0
0
LINE
8
A-ANNO-SYMB
10
12.99355
20
12.52649
30
0
11
12.98327
21
12.53497
31
0
0
LINE
8
A-ANNO-SYMB
10
12.98327
20
12.53497
30
0
11
12.97148
21
12.54137
31
0
0
LINE
8
A-ANNO-SYMB
10
12.97148
20
12.54137
30
0
11
12.95844
21
12.54542
31
0
0
LINE
8
A-ANNO-SYMB
10
12.95844
20
12.54542
30
0
11
12.94444
21
12.54683
31
0
0
LINE
8
A-ANNO-SYMB
10
12.94444
20
12.54683
30
0
11
12.93045
21
12.54542
31
0
0
LINE
8
A-ANNO-SYMB
10
12.93045
20
12.54542
30
0
11
12.91741
21
12.54137
31
0
0
LINE
8
A-ANNO-SYMB
10
12.91741
20
12.54137
30
0
11
12.90562
21
12.53497
31
0
0
LINE
8
A-ANNO-SYMB
10
12.90562
20
12.53497
30
0
11
12.89534
21
12.52649
31
0
0
LINE
8
A-ANNO-SYMB
10
12.89534
20
12.52649
30
0
11
12.88686
21
12.51621
31
0
0
LINE
8
A-ANNO-SYMB
10
12.88686
20
12.51621
30
0
11
12.88046
21
12.50442
31
0
0
LINE
8
A-ANNO-SYMB
10
12.88046
20
12.50442
30
0
11
12.87641
21
12.49138
31
0
0
LINE
8
A-ANNO-SYMB
10
12.87641
20
12.49138
30
0
11
12.875
21
12.47739
31
0
0
LINE
8
A-ANNO-SYMB
10
12.875
20
12.47739
30
0
11
12.87641
21
12.46339
31
0
0
LINE
8
A-ANNO-SYMB
10
12.87641
20
12.46339
30
0
11
12.88046
21
12.45036
31
0
0
LINE
8
A-ANNO-SYMB
10
12.88046
20
12.45036
30
0
11
12.88686
21
12.43856
31
0
0
LINE
8
A-ANNO-SYMB
10
12.88686
20
12.43856
30
0
11
12.89534
21
12.42828
31
0
0
LINE
8
A-ANNO-SYMB
10
12.89534
20
12.42828
30
0
11
12.90562
21
12.4198
31
0
0
LINE
8
A-ANNO-SYMB
10
12.90562
20
12.4198
30
0
11
12.91741
21
12.4134
31
0
0
LINE
8
A-ANNO-SYMB
10
12.91741
20
12.4134
30
0
11
12.93045
21
12.40935
31
0
0
LINE
8
A-ANNO-SYMB
10
12.93045
20
12.40935
30
0
11
12.94444
21
12.40794
31
0
0
LINE
8
A-ANNO-SYMB
10
12.94444
20
12.40794
30
0
11
12.95844
21
12.40935
31
0
0
LINE
8
A-ANNO-SYMB
10
12.95844
20
12.40935
30
0
11
12.97148
21
12.4134
31
0
0
LINE
8
A-ANNO-SYMB
10
12.97148
20
12.4134
30
0
11
12.98327
21
12.4198
31
0
0
LINE
8
A-ANNO-SYMB
10
12.98327
20
12.4198
30
0
11
12.99355
21
12.42828
31
0
0
LINE
8
A-ANNO-SYMB
10
12.99355
20
12.42828
30
0
11
13.00203
21
12.43856
31
0
0
LINE
8
A-ANNO-SYMB
10
13.00203
20
12.43856
30
0
11
13.00843
21
12.45036
31
0
0
LINE
8
A-ANNO-SYMB
10
13.00843
20
12.45036
30
0
11
13.01248
21
12.46339
31
0
0
LINE
8
A-ANNO-SYMB
10
13.01248
20
12.46339
30
0
11
13.01389
21
12.47739
31
0
0
TEXT
8
A-ANNO-SYMB
10
12.94444
20
12.44961
30
0
40
0.05
1
215
50
0
72
1
11
12.94444
21
12.44961
31
0
0
LINE
8
A-DOOR
10
14.25694
20
12.80317
30
0
11
14.25694
21
13.17817
31
0
0
LINE
8
A-DOOR
10
14.25694
20
13.17817
30
0
11
14.27517
21
13.17817
31
0
0
LINE
8
A-DOOR
10
14.27517
20
13.17817
30
0
11
14.27517
21
12.80317
31
0
0
LINE
8
A-DOOR
10
14.27517
20
12.80317
30
0
11
14.25694
21
12.80317
31
0
0
LINE
8
A-DOOR
10
14.63194
20
12.80317
30
0
11
14.62433
21
12.87874
31
0
0
LINE
8
A-DOOR
10
14.62433
20
12.87874
30
0
11
14.60248
21
12.94914
31
0
0
LINE
8
A-DOOR
10
14.60248
20
12.94914
30
0
11
14.5679
21
13.01283
31
0
0
LINE
8
A-DOOR
10
14.5679
20
13.01283
30
0
11
14.52211
21
13.06833
31
0
0
LINE
8
A-DOOR
10
14.52211
20
13.06833
30
0
11
14.46661
21
13.11412
31
0
0
LINE
8
A-DOOR
10
14.46661
20
13.11412
30
0
11
14.40291
21
13.1487
31
0
0
LINE
8
A-DOOR
10
14.40291
20
13.1487
30
0
11
14.33252
21
13.17055
31
0
0
LINE
8
A-DOOR
10
14.33252
20
13.17055
30
0
11
14.25694
21
13.17817
31
0
0
LINE
8
A-ANNO-SYMB
10
14.51389
20
12.47739
30
0
11
14.51248
21
12.49138
31
0
0
LINE
8
A-ANNO-SYMB
10
14.51248
20
12.49138
30
0
11
14.50843
21
12.50442
31
0
0
LINE
8
A-ANNO-SYMB
10
14.50843
20
12.50442
30
0
11
14.50203
21
12.51621
31
0
0
LINE
8
A-ANNO-SYMB
10
14.50203
20
12.51621
30
0
11
14.49355
21
12.52649
31
0
0
LINE
8
A-ANNO-SYMB
10
14.49355
20
12.52649
30
0
11
14.48327
21
12.53497
31
0
0
LINE
8
A-ANNO-SYMB
10
14.48327
20
12.53497
30
0
11
14.47148
21
12.54137
31
0
0
LINE
8
A-ANNO-SYMB
10
14.47148
20
12.54137
30
0
11
14.45844
21
12.54542
31
0
0
LINE
8
A-ANNO-SYMB
10
14.45844
20
12.54542
30
0
11
14.44444
21
12.54683
31
0
0
LINE
8
A-ANNO-SYMB
10
14.44444
20
12.54683
30
0
11
14.43045
21
12.54542
31
0
0
LINE
8
A-ANNO-SYMB
10
14.43045
20
12.54542
30
0
11
14.41741
21
12.54137
31
0
0
LINE
8
A-ANNO-SYMB
10
14.41741
20
12.54137
30
0
11
14.40562
21
12.53497
31
0
0
LINE
8
A-ANNO-SYMB
10
14.40562
20
12.53497
30
0
11
14.39534
21
12.52649
31
0
0
LINE
8
A-ANNO-SYMB
10
14.39534
20
12.52649
30
0
11
14.38686
21
12.51621
31
0
0
LINE
8
A-ANNO-SYMB
10
14.38686
20
12.51621
30
0
11
14.38046
21
12.50442
31
0
0
LINE
8
A-ANNO-SYMB
10
14.38046
20
12.50442
30
0
11
14.37641
21
12.49138
31
0
0
LINE
8
A-ANNO-SYMB
10
14.37641
20
12.49138
30
0
11
14.375
21
12.47739
31
0
0
LINE
8
A-ANNO-SYMB
10
14.375
20
12.47739
30
0
11
14.37641
21
12.46339
31
0
0
LINE
8
A-ANNO-SYMB
10
14.37641
20
12.46339
30
0
11
14.38046
21
12.45036
31
0
0
LINE
8
A-ANNO-SYMB
10
14.38046
20
12.45036
30
0
11
14.38686
21
12.43856
31
0
0
LINE
8
A-ANNO-SYMB
10
14.38686
20
12.43856
30
0
11
14.39534
21
12.42828
31
0
0
LINE
8
A-ANNO-SYMB
10
14.39534
20
12.42828
30
0
11
14.40562
21
12.4198
31
0
0
LINE
8
A-ANNO-SYMB
10
14.40562
20
12.4198
30
0
11
14.41741
21
12.4134
31
0
0
LINE
8
A-ANNO-SYMB
10
14.41741
20
12.4134
30
0
11
14.43045
21
12.40935
31
0
0
LINE
8
A-ANNO-SYMB
10
14.43045
20
12.40935
30
0
11
14.44444
21
12.40794
31
0
0
LINE
8
A-ANNO-SYMB
10
14.44444
20
12.40794
30
0
11
14.45844
21
12.40935
31
0
0
LINE
8
A-ANNO-SYMB
10
14.45844
20
12.40935
30
0
11
14.47148
21
12.4134
31
0
0
LINE
8
A-ANNO-SYMB
10
14.47148
20
12.4134
30
0
11
14.48327
21
12.4198
31
0
0
LINE
8
A-ANNO-SYMB
10
14.48327
20
12.4198
30
0
11
14.49355
21
12.42828
31
0
0
LINE
8
A-ANNO-SYMB
10
14.49355
20
12.42828
30
0
11
14.50203
21
12.43856
31
0
0
LINE
8
A-ANNO-SYMB
10
14.50203
20
12.43856
30
0
11
14.50843
21
12.45036
31
0
0
LINE
8
A-ANNO-SYMB
10
14.50843
20
12.45036
30
0
11
14.51248
21
12.46339
31
0
0
LINE
8
A-ANNO-SYMB
10
14.51248
20
12.46339
30
0
11
14.51389
21
12.47739
31
0
0
TEXT
8
A-ANNO-SYMB
10
14.44444
20
12.44961
30
0
40
0.05
1
216
50
0
72
1
11
14.44444
21
12.44961
31
0
0
LINE
8
A-DOOR
10
15.75694
20
12.80317
30
0
11
15.75694
21
13.17817
31
0
0
LINE
8
A-DOOR
10
15.75694
20
13.17817
30
0
11
15.77517
21
13.17817
31
0
0
LINE
8
A-DOOR
10
15.77517
20
13.17817
30
0
11
15.77517
21
12.80317
31
0
0
LINE
8
A-DOOR
10
15.77517
20
12.80317
30
0
11
15.75694
21
12.80317
31
0
0
LINE
8
A-DOOR
10
16.13194
20
12.80317
30
0
11
16.12433
21
12.87874
31
0
0
LINE
8
A-DOOR
10
16.12433
20
12.87874
30
0
11
16.10248
21
12.94914
31
0
0
LINE
8
A-DOOR
10
16.10248
20
12.94914
30
0
11
16.0679
21
13.01283
31
0
0
LINE
8
A-DOOR
10
16.0679
20
13.01283
30
0
11
16.02211
21
13.06833
31
0
0
LINE
8
A-DOOR
10
16.02211
20
13.06833
30
0
11
15.96661
21
13.11412
31
0
0
LINE
8
A-DOOR
10
15.96661
20
13.11412
30
0
11
15.90291
21
13.1487
31
0
0
LINE
8
A-DOOR
10
15.90291
20
13.1487
30
0
11
15.83252
21
13.17055
31
0
0
LINE
8
A-DOOR
10
15.83252
20
13.17055
30
0
11
15.75694
21
13.17817
31
0
0
LINE
8
A-ANNO-SYMB
10
16.01389
20
12.47739
30
0
11
16.01248
21
12.49138
31
0
0
LINE
8
A-ANNO-SYMB
10
16.01248
20
12.49138
30
0
11
16.00843
21
12.50442
31
0
0
LINE
8
A-ANNO-SYMB
10
16.00843
20
12.50442
30
0
11
16.00203
21
12.51621
31
0
0
LINE
8
A-ANNO-SYMB
10
16.00203
20
12.51621
30
0
11
15.99355
21
12.52649
31
0
0
LINE
8
A-ANNO-SYMB
10
15.99355
20
12.52649
30
0
11
15.98327
21
12.53497
31
0
0
LINE
8
A-ANNO-SYMB
10
15.98327
20
12.53497
30
0
11
15.97148
21
12.54137
31
0
0
LINE
8
A-ANNO-SYMB
10
15.97148
20
12.54137
30
0
11
15.95844
21
12.54542
31
0
0
LINE
8
A-ANNO-SYMB
10
15.95844
20
12.54542
30
0
11
15.94444
21
12.54683
31
0
0
LINE
8
A-ANNO-SYMB
10
15.94444
20
12.54683
30
0
11
15.93045
21
12.54542
31
0
0
LINE
8
A-ANNO-SYMB
10
15.93045
20
12.54542
30
0
11
15.91741
21
12.54137
31
0
0
LINE
8
A-ANNO-SYMB
10
15.91741
20
12.54137
30
0
11
15.90562
21
12.53497
31
0
0
LINE
8
A-ANNO-SYMB
10
15.90562
20
12.53497
30
0
11
15.89534
21
12.52649
31
0
0
LINE
8
A-ANNO-SYMB
10
15.89534
20
12.52649
30
0
11
15.88686
21
12.51621
31
0
0
LINE
8
A-ANNO-SYMB
10
15.88686
20
12.51621
30
0
11
15.88046
21
12.50442
31
0
0
LINE
8
A-ANNO-SYMB
10
15.88046
20
12.50442
30
0
11
15.87641
21
12.49138
31
0
0
LINE
8
A-ANNO-SYMB
10
15.87641
20
12.49138
30
0
11
15.875
21
12.47739
31
0
0
LINE
8
A-ANNO-SYMB
10
15.875
20
12.47739
30
0
11
15.87641
21
12.46339
31
0
0
LINE
8
A-ANNO-SYMB
10
15.87641
20
12.46339
30
0
11
15.88046
21
12.45036
31
0
0
LINE
8
A-ANNO-SYMB
10
15.88046
20
12.45036
30
0
11
15.88686
21
12.43856
31
0
0
LINE
8
A-ANNO-SYMB
10
15.88686
20
12.43856
30
0
11
15.89534
21
12.42828
31
0
0
LINE
8
A-ANNO-SYMB
10
15.89534
20
12.42828
30
0
11
15.90562
21
12.4198
31
0
0
LINE
8
A-ANNO-SYMB
10
15.90562
20
12.4198
30
0
11
15.91741
21
12.4134
31
0
0
LINE
8
A-ANNO-SYMB
10
15.91741
20
12.4134
30
0
11
15.93045
21
12.40935
31
0
0
LINE
8
A-ANNO-SYMB
10
15.93045
20
12.40935
30
0
11
15.94444
21
12.40794
31
0
0
LINE
8
A-ANNO-SYMB
10
15.94444
20
12.40794
30
0
11
15.95844
21
12.40935
31
0
0
LINE
8
A-ANNO-SYMB
10
15.95844
20
12.40935
30
0
11
15.97148
21
12.4134
31
0
0
LINE
8
A-ANNO-SYMB
10
15.97148
20
12.4134
30
0
11
15.98327
21
12.4198
31
0
0
LINE
8
A-ANNO-SYMB
10
15.98327
20
12.4198
30
0
11
15.99355
21
12.42828
31
0
0
LINE
8
A-ANNO-SYMB
10
15.99355
20
12.42828
30
0
11
16.00203
21
12.43856
31
0
0
LINE
8
A-ANNO-SYMB
10
16.00203
20
12.43856
30
0
11
16.00843
21
12.45036
31
0
0
LINE
8
A-ANNO-SYMB
10
16.00843
20
12.45036
30
0
11
16.01248
21
12.46339
31
0
0
LINE
8
A-ANNO-SYMB
10
16.01248
20
12.46339
30
0
11
16.01389
21
12.47739
31
0
0
TEXT
8
A-ANNO-SYMB
10
15.94444
20
12.44961
30
0
40
0.05
1
217
50
0
72
1
11
15.94444
21
12.44961
31
0
0
LINE
8
A-DOOR
10
17.25694
20
12.80317
30
0
11
17.25694
21
13.17817
31
0
0
LINE
8
A-DOOR
10
17.25694
20
13.17817
30
0
11
17.27517
21
13.17817
31
0
0
LINE
8
A-DOOR
10
17.27517
20
13.17817
30
0
11
17.27517
21
12.80317
31
0
0
LINE
8
A-DOOR
10
17.27517
20
12.80317
30
0
11
17.25694
21
12.80317
31
0
0
LINE
8
A-DOOR
10
17.63194
20
12.80317
30
0
11
17.62433
21
12.87874
31
0
0
LINE
8
A-DOOR
10
17.62433
20
12.87874
30
0
11
17.60248
21
12.94914
31
0
0
LINE
8
A-DOOR
10
17.60248
20
12.94914
30
0
11
17.5679
21
13.01283
31
0
0
LINE
8
A-DOOR
10
17.5679
20
13.01283
30
0
11
17.52211
21
13.06833
31
0
0
LINE
8
A-DOOR
10
17.52211
20
13.06833
30
0
11
17.46661
21
13.11412
31
0
0
LINE
8
A-DOOR
10
17.46661
20
13.11412
30
0
11
17.40291
21
13.1487
31
0
0
LINE
8
A-DOOR
10
17.40291
20
13.1487
30
0
11
17.33252
21
13.17055
31
0
0
LINE
8
A-DOOR
10
17.33252
20
13.17055
30
0
11
17.25694
21
13.17817
31
0
0
LINE
8
A-ANNO-SYMB
10
17.51389
20
12.47739
30
0
11
17.51248
21
12.49138
31
0
0
LINE
8
A-ANNO-SYMB
10
17.51248
20
12.49138
30
0
11
17.50843
21
12.50442
31
0
0
LINE
8
A-ANNO-SYMB
10
17.50843
20
12.50442
30
0
11
17.50203
21
12.51621
31
0
0
LINE
8
A-ANNO-SYMB
10
17.50203
20
12.51621
30
0
11
17.49355
21
12.52649
31
0
0
LINE
8
A-ANNO-SYMB
10
17.49355
20
12.52649
30
0
11
17.48327
21
12.53497
31
0
0
LINE
8
A-ANNO-SYMB
10
17.48327
20
12.53497
30
0
11
17.47148
21
12.54137
31
0
0
LINE
8
A-ANNO-SYMB
10
17.47148
20
12.54137
30
0
11
17.45844
21
12.54542
31
0
0
LINE
8
A-ANNO-SYMB
10
17.45844
20
12.54542
30
0
11
17.44444
21
12.54683
31
0
0
LINE
8
A-ANNO-SYMB
10
17.44444
20
12.54683
30
0
11
17.43045
21
12.54542
31
0
0
LINE
8
A-ANNO-SYMB
10
17.43045
20
12.54542
30
0
11
17.41741
21
12.54137
31
0
0
LINE
8
A-ANNO-SYMB
10
17.41741
20
12.54137
30
0
11
17.40562
21
12.53497
31
0
0
LINE
8
A-ANNO-SYMB
10
17.40562
20
12.53497
30
0
11
17.39534
21
12.52649
31
0
0
LINE
8
A-ANNO-SYMB
10
17.39534
20
12.52649
30
0
11
17.38686
21
12.51621
31
0
0
LINE
8
A-ANNO-SYMB
10
17.38686
20
12.51621
30
0
11
17.38046
21
12.50442
31
0
0
LINE
8
A-ANNO-SYMB
10
17.38046
20
12.50442
30
0
11
17.37641
21
12.49138
31
0
0
LINE
8
A-ANNO-SYMB
10
17.37641
20
12.49138
30
0
11
17.375
21
12.47739
31
0
0
LINE
8
A-ANNO-SYMB
10
17.375
20
12.47739
30
0
11
17.37641
21
12.46339
31
0
0
LINE
8
A-ANNO-SYMB
10
17.37641
20
12.46339
30
0
11
17.38046
21
12.45036
31
0
0
LINE
8
A-ANNO-SYMB
10
17.38046
20
12.45036
30
0
11
17.38686
21
12.43856
31
0
0
LINE
8
A-ANNO-SYMB
10
17.38686
20
12.43856
30
0
11
17.39534
21
12.42828
31
0
0
LINE
8
A-ANNO-SYMB
10
17.39534
20
12.42828
30
0
11
17.40562
21
12.4198
31
0
0
LINE
8
A-ANNO-SYMB
10
17.40562
20
12.4198
30
0
11
17.41741
21
12.4134
31
0
0
LINE
8
A-ANNO-SYMB
10
17.41741
20
12.4134
30
0
11
17.43045
21
12.40935
31
0
0
LINE
8
A-ANNO-SYMB
10
17.43045
20
12.40935
30
0
11
17.44444
21
12.40794
31
0
0
LINE
8
A-ANNO-SYMB
10
17.44444
20
12.40794
30
0
11
17.45844
21
12.40935
31
0
0
LINE
8
A-ANNO-SYMB
10
17.45844
20
12.40935
30
0
11
17.47148
21
12.4134
31
0
0
LINE
8
A-ANNO-SYMB
10
17.47148
20
12.4134
30
0
11
17.48327
21
12.4198
31
0
0
LINE
8
A-ANNO-SYMB
10
17.48327
20
12.4198
30
0
11
17.49355
21
12.42828
31
0
0
LINE
8
A-ANNO-SYMB
10
17.49355
20
12.42828
30
0
11
17.50203
21
12.43856
31
0
0
LINE
8
A-ANNO-SYMB
10
17.50203
20
12.43856
30
0
11
17.50843
21
12.45036
31
0
0
LINE
8
A-ANNO-SYMB
10
17.50843
20
12.45036
30
0
11
17.51248
21
12.46339
31
0
0
LINE
8
A-ANNO-SYMB
10
17.51248
20
12.46339
30
0
11
17.51389
21
12.47739
31
0
0
TEXT
8
A-ANNO-SYMB
10
17.44444
20
12.44961
30
0
40
0.05
1
218
50
0
72
1
11
17.44444
21
12.44961
31
0
0
LINE
8
A-DOOR
10
18.75694
20
12.80317
30
0
11
18.75694
21
13.17817
31
0
0
LINE
8
A-DOOR
10
18.75694
20
13.17817
30
0
11
18.77517
21
13.17817
31
0
0
LINE
8
A-DOOR
10
18.77517
20
13.17817
30
0
11
18.77517
21
12.80317
31
0
0
LINE
8
A-DOOR
10
18.77517
20
12.80317
30
0
11
18.75694
21
12.80317
31
0
0
LINE
8
A-DOOR
10
19.13194
20
12.80317
30
0
11
19.12433
21
12.87874
31
0
0
LINE
8
A-DOOR
10
19.12433
20
12.87874
30
0
11
19.10248
21
12.94914
31
0
0
LINE
8
A-DOOR
10
19.10248
20
12.94914
30
0
11
19.0679
21
13.01283
31
0
0
LINE
8
A-DOOR
10
19.0679
20
13.01283
30
0
11
19.02211
21
13.06833
31
0
0
LINE
8
A-DOOR
10
19.02211
20
13.06833
30
0
11
18.96661
21
13.11412
31
0
0
LINE
8
A-DOOR
10
18.96661
20
13.11412
30
0
11
18.90291
21
13.1487
31
0
0
LINE
8
A-DOOR
10
18.90291
20
13.1487
30
0
11
18.83252
21
13.17055
31
0
0
LINE
8
A-DOOR
10
18.83252
20
13.17055
30
0
11
18.75694
21
13.17817
31
0
0
LINE
8
A-ANNO-SYMB
10
19.01389
20
12.47739
30
0
11
19.01248
21
12.49138
31
0
0
LINE
8
A-ANNO-SYMB
10
19.01248
20
12.49138
30
0
11
19.00843
21
12.50442
31
0
0
LINE
8
A-ANNO-SYMB
10
19.00843
20
12.50442
30
0
11
19.00203
21
12.51621
31
0
0
LINE
8
A-ANNO-SYMB
10
19.00203
20
12.51621
30
0
11
18.99355
21
12.52649
31
0
0
LINE
8
A-ANNO-SYMB
10
18.99355
20
12.52649
30
0
11
18.98327
21
12.53497
31
0
0
LINE
8
A-ANNO-SYMB
10
18.98327
20
12.53497
30
0
11
18.97148
21
12.54137
31
0
0
LINE
8
A-ANNO-SYMB
10
18.97148
20
12.54137
30
0
11
18.95844
21
12.54542
31
0
0
LINE
8
A-ANNO-SYMB
10
18.95844
20
12.54542
30
0
11
18.94444
21
12.54683
31
0
0
LINE
8
A-ANNO-SYMB
10
18.94444
20
12.54683
30
0
11
18.93045
21
12.54542
31
0
0
LINE
8
A-ANNO-SYMB
10
18.93045
20
12.54542
30
0
11
18.91741
21
12.54137
31
0
0
LINE
8
A-ANNO-SYMB
10
18.91741
20
12.54137
30
0
11
18.90562
21
12.53497
31
0
0
LINE
8
A-ANNO-SYMB
10
18.90562
20
12.53497
30
0
11
18.89534
21
12.52649
31
0
0
LINE
8
A-ANNO-SYMB
10
18.89534
20
12.52649
30
0
11
18.88686
21
12.51621
31
0
0
LINE
8
A-ANNO-SYMB
10
18.88686
20
12.51621
30
0
11
18.88046
21
12.50442
31
0
0
LINE
8
A-ANNO-SYMB
10
18.88046
20
12.50442
30
0
11
18.87641
21
12.49138
31
0
0
LINE
8
A-ANNO-SYMB
10
18.87641
20
12.49138
30
0
11
18.875
21
12.47739
31
0
0
LINE
8
A-ANNO-SYMB
10
18.875
20
12.47739
30
0
11
18.87641
21
12.46339
31
0
0
LINE
8
A-ANNO-SYMB
10
18.87641
20
12.46339
30
0
11
18.88046
21
12.45036
31
0
0
LINE
8
A-ANNO-SYMB
10
18.88046
20
12.45036
30
0
11
18.88686
21
12.43856
31
0
0
LINE
8
A-ANNO-SYMB
10
18.88686
20
12.43856
30
0
11
18.89534
21
12.42828
31
0
0
LINE
8
A-ANNO-SYMB
10
18.89534
20
12.42828
30
0
11
18.90562
21
12.4198
31
0
0
LINE
8
A-ANNO-SYMB
10
18.90562
20
12.4198
30
0
11
18.91741
21
12.4134
31
0
0
LINE
8
A-ANNO-SYMB
10
18.91741
20
12.4134
30
0
11
18.93045
21
12.40935
31
0
0
LINE
8
A-ANNO-SYMB
10
18.93045
20
12.40935
30
0
11
18.94444
21
12.40794
31
0
0
LINE
8
A-ANNO-SYMB
10
18.94444
20
12.40794
30
0
11
18.95844
21
12.40935
31
0
0
LINE
8
A-ANNO-SYMB
10
18.95844
20
12.40935
30
0
11
18.97148
21
12.4134
31
0
0
LINE
8
A-ANNO-SYMB
10
18.97148
20
12.4134
30
0
11
18.98327
21
12.4198
31
0
0
LINE
8
A-ANNO-SYMB
10
18.98327
20
12.4198
30
0
11
18.99355
21
12.42828
31
0
0
LINE
8
A-ANNO-SYMB
10
18.99355
20
12.42828
30
0
11
19.00203
21
12.43856
31
0
0
LINE
8
A-ANNO-SYMB
10
19.00203
20
12.43856
30
0
11
19.00843
21
12.45036
31
0
0
LINE
8
A-ANNO-SYMB
10
19.00843
20
12.45036
30
0
11
19.01248
21
12.46339
31
0
0
LINE
8
A-ANNO-SYMB
10
19.01248
20
12.46339
30
0
11
19.01389
21
12.47739
31
0
0
TEXT
8
A-ANNO-SYMB
10
18.94444
20
12.44961
30
0
40
0.05
1
219
50
0
72
1
11
18.94444
21
12.44961
31
0
0
LINE
8
A-WALL
10
3.15734
20
13.55317
30
0
11
8.16905
21
13.55317
31
0
0
LINE
8
A-WALL
10
8.21984
20
13.55317
30
0
11
10.68393
21
13.55317
31
0
0
LINE
8
A-WALL
10
10.75574
20
13.55317
30
0
11
21.16905
21
13.55317
31
0
0
LINE
8
A-WALL
10
3.15734
20
13.50239
30
0
11
21.21984
21
13.50239
31
0
0
LINE
8
A-WALL
10
21.16905
20
13.55317
30
0
11
21.16905
21
14.27778
31
0
0
LINE
8
A-WALL
10
21.16905
20
15.02778
30
0
11
21.16905
21
15.24002
31
0
0
LINE
8
A-WALL
10
21.16905
20
15.31554
30
0
11
21.16905
21
19.31879
31
0
0
LINE
8
A-WALL
10
21.21984
20
13.50239
30
0
11
21.21984
21
14.27778
31
0
0
LINE
8
A-WALL
10
21.21984
20
15.02778
30
0
11
21.21984
21
19.31879
31
0
0
LINE
8
A-WALL
10
21.16905
20
14.27778
30
0
11
21.21984
21
14.27778
31
0
0
LINE
8
A-WALL
10
21.16905
20
15.02778
30
0
11
21.21984
21
15.02778
31
0
0
LINE
8
A-DOOR
10
21.16905
20
14.27778
30
0
11
20.79405
21
14.27778
31
0
0
LINE
8
A-DOOR
10
20.79405
20
14.27778
30
0
11
20.79405
21
14.29601
31
0
0
LINE
8
A-DOOR
10
20.79405
20
14.29601
30
0
11
21.16905
21
14.29601
31
0
0
LINE
8
A-DOOR
10
21.16905
20
14.29601
30
0
11
21.16905
21
14.27778
31
0
0
LINE
8
A-DOOR
10
21.16905
20
14.65278
30
0
11
21.09348
21
14.64516
31
0
0
LINE
8
A-DOOR
10
21.09348
20
14.64516
30
0
11
21.02309
21
14.62331
31
0
0
LINE
8
A-DOOR
10
21.02309
20
14.62331
30
0
11
20.95939
21
14.58873
31
0
0
LINE
8
A-DOOR
10
20.95939
20
14.58873
30
0
11
20.90389
21
14.54294
31
0
0
LINE
8
A-DOOR
10
20.90389
20
14.54294
30
0
11
20.8581
21
14.48744
31
0
0
LINE
8
A-DOOR
10
20.8581
20
14.48744
30
0
11
20.82352
21
14.42374
31
0
0
LINE
8
A-DOOR
10
20.82352
20
14.42374
30
0
11
20.80167
21
14.35335
31
0
0
LINE
8
A-DOOR
10
20.80167
20
14.35335
30
0
11
20.79405
21
14.27778
31
0
0
LINE
8
A-DOOR
10
21.16905
20
15.02778
30
0
11
20.79405
21
15.02778
31
0
0
LINE
8
A-DOOR
10
20.79405
20
15.02778
30
0
11
20.79405
21
15.00955
31
0
0
LINE
8
A-DOOR
10
20.79405
20
15.00955
30
0
11
21.16905
21
15.00955
31
0
0
LINE
8
A-DOOR
10
21.16905
20
15.00955
30
0
11
21.16905
21
15.02778
31
0
0
LINE
8
A-DOOR
10
20.79405
20
15.02778
30
0
11
20.80167
21
14.9522
31
0
0
LINE
8
A-DOOR
10
20.80167
20
14.9522
30
0
11
20.82352
21
14.88181
31
0
0
LINE
8
A-DOOR
10
20.82352
20
14.88181
30
0
11
20.8581
21
14.81811
31
0
0
LINE
8
A-DOOR
10
20.8581
20
14.81811
30
0
11
20.90389
21
14.76261
31
0
0
LINE
8
A-DOOR
10
20.90389
20
14.76261
30
0
11
20.95939
21
14.71682
31
0
0
LINE
8
A-DOOR
10
20.95939
20
14.71682
30
0
11
21.02309
21
14.68225
31
0
0
LINE
8
A-DOOR
10
21.02309
20
14.68225
30
0
11
21.09348
21
14.6604
31
0
0
LINE
8
A-DOOR
10
21.09348
20
14.6604
30
0
11
21.16905
21
14.65278
31
0
0
LINE
8
A-ANNO-SYMB
10
21.56428
20
14.65278
30
0
11
21.56287
21
14.66677
31
0
0
LINE
8
A-ANNO-SYMB
10
21.56287
20
14.66677
30
0
11
21.55882
21
14.67981
31
0
0
LINE
8
A-ANNO-SYMB
10
21.55882
20
14.67981
30
0
11
21.55242
21
14.6916
31
0
0
LINE
8
A-ANNO-SYMB
10
21.55242
20
14.6916
30
0
11
21.54394
21
14.70188
31
0
0
LINE
8
A-ANNO-SYMB
10
21.54394
20
14.70188
30
0
11
21.53366
21
14.71036
31
0
0
LINE
8
A-ANNO-SYMB
10
21.53366
20
14.71036
30
0
11
21.52187
21
14.71676
31
0
0
LINE
8
A-ANNO-SYMB
10
21.52187
20
14.71676
30
0
11
21.50883
21
14.72081
31
0
0
LINE
8
A-ANNO-SYMB
10
21.50883
20
14.72081
30
0
11
21.49484
21
14.72222
31
0
0
LINE
8
A-ANNO-SYMB
10
21.49484
20
14.72222
30
0
11
21.48084
21
14.72081
31
0
0
LINE
8
A-ANNO-SYMB
10
21.48084
20
14.72081
30
0
11
21.4678
21
14.71676
31
0
0
LINE
8
A-ANNO-SYMB
10
21.4678
20
14.71676
30
0
11
21.45601
21
14.71036
31
0
0
LINE
8
A-ANNO-SYMB
10
21.45601
20
14.71036
30
0
11
21.44573
21
14.70188
31
0
0
LINE
8
A-ANNO-SYMB
10
21.44573
20
14.70188
30
0
11
21.43725
21
14.6916
31
0
0
LINE
8
A-ANNO-SYMB
10
21.43725
20
14.6916
30
0
11
21.43085
21
14.67981
31
0
0
LINE
8
A-ANNO-SYMB
10
21.43085
20
14.67981
30
0
11
21.4268
21
14.66677
31
0
0
LINE
8
A-ANNO-SYMB
10
21.4268
20
14.66677
30
0
11
21.42539
21
14.65278
31
0
0
LINE
8
A-ANNO-SYMB
10
21.42539
20
14.65278
30
0
11
21.4268
21
14.63878
31
0
0
LINE
8
A-ANNO-SYMB
10
21.4268
20
14.63878
30
0
11
21.43085
21
14.62575
31
0
0
LINE
8
A-ANNO-SYMB
10
21.43085
20
14.62575
30
0
11
21.43725
21
14.61395
31
0
0
LINE
8
A-ANNO-SYMB
10
21.43725
20
14.61395
30
0
11
21.44573
21
14.60367
31
0
0
LINE
8
A-ANNO-SYMB
10
21.44573
20
14.60367
30
0
11
21.45601
21
14.59519
31
0
0
LINE
8
A-ANNO-SYMB
10
21.45601
20
14.59519
30
0
11
21.4678
21
14.58879
31
0
0
LINE
8
A-ANNO-SYMB
10
21.4678
20
14.58879
30
0
11
21.48084
21
14.58474
31
0
0
LINE
8
A-ANNO-SYMB
10
21.48084
20
14.58474
30
0
11
21.49484
21
14.58333
31
0
0
LINE
8
A-ANNO-SYMB
10
21.49484
20
14.58333
30
0
11
21.50883
21
14.58474
31
0
0
LINE
8
A-ANNO-SYMB
10
21.50883
20
14.58474
30
0
11
21.52187
21
14.58879
31
0
0
LINE
8
A-ANNO-SYMB
10
21.52187
20
14.58879
30
0
11
21.53366
21
14.59519
31
0
0
LINE
8
A-ANNO-SYMB
10
21.53366
20
14.59519
30
0
11
21.54394
21
14.60367
31
0
0
LINE
8
A-ANNO-SYMB
10
21.54394
20
14.60367
30
0
11
21.55242
21
14.61395
31
0
0
LINE
8
A-ANNO-SYMB
10
21.55242
20
14.61395
30
0
11
21.55882
21
14.62575
31
0
0
LINE
8
A-ANNO-SYMB
10
21.55882
20
14.62575
30
0
11
21.56287
21
14.63878
31
0
0
LINE
8
A-ANNO-SYMB
10
21.56287
20
14.63878
30
0
11
21.56428
21
14.65278
31
0
0
TEXT
8
A-ANNO-SYMB
10
21.49484
20
14.625
30
0
40
0.05
1
250
50
0
72
1
11
21.49484
21
14.625
31
0
0
LINE
8
A-WALL
10
21.91905
20
12.75239
30
0
11
21.91905
21
19.31879
31
0
0
LINE
8
A-WALL
10
21.96984
20
12.80317
30
0
11
21.96984
21
19.31879
31
0
0
LINE
8
A-WALL
10
4.71984
20
10.55317
30
0
11
6.16905
21
10.55317
31
0
0
LINE
8
A-WALL
10
6.21984
20
10.55317
30
0
11
7.66905
21
10.55317
31
0
0
LINE
8
A-WALL
10
7.71984
20
10.55317
30
0
11
9.16905
21
10.55317
31
0
0
LINE
8
A-WALL
10
9.21984
20
10.55317
30
0
11
10.66905
21
10.55317
31
0
0
LINE
8
A-WALL
10
10.71984
20
10.55317
30
0
11
12.16905
21
10.55317
31
0
0
LINE
8
A-WALL
10
12.21984
20
10.55317
30
0
11
13.66905
21
10.55317
31
0
0
LINE
8
A-WALL
10
13.71984
20
10.55317
30
0
11
15.16905
21
10.55317
31
0
0
LINE
8
A-WALL
10
15.21984
20
10.55317
30
0
11
16.66905
21
10.55317
31
0
0
LINE
8
A-WALL
10
16.71984
20
10.55317
30
0
11
18.16905
21
10.55317
31
0
0
LINE
8
A-WALL
10
18.21984
20
10.55317
30
0
11
19.71984
21
10.55317
31
0
0
LINE
8
A-WALL
10
4.66905
20
10.50239
30
0
11
19.66905
21
10.50239
31
0
0
LINE
8
A-WALL
10
4.66905
20
10.50239
30
0
11
4.66905
21
12.75239
31
0
0
LINE
8
A-WALL
10
4.71984
20
10.55317
30
0
11
4.71984
21
12.75239
31
0
0
LINE
8
A-WALL
10
6.16905
20
10.55317
30
0
11
6.16905
21
12.75239
31
0
0
LINE
8
A-WALL
10
6.21984
20
10.55317
30
0
11
6.21984
21
12.75239
31
0
0
LINE
8
A-WALL
10
7.66905
20
10.55317
30
0
11
7.66905
21
12.75239
31
0
0
LINE
8
A-WALL
10
7.71984
20
10.55317
30
0
11
7.71984
21
12.75239
31
0
0
LINE
8
A-WALL
10
9.16905
20
10.55317
30
0
11
9.16905
21
12.75239
31
0
0
LINE
8
A-WALL
10
9.21984
20
10.55317
30
0
11
9.21984
21
12.75239
31
0
0
LINE
8
A-WALL
10
10.66905
20
10.55317
30
0
11
10.66905
21
11.46528
31
0
0
LINE
8
A-WALL
10
10.66905
20
11.59028
30
0
11
10.66905
21
12.75239
31
0
0
LINE
8
A-WALL
10
10.71984
20
10.55317
30
0
11
10.71984
21
11.46528
31
0
0
LINE
8
A-WALL
10
10.71984
20
11.59028
30
0
11
10.71984
21
12.75239
31
0
0
LINE
8
A-WALL
10
12.16905
20
10.55317
30
0
11
12.16905
21
12.75239
31
0
0
LINE
8
A-WALL
10
12.21984
20
10.55317
30
0
11
12.21984
21
12.75239
31
0
0
LINE
8
A-WALL
10
13.66905
20
10.55317
30
0
11
13.66905
21
12.75239
31
0
0
LINE
8
A-WALL
10
13.71984
20
10.55317
30
0
11
13.71984
21
12.75239
31
0
0
LINE
8
A-WALL
10
15.16905
20
10.55317
30
0
11
15.16905
21
12.75239
31
0
0
LINE
8
A-WALL
10
15.21984
20
10.55317
30
0
11
15.21984
21
12.75239
31
0
0
LINE
8
A-WALL
10
16.66905
20
10.55317
30
0
11
16.66905
21
12.75239
31
0
0
LINE
8
A-WALL
10
16.71984
20
10.55317
30
0
11
16.71984
21
12.75239
31
0
0
LINE
8
A-WALL
10
18.16905
20
10.55317
30
0
11
18.16905
21
12.75239
31
0
0
LINE
8
A-WALL
10
18.21984
20
10.55317
30
0
11
18.21984
21
12.75239
31
0
0
LINE
8
A-WALL
10
19.66905
20
10.55317
30
0
11
19.66905
21
12.75239
31
0
0
LINE
8
A-WALL
10
19.71984
20
10.50239
30
0
11
19.71984
21
12.75239
31
0
0
LINE
8
A-WALL
10
19.66905
20
7.74067
30
0
11
19.66905
21
10.50239
31
0
0
LINE
8
A-WALL
10
19.71984
20
7.74067
30
0
11
19.71984
21
10.55317
31
0
0
LINE
8
A-WALL
10
3.15734
20
16.55317
30
0
11
8.21984
21
16.55317
31
0
0
LINE
8
A-WALL
10
3.15734
20
16.50239
30
0
11
8.16905
21
16.50239
31
0
0
LINE
8
A-WALL
10
8.16905
20
13.55317
30
0
11
8.16905
21
16.50239
31
0
0
LINE
8
A-WALL
10
8.21984
20
13.55317
30
0
11
8.21984
21
16.55317
31
0
0
LINE
8
A-WALL
10
15.69444
20
15.31554
30
0
11
17.79861
21
15.31554
31
0
0
LINE
8
A-WALL
10
17.92361
20
15.31554
30
0
11
21.16905
21
15.31554
31
0
0
LINE
8
A-WALL
10
15.69444
20
15.24002
30
0
11
17.79861
21
15.24002
31
0
0
LINE
8
A-WALL
10
17.92361
20
15.24002
30
0
11
21.16905
21
15.24002
31
0
0
LINE
8
A-WALL
10
15.69444
20
15.31554
30
0
11
15.69444
21
15.24002
31
0
0
LINE
8
A-WALL
10
10.68393
20
13.55317
30
0
11
11.73715
21
14.60639
31
0
0
LINE
8
A-WALL
10
10.75574
20
13.55317
30
0
11
11.77306
21
14.57048
31
0
0
LINE
8
A-WALL
10
11.73715
20
14.60639
30
0
11
11.77306
21
14.57048
31
0
0
LINE
8
A-WALL-CMU
10
26.90473
20
15.48806
30
0
11
26.90473
21
17.50304
31
0
0
LINE
8
A-WALL-CMU
10
26.90473
20
17.55252
30
0
11
26.90473
21
19.31879
31
0
0
LINE
8
A-WALL-CMU
10
26.98416
20
15.56749
30
0
11
26.98416
21
19.31879
31
0
0
LINE
8
A-WALL-PATT
10
26.98416
20
15.52778
30
0
11
26.90473
21
15.6072
31
0
0
LINE
8
A-WALL-PATT
10
26.98416
20
15.56944
30
0
11
26.90473
21
15.64887
31
0
0
LINE
8
A-WALL-PATT
10
26.98416
20
15.61111
30
0
11
26.90473
21
15.69054
31
0
0
LINE
8
A-WALL-PATT
10
26.98416
20
15.65278
30
0
11
26.90473
21
15.7322
31
0
0
LINE
8
A-WALL-PATT
10
26.98416
20
15.69444
30
0
11
26.90473
21
15.77387
31
0
0
LINE
8
A-WALL-PATT
10
26.98416
20
15.73611
30
0
11
26.90473
21
15.81554
31
0
0
LINE
8
A-WALL-PATT
10
26.98416
20
15.77778
30
0
11
26.90473
21
15.8572
31
0
0
LINE
8
A-WALL-PATT
10
26.98416
20
15.81944
30
0
11
26.90473
21
15.89887
31
0
0
LINE
8
A-WALL-PATT
10
26.98416
20
15.86111
30
0
11
26.90473
21
15.94054
31
0
0
LINE
8
A-WALL-PATT
10
26.98416
20
15.90278
30
0
11
26.90473
21
15.9822
31
0
0
LINE
8
A-WALL-PATT
10
26.98416
20
15.94444
30
0
11
26.90473
21
16.02387
31
0
0
LINE
8
A-WALL-PATT
10
26.98416
20
15.98611
30
0
11
26.90473
21
16.06554
31
0
0
LINE
8
A-WALL-PATT
10
26.98416
20
16.02778
30
0
11
26.90473
21
16.1072
31
0
0
LINE
8
A-WALL-PATT
10
26.98416
20
16.06944
30
0
11
26.90473
21
16.14887
31
0
0
LINE
8
A-WALL-PATT
10
26.98416
20
16.11111
30
0
11
26.90473
21
16.19054
31
0
0
LINE
8
A-WALL-PATT
10
26.98416
20
16.15278
30
0
11
26.90473
21
16.2322
31
0
0
LINE
8
A-WALL-PATT
10
26.98416
20
16.19444
30
0
11
26.90473
21
16.27387
31
0
0
LINE
8
A-WALL-PATT
10
26.98416
20
16.23611
30
0
11
26.90473
21
16.31554
31
0
0
LINE
8
A-WALL-PATT
10
26.98416
20
16.27778
30
0
11
26.90473
21
16.3572
31
0
0
LINE
8
A-WALL-PATT
10
26.98416
20
16.31944
30
0
11
26.90473
21
16.39887
31
0
0
LINE
8
A-WALL-PATT
10
26.98416
20
16.36111
30
0
11
26.90473
21
16.44054
31
0
0
LINE
8
A-WALL-PATT
10
26.98416
20
16.40278
30
0
11
26.90473
21
16.4822
31
0
0
LINE
8
A-WALL-PATT
10
26.98416
20
16.44444
30
0
11
26.90473
21
16.52387
31
0
0
LINE
8
A-WALL-PATT
10
26.98416
20
16.48611
30
0
11
26.90473
21
16.56554
31
0
0
LINE
8
A-WALL-PATT
10
26.98416
20
16.52778
30
0
11
26.90473
21
16.6072
31
0
0
LINE
8
A-WALL-PATT
10
26.98416
20
16.56944
30
0
11
26.90473
21
16.64887
31
0
0
LINE
8
A-WALL-PATT
10
26.98416
20
16.61111
30
0
11
26.90473
21
16.69054
31
0
0
LINE
8
A-WALL-PATT
10
26.98416
20
16.65278
30
0
11
26.90473
21
16.7322
31
0
0
LINE
8
A-WALL-PATT
10
26.98416
20
16.69444
30
0
11
26.90473
21
16.77387
31
0
0
LINE
8
A-WALL-PATT
10
26.98416
20
16.73611
30
0
11
26.90473
21
16.81554
31
0
0
LINE
8
A-WALL-PATT
10
26.98416
20
16.77778
30
0
11
26.90473
21
16.8572
31
0
0
LINE
8
A-WALL-PATT
10
26.98416
20
16.81944
30
0
11
26.90473
21
16.89887
31
0
0
LINE
8
A-WALL-PATT
10
26.98416
20
16.86111
30
0
11
26.90473
21
16.94054
31
0
0
LINE
8
A-WALL-PATT
10
26.98416
20
16.90278
30
0
11
26.90473
21
16.9822
31
0
0
LINE
8
A-WALL-PATT
10
26.98416
20
16.94444
30
0
11
26.90473
21
17.02387
31
0
0
LINE
8
A-WALL-PATT
10
26.98416
20
16.98611
30
0
11
26.90473
21
17.06554
31
0
0
LINE
8
A-WALL-PATT
10
26.98416
20
17.02778
30
0
11
26.90473
21
17.1072
31
0
0
LINE
8
A-WALL-PATT
10
26.98416
20
17.06944
30
0
11
26.90473
21
17.14887
31
0
0
LINE
8
A-WALL-PATT
10
26.98416
20
17.11111
30
0
11
26.90473
21
17.19054
31
0
0
LINE
8
A-WALL-PATT
10
26.98416
20
17.15278
30
0
11
26.90473
21
17.2322
31
0
0
LINE
8
A-WALL-PATT
10
26.98416
20
17.19444
30
0
11
26.90473
21
17.27387
31
0
0
LINE
8
A-WALL-PATT
10
26.98416
20
17.23611
30
0
11
26.90473
21
17.31554
31
0
0
LINE
8
A-WALL-PATT
10
26.98416
20
17.27778
30
0
11
26.90473
21
17.3572
31
0
0
LINE
8
A-WALL-PATT
10
26.98416
20
17.31944
30
0
11
26.90473
21
17.39887
31
0
0
LINE
8
A-WALL-PATT
10
26.98416
20
17.36111
30
0
11
26.90473
21
17.44054
31
0
0
LINE
8
A-WALL-PATT
10
26.98416
20
17.40278
30
0
11
26.90473
21
17.4822
31
0
0
LINE
8
A-WALL-PATT
10
26.98416
20
17.44444
30
0
11
26.90473
21
17.52387
31
0
0
LINE
8
A-WALL-PATT
10
26.98416
20
17.48611
30
0
11
26.90473
21
17.56554
31
0
0
LINE
8
A-WALL-PATT
10
26.98416
20
17.52778
30
0
11
26.90473
21
17.6072
31
0
0
LINE
8
A-WALL-PATT
10
26.98416
20
17.56944
30
0
11
26.90473
21
17.64887
31
0
0
LINE
8
A-WALL-PATT
10
26.98416
20
17.61111
30
0
11
26.90473
21
17.69054
31
0
0
LINE
8
A-WALL-PATT
10
26.98416
20
17.65278
30
0
11
26.90473
21
17.7322
31
0
0
LINE
8
A-WALL-PATT
10
26.98416
20
17.69444
30
0
11
26.90473
21
17.77387
31
0
0
LINE
8
A-WALL-PATT
10
26.98416
20
17.73611
30
0
11
26.90473
21
17.81554
31
0
0
LINE
8
A-WALL-PATT
10
26.98416
20
17.77778
30
0
11
26.90473
21
17.8572
31
0
0
LINE
8
A-WALL-PATT
10
26.98416
20
17.81944
30
0
11
26.90473
21
17.89887
31
0
0
LINE
8
A-WALL-PATT
10
26.98416
20
17.86111
30
0
11
26.90473
21
17.94054
31
0
0
LINE
8
A-WALL-PATT
10
26.98416
20
17.90278
30
0
11
26.90473
21
17.9822
31
0
0
LINE
8
A-WALL-PATT
10
26.98416
20
17.94444
30
0
11
26.90473
21
18.02387
31
0
0
LINE
8
A-WALL-PATT
10
26.98416
20
17.98611
30
0
11
26.90473
21
18.06554
31
0
0
LINE
8
A-WALL-PATT
10
26.98416
20
18.02778
30
0
11
26.90473
21
18.1072
31
0
0
LINE
8
A-WALL-PATT
10
26.98416
20
18.06944
30
0
11
26.90473
21
18.14887
31
0
0
LINE
8
A-WALL-PATT
10
26.98416
20
18.11111
30
0
11
26.90473
21
18.19054
31
0
0
LINE
8
A-WALL-PATT
10
26.98416
20
18.15278
30
0
11
26.90473
21
18.2322
31
0
0
LINE
8
A-WALL-PATT
10
26.98416
20
18.19444
30
0
11
26.90473
21
18.27387
31
0
0
LINE
8
A-WALL-PATT
10
26.98416
20
18.23611
30
0
11
26.90473
21
18.31554
31
0
0
LINE
8
A-WALL-PATT
10
26.98416
20
18.27778
30
0
11
26.90473
21
18.3572
31
0
0
LINE
8
A-WALL-PATT
10
26.98416
20
18.31944
30
0
11
26.90473
21
18.39887
31
0
0
LINE
8
A-WALL-PATT
10
26.98416
20
18.36111
30
0
11
26.90473
21
18.44054
31
0
0
LINE
8
A-WALL-PATT
10
26.98416
20
18.40278
30
0
11
26.90473
21
18.4822
31
0
0
LINE
8
A-WALL-PATT
10
26.98416
20
18.44444
30
0
11
26.90473
21
18.52387
31
0
0
LINE
8
A-WALL-PATT
10
26.98416
20
18.48611
30
0
11
26.90473
21
18.56554
31
0
0
LINE
8
A-WALL-PATT
10
26.98416
20
18.52778
30
0
11
26.90473
21
18.6072
31
0
0
LINE
8
A-WALL-PATT
10
26.98416
20
18.56944
30
0
11
26.90473
21
18.64887
31
0
0
LINE
8
A-WALL-PATT
10
26.98416
20
18.61111
30
0
11
26.90473
21
18.69054
31
0
0
LINE
8
A-WALL-PATT
10
26.98416
20
18.65278
30
0
11
26.90473
21
18.7322
31
0
0
LINE
8
A-WALL-PATT
10
26.98416
20
18.69444
30
0
11
26.90473
21
18.77387
31
0
0
LINE
8
A-WALL-PATT
10
26.98416
20
18.73611
30
0
11
26.90473
21
18.81554
31
0
0
LINE
8
A-WALL-PATT
10
26.98416
20
18.77778
30
0
11
26.90473
21
18.8572
31
0
0
LINE
8
A-WALL-PATT
10
26.98416
20
18.81944
30
0
11
26.90473
21
18.89887
31
0
0
LINE
8
A-WALL-PATT
10
26.98416
20
18.86111
30
0
11
26.90473
21
18.94054
31
0
0
LINE
8
A-WALL-PATT
10
26.98416
20
18.90278
30
0
11
26.90473
21
18.9822
31
0
0
LINE
8
A-WALL-PATT
10
26.98416
20
18.94444
30
0
11
26.90473
21
19.02387
31
0
0
LINE
8
A-WALL-PATT
10
26.98416
20
18.98611
30
0
11
26.90473
21
19.06554
31
0
0
LINE
8
A-WALL-PATT
10
26.98416
20
19.02778
30
0
11
26.90473
21
19.1072
31
0
0
LINE
8
A-WALL-PATT
10
26.98416
20
19.06944
30
0
11
26.90473
21
19.14887
31
0
0
LINE
8
A-WALL-PATT
10
26.98416
20
19.11111
30
0
11
26.90473
21
19.19054
31
0
0
LINE
8
A-WALL-PATT
10
26.98416
20
19.15278
30
0
11
26.90473
21
19.2322
31
0
0
LINE
8
A-WALL-PATT
10
26.98416
20
19.19444
30
0
11
26.90473
21
19.27387
31
0
0
LINE
8
A-WALL-PATT
10
26.98416
20
19.23611
30
0
11
26.90473
21
19.31554
31
0
0
LINE
8
A-WALL-PATT
10
26.98416
20
19.27778
30
0
11
26.90473
21
19.3572
31
0
0
LINE
8
A-WALL-CMU
10
26.98416
20
15.56749
30
0
11
29.14822
21
15.56749
31
0
0
LINE
8
A-WALL-CMU
10
26.90473
20
15.48806
30
0
11
29.14822
21
15.48806
31
0
0
LINE
8
A-WALL-PATT
10
26.94444
20
15.48806
30
0
11
27.02387
21
15.56749
31
0
0
LINE
8
A-WALL-PATT
10
26.98611
20
15.48806
30
0
11
27.06554
21
15.56749
31
0
0
LINE
8
A-WALL-PATT
10
27.02778
20
15.48806
30
0
11
27.1072
21
15.56749
31
0
0
LINE
8
A-WALL-PATT
10
27.06944
20
15.48806
30
0
11
27.14887
21
15.56749
31
0
0
LINE
8
A-WALL-PATT
10
27.11111
20
15.48806
30
0
11
27.19054
21
15.56749
31
0
0
LINE
8
A-WALL-PATT
10
27.15278
20
15.48806
30
0
11
27.2322
21
15.56749
31
0
0
LINE
8
A-WALL-PATT
10
27.19444
20
15.48806
30
0
11
27.27387
21
15.56749
31
0
0
LINE
8
A-WALL-PATT
10
27.23611
20
15.48806
30
0
11
27.31554
21
15.56749
31
0
0
LINE
8
A-WALL-PATT
10
27.27778
20
15.48806
30
0
11
27.3572
21
15.56749
31
0
0
LINE
8
A-WALL-PATT
10
27.31944
20
15.48806
30
0
11
27.39887
21
15.56749
31
0
0
LINE
8
A-WALL-PATT
10
27.36111
20
15.48806
30
0
11
27.44054
21
15.56749
31
0
0
LINE
8
A-WALL-PATT
10
27.40278
20
15.48806
30
0
11
27.4822
21
15.56749
31
0
0
LINE
8
A-WALL-PATT
10
27.44444
20
15.48806
30
0
11
27.52387
21
15.56749
31
0
0
LINE
8
A-WALL-PATT
10
27.48611
20
15.48806
30
0
11
27.56554
21
15.56749
31
0
0
LINE
8
A-WALL-PATT
10
27.52778
20
15.48806
30
0
11
27.6072
21
15.56749
31
0
0
LINE
8
A-WALL-PATT
10
27.56944
20
15.48806
30
0
11
27.64887
21
15.56749
31
0
0
LINE
8
A-WALL-PATT
10
27.61111
20
15.48806
30
0
11
27.69054
21
15.56749
31
0
0
LINE
8
A-WALL-PATT
10
27.65278
20
15.48806
30
0
11
27.7322
21
15.56749
31
0
0
LINE
8
A-WALL-PATT
10
27.69444
20
15.48806
30
0
11
27.77387
21
15.56749
31
0
0
LINE
8
A-WALL-PATT
10
27.73611
20
15.48806
30
0
11
27.81554
21
15.56749
31
0
0
LINE
8
A-WALL-PATT
10
27.77778
20
15.48806
30
0
11
27.8572
21
15.56749
31
0
0
LINE
8
A-WALL-PATT
10
27.81944
20
15.48806
30
0
11
27.89887
21
15.56749
31
0
0
LINE
8
A-WALL-PATT
10
27.86111
20
15.48806
30
0
11
27.94054
21
15.56749
31
0
0
LINE
8
A-WALL-PATT
10
27.90278
20
15.48806
30
0
11
27.9822
21
15.56749
31
0
0
LINE
8
A-WALL-PATT
10
27.94444
20
15.48806
30
0
11
28.02387
21
15.56749
31
0
0
LINE
8
A-WALL-PATT
10
27.98611
20
15.48806
30
0
11
28.06554
21
15.56749
31
0
0
LINE
8
A-WALL-PATT
10
28.02778
20
15.48806
30
0
11
28.1072
21
15.56749
31
0
0
LINE
8
A-WALL-PATT
10
28.06944
20
15.48806
30
0
11
28.14887
21
15.56749
31
0
0
LINE
8
A-WALL-PATT
10
28.11111
20
15.48806
30
0
11
28.19054
21
15.56749
31
0
0
LINE
8
A-WALL-PATT
10
28.15278
20
15.48806
30
0
11
28.2322
21
15.56749
31
0
0
LINE
8
A-WALL-PATT
10
28.19444
20
15.48806
30
0
11
28.27387
21
15.56749
31
0
0
LINE
8
A-WALL-PATT
10
28.23611
20
15.48806
30
0
11
28.31554
21
15.56749
31
0
0
LINE
8
A-WALL-PATT
10
28.27778
20
15.48806
30
0
11
28.3572
21
15.56749
31
0
0
LINE
8
A-WALL-PATT
10
28.31944
20
15.48806
30
0
11
28.39887
21
15.56749
31
0
0
LINE
8
A-WALL-PATT
10
28.36111
20
15.48806
30
0
11
28.44054
21
15.56749
31
0
0
LINE
8
A-WALL-PATT
10
28.40278
20
15.48806
30
0
11
28.4822
21
15.56749
31
0
0
LINE
8
A-WALL-PATT
10
28.44444
20
15.48806
30
0
11
28.52387
21
15.56749
31
0
0
LINE
8
A-WALL-PATT
10
28.48611
20
15.48806
30
0
11
28.56554
21
15.56749
31
0
0
LINE
8
A-WALL-PATT
10
28.52778
20
15.48806
30
0
11
28.6072
21
15.56749
31
0
0
LINE
8
A-WALL-PATT
10
28.56944
20
15.48806
30
0
11
28.64887
21
15.56749
31
0
0
LINE
8
A-WALL-PATT
10
28.61111
20
15.48806
30
0
11
28.69054
21
15.56749
31
0
0
LINE
8
A-WALL-PATT
10
28.65278
20
15.48806
30
0
11
28.7322
21
15.56749
31
0
0
LINE
8
A-WALL-PATT
10
28.69444
20
15.48806
30
0
11
28.77387
21
15.56749
31
0
0
LINE
8
A-WALL-PATT
10
28.73611
20
15.48806
30
0
11
28.81554
21
15.56749
31
0
0
LINE
8
A-WALL-PATT
10
28.77778
20
15.48806
30
0
11
28.8572
21
15.56749
31
0
0
LINE
8
A-WALL-PATT
10
28.81944
20
15.48806
30
0
11
28.89887
21
15.56749
31
0
0
LINE
8
A-WALL-PATT
10
28.86111
20
15.48806
30
0
11
28.94054
21
15.56749
31
0
0
LINE
8
A-WALL-PATT
10
28.90278
20
15.48806
30
0
11
28.9822
21
15.56749
31
0
0
LINE
8
A-WALL-PATT
10
28.94444
20
15.48806
30
0
11
29.02387
21
15.56749
31
0
0
LINE
8
A-WALL-PATT
10
28.98611
20
15.48806
30
0
11
29.06554
21
15.56749
31
0
0
LINE
8
A-WALL-PATT
10
29.02778
20
15.48806
30
0
11
29.1072
21
15.56749
31
0
0
LINE
8
A-WALL-PATT
10
29.06944
20
15.48806
30
0
11
29.14887
21
15.56749
31
0
0
LINE
8
A-WALL-PATT
10
29.11111
20
15.48806
30
0
11
29.19054
21
15.56749
31
0
0
LINE
8
A-WALL
10
25.4197
20
17.50304
30
0
11
25.4197
21
19.31879
31
0
0
LINE
8
A-WALL
10
25.46918
20
17.55252
30
0
11
25.46918
21
19.31879
31
0
0
LINE
8
A-WALL
10
25.46918
20
17.55252
30
0
11
26.90473
21
17.55252
31
0
0
LINE
8
A-WALL
10
25.4197
20
17.50304
30
0
11
26.90473
21
17.50304
31
0
0
LINE
8
A-WALL
10
23.84484
20
9.05317
30
0
11
26.36892
21
9.05317
31
0
0
LINE
8
A-WALL
10
26.51997
20
9.05317
30
0
11
29.14822
21
9.05317
31
0
0
LINE
8
A-WALL
10
23.84484
20
9.00239
30
0
11
29.14822
21
9.00239
31
0
0
LINE
8
A-WALL
10
26.36892
20
9.05317
30
0
11
26.36892
21
12.75239
31
0
0
LINE
8
A-WALL
10
26.41319
20
9.05317
30
0
11
26.41319
21
12.75239
31
0
0
LINE
8
A-WALL
10
26.47569
20
9.05317
30
0
11
26.47569
21
12.75239
31
0
0
LINE
8
A-WALL
10
26.51997
20
9.05317
30
0
11
26.51997
21
12.75239
31
0
0
LINE
8
A-WALL
10
23.79405
20
7.74067
30
0
11
23.79405
21
12.75239
31
0
0
LINE
8
A-WALL
10
23.84484
20
7.74067
30
0
11
23.84484
21
9.00239
31
0
0
LINE
8
A-WALL
10
23.84484
20
9.05317
30
0
11
23.84484
21
12.75239
31
0
0
LINE
8
A-WALL
10
21.96984
20
12.80317
30
0
11
24.88194
21
12.80317
31
0
0
LINE
8
A-WALL
10
25.25694
20
12.80317
30
0
11
28.00694
21
12.80317
31
0
0
LINE
8
A-WALL
10
28.38194
20
12.80317
30
0
11
29.14822
21
12.80317
31
0
0
LINE
8
A-WALL
10
21.91905
20
12.75239
30
0
11
23.79405
21
12.75239
31
0
0
LINE
8
A-WALL
10
23.84484
20
12.75239
30
0
11
24.88194
21
12.75239
31
0
0
LINE
8
A-WALL
10
25.25694
20
12.75239
30
0
11
26.36892
21
12.75239
31
0
0
LINE
8
A-WALL
10
26.51997
20
12.75239
30
0
11
28.00694
21
12.75239
31
0
0
LINE
8
A-WALL
10
28.38194
20
12.75239
30
0
11
29.14822
21
12.75239
31
0
0
LINE
8
A-WALL
10
24.88194
20
12.80317
30
0
11
24.88194
21
12.75239
31
0
0
LINE
8
A-WALL
10
25.25694
20
12.80317
30
0
11
25.25694
21
12.75239
31
0
0
LINE
8
A-WALL
10
28.00694
20
12.80317
30
0
11
28.00694
21
12.75239
31
0
0
LINE
8
A-WALL
10
28.38194
20
12.80317
30
0
11
28.38194
21
12.75239
31
0
0
LINE
8
A-DOOR
10
24.88194
20
12.80317
30
0
11
24.88194
21
13.17817
31
0
0
LINE
8
A-DOOR
10
24.88194
20
13.17817
30
0
11
24.90017
21
13.17817
31
0
0
LINE
8
A-DOOR
10
24.90017
20
13.17817
30
0
11
24.90017
21
12.80317
31
0
0
LINE
8
A-DOOR
10
24.90017
20
12.80317
30
0
11
24.88194
21
12.80317
31
0
0
LINE
8
A-DOOR
10
25.25694
20
12.80317
30
0
11
25.24933
21
12.87874
31
0
0
LINE
8
A-DOOR
10
25.24933
20
12.87874
30
0
11
25.22748
21
12.94914
31
0
0
LINE
8
A-DOOR
10
25.22748
20
12.94914
30
0
11
25.1929
21
13.01283
31
0
0
LINE
8
A-DOOR
10
25.1929
20
13.01283
30
0
11
25.14711
21
13.06833
31
0
0
LINE
8
A-DOOR
10
25.14711
20
13.06833
30
0
11
25.09161
21
13.11412
31
0
0
LINE
8
A-DOOR
10
25.09161
20
13.11412
30
0
11
25.02791
21
13.1487
31
0
0
LINE
8
A-DOOR
10
25.02791
20
13.1487
30
0
11
24.95752
21
13.17055
31
0
0
LINE
8
A-DOOR
10
24.95752
20
13.17055
30
0
11
24.88194
21
13.17817
31
0
0
LINE
8
A-ANNO-SYMB
10
25.13889
20
12.47739
30
0
11
25.13748
21
12.49138
31
0
0
LINE
8
A-ANNO-SYMB
10
25.13748
20
12.49138
30
0
11
25.13343
21
12.50442
31
0
0
LINE
8
A-ANNO-SYMB
10
25.13343
20
12.50442
30
0
11
25.12703
21
12.51621
31
0
0
LINE
8
A-ANNO-SYMB
10
25.12703
20
12.51621
30
0
11
25.11855
21
12.52649
31
0
0
LINE
8
A-ANNO-SYMB
10
25.11855
20
12.52649
30
0
11
25.10827
21
12.53497
31
0
0
LINE
8
A-ANNO-SYMB
10
25.10827
20
12.53497
30
0
11
25.09648
21
12.54137
31
0
0
LINE
8
A-ANNO-SYMB
10
25.09648
20
12.54137
30
0
11
25.08344
21
12.54542
31
0
0
LINE
8
A-ANNO-SYMB
10
25.08344
20
12.54542
30
0
11
25.06944
21
12.54683
31
0
0
LINE
8
A-ANNO-SYMB
10
25.06944
20
12.54683
30
0
11
25.05545
21
12.54542
31
0
0
LINE
8
A-ANNO-SYMB
10
25.05545
20
12.54542
30
0
11
25.04241
21
12.54137
31
0
0
LINE
8
A-ANNO-SYMB
10
25.04241
20
12.54137
30
0
11
25.03062
21
12.53497
31
0
0
LINE
8
A-ANNO-SYMB
10
25.03062
20
12.53497
30
0
11
25.02034
21
12.52649
31
0
0
LINE
8
A-ANNO-SYMB
10
25.02034
20
12.52649
30
0
11
25.01186
21
12.51621
31
0
0
LINE
8
A-ANNO-SYMB
10
25.01186
20
12.51621
30
0
11
25.00546
21
12.50442
31
0
0
LINE
8
A-ANNO-SYMB
10
25.00546
20
12.50442
30
0
11
25.00141
21
12.49138
31
0
0
LINE
8
A-ANNO-SYMB
10
25.00141
20
12.49138
30
0
11
25
21
12.47739
31
0
0
LINE
8
A-ANNO-SYMB
10
25
20
12.47739
30
0
11
25.00141
21
12.46339
31
0
0
LINE
8
A-ANNO-SYMB
10
25.00141
20
12.46339
30
0
11
25.00546
21
12.45036
31
0
0
LINE
8
A-ANNO-SYMB
10
25.00546
20
12.45036
30
0
11
25.01186
21
12.43856
31
0
0
LINE
8
A-ANNO-SYMB
10
25.01186
20
12.43856
30
0
11
25.02034
21
12.42828
31
0
0
LINE
8
A-ANNO-SYMB
10
25.02034
20
12.42828
30
0
11
25.03062
21
12.4198
31
0
0
LINE
8
A-ANNO-SYMB
10
25.03062
20
12.4198
30
0
11
25.04241
21
12.4134
31
0
0
LINE
8
A-ANNO-SYMB
10
25.04241
20
12.4134
30
0
11
25.05545
21
12.40935
31
0
0
LINE
8
A-ANNO-SYMB
10
25.05545
20
12.40935
30
0
11
25.06944
21
12.40794
31
0
0
LINE
8
A-ANNO-SYMB
10
25.06944
20
12.40794
30
0
11
25.08344
21
12.40935
31
0
0
LINE
8
A-ANNO-SYMB
10
25.08344
20
12.40935
30
0
11
25.09648
21
12.4134
31
0
0
LINE
8
A-ANNO-SYMB
10
25.09648
20
12.4134
30
0
11
25.10827
21
12.4198
31
0
0
LINE
8
A-ANNO-SYMB
10
25.10827
20
12.4198
30
0
11
25.11855
21
12.42828
31
0
0
LINE
8
A-ANNO-SYMB
10
25.11855
20
12.42828
30
0
11
25.12703
21
12.43856
31
0
0
LINE
8
A-ANNO-SYMB
10
25.12703
20
12.43856
30
0
11
25.13343
21
12.45036
31
0
0
LINE
8
A-ANNO-SYMB
10
25.13343
20
12.45036
30
0
11
25.13748
21
12.46339
31
0
0
LINE
8
A-ANNO-SYMB
10
25.13748
20
12.46339
30
0
11
25.13889
21
12.47739
31
0
0
TEXT
8
A-ANNO-SYMB
10
25.06944
20
12.44961
30
0
40
0.05
1
251
50
0
72
1
11
25.06944
21
12.44961
31
0
0
LINE
8
A-DOOR
10
28.00694
20
12.80317
30
0
11
28.00694
21
13.17817
31
0
0
LINE
8
A-DOOR
10
28.00694
20
13.17817
30
0
11
28.02517
21
13.17817
31
0
0
LINE
8
A-DOOR
10
28.02517
20
13.17817
30
0
11
28.02517
21
12.80317
31
0
0
LINE
8
A-DOOR
10
28.02517
20
12.80317
30
0
11
28.00694
21
12.80317
31
0
0
LINE
8
A-DOOR
10
28.38194
20
12.80317
30
0
11
28.37433
21
12.87874
31
0
0
LINE
8
A-DOOR
10
28.37433
20
12.87874
30
0
11
28.35248
21
12.94914
31
0
0
LINE
8
A-DOOR
10
28.35248
20
12.94914
30
0
11
28.3179
21
13.01283
31
0
0
LINE
8
A-DOOR
10
28.3179
20
13.01283
30
0
11
28.27211
21
13.06833
31
0
0
LINE
8
A-DOOR
10
28.27211
20
13.06833
30
0
11
28.21661
21
13.11412
31
0
0
LINE
8
A-DOOR
10
28.21661
20
13.11412
30
0
11
28.15291
21
13.1487
31
0
0
LINE
8
A-DOOR
10
28.15291
20
13.1487
30
0
11
28.08252
21
13.17055
31
0
0
LINE
8
A-DOOR
10
28.08252
20
13.17055
30
0
11
28.00694
21
13.17817
31
0
0
LINE
8
A-ANNO-SYMB
10
28.26389
20
12.47739
30
0
11
28.26248
21
12.49138
31
0
0
LINE
8
A-ANNO-SYMB
10
28.26248
20
12.49138
30
0
11
28.25843
21
12.50442
31
0
0
LINE
8
A-ANNO-SYMB
10
28.25843
20
12.50442
30
0
11
28.25203
21
12.51621
31
0
0
LINE
8
A-ANNO-SYMB
10
28.25203
20
12.51621
30
0
11
28.24355
21
12.52649
31
0
0
LINE
8
A-ANNO-SYMB
10
28.24355
20
12.52649
30
0
11
28.23327
21
12.53497
31
0
0
LINE
8
A-ANNO-SYMB
10
28.23327
20
12.53497
30
0
11
28.22148
21
12.54137
31
0
0
LINE
8
A-ANNO-SYMB
10
28.22148
20
12.54137
30
0
11
28.20844
21
12.54542
31
0
0
LINE
8
A-ANNO-SYMB
10
28.20844
20
12.54542
30
0
11
28.19444
21
12.54683
31
0
0
LINE
8
A-ANNO-SYMB
10
28.19444
20
12.54683
30
0
11
28.18045
21
12.54542
31
0
0
LINE
8
A-ANNO-SYMB
10
28.18045
20
12.54542
30
0
11
28.16741
21
12.54137
31
0
0
LINE
8
A-ANNO-SYMB
10
28.16741
20
12.54137
30
0
11
28.15562
21
12.53497
31
0
0
LINE
8
A-ANNO-SYMB
10
28.15562
20
12.53497
30
0
11
28.14534
21
12.52649
31
0
0
LINE
8
A-ANNO-SYMB
10
28.14534
20
12.52649
30
0
11
28.13686
21
12.51621
31
0
0
LINE
8
A-ANNO-SYMB
10
28.13686
20
12.51621
30
0
11
28.13046
21
12.50442
31
0
0
LINE
8
A-ANNO-SYMB
10
28.13046
20
12.50442
30
0
11
28.12641
21
12.49138
31
0
0
LINE
8
A-ANNO-SYMB
10
28.12641
20
12.49138
30
0
11
28.125
21
12.47739
31
0
0
LINE
8
A-ANNO-SYMB
10
28.125
20
12.47739
30
0
11
28.12641
21
12.46339
31
0
0
LINE
8
A-ANNO-SYMB
10
28.12641
20
12.46339
30
0
11
28.13046
21
12.45036
31
0
0
LINE
8
A-ANNO-SYMB
10
28.13046
20
12.45036
30
0
11
28.13686
21
12.43856
31
0
0
LINE
8
A-ANNO-SYMB
10
28.13686
20
12.43856
30
0
11
28.14534
21
12.42828
31
0
0
LINE
8
A-ANNO-SYMB
10
28.14534
20
12.42828
30
0
11
28.15562
21
12.4198
31
0
0
LINE
8
A-ANNO-SYMB
10
28.15562
20
12.4198
30
0
11
28.16741
21
12.4134
31
0
0
LINE
8
A-ANNO-SYMB
10
28.16741
20
12.4134
30
0
11
28.18045
21
12.40935
31
0
0
LINE
8
A-ANNO-SYMB
10
28.18045
20
12.40935
30
0
11
28.19444
21
12.40794
31
0
0
LINE
8
A-ANNO-SYMB
10
28.19444
20
12.40794
30
0
11
28.20844
21
12.40935
31
0
0
LINE
8
A-ANNO-SYMB
10
28.20844
20
12.40935
30
0
11
28.22148
21
12.4134
31
0
0
LINE
8
A-ANNO-SYMB
10
28.22148
20
12.4134
30
0
11
28.23327
21
12.4198
31
0
0
LINE
8
A-ANNO-SYMB
10
28.23327
20
12.4198
30
0
11
28.24355
21
12.42828
31
0
0
LINE
8
A-ANNO-SYMB
10
28.24355
20
12.42828
30
0
11
28.25203
21
12.43856
31
0
0
LINE
8
A-ANNO-SYMB
10
28.25203
20
12.43856
30
0
11
28.25843
21
12.45036
31
0
0
LINE
8
A-ANNO-SYMB
10
28.25843
20
12.45036
30
0
11
28.26248
21
12.46339
31
0
0
LINE
8
A-ANNO-SYMB
10
28.26248
20
12.46339
30
0
11
28.26389
21
12.47739
31
0
0
TEXT
8
A-ANNO-SYMB
10
28.19444
20
12.44961
30
0
40
0.05
1
252
50
0
72
1
11
28.19444
21
12.44961
31
0
0
LINE
8
A-COLS
10
3.13194
20
7.71528
30
0
11
3.25694
21
7.71528
31
0
0
LINE
8
A-COLS
10
3.25694
20
7.71528
30
0
11
3.25694
21
7.84028
31
0
0
LINE
8
A-COLS
10
3.25694
20
7.84028
30
0
11
3.13194
21
7.84028
31
0
0
LINE
8
A-COLS
10
3.13194
20
7.84028
30
0
11
3.13194
21
7.71528
31
0
0
LINE
8
A-COLS
10
3.15694
20
7.74028
30
0
11
3.23194
21
7.74028
31
0
0
LINE
8
A-COLS
10
3.23194
20
7.74028
30
0
11
3.23194
21
7.75694
31
0
0
LINE
8
A-COLS
10
3.23194
20
7.75694
30
0
11
3.20139
21
7.75694
31
0
0
LINE
8
A-COLS
10
3.20139
20
7.75694
30
0
11
3.20139
21
7.79861
31
0
0
LINE
8
A-COLS
10
3.20139
20
7.79861
30
0
11
3.23194
21
7.79861
31
0
0
LINE
8
A-COLS
10
3.23194
20
7.79861
30
0
11
3.23194
21
7.81528
31
0
0
LINE
8
A-COLS
10
3.23194
20
7.81528
30
0
11
3.15694
21
7.81528
31
0
0
LINE
8
A-COLS
10
3.15694
20
7.81528
30
0
11
3.15694
21
7.79861
31
0
0
LINE
8
A-COLS
10
3.15694
20
7.79861
30
0
11
3.1875
21
7.79861
31
0
0
LINE
8
A-COLS
10
3.1875
20
7.79861
30
0
11
3.1875
21
7.75694
31
0
0
LINE
8
A-COLS
10
3.1875
20
7.75694
30
0
11
3.15694
21
7.75694
31
0
0
LINE
8
A-COLS
10
3.15694
20
7.75694
30
0
11
3.15694
21
7.74028
31
0
0
LINE
8
A-COLS
10
3.13194
20
11.46528
30
0
11
3.25694
21
11.46528
31
0
0
LINE
8
A-COLS
10
3.25694
20
11.46528
30
0
11
3.25694
21
11.59028
31
0
0
LINE
8
A-COLS
10
3.25694
20
11.59028
30
0
11
3.13194
21
11.59028
31
0
0
LINE
8
A-COLS
10
3.13194
20
11.59028
30
0
11
3.13194
21
11.46528
31
0
0
LINE
8
A-COLS
10
3.15694
20
11.49028
30
0
11
3.23194
21
11.49028
31
0
0
LINE
8
A-COLS
10
3.23194
20
11.49028
30
0
11
3.23194
21
11.50694
31
0
0
LINE
8
A-COLS
10
3.23194
20
11.50694
30
0
11
3.20139
21
11.50694
31
0
0
LINE
8
A-COLS
10
3.20139
20
11.50694
30
0
11
3.20139
21
11.54861
31
0
0
LINE
8
A-COLS
10
3.20139
20
11.54861
30
0
11
3.23194
21
11.54861
31
0
0
LINE
8
A-COLS
10
3.23194
20
11.54861
30
0
11
3.23194
21
11.56528
31
0
0
LINE
8
A-COLS
10
3.23194
20
11.56528
30
0
11
3.15694
21
11.56528
31
0
0
LINE
8
A-COLS
10
3.15694
20
11.56528
30
0
11
3.15694
21
11.54861
31
0
0
LINE
8
A-COLS
10
3.15694
20
11.54861
30
0
11
3.1875
21
11.54861
31
0
0
LINE
8
A-COLS
10
3.1875
20
11.54861
30
0
11
3.1875
21
11.50694
31
0
0
LINE
8
A-COLS
10
3.1875
20
11.50694
30
0
11
3.15694
21
11.50694
31
0
0
LINE
8
A-COLS
10
3.15694
20
11.50694
30
0
11
3.15694
21
11.49028
31
0
0
LINE
8
A-COLS
10
3.13194
20
15.21528
30
0
11
3.25694
21
15.21528
31
0
0
LINE
8
A-COLS
10
3.25694
20
15.21528
30
0
11
3.25694
21
15.34028
31
0
0
LINE
8
A-COLS
10
3.25694
20
15.34028
30
0
11
3.13194
21
15.34028
31
0
0
LINE
8
A-COLS
10
3.13194
20
15.34028
30
0
11
3.13194
21
15.21528
31
0
0
LINE
8
A-COLS
10
3.15694
20
15.24028
30
0
11
3.23194
21
15.24028
31
0
0
LINE
8
A-COLS
10
3.23194
20
15.24028
30
0
11
3.23194
21
15.25694
31
0
0
LINE
8
A-COLS
10
3.23194
20
15.25694
30
0
11
3.20139
21
15.25694
31
0
0
LINE
8
A-COLS
10
3.20139
20
15.25694
30
0
11
3.20139
21
15.29861
31
0
0
LINE
8
A-COLS
10
3.20139
20
15.29861
30
0
11
3.23194
21
15.29861
31
0
0
LINE
8
A-COLS
10
3.23194
20
15.29861
30
0
11
3.23194
21
15.31528
31
0
0
LINE
8
A-COLS
10
3.23194
20
15.31528
30
0
11
3.15694
21
15.31528
31
0
0
LINE
8
A-COLS
10
3.15694
20
15.31528
30
0
11
3.15694
21
15.29861
31
0
0
LINE
8
A-COLS
10
3.15694
20
15.29861
30
0
11
3.1875
21
15.29861
31
0
0
LINE
8
A-COLS
10
3.1875
20
15.29861
30
0
11
3.1875
21
15.25694
31
0
0
LINE
8
A-COLS
10
3.1875
20
15.25694
30
0
11
3.15694
21
15.25694
31
0
0
LINE
8
A-COLS
10
3.15694
20
15.25694
30
0
11
3.15694
21
15.24028
31
0
0
LINE
8
A-COLS
10
3.13194
20
19.21528
30
0
11
3.25694
21
19.21528
31
0
0
LINE
8
A-COLS
10
3.25694
20
19.21528
30
0
11
3.25694
21
19.34028
31
0
0
LINE
8
A-COLS
10
3.25694
20
19.34028
30
0
11
3.13194
21
19.34028
31
0
0
LINE
8
A-COLS
10
3.13194
20
19.34028
30
0
11
3.13194
21
19.21528
31
0
0
LINE
8
A-COLS
10
3.15694
20
19.24028
30
0
11
3.23194
21
19.24028
31
0
0
LINE
8
A-COLS
10
3.23194
20
19.24028
30
0
11
3.23194
21
19.25694
31
0
0
LINE
8
A-COLS
10
3.23194
20
19.25694
30
0
11
3.20139
21
19.25694
31
0
0
LINE
8
A-COLS
10
3.20139
20
19.25694
30
0
11
3.20139
21
19.29861
31
0
0
LINE
8
A-COLS
10
3.20139
20
19.29861
30
0
11
3.23194
21
19.29861
31
0
0
LINE
8
A-COLS
10
3.23194
20
19.29861
30
0
11
3.23194
21
19.31528
31
0
0
LINE
8
A-COLS
10
3.23194
20
19.31528
30
0
11
3.15694
21
19.31528
31
0
0
LINE
8
A-COLS
10
3.15694
20
19.31528
30
0
11
3.15694
21
19.29861
31
0
0
LINE
8
A-COLS
10
3.15694
20
19.29861
30
0
11
3.1875
21
19.29861
31
0
0
LINE
8
A-COLS
10
3.1875
20
19.29861
30
0
11
3.1875
21
19.25694
31
0
0
LINE
8
A-COLS
10
3.1875
20
19.25694
30
0
11
3.15694
21
19.25694
31
0
0
LINE
8
A-COLS
10
3.15694
20
19.25694
30
0
11
3.15694
21
19.24028
31
0
0
LINE
8
A-COLS
10
6.88194
20
7.71528
30
0
11
7.00694
21
7.71528
31
0
0
LINE
8
A-COLS
10
7.00694
20
7.71528
30
0
11
7.00694
21
7.84028
31
0
0
LINE
8
A-COLS
10
7.00694
20
7.84028
30
0
11
6.88194
21
7.84028
31
0
0
LINE
8
A-COLS
10
6.88194
20
7.84028
30
0
11
6.88194
21
7.71528
31
0
0
LINE
8
A-COLS
10
6.90694
20
7.74028
30
0
11
6.98194
21
7.74028
31
0
0
LINE
8
A-COLS
10
6.98194
20
7.74028
30
0
11
6.98194
21
7.75694
31
0
0
LINE
8
A-COLS
10
6.98194
20
7.75694
30
0
11
6.95139
21
7.75694
31
0
0
LINE
8
A-COLS
10
6.95139
20
7.75694
30
0
11
6.95139
21
7.79861
31
0
0
LINE
8
A-COLS
10
6.95139
20
7.79861
30
0
11
6.98194
21
7.79861
31
0
0
LINE
8
A-COLS
10
6.98194
20
7.79861
30
0
11
6.98194
21
7.81528
31
0
0
LINE
8
A-COLS
10
6.98194
20
7.81528
30
0
11
6.90694
21
7.81528
31
0
0
LINE
8
A-COLS
10
6.90694
20
7.81528
30
0
11
6.90694
21
7.79861
31
0
0
LINE
8
A-COLS
10
6.90694
20
7.79861
30
0
11
6.9375
21
7.79861
31
0
0
LINE
8
A-COLS
10
6.9375
20
7.79861
30
0
11
6.9375
21
7.75694
31
0
0
LINE
8
A-COLS
10
6.9375
20
7.75694
30
0
11
6.90694
21
7.75694
31
0
0
LINE
8
A-COLS
10
6.90694
20
7.75694
30
0
11
6.90694
21
7.74028
31
0
0
LINE
8
A-COLS
10
6.88194
20
11.46528
30
0
11
7.00694
21
11.46528
31
0
0
LINE
8
A-COLS
10
7.00694
20
11.46528
30
0
11
7.00694
21
11.59028
31
0
0
LINE
8
A-COLS
10
7.00694
20
11.59028
30
0
11
6.88194
21
11.59028
31
0
0
LINE
8
A-COLS
10
6.88194
20
11.59028
30
0
11
6.88194
21
11.46528
31
0
0
LINE
8
A-COLS
10
6.90694
20
11.49028
30
0
11
6.98194
21
11.49028
31
0
0
LINE
8
A-COLS
10
6.98194
20
11.49028
30
0
11
6.98194
21
11.50694
31
0
0
LINE
8
A-COLS
10
6.98194
20
11.50694
30
0
11
6.95139
21
11.50694
31
0
0
LINE
8
A-COLS
10
6.95139
20
11.50694
30
0
11
6.95139
21
11.54861
31
0
0
LINE
8
A-COLS
10
6.95139
20
11.54861
30
0
11
6.98194
21
11.54861
31
0
0
LINE
8
A-COLS
10
6.98194
20
11.54861
30
0
11
6.98194
21
11.56528
31
0
0
LINE
8
A-COLS
10
6.98194
20
11.56528
30
0
11
6.90694
21
11.56528
31
0
0
LINE
8
A-COLS
10
6.90694
20
11.56528
30
0
11
6.90694
21
11.54861
31
0
0
LINE
8
A-COLS
10
6.90694
20
11.54861
30
0
11
6.9375
21
11.54861
31
0
0
LINE
8
A-COLS
10
6.9375
20
11.54861
30
0
11
6.9375
21
11.50694
31
0
0
LINE
8
A-COLS
10
6.9375
20
11.50694
30
0
11
6.90694
21
11.50694
31
0
0
LINE
8
A-COLS
10
6.90694
20
11.50694
30
0
11
6.90694
21
11.49028
31
0
0
LINE
8
A-COLS
10
6.88194
20
15.21528
30
0
11
7.00694
21
15.21528
31
0
0
LINE
8
A-COLS
10
7.00694
20
15.21528
30
0
11
7.00694
21
15.34028
31
0
0
LINE
8
A-COLS
10
7.00694
20
15.34028
30
0
11
6.88194
21
15.34028
31
0
0
LINE
8
A-COLS
10
6.88194
20
15.34028
30
0
11
6.88194
21
15.21528
31
0
0
LINE
8
A-COLS
10
6.90694
20
15.24028
30
0
11
6.98194
21
15.24028
31
0
0
LINE
8
A-COLS
10
6.98194
20
15.24028
30
0
11
6.98194
21
15.25694
31
0
0
LINE
8
A-COLS
10
6.98194
20
15.25694
30
0
11
6.95139
21
15.25694
31
0
0
LINE
8
A-COLS
10
6.95139
20
15.25694
30
0
11
6.95139
21
15.29861
31
0
0
LINE
8
A-COLS
10
6.95139
20
15.29861
30
0
11
6.98194
21
15.29861
31
0
0
LINE
8
A-COLS
10
6.98194
20
15.29861
30
0
11
6.98194
21
15.31528
31
0
0
LINE
8
A-COLS
10
6.98194
20
15.31528
30
0
11
6.90694
21
15.31528
31
0
0
LINE
8
A-COLS
10
6.90694
20
15.31528
30
0
11
6.90694
21
15.29861
31
0
0
LINE
8
A-COLS
10
6.90694
20
15.29861
30
0
11
6.9375
21
15.29861
31
0
0
LINE
8
A-COLS
10
6.9375
20
15.29861
30
0
11
6.9375
21
15.25694
31
0
0
LINE
8
A-COLS
10
6.9375
20
15.25694
30
0
11
6.90694
21
15.25694
31
0
0
LINE
8
A-COLS
10
6.90694
20
15.25694
30
0
11
6.90694
21
15.24028
31
0
0
LINE
8
A-COLS
10
6.88194
20
19.21528
30
0
11
7.00694
21
19.21528
31
0
0
LINE
8
A-COLS
10
7.00694
20
19.21528
30
0
11
7.00694
21
19.34028
31
0
0
LINE
8
A-COLS
10
7.00694
20
19.34028
30
0
11
6.88194
21
19.34028
31
0
0
LINE
8
A-COLS
10
6.88194
20
19.34028
30
0
11
6.88194
21
19.21528
31
0
0
LINE
8
A-COLS
10
6.90694
20
19.24028
30
0
11
6.98194
21
19.24028
31
0
0
LINE
8
A-COLS
10
6.98194
20
19.24028
30
0
11
6.98194
21
19.25694
31
0
0
LINE
8
A-COLS
10
6.98194
20
19.25694
30
0
11
6.95139
21
19.25694
31
0
0
LINE
8
A-COLS
10
6.95139
20
19.25694
30
0
11
6.95139
21
19.29861
31
0
0
LINE
8
A-COLS
10
6.95139
20
19.29861
30
0
11
6.98194
21
19.29861
31
0
0
LINE
8
A-COLS
10
6.98194
20
19.29861
30
0
11
6.98194
21
19.31528
31
0
0
LINE
8
A-COLS
10
6.98194
20
19.31528
30
0
11
6.90694
21
19.31528
31
0
0
LINE
8
A-COLS
10
6.90694
20
19.31528
30
0
11
6.90694
21
19.29861
31
0
0
LINE
8
A-COLS
10
6.90694
20
19.29861
30
0
11
6.9375
21
19.29861
31
0
0
LINE
8
A-COLS
10
6.9375
20
19.29861
30
0
11
6.9375
21
19.25694
31
0
0
LINE
8
A-COLS
10
6.9375
20
19.25694
30
0
11
6.90694
21
19.25694
31
0
0
LINE
8
A-COLS
10
6.90694
20
19.25694
30
0
11
6.90694
21
19.24028
31
0
0
LINE
8
A-COLS
10
10.63194
20
7.71528
30
0
11
10.75694
21
7.71528
31
0
0
LINE
8
A-COLS
10
10.75694
20
7.71528
30
0
11
10.75694
21
7.84028
31
0
0
LINE
8
A-COLS
10
10.75694
20
7.84028
30
0
11
10.63194
21
7.84028
31
0
0
LINE
8
A-COLS
10
10.63194
20
7.84028
30
0
11
10.63194
21
7.71528
31
0
0
LINE
8
A-COLS
10
10.65694
20
7.74028
30
0
11
10.73194
21
7.74028
31
0
0
LINE
8
A-COLS
10
10.73194
20
7.74028
30
0
11
10.73194
21
7.75694
31
0
0
LINE
8
A-COLS
10
10.73194
20
7.75694
30
0
11
10.70139
21
7.75694
31
0
0
LINE
8
A-COLS
10
10.70139
20
7.75694
30
0
11
10.70139
21
7.79861
31
0
0
LINE
8
A-COLS
10
10.70139
20
7.79861
30
0
11
10.73194
21
7.79861
31
0
0
LINE
8
A-COLS
10
10.73194
20
7.79861
30
0
11
10.73194
21
7.81528
31
0
0
LINE
8
A-COLS
10
10.73194
20
7.81528
30
0
11
10.65694
21
7.81528
31
0
0
LINE
8
A-COLS
10
10.65694
20
7.81528
30
0
11
10.65694
21
7.79861
31
0
0
LINE
8
A-COLS
10
10.65694
20
7.79861
30
0
11
10.6875
21
7.79861
31
0
0
LINE
8
A-COLS
10
10.6875
20
7.79861
30
0
11
10.6875
21
7.75694
31
0
0
LINE
8
A-COLS
10
10.6875
20
7.75694
30
0
11
10.65694
21
7.75694
31
0
0
LINE
8
A-COLS
10
10.65694
20
7.75694
30
0
11
10.65694
21
7.74028
31
0
0
LINE
8
A-COLS
10
10.63194
20
11.46528
30
0
11
10.75694
21
11.46528
31
0
0
LINE
8
A-COLS
10
10.75694
20
11.46528
30
0
11
10.75694
21
11.59028
31
0
0
LINE
8
A-COLS
10
10.75694
20
11.59028
30
0
11
10.63194
21
11.59028
31
0
0
LINE
8
A-COLS
10
10.63194
20
11.59028
30
0
11
10.63194
21
11.46528
31
0
0
LINE
8
A-COLS
10
10.65694
20
11.49028
30
0
11
10.73194
21
11.49028
31
0
0
LINE
8
A-COLS
10
10.73194
20
11.49028
30
0
11
10.73194
21
11.50694
31
0
0
LINE
8
A-COLS
10
10.73194
20
11.50694
30
0
11
10.70139
21
11.50694
31
0
0
LINE
8
A-COLS
10
10.70139
20
11.50694
30
0
11
10.70139
21
11.54861
31
0
0
LINE
8
A-COLS
10
10.70139
20
11.54861
30
0
11
10.73194
21
11.54861
31
0
0
LINE
8
A-COLS
10
10.73194
20
11.54861
30
0
11
10.73194
21
11.56528
31
0
0
LINE
8
A-COLS
10
10.73194
20
11.56528
30
0
11
10.65694
21
11.56528
31
0
0
LINE
8
A-COLS
10
10.65694
20
11.56528
30
0
11
10.65694
21
11.54861
31
0
0
LINE
8
A-COLS
10
10.65694
20
11.54861
30
0
11
10.6875
21
11.54861
31
0
0
LINE
8
A-COLS
10
10.6875
20
11.54861
30
0
11
10.6875
21
11.50694
31
0
0
LINE
8
A-COLS
10
10.6875
20
11.50694
30
0
11
10.65694
21
11.50694
31
0
0
LINE
8
A-COLS
10
10.65694
20
11.50694
30
0
11
10.65694
21
11.49028
31
0
0
LINE
8
A-COLS
10
10.63194
20
15.21528
30
0
11
10.75694
21
15.21528
31
0
0
LINE
8
A-COLS
10
10.75694
20
15.21528
30
0
11
10.75694
21
15.34028
31
0
0
LINE
8
A-COLS
10
10.75694
20
15.34028
30
0
11
10.63194
21
15.34028
31
0
0
LINE
8
A-COLS
10
10.63194
20
15.34028
30
0
11
10.63194
21
15.21528
31
0
0
LINE
8
A-COLS
10
10.65694
20
15.24028
30
0
11
10.73194
21
15.24028
31
0
0
LINE
8
A-COLS
10
10.73194
20
15.24028
30
0
11
10.73194
21
15.25694
31
0
0
LINE
8
A-COLS
10
10.73194
20
15.25694
30
0
11
10.70139
21
15.25694
31
0
0
LINE
8
A-COLS
10
10.70139
20
15.25694
30
0
11
10.70139
21
15.29861
31
0
0
LINE
8
A-COLS
10
10.70139
20
15.29861
30
0
11
10.73194
21
15.29861
31
0
0
LINE
8
A-COLS
10
10.73194
20
15.29861
30
0
11
10.73194
21
15.31528
31
0
0
LINE
8
A-COLS
10
10.73194
20
15.31528
30
0
11
10.65694
21
15.31528
31
0
0
LINE
8
A-COLS
10
10.65694
20
15.31528
30
0
11
10.65694
21
15.29861
31
0
0
LINE
8
A-COLS
10
10.65694
20
15.29861
30
0
11
10.6875
21
15.29861
31
0
0
LINE
8
A-COLS
10
10.6875
20
15.29861
30
0
11
10.6875
21
15.25694
31
0
0
LINE
8
A-COLS
10
10.6875
20
15.25694
30
0
11
10.65694
21
15.25694
31
0
0
LINE
8
A-COLS
10
10.65694
20
15.25694
30
0
11
10.65694
21
15.24028
31
0
0
LINE
8
A-COLS
10
10.63194
20
19.21528
30
0
11
10.75694
21
19.21528
31
0
0
LINE
8
A-COLS
10
10.75694
20
19.21528
30
0
11
10.75694
21
19.34028
31
0
0
LINE
8
A-COLS
10
10.75694
20
19.34028
30
0
11
10.63194
21
19.34028
31
0
0
LINE
8
A-COLS
10
10.63194
20
19.34028
30
0
11
10.63194
21
19.21528
31
0
0
LINE
8
A-COLS
10
10.65694
20
19.24028
30
0
11
10.73194
21
19.24028
31
0
0
LINE
8
A-COLS
10
10.73194
20
19.24028
30
0
11
10.73194
21
19.25694
31
0
0
LINE
8
A-COLS
10
10.73194
20
19.25694
30
0
11
10.70139
21
19.25694
31
0
0
LINE
8
A-COLS
10
10.70139
20
19.25694
30
0
11
10.70139
21
19.29861
31
0
0
LINE
8
A-COLS
10
10.70139
20
19.29861
30
0
11
10.73194
21
19.29861
31
0
0
LINE
8
A-COLS
10
10.73194
20
19.29861
30
0
11
10.73194
21
19.31528
31
0
0
LINE
8
A-COLS
10
10.73194
20
19.31528
30
0
11
10.65694
21
19.31528
31
0
0
LINE
8
A-COLS
10
10.65694
20
19.31528
30
0
11
10.65694
21
19.29861
31
0
0
LINE
8
A-COLS
10
10.65694
20
19.29861
30
0
11
10.6875
21
19.29861
31
0
0
LINE
8
A-COLS
10
10.6875
20
19.29861
30
0
11
10.6875
21
19.25694
31
0
0
LINE
8
A-COLS
10
10.6875
20
19.25694
30
0
11
10.65694
21
19.25694
31
0
0
LINE
8
A-COLS
10
10.65694
20
19.25694
30
0
11
10.65694
21
19.24028
31
0
0
LINE
8
A-COLS
10
14.04861
20
7.71528
30
0
11
14.17361
21
7.71528
31
0
0
LINE
8
A-COLS
10
14.17361
20
7.71528
30
0
11
14.17361
21
7.84028
31
0
0
LINE
8
A-COLS
10
14.17361
20
7.84028
30
0
11
14.04861
21
7.84028
31
0
0
LINE
8
A-COLS
10
14.04861
20
7.84028
30
0
11
14.04861
21
7.71528
31
0
0
LINE
8
A-COLS
10
14.07361
20
7.74028
30
0
11
14.14861
21
7.74028
31
0
0
LINE
8
A-COLS
10
14.14861
20
7.74028
30
0
11
14.14861
21
7.75694
31
0
0
LINE
8
A-COLS
10
14.14861
20
7.75694
30
0
11
14.11806
21
7.75694
31
0
0
LINE
8
A-COLS
10
14.11806
20
7.75694
30
0
11
14.11806
21
7.79861
31
0
0
LINE
8
A-COLS
10
14.11806
20
7.79861
30
0
11
14.14861
21
7.79861
31
0
0
LINE
8
A-COLS
10
14.14861
20
7.79861
30
0
11
14.14861
21
7.81528
31
0
0
LINE
8
A-COLS
10
14.14861
20
7.81528
30
0
11
14.07361
21
7.81528
31
0
0
LINE
8
A-COLS
10
14.07361
20
7.81528
30
0
11
14.07361
21
7.79861
31
0
0
LINE
8
A-COLS
10
14.07361
20
7.79861
30
0
11
14.10417
21
7.79861
31
0
0
LINE
8
A-COLS
10
14.10417
20
7.79861
30
0
11
14.10417
21
7.75694
31
0
0
LINE
8
A-COLS
10
14.10417
20
7.75694
30
0
11
14.07361
21
7.75694
31
0
0
LINE
8
A-COLS
10
14.07361
20
7.75694
30
0
11
14.07361
21
7.74028
31
0
0
LINE
8
A-COLS
10
14.04861
20
11.46528
30
0
11
14.17361
21
11.46528
31
0
0
LINE
8
A-COLS
10
14.17361
20
11.46528
30
0
11
14.17361
21
11.59028
31
0
0
LINE
8
A-COLS
10
14.17361
20
11.59028
30
0
11
14.04861
21
11.59028
31
0
0
LINE
8
A-COLS
10
14.04861
20
11.59028
30
0
11
14.04861
21
11.46528
31
0
0
LINE
8
A-COLS
10
14.07361
20
11.49028
30
0
11
14.14861
21
11.49028
31
0
0
LINE
8
A-COLS
10
14.14861
20
11.49028
30
0
11
14.14861
21
11.50694
31
0
0
LINE
8
A-COLS
10
14.14861
20
11.50694
30
0
11
14.11806
21
11.50694
31
0
0
LINE
8
A-COLS
10
14.11806
20
11.50694
30
0
11
14.11806
21
11.54861
31
0
0
LINE
8
A-COLS
10
14.11806
20
11.54861
30
0
11
14.14861
21
11.54861
31
0
0
LINE
8
A-COLS
10
14.14861
20
11.54861
30
0
11
14.14861
21
11.56528
31
0
0
LINE
8
A-COLS
10
14.14861
20
11.56528
30
0
11
14.07361
21
11.56528
31
0
0
LINE
8
A-COLS
10
14.07361
20
11.56528
30
0
11
14.07361
21
11.54861
31
0
0
LINE
8
A-COLS
10
14.07361
20
11.54861
30
0
11
14.10417
21
11.54861
31
0
0
LINE
8
A-COLS
10
14.10417
20
11.54861
30
0
11
14.10417
21
11.50694
31
0
0
LINE
8
A-COLS
10
14.10417
20
11.50694
30
0
11
14.07361
21
11.50694
31
0
0
LINE
8
A-COLS
10
14.07361
20
11.50694
30
0
11
14.07361
21
11.49028
31
0
0
LINE
8
A-COLS
10
14.04861
20
15.21528
30
0
11
14.17361
21
15.21528
31
0
0
LINE
8
A-COLS
10
14.17361
20
15.21528
30
0
11
14.17361
21
15.34028
31
0
0
LINE
8
A-COLS
10
14.17361
20
15.34028
30
0
11
14.04861
21
15.34028
31
0
0
LINE
8
A-COLS
10
14.04861
20
15.34028
30
0
11
14.04861
21
15.21528
31
0
0
LINE
8
A-COLS
10
14.07361
20
15.24028
30
0
11
14.14861
21
15.24028
31
0
0
LINE
8
A-COLS
10
14.14861
20
15.24028
30
0
11
14.14861
21
15.25694
31
0
0
LINE
8
A-COLS
10
14.14861
20
15.25694
30
0
11
14.11806
21
15.25694
31
0
0
LINE
8
A-COLS
10
14.11806
20
15.25694
30
0
11
14.11806
21
15.29861
31
0
0
LINE
8
A-COLS
10
14.11806
20
15.29861
30
0
11
14.14861
21
15.29861
31
0
0
LINE
8
A-COLS
10
14.14861
20
15.29861
30
0
11
14.14861
21
15.31528
31
0
0
LINE
8
A-COLS
10
14.14861
20
15.31528
30
0
11
14.07361
21
15.31528
31
0
0
LINE
8
A-COLS
10
14.07361
20
15.31528
30
0
11
14.07361
21
15.29861
31
0
0
LINE
8
A-COLS
10
14.07361
20
15.29861
30
0
11
14.10417
21
15.29861
31
0
0
LINE
8
A-COLS
10
14.10417
20
15.29861
30
0
11
14.10417
21
15.25694
31
0
0
LINE
8
A-COLS
10
14.10417
20
15.25694
30
0
11
14.07361
21
15.25694
31
0
0
LINE
8
A-COLS
10
14.07361
20
15.25694
30
0
11
14.07361
21
15.24028
31
0
0
LINE
8
A-COLS
10
14.04861
20
19.21528
30
0
11
14.17361
21
19.21528
31
0
0
LINE
8
A-COLS
10
14.17361
20
19.21528
30
0
11
14.17361
21
19.34028
31
0
0
LINE
8
A-COLS
10
14.17361
20
19.34028
30
0
11
14.04861
21
19.34028
31
0
0
LINE
8
A-COLS
10
14.04861
20
19.34028
30
0
11
14.04861
21
19.21528
31
0
0
LINE
8
A-COLS
10
14.07361
20
19.24028
30
0
11
14.14861
21
19.24028
31
0
0
LINE
8
A-COLS
10
14.14861
20
19.24028
30
0
11
14.14861
21
19.25694
31
0
0
LINE
8
A-COLS
10
14.14861
20
19.25694
30
0
11
14.11806
21
19.25694
31
0
0
LINE
8
A-COLS
10
14.11806
20
19.25694
30
0
11
14.11806
21
19.29861
31
0
0
LINE
8
A-COLS
10
14.11806
20
19.29861
30
0
11
14.14861
21
19.29861
31
0
0
LINE
8
A-COLS
10
14.14861
20
19.29861
30
0
11
14.14861
21
19.31528
31
0
0
LINE
8
A-COLS
10
14.14861
20
19.31528
30
0
11
14.07361
21
19.31528
31
0
0
LINE
8
A-COLS
10
14.07361
20
19.31528
30
0
11
14.07361
21
19.29861
31
0
0
LINE
8
A-COLS
10
14.07361
20
19.29861
30
0
11
14.10417
21
19.29861
31
0
0
LINE
8
A-COLS
10
14.10417
20
19.29861
30
0
11
14.10417
21
19.25694
31
0
0
LINE
8
A-COLS
10
14.10417
20
19.25694
30
0
11
14.07361
21
19.25694
31
0
0
LINE
8
A-COLS
10
14.07361
20
19.25694
30
0
11
14.07361
21
19.24028
31
0
0
LINE
8
A-COLS
10
17.79861
20
7.71528
30
0
11
17.92361
21
7.71528
31
0
0
LINE
8
A-COLS
10
17.92361
20
7.71528
30
0
11
17.92361
21
7.84028
31
0
0
LINE
8
A-COLS
10
17.92361
20
7.84028
30
0
11
17.79861
21
7.84028
31
0
0
LINE
8
A-COLS
10
17.79861
20
7.84028
30
0
11
17.79861
21
7.71528
31
0
0
LINE
8
A-COLS
10
17.82361
20
7.74028
30
0
11
17.89861
21
7.74028
31
0
0
LINE
8
A-COLS
10
17.89861
20
7.74028
30
0
11
17.89861
21
7.75694
31
0
0
LINE
8
A-COLS
10
17.89861
20
7.75694
30
0
11
17.86806
21
7.75694
31
0
0
LINE
8
A-COLS
10
17.86806
20
7.75694
30
0
11
17.86806
21
7.79861
31
0
0
LINE
8
A-COLS
10
17.86806
20
7.79861
30
0
11
17.89861
21
7.79861
31
0
0
LINE
8
A-COLS
10
17.89861
20
7.79861
30
0
11
17.89861
21
7.81528
31
0
0
LINE
8
A-COLS
10
17.89861
20
7.81528
30
0
11
17.82361
21
7.81528
31
0
0
LINE
8
A-COLS
10
17.82361
20
7.81528
30
0
11
17.82361
21
7.79861
31
0
0
LINE
8
A-COLS
10
17.82361
20
7.79861
30
0
11
17.85417
21
7.79861
31
0
0
LINE
8
A-COLS
10
17.85417
20
7.79861
30
0
11
17.85417
21
7.75694
31
0
0
LINE
8
A-COLS
10
17.85417
20
7.75694
30
0
11
17.82361
21
7.75694
31
0
0
LINE
8
A-COLS
10
17.82361
20
7.75694
30
0
11
17.82361
21
7.74028
31
0
0
LINE
8
A-COLS
10
17.79861
20
11.46528
30
0
11
17.92361
21
11.46528
31
0
0
LINE
8
A-COLS
10
17.92361
20
11.46528
30
0
11
17.92361
21
11.59028
31
0
0
LINE
8
A-COLS
10
17.92361
20
11.59028
30
0
11
17.79861
21
11.59028
31
0
0
LINE
8
A-COLS
10
17.79861
20
11.59028
30
0
11
17.79861
21
11.46528
31
0
0
LINE
8
A-COLS
10
17.82361
20
11.49028
30
0
11
17.89861
21
11.49028
31
0
0
LINE
8
A-COLS
10
17.89861
20
11.49028
30
0
11
17.89861
21
11.50694
31
0
0
LINE
8
A-COLS
10
17.89861
20
11.50694
30
0
11
17.86806
21
11.50694
31
0
0
LINE
8
A-COLS
10
17.86806
20
11.50694
30
0
11
17.86806
21
11.54861
31
0
0
LINE
8
A-COLS
10
17.86806
20
11.54861
30
0
11
17.89861
21
11.54861
31
0
0
LINE
8
A-COLS
10
17.89861
20
11.54861
30
0
11
17.89861
21
11.56528
31
0
0
LINE
8
A-COLS
10
17.89861
20
11.56528
30
0
11
17.82361
21
11.56528
31
0
0
LINE
8
A-COLS
10
17.82361
20
11.56528
30
0
11
17.82361
21
11.54861
31
0
0
LINE
8
A-COLS
10
17.82361
20
11.54861
30
0
11
17.85417
21
11.54861
31
0
0
LINE
8
A-COLS
10
17.85417
20
11.54861
30
0
11
17.85417
21
11.50694
31
0
0
LINE
8
A-COLS
10
17.85417
20
11.50694
30
0
11
17.82361
21
11.50694
31
0
0
LINE
8
A-COLS
10
17.82361
20
11.50694
30
0
11
17.82361
21
11.49028
31
0
0
LINE
8
A-COLS
10
17.79861
20
15.21528
30
0
11
17.92361
21
15.21528
31
0
0
LINE
8
A-COLS
10
17.92361
20
15.21528
30
0
11
17.92361
21
15.34028
31
0
0
LINE
8
A-COLS
10
17.92361
20
15.34028
30
0
11
17.79861
21
15.34028
31
0
0
LINE
8
A-COLS
10
17.79861
20
15.34028
30
0
11
17.79861
21
15.21528
31
0
0
LINE
8
A-COLS
10
17.82361
20
15.24028
30
0
11
17.89861
21
15.24028
31
0
0
LINE
8
A-COLS
10
17.89861
20
15.24028
30
0
11
17.89861
21
15.25694
31
0
0
LINE
8
A-COLS
10
17.89861
20
15.25694
30
0
11
17.86806
21
15.25694
31
0
0
LINE
8
A-COLS
10
17.86806
20
15.25694
30
0
11
17.86806
21
15.29861
31
0
0
LINE
8
A-COLS
10
17.86806
20
15.29861
30
0
11
17.89861
21
15.29861
31
0
0
LINE
8
A-COLS
10
17.89861
20
15.29861
30
0
11
17.89861
21
15.31528
31
0
0
LINE
8
A-COLS
10
17.89861
20
15.31528
30
0
11
17.82361
21
15.31528
31
0
0
LINE
8
A-COLS
10
17.82361
20
15.31528
30
0
11
17.82361
21
15.29861
31
0
0
LINE
8
A-COLS
10
17.82361
20
15.29861
30
0
11
17.85417
21
15.29861
31
0
0
LINE
8
A-COLS
10
17.85417
20
15.29861
30
0
11
17.85417
21
15.25694
31
0
0
LINE
8
A-COLS
10
17.85417
20
15.25694
30
0
11
17.82361
21
15.25694
31
0
0
LINE
8
A-COLS
10
17.82361
20
15.25694
30
0
11
17.82361
21
15.24028
31
0
0
LINE
8
A-COLS
10
17.79861
20
19.21528
30
0
11
17.92361
21
19.21528
31
0
0
LINE
8
A-COLS
10
17.92361
20
19.21528
30
0
11
17.92361
21
19.34028
31
0
0
LINE
8
A-COLS
10
17.92361
20
19.34028
30
0
11
17.79861
21
19.34028
31
0
0
LINE
8
A-COLS
10
17.79861
20
19.34028
30
0
11
17.79861
21
19.21528
31
0
0
LINE
8
A-COLS
10
17.82361
20
19.24028
30
0
11
17.89861
21
19.24028
31
0
0
LINE
8
A-COLS
10
17.89861
20
19.24028
30
0
11
17.89861
21
19.25694
31
0
0
LINE
8
A-COLS
10
17.89861
20
19.25694
30
0
11
17.86806
21
19.25694
31
0
0
LINE
8
A-COLS
10
17.86806
20
19.25694
30
0
11
17.86806
21
19.29861
31
0
0
LINE
8
A-COLS
10
17.86806
20
19.29861
30
0
11
17.89861
21
19.29861
31
0
0
LINE
8
A-COLS
10
17.89861
20
19.29861
30
0
11
17.89861
21
19.31528
31
0
0
LINE
8
A-COLS
10
17.89861
20
19.31528
30
0
11
17.82361
21
19.31528
31
0
0
LINE
8
A-COLS
10
17.82361
20
19.31528
30
0
11
17.82361
21
19.29861
31
0
0
LINE
8
A-COLS
10
17.82361
20
19.29861
30
0
11
17.85417
21
19.29861
31
0
0
LINE
8
A-COLS
10
17.85417
20
19.29861
30
0
11
17.85417
21
19.25694
31
0
0
LINE
8
A-COLS
10
17.85417
20
19.25694
30
0
11
17.82361
21
19.25694
31
0
0
LINE
8
A-COLS
10
17.82361
20
19.25694
30
0
11
17.82361
21
19.24028
31
0
0
LINE
8
A-COLS
10
21.54861
20
7.71528
30
0
11
21.67361
21
7.71528
31
0
0
LINE
8
A-COLS
10
21.67361
20
7.71528
30
0
11
21.67361
21
7.84028
31
0
0
LINE
8
A-COLS
10
21.67361
20
7.84028
30
0
11
21.54861
21
7.84028
31
0
0
LINE
8
A-COLS
10
21.54861
20
7.84028
30
0
11
21.54861
21
7.71528
31
0
0
LINE
8
A-COLS
10
21.57361
20
7.74028
30
0
11
21.64861
21
7.74028
31
0
0
LINE
8
A-COLS
10
21.64861
20
7.74028
30
0
11
21.64861
21
7.75694
31
0
0
LINE
8
A-COLS
10
21.64861
20
7.75694
30
0
11
21.61806
21
7.75694
31
0
0
LINE
8
A-COLS
10
21.61806
20
7.75694
30
0
11
21.61806
21
7.79861
31
0
0
LINE
8
A-COLS
10
21.61806
20
7.79861
30
0
11
21.64861
21
7.79861
31
0
0
LINE
8
A-COLS
10
21.64861
20
7.79861
30
0
11
21.64861
21
7.81528
31
0
0
LINE
8
A-COLS
10
21.64861
20
7.81528
30
0
11
21.57361
21
7.81528
31
0
0
LINE
8
A-COLS
10
21.57361
20
7.81528
30
0
11
21.57361
21
7.79861
31
0
0
LINE
8
A-COLS
10
21.57361
20
7.79861
30
0
11
21.60417
21
7.79861
31
0
0
LINE
8
A-COLS
10
21.60417
20
7.79861
30
0
11
21.60417
21
7.75694
31
0
0
LINE
8
A-COLS
10
21.60417
20
7.75694
30
0
11
21.57361
21
7.75694
31
0
0
LINE
8
A-COLS
10
21.57361
20
7.75694
30
0
11
21.57361
21
7.74028
31
0
0
LINE
8
A-COLS
10
21.54861
20
11.46528
30
0
11
21.67361
21
11.46528
31
0
0
LINE
8
A-COLS
10
21.67361
20
11.46528
30
0
11
21.67361
21
11.59028
31
0
0
LINE
8
A-COLS
10
21.67361
20
11.59028
30
0
11
21.54861
21
11.59028
31
0
0
LINE
8
A-COLS
10
21.54861
20
11.59028
30
0
11
21.54861
21
11.46528
31
0
0
LINE
8
A-COLS
10
21.57361
20
11.49028
30
0
11
21.64861
21
11.49028
31
0
0
LINE
8
A-COLS
10
21.64861
20
11.49028
30
0
11
21.64861
21
11.50694
31
0
0
LINE
8
A-COLS
10
21.64861
20
11.50694
30
0
11
21.61806
21
11.50694
31
0
0
LINE
8
A-COLS
10
21.61806
20
11.50694
30
0
11
21.61806
21
11.54861
31
0
0
LINE
8
A-COLS
10
21.61806
20
11.54861
30
0
11
21.64861
21
11.54861
31
0
0
LINE
8
A-COLS
10
21.64861
20
11.54861
30
0
11
21.64861
21
11.56528
31
0
0
LINE
8
A-COLS
10
21.64861
20
11.56528
30
0
11
21.57361
21
11.56528
31
0
0
LINE
8
A-COLS
10
21.57361
20
11.56528
30
0
11
21.57361
21
11.54861
31
0
0
LINE
8
A-COLS
10
21.57361
20
11.54861
30
0
11
21.60417
21
11.54861
31
0
0
LINE
8
A-COLS
10
21.60417
20
11.54861
30
0
11
21.60417
21
11.50694
31
0
0
LINE
8
A-COLS
10
21.60417
20
11.50694
30
0
11
21.57361
21
11.50694
31
0
0
LINE
8
A-COLS
10
21.57361
20
11.50694
30
0
11
21.57361
21
11.49028
31
0
0
LINE
8
A-COLS
10
21.54861
20
15.21528
30
0
11
21.67361
21
15.21528
31
0
0
LINE
8
A-COLS
10
21.67361
20
15.21528
30
0
11
21.67361
21
15.34028
31
0
0
LINE
8
A-COLS
10
21.67361
20
15.34028
30
0
11
21.54861
21
15.34028
31
0
0
LINE
8
A-COLS
10
21.54861
20
15.34028
30
0
11
21.54861
21
15.21528
31
0
0
LINE
8
A-COLS
10
21.57361
20
15.24028
30
0
11
21.64861
21
15.24028
31
0
0
LINE
8
A-COLS
10
21.64861
20
15.24028
30
0
11
21.64861
21
15.25694
31
0
0
LINE
8
A-COLS
10
21.64861
20
15.25694
30
0
11
21.61806
21
15.25694
31
0
0
LINE
8
A-COLS
10
21.61806
20
15.25694
30
0
11
21.61806
21
15.29861
31
0
0
LINE
8
A-COLS
10
21.61806
20
15.29861
30
0
11
21.64861
21
15.29861
31
0
0
LINE
8
A-COLS
10
21.64861
20
15.29861
30
0
11
21.64861
21
15.31528
31
0
0
LINE
8
A-COLS
10
21.64861
20
15.31528
30
0
11
21.57361
21
15.31528
31
0
0
LINE
8
A-COLS
10
21.57361
20
15.31528
30
0
11
21.57361
21
15.29861
31
0
0
LINE
8
A-COLS
10
21.57361
20
15.29861
30
0
11
21.60417
21
15.29861
31
0
0
LINE
8
A-COLS
10
21.60417
20
15.29861
30
0
11
21.60417
21
15.25694
31
0
0
LINE
8
A-COLS
10
21.60417
20
15.25694
30
0
11
21.57361
21
15.25694
31
0
0
LINE
8
A-COLS
10
21.57361
20
15.25694
30
0
11
21.57361
21
15.24028
31
0
0
LINE
8
A-COLS
10
21.54861
20
19.21528
30
0
11
21.67361
21
19.21528
31
0
0
LINE
8
A-COLS
10
21.67361
20
19.21528
30
0
11
21.67361
21
19.34028
31
0
0
LINE
8
A-COLS
10
21.67361
20
19.34028
30
0
11
21.54861
21
19.34028
31
0
0
LINE
8
A-COLS
10
21.54861
20
19.34028
30
0
11
21.54861
21
19.21528
31
0
0
LINE
8
A-COLS
10
21.57361
20
19.24028
30
0
11
21.64861
21
19.24028
31
0
0
LINE
8
A-COLS
10
21.64861
20
19.24028
30
0
11
21.64861
21
19.25694
31
0
0
LINE
8
A-COLS
10
21.64861
20
19.25694
30
0
11
21.61806
21
19.25694
31
0
0
LINE
8
A-COLS
10
21.61806
20
19.25694
30
0
11
21.61806
21
19.29861
31
0
0
LINE
8
A-COLS
10
21.61806
20
19.29861
30
0
11
21.64861
21
19.29861
31
0
0
LINE
8
A-COLS
10
21.64861
20
19.29861
30
0
11
21.64861
21
19.31528
31
0
0
LINE
8
A-COLS
10
21.64861
20
19.31528
30
0
11
21.57361
21
19.31528
31
0
0
LINE
8
A-COLS
10
21.57361
20
19.31528
30
0
11
21.57361
21
19.29861
31
0
0
LINE
8
A-COLS
10
21.57361
20
19.29861
30
0
11
21.60417
21
19.29861
31
0
0
LINE
8
A-COLS
10
21.60417
20
19.29861
30
0
11
21.60417
21
19.25694
31
0
0
LINE
8
A-COLS
10
21.60417
20
19.25694
30
0
11
21.57361
21
19.25694
31
0
0
LINE
8
A-COLS
10
21.57361
20
19.25694
30
0
11
21.57361
21
19.24028
31
0
0
LINE
8
A-COLS
10
25.29861
20
7.71528
30
0
11
25.42361
21
7.71528
31
0
0
LINE
8
A-COLS
10
25.42361
20
7.71528
30
0
11
25.42361
21
7.84028
31
0
0
LINE
8
A-COLS
10
25.42361
20
7.84028
30
0
11
25.29861
21
7.84028
31
0
0
LINE
8
A-COLS
10
25.29861
20
7.84028
30
0
11
25.29861
21
7.71528
31
0
0
LINE
8
A-COLS
10
25.32361
20
7.74028
30
0
11
25.39861
21
7.74028
31
0
0
LINE
8
A-COLS
10
25.39861
20
7.74028
30
0
11
25.39861
21
7.75694
31
0
0
LINE
8
A-COLS
10
25.39861
20
7.75694
30
0
11
25.36806
21
7.75694
31
0
0
LINE
8
A-COLS
10
25.36806
20
7.75694
30
0
11
25.36806
21
7.79861
31
0
0
LINE
8
A-COLS
10
25.36806
20
7.79861
30
0
11
25.39861
21
7.79861
31
0
0
LINE
8
A-COLS
10
25.39861
20
7.79861
30
0
11
25.39861
21
7.81528
31
0
0
LINE
8
A-COLS
10
25.39861
20
7.81528
30
0
11
25.32361
21
7.81528
31
0
0
LINE
8
A-COLS
10
25.32361
20
7.81528
30
0
11
25.32361
21
7.79861
31
0
0
LINE
8
A-COLS
10
25.32361
20
7.79861
30
0
11
25.35417
21
7.79861
31
0
0
LINE
8
A-COLS
10
25.35417
20
7.79861
30
0
11
25.35417
21
7.75694
31
0
0
LINE
8
A-COLS
10
25.35417
20
7.75694
30
0
11
25.32361
21
7.75694
31
0
0
LINE
8
A-COLS
10
25.32361
20
7.75694
30
0
11
25.32361
21
7.74028
31
0
0
LINE
8
A-COLS
10
25.29861
20
11.46528
30
0
11
25.42361
21
11.46528
31
0
0
LINE
8
A-COLS
10
25.42361
20
11.46528
30
0
11
25.42361
21
11.59028
31
0
0
LINE
8
A-COLS
10
25.42361
20
11.59028
30
0
11
25.29861
21
11.59028
31
0
0
LINE
8
A-COLS
10
25.29861
20
11.59028
30
0
11
25.29861
21
11.46528
31
0
0
LINE
8
A-COLS
10
25.32361
20
11.49028
30
0
11
25.39861
21
11.49028
31
0
0
LINE
8
A-COLS
10
25.39861
20
11.49028
30
0
11
25.39861
21
11.50694
31
0
0
LINE
8
A-COLS
10
25.39861
20
11.50694
30
0
11
25.36806
21
11.50694
31
0
0
LINE
8
A-COLS
10
25.36806
20
11.50694
30
0
11
25.36806
21
11.54861
31
0
0
LINE
8
A-COLS
10
25.36806
20
11.54861
30
0
11
25.39861
21
11.54861
31
0
0
LINE
8
A-COLS
10
25.39861
20
11.54861
30
0
11
25.39861
21
11.56528
31
0
0
LINE
8
A-COLS
10
25.39861
20
11.56528
30
0
11
25.32361
21
11.56528
31
0
0
LINE
8
A-COLS
10
25.32361
20
11.56528
30
0
11
25.32361
21
11.54861
31
0
0
LINE
8
A-COLS
10
25.32361
20
11.54861
30
0
11
25.35417
21
11.54861
31
0
0
LINE
8
A-COLS
10
25.35417
20
11.54861
30
0
11
25.35417
21
11.50694
31
0
0
LINE
8
A-COLS
10
25.35417
20
11.50694
30
0
11
25.32361
21
11.50694
31
0
0
LINE
8
A-COLS
10
25.32361
20
11.50694
30
0
11
25.32361
21
11.49028
31
0
0
LINE
8
A-COLS
10
25.29861
20
15.21528
30
0
11
25.42361
21
15.21528
31
0
0
LINE
8
A-COLS
10
25.42361
20
15.21528
30
0
11
25.42361
21
15.34028
31
0
0
LINE
8
A-COLS
10
25.42361
20
15.34028
30
0
11
25.29861
21
15.34028
31
0
0
LINE
8
A-COLS
10
25.29861
20
15.34028
30
0
11
25.29861
21
15.21528
31
0
0
LINE
8
A-COLS
10
25.32361
20
15.24028
30
0
11
25.39861
21
15.24028
31
0
0
LINE
8
A-COLS
10
25.39861
20
15.24028
30
0
11
25.39861
21
15.25694
31
0
0
LINE
8
A-COLS
10
25.39861
20
15.25694
30
0
11
25.36806
21
15.25694
31
0
0
LINE
8
A-COLS
10
25.36806
20
15.25694
30
0
11
25.36806
21
15.29861
31
0
0
LINE
8
A-COLS
10
25.36806
20
15.29861
30
0
11
25.39861
21
15.29861
31
0
0
LINE
8
A-COLS
10
25.39861
20
15.29861
30
0
11
25.39861
21
15.31528
31
0
0
LINE
8
A-COLS
10
25.39861
20
15.31528
30
0
11
25.32361
21
15.31528
31
0
0
LINE
8
A-COLS
10
25.32361
20
15.31528
30
0
11
25.32361
21
15.29861
31
0
0
LINE
8
A-COLS
10
25.32361
20
15.29861
30
0
11
25.35417
21
15.29861
31
0
0
LINE
8
A-COLS
10
25.35417
20
15.29861
30
0
11
25.35417
21
15.25694
31
0
0
LINE
8
A-COLS
10
25.35417
20
15.25694
30
0
11
25.32361
21
15.25694
31
0
0
LINE
8
A-COLS
10
25.32361
20
15.25694
30
0
11
25.32361
21
15.24028
31
0
0
LINE
8
A-COLS
10
25.29861
20
19.21528
30
0
11
25.42361
21
19.21528
31
0
0
LINE
8
A-COLS
10
25.42361
20
19.21528
30
0
11
25.42361
21
19.34028
31
0
0
LINE
8
A-COLS
10
25.42361
20
19.34028
30
0
11
25.29861
21
19.34028
31
0
0
LINE
8
A-COLS
10
25.29861
20
19.34028
30
0
11
25.29861
21
19.21528
31
0
0
LINE
8
A-COLS
10
25.32361
20
19.24028
30
0
11
25.39861
21
19.24028
31
0
0
LINE
8
A-COLS
10
25.39861
20
19.24028
30
0
11
25.39861
21
19.25694
31
0
0
LINE
8
A-COLS
10
25.39861
20
19.25694
30
0
11
25.36806
21
19.25694
31
0
0
LINE
8
A-COLS
10
25.36806
20
19.25694
30
0
11
25.36806
21
19.29861
31
0
0
LINE
8
A-COLS
10
25.36806
20
19.29861
30
0
11
25.39861
21
19.29861
31
0
0
LINE
8
A-COLS
10
25.39861
20
19.29861
30
0
11
25.39861
21
19.31528
31
0
0
LINE
8
A-COLS
10
25.39861
20
19.31528
30
0
11
25.32361
21
19.31528
31
0
0
LINE
8
A-COLS
10
25.32361
20
19.31528
30
0
11
25.32361
21
19.29861
31
0
0
LINE
8
A-COLS
10
25.32361
20
19.29861
30
0
11
25.35417
21
19.29861
31
0
0
LINE
8
A-COLS
10
25.35417
20
19.29861
30
0
11
25.35417
21
19.25694
31
0
0
LINE
8
A-COLS
10
25.35417
20
19.25694
30
0
11
25.32361
21
19.25694
31
0
0
LINE
8
A-COLS
10
25.32361
20
19.25694
30
0
11
25.32361
21
19.24028
31
0
0
LINE
8
A-COLS
10
29.04861
20
7.71528
30
0
11
29.17361
21
7.71528
31
0
0
LINE
8
A-COLS
10
29.17361
20
7.71528
30
0
11
29.17361
21
7.84028
31
0
0
LINE
8
A-COLS
10
29.17361
20
7.84028
30
0
11
29.04861
21
7.84028
31
0
0
LINE
8
A-COLS
10
29.04861
20
7.84028
30
0
11
29.04861
21
7.71528
31
0
0
LINE
8
A-COLS
10
29.07361
20
7.74028
30
0
11
29.14861
21
7.74028
31
0
0
LINE
8
A-COLS
10
29.14861
20
7.74028
30
0
11
29.14861
21
7.75694
31
0
0
LINE
8
A-COLS
10
29.14861
20
7.75694
30
0
11
29.11806
21
7.75694
31
0
0
LINE
8
A-COLS
10
29.11806
20
7.75694
30
0
11
29.11806
21
7.79861
31
0
0
LINE
8
A-COLS
10
29.11806
20
7.79861
30
0
11
29.14861
21
7.79861
31
0
0
LINE
8
A-COLS
10
29.14861
20
7.79861
30
0
11
29.14861
21
7.81528
31
0
0
LINE
8
A-COLS
10
29.14861
20
7.81528
30
0
11
29.07361
21
7.81528
31
0
0
LINE
8
A-COLS
10
29.07361
20
7.81528
30
0
11
29.07361
21
7.79861
31
0
0
LINE
8
A-COLS
10
29.07361
20
7.79861
30
0
11
29.10417
21
7.79861
31
0
0
LINE
8
A-COLS
10
29.10417
20
7.79861
30
0
11
29.10417
21
7.75694
31
0
0
LINE
8
A-COLS
10
29.10417
20
7.75694
30
0
11
29.07361
21
7.75694
31
0
0
LINE
8
A-COLS
10
29.07361
20
7.75694
30
0
11
29.07361
21
7.74028
31
0
0
LINE
8
A-COLS
10
29.04861
20
11.46528
30
0
11
29.17361
21
11.46528
31
0
0
LINE
8
A-COLS
10
29.17361
20
11.46528
30
0
11
29.17361
21
11.59028
31
0
0
LINE
8
A-COLS
10
29.17361
20
11.59028
30
0
11
29.04861
21
11.59028
31
0
0
LINE
8
A-COLS
10
29.04861
20
11.59028
30
0
11
29.04861
21
11.46528
31
0
0
LINE
8
A-COLS
10
29.07361
20
11.49028
30
0
11
29.14861
21
11.49028
31
0
0
LINE
8
A-COLS
10
29.14861
20
11.49028
30
0
11
29.14861
21
11.50694
31
0
0
LINE
8
A-COLS
10
29.14861
20
11.50694
30
0
11
29.11806
21
11.50694
31
0
0
LINE
8
A-COLS
10
29.11806
20
11.50694
30
0
11
29.11806
21
11.54861
31
0
0
LINE
8
A-COLS
10
29.11806
20
11.54861
30
0
11
29.14861
21
11.54861
31
0
0
LINE
8
A-COLS
10
29.14861
20
11.54861
30
0
11
29.14861
21
11.56528
31
0
0
LINE
8
A-COLS
10
29.14861
20
11.56528
30
0
11
29.07361
21
11.56528
31
0
0
LINE
8
A-COLS
10
29.07361
20
11.56528
30
0
11
29.07361
21
11.54861
31
0
0
LINE
8
A-COLS
10
29.07361
20
11.54861
30
0
11
29.10417
21
11.54861
31
0
0
LINE
8
A-COLS
10
29.10417
20
11.54861
30
0
11
29.10417
21
11.50694
31
0
0
LINE
8
A-COLS
10
29.10417
20
11.50694
30
0
11
29.07361
21
11.50694
31
0
0
LINE
8
A-COLS
10
29.07361
20
11.50694
30
0
11
29.07361
21
11.49028
31
0
0
LINE
8
A-COLS
10
29.04861
20
15.21528
30
0
11
29.17361
21
15.21528
31
0
0
LINE
8
A-COLS
10
29.17361
20
15.21528
30
0
11
29.17361
21
15.34028
31
0
0
LINE
8
A-COLS
10
29.17361
20
15.34028
30
0
11
29.04861
21
15.34028
31
0
0
LINE
8
A-COLS
10
29.04861
20
15.34028
30
0
11
29.04861
21
15.21528
31
0
0
LINE
8
A-COLS
10
29.07361
20
15.24028
30
0
11
29.14861
21
15.24028
31
0
0
LINE
8
A-COLS
10
29.14861
20
15.24028
30
0
11
29.14861
21
15.25694
31
0
0
LINE
8
A-COLS
10
29.14861
20
15.25694
30
0
11
29.11806
21
15.25694
31
0
0
LINE
8
A-COLS
10
29.11806
20
15.25694
30
0
11
29.11806
21
15.29861
31
0
0
LINE
8
A-COLS
10
29.11806
20
15.29861
30
0
11
29.14861
21
15.29861
31
0
0
LINE
8
A-COLS
10
29.14861
20
15.29861
30
0
11
29.14861
21
15.31528
31
0
0
LINE
8
A-COLS
10
29.14861
20
15.31528
30
0
11
29.07361
21
15.31528
31
0
0
LINE
8
A-COLS
10
29.07361
20
15.31528
30
0
11
29.07361
21
15.29861
31
0
0
LINE
8
A-COLS
10
29.07361
20
15.29861
30
0
11
29.10417
21
15.29861
31
0
0
LINE
8
A-COLS
10
29.10417
20
15.29861
30
0
11
29.10417
21
15.25694
31
0
0
LINE
8
A-COLS
10
29.10417
20
15.25694
30
0
11
29.07361
21
15.25694
31
0
0
LINE
8
A-COLS
10
29.07361
20
15.25694
30
0
11
29.07361
21
15.24028
31
0
0
LINE
8
A-COLS
10
29.04861
20
19.21528
30
0
11
29.17361
21
19.21528
31
0
0
LINE
8
A-COLS
10
29.17361
20
19.21528
30
0
11
29.17361
21
19.34028
31
0
0
LINE
8
A-COLS
10
29.17361
20
19.34028
30
0
11
29.04861
21
19.34028
31
0
0
LINE
8
A-COLS
10
29.04861
20
19.34028
30
0
11
29.04861
21
19.21528
31
0
0
LINE
8
A-COLS
10
29.07361
20
19.24028
30
0
11
29.14861
21
19.24028
31
0
0
LINE
8
A-COLS
10
29.14861
20
19.24028
30
0
11
29.14861
21
19.25694
31
0
0
LINE
8
A-COLS
10
29.14861
20
19.25694
30
0
11
29.11806
21
19.25694
31
0
0
LINE
8
A-COLS
10
29.11806
20
19.25694
30
0
11
29.11806
21
19.29861
31
0
0
LINE
8
A-COLS
10
29.11806
20
19.29861
30
0
11
29.14861
21
19.29861
31
0
0
LINE
8
A-COLS
10
29.14861
20
19.29861
30
0
11
29.14861
21
19.31528
31
0
0
LINE
8
A-COLS
10
29.14861
20
19.31528
30
0
11
29.07361
21
19.31528
31
0
0
LINE
8
A-COLS
10
29.07361
20
19.31528
30
0
11
29.07361
21
19.29861
31
0
0
LINE
8
A-COLS
10
29.07361
20
19.29861
30
0
11
29.10417
21
19.29861
31
0
0
LINE
8
A-COLS
10
29.10417
20
19.29861
30
0
11
29.10417
21
19.25694
31
0
0
LINE
8
A-COLS
10
29.10417
20
19.25694
30
0
11
29.07361
21
19.25694
31
0
0
LINE
8
A-COLS
10
29.07361
20
19.25694
30
0
11
29.07361
21
19.24028
31
0
0
LINE
8
A-FLOR-STRS
10
26.98444
20
16.02778
30
0
11
28.03507
21
16.02778
31
0
0
LINE
8
A-FLOR-STRS
10
28.09757
20
16.02778
30
0
11
29.14819
21
16.02778
31
0
0
LINE
8
A-FLOR-STRS
10
26.98444
20
16.14236
30
0
11
28.03507
21
16.14236
31
0
0
LINE
8
A-FLOR-STRS
10
28.09757
20
16.14236
30
0
11
29.14819
21
16.14236
31
0
0
LINE
8
A-FLOR-STRS
10
26.98444
20
16.25694
30
0
11
28.03507
21
16.25694
31
0
0
LINE
8
A-FLOR-STRS
10
28.09757
20
16.25694
30
0
11
29.14819
21
16.25694
31
0
0
LINE
8
A-FLOR-STRS
10
26.98444
20
16.37153
30
0
11
28.03507
21
16.37153
31
0
0
LINE
8
A-FLOR-STRS
10
28.09757
20
16.37153
30
0
11
29.14819
21
16.37153
31
0
0
LINE
8
A-FLOR-STRS
10
26.98444
20
16.48611
30
0
11
28.03507
21
16.48611
31
0
0
LINE
8
A-FLOR-STRS
10
28.09757
20
16.48611
30
0
11
29.14819
21
16.48611
31
0
0
LINE
8
A-FLOR-STRS
10
26.98444
20
16.60069
30
0
11
28.03507
21
16.60069
31
0
0
LINE
8
A-FLOR-STRS
10
28.09757
20
16.60069
30
0
11
29.14819
21
16.60069
31
0
0
LINE
8
A-FLOR-STRS
10
26.98444
20
16.71528
30
0
11
28.03507
21
16.71528
31
0
0
LINE
8
A-FLOR-STRS
10
28.09757
20
16.71528
30
0
11
29.14819
21
16.71528
31
0
0
LINE
8
A-FLOR-STRS
10
26.98444
20
16.82986
30
0
11
28.03507
21
16.82986
31
0
0
LINE
8
A-FLOR-STRS
10
28.09757
20
16.82986
30
0
11
29.14819
21
16.82986
31
0
0
LINE
8
A-FLOR-STRS
10
26.98444
20
16.94444
30
0
11
28.03507
21
16.94444
31
0
0
LINE
8
A-FLOR-STRS
10
28.09757
20
16.94444
30
0
11
29.14819
21
16.94444
31
0
0
LINE
8
A-FLOR-STRS
10
26.98444
20
17.05903
30
0
11
28.03507
21
17.05903
31
0
0
LINE
8
A-FLOR-STRS
10
28.09757
20
17.05903
30
0
11
29.14819
21
17.05903
31
0
0
LINE
8
A-FLOR-STRS
10
26.98444
20
17.17361
30
0
11
28.03507
21
17.17361
31
0
0
LINE
8
A-FLOR-STRS
10
28.09757
20
17.17361
30
0
11
29.14819
21
17.17361
31
0
0
LINE
8
A-FLOR-STRS
10
26.98444
20
17.28819
30
0
11
28.03507
21
17.28819
31
0
0
LINE
8
A-FLOR-STRS
10
28.09757
20
17.28819
30
0
11
29.14819
21
17.28819
31
0
0
LINE
8
A-FLOR-STRS
10
26.98444
20
17.40278
30
0
11
28.03507
21
17.40278
31
0
0
LINE
8
A-FLOR-STRS
10
28.09757
20
17.40278
30
0
11
29.14819
21
17.40278
31
0
0
LINE
8
A-FLOR-STRS
10
26.98444
20
17.51736
30
0
11
28.03507
21
17.51736
31
0
0
LINE
8
A-FLOR-STRS
10
28.09757
20
17.51736
30
0
11
29.14819
21
17.51736
31
0
0
LINE
8
A-FLOR-STRS
10
26.98444
20
17.63194
30
0
11
28.03507
21
17.63194
31
0
0
LINE
8
A-FLOR-STRS
10
28.09757
20
17.63194
30
0
11
29.14819
21
17.63194
31
0
0
LINE
8
A-FLOR-STRS
10
26.98444
20
17.74653
30
0
11
28.03507
21
17.74653
31
0
0
LINE
8
A-FLOR-STRS
10
28.09757
20
17.74653
30
0
11
29.14819
21
17.74653
31
0
0
LINE
8
A-FLOR-STRS
10
27.00788
20
15.77778
30
0
11
27.00788
21
18.02778
31
0
0
LINE
8
A-FLOR-STRS
10
29.12476
20
15.77778
30
0
11
29.12476
21
18.02778
31
0
0
LINE
8
A-FLOR-STRS
10
27.02351
20
15.77778
30
0
11
27.02351
21
18.02778
31
0
0
LINE
8
A-FLOR-STRS
10
29.10913
20
15.77778
30
0
11
29.10913
21
18.02778
31
0
0
LINE
8
A-FLOR-STRS
10
28.03507
20
15.77778
30
0
11
28.03507
21
18.02778
31
0
0
LINE
8
A-FLOR-STRS
10
28.09757
20
15.77778
30
0
11
28.09757
21
18.02778
31
0
0
TEXT
8
A-ANNO-TEXT
10
27.23444
20
18.27778
30
0
40
0.06
1
UP
50
0
0
LINE
8
A-FLOR-STRS
10
25.56944
20
17.77778
30
0
11
26.69444
21
17.77778
31
0
0
LINE
8
A-FLOR-STRS
10
26.69444
20
17.77778
30
0
11
26.69444
21
19.15278
31
0
0
LINE
8
A-FLOR-STRS
10
26.69444
20
19.15278
30
0
11
25.56944
21
19.15278
31
0
0
LINE
8
A-FLOR-STRS
10
25.56944
20
19.15278
30
0
11
25.56944
21
17.77778
31
0
0
LINE
8
A-FLOR-STRS
10
25.56944
20
17.77778
30
0
11
26.69444
21
19.15278
31
0
0
TEXT
8
A-ANNO-TEXT
10
11.94444
20
13.18056
30
0
40
0.08
1
CORRIDOR
50
0
72
1
11
11.94444
21
13.18056
31
0
0
LINE
8
A-ANNO-SYMB
10
11.79167
20
13
30
0
11
12.09722
21
13
31
0
0
LINE
8
A-ANNO-SYMB
10
12.09722
20
13
30
0
11
12.09722
21
13.13889
31
0
0
LINE
8
A-ANNO-SYMB
10
12.09722
20
13.13889
30
0
11
11.79167
21
13.13889
31
0
0
LINE
8
A-ANNO-SYMB
10
11.79167
20
13.13889
30
0
11
11.79167
21
13
31
0
0
TEXT
8
A-ANNO-SYMB
10
11.94444
20
13.02778
30
0
40
0.07
1
200
50
0
72
1
11
11.94444
21
13.02778
31
0
0
TEXT
8
A-ANNO-TEXT
10
14.44444
20
17.18056
30
0
40
0.08
1
OPEN OFFICE
50
0
72
1
11
14.44444
21
17.18056
31
0
0
LINE
8
A-ANNO-SYMB
10
14.29167
20
17
30
0
11
14.59722
21
17
31
0
0
LINE
8
A-ANNO-SYMB
10
14.59722
20
17
30
0
11
14.59722
21
17.13889
31
0
0
LINE
8
A-ANNO-SYMB
10
14.59722
20
17.13889
30
0
11
14.29167
21
17.13889
31
0
0
LINE
8
A-ANNO-SYMB
10
14.29167
20
17.13889
30
0
11
14.29167
21
17
31
0
0
TEXT
8
A-ANNO-SYMB
10
14.44444
20
17.02778
30
0
40
0.07
1
230
50
0
72
1
11
14.44444
21
17.02778
31
0
0
TEXT
8
A-ANNO-TEXT
10
5.44444
20
11.68056
30
0
40
0.08
1
OFFICE
50
0
72
1
11
5.44444
21
11.68056
31
0
0
LINE
8
A-ANNO-SYMB
10
5.29167
20
11.5
30
0
11
5.59722
21
11.5
31
0
0
LINE
8
A-ANNO-SYMB
10
5.59722
20
11.5
30
0
11
5.59722
21
11.63889
31
0
0
LINE
8
A-ANNO-SYMB
10
5.59722
20
11.63889
30
0
11
5.29167
21
11.63889
31
0
0
LINE
8
A-ANNO-SYMB
10
5.29167
20
11.63889
30
0
11
5.29167
21
11.5
31
0
0
TEXT
8
A-ANNO-SYMB
10
5.44444
20
11.52778
30
0
40
0.07
1
210
50
0
72
1
11
5.44444
21
11.52778
31
0
0
TEXT
8
A-ANNO-TEXT
10
6.94444
20
11.68056
30
0
40
0.08
1
OFFICE
50
0
72
1
11
6.94444
21
11.68056
31
0
0
LINE
8
A-ANNO-SYMB
10
6.79167
20
11.5
30
0
11
7.09722
21
11.5
31
0
0
LINE
8
A-ANNO-SYMB
10
7.09722
20
11.5
30
0
11
7.09722
21
11.63889
31
0
0
LINE
8
A-ANNO-SYMB
10
7.09722
20
11.63889
30
0
11
6.79167
21
11.63889
31
0
0
LINE
8
A-ANNO-SYMB
10
6.79167
20
11.63889
30
0
11
6.79167
21
11.5
31
0
0
TEXT
8
A-ANNO-SYMB
10
6.94444
20
11.52778
30
0
40
0.07
1
211
50
0
72
1
11
6.94444
21
11.52778
31
0
0
TEXT
8
A-ANNO-TEXT
10
8.44444
20
11.68056
30
0
40
0.08
1
OFFICE
50
0
72
1
11
8.44444
21
11.68056
31
0
0
LINE
8
A-ANNO-SYMB
10
8.29167
20
11.5
30
0
11
8.59722
21
11.5
31
0
0
LINE
8
A-ANNO-SYMB
10
8.59722
20
11.5
30
0
11
8.59722
21
11.63889
31
0
0
LINE
8
A-ANNO-SYMB
10
8.59722
20
11.63889
30
0
11
8.29167
21
11.63889
31
0
0
LINE
8
A-ANNO-SYMB
10
8.29167
20
11.63889
30
0
11
8.29167
21
11.5
31
0
0
TEXT
8
A-ANNO-SYMB
10
8.44444
20
11.52778
30
0
40
0.07
1
212
50
0
72
1
11
8.44444
21
11.52778
31
0
0
TEXT
8
A-ANNO-TEXT
10
9.94444
20
11.68056
30
0
40
0.08
1
OFFICE
50
0
72
1
11
9.94444
21
11.68056
31
0
0
LINE
8
A-ANNO-SYMB
10
9.79167
20
11.5
30
0
11
10.09722
21
11.5
31
0
0
LINE
8
A-ANNO-SYMB
10
10.09722
20
11.5
30
0
11
10.09722
21
11.63889
31
0
0
LINE
8
A-ANNO-SYMB
10
10.09722
20
11.63889
30
0
11
9.79167
21
11.63889
31
0
0
LINE
8
A-ANNO-SYMB
10
9.79167
20
11.63889
30
0
11
9.79167
21
11.5
31
0
0
TEXT
8
A-ANNO-SYMB
10
9.94444
20
11.52778
30
0
40
0.07
1
213
50
0
72
1
11
9.94444
21
11.52778
31
0
0
TEXT
8
A-ANNO-TEXT
10
11.44444
20
11.68056
30
0
40
0.08
1
OFFICE
50
0
72
1
11
11.44444
21
11.68056
31
0
0
LINE
8
A-ANNO-SYMB
10
11.29167
20
11.5
30
0
11
11.59722
21
11.5
31
0
0
LINE
8
A-ANNO-SYMB
10
11.59722
20
11.5
30
0
11
11.59722
21
11.63889
31
0
0
LINE
8
A-ANNO-SYMB
10
11.59722
20
11.63889
30
0
11
11.29167
21
11.63889
31
0
0
LINE
8
A-ANNO-SYMB
10
11.29167
20
11.63889
30
0
11
11.29167
21
11.5
31
0
0
TEXT
8
A-ANNO-SYMB
10
11.44444
20
11.52778
30
0
40
0.07
1
214
50
0
72
1
11
11.44444
21
11.52778
31
0
0
TEXT
8
A-ANNO-TEXT
10
12.94444
20
11.68056
30
0
40
0.08
1
OFFICE
50
0
72
1
11
12.94444
21
11.68056
31
0
0
LINE
8
A-ANNO-SYMB
10
12.79167
20
11.5
30
0
11
13.09722
21
11.5
31
0
0
LINE
8
A-ANNO-SYMB
10
13.09722
20
11.5
30
0
11
13.09722
21
11.63889
31
0
0
LINE
8
A-ANNO-SYMB
10
13.09722
20
11.63889
30
0
11
12.79167
21
11.63889
31
0
0
LINE
8
A-ANNO-SYMB
10
12.79167
20
11.63889
30
0
11
12.79167
21
11.5
31
0
0
TEXT
8
A-ANNO-SYMB
10
12.94444
20
11.52778
30
0
40
0.07
1
215
50
0
72
1
11
12.94444
21
11.52778
31
0
0
TEXT
8
A-ANNO-TEXT
10
14.44444
20
11.68056
30
0
40
0.08
1
OFFICE
50
0
72
1
11
14.44444
21
11.68056
31
0
0
LINE
8
A-ANNO-SYMB
10
14.29167
20
11.5
30
0
11
14.59722
21
11.5
31
0
0
LINE
8
A-ANNO-SYMB
10
14.59722
20
11.5
30
0
11
14.59722
21
11.63889
31
0
0
LINE
8
A-ANNO-SYMB
10
14.59722
20
11.63889
30
0
11
14.29167
21
11.63889
31
0
0
LINE
8
A-ANNO-SYMB
10
14.29167
20
11.63889
30
0
11
14.29167
21
11.5
31
0
0
TEXT
8
A-ANNO-SYMB
10
14.44444
20
11.52778
30
0
40
0.07
1
216
50
0
72
1
11
14.44444
21
11.52778
31
0
0
TEXT
8
A-ANNO-TEXT
10
15.94444
20
11.68056
30
0
40
0.08
1
OFFICE
50
0
72
1
11
15.94444
21
11.68056
31
0
0
LINE
8
A-ANNO-SYMB
10
15.79167
20
11.5
30
0
11
16.09722
21
11.5
31
0
0
LINE
8
A-ANNO-SYMB
10
16.09722
20
11.5
30
0
11
16.09722
21
11.63889
31
0
0
LINE
8
A-ANNO-SYMB
10
16.09722
20
11.63889
30
0
11
15.79167
21
11.63889
31
0
0
LINE
8
A-ANNO-SYMB
10
15.79167
20
11.63889
30
0
11
15.79167
21
11.5
31
0
0
TEXT
8
A-ANNO-SYMB
10
15.94444
20
11.52778
30
0
40
0.07
1
217
50
0
72
1
11
15.94444
21
11.52778
31
0
0
TEXT
8
A-ANNO-TEXT
10
17.44444
20
11.68056
30
0
40
0.08
1
OFFICE
50
0
72
1
11
17.44444
21
11.68056
31
0
0
LINE
8
A-ANNO-SYMB
10
17.29167
20
11.5
30
0
11
17.59722
21
11.5
31
0
0
LINE
8
A-ANNO-SYMB
10
17.59722
20
11.5
30
0
11
17.59722
21
11.63889
31
0
0
LINE
8
A-ANNO-SYMB
10
17.59722
20
11.63889
30
0
11
17.29167
21
11.63889
31
0
0
LINE
8
A-ANNO-SYMB
10
17.29167
20
11.63889
30
0
11
17.29167
21
11.5
31
0
0
TEXT
8
A-ANNO-SYMB
10
17.44444
20
11.52778
30
0
40
0.07
1
218
50
0
72
1
11
17.44444
21
11.52778
31
0
0
TEXT
8
A-ANNO-TEXT
10
18.94444
20
11.68056
30
0
40
0.08
1
OFFICE
50
0
72
1
11
18.94444
21
11.68056
31
0
0
LINE
8
A-ANNO-SYMB
10
18.79167
20
11.5
30
0
11
19.09722
21
11.5
31
0
0
LINE
8
A-ANNO-SYMB
10
19.09722
20
11.5
30
0
11
19.09722
21
11.63889
31
0
0
LINE
8
A-ANNO-SYMB
10
19.09722
20
11.63889
30
0
11
18.79167
21
11.63889
31
0
0
LINE
8
A-ANNO-SYMB
10
18.79167
20
11.63889
30
0
11
18.79167
21
11.5
31
0
0
TEXT
8
A-ANNO-SYMB
10
18.94444
20
11.52778
30
0
40
0.07
1
219
50
0
72
1
11
18.94444
21
11.52778
31
0
0
LINE
8
A-ANNO-SYMB
10
16.61111
20
7.91567
30
0
11
16.56944
21
7.98784
31
0
0
LINE
8
A-ANNO-SYMB
10
16.56944
20
7.98784
30
0
11
16.48611
21
7.98784
31
0
0
LINE
8
A-ANNO-SYMB
10
16.48611
20
7.98784
30
0
11
16.44444
21
7.91567
31
0
0
LINE
8
A-ANNO-SYMB
10
16.44444
20
7.91567
30
0
11
16.48611
21
7.8435
31
0
0
LINE
8
A-ANNO-SYMB
10
16.48611
20
7.8435
30
0
11
16.56944
21
7.8435
31
0
0
LINE
8
A-ANNO-SYMB
10
16.56944
20
7.8435
30
0
11
16.61111
21
7.91567
31
0
0
TEXT
8
A-ANNO-SYMB
10
16.52778
20
7.88789
30
0
40
0.045
1
EXT-1
50
0
72
1
11
16.52778
21
7.88789
31
0
0
LINE
8
A-ANNO-SYMB
10
29.05655
20
13.90278
30
0
11
29.01489
21
13.97495
31
0
0
LINE
8
A-ANNO-SYMB
10
29.01489
20
13.97495
30
0
11
28.93155
21
13.97495
31
0
0
LINE
8
A-ANNO-SYMB
10
28.93155
20
13.97495
30
0
11
28.88989
21
13.90278
31
0
0
LINE
8
A-ANNO-SYMB
10
28.88989
20
13.90278
30
0
11
28.93155
21
13.83061
31
0
0
LINE
8
A-ANNO-SYMB
10
28.93155
20
13.83061
30
0
11
29.01489
21
13.83061
31
0
0
LINE
8
A-ANNO-SYMB
10
29.01489
20
13.83061
30
0
11
29.05655
21
13.90278
31
0
0
TEXT
8
A-ANNO-SYMB
10
28.97322
20
13.875
30
0
40
0.045
1
EXT-1
50
0
72
1
11
28.97322
21
13.875
31
0
0
LINE
8
A-ANNO-SYMB
10
15.86111
20
19.14379
30
0
11
15.81944
21
19.21596
31
0
0
LINE
8
A-ANNO-SYMB
10
15.81944
20
19.21596
30
0
11
15.73611
21
19.21596
31
0
0
LINE
8
A-ANNO-SYMB
10
15.73611
20
19.21596
30
0
11
15.69444
21
19.14379
31
0
0
LINE
8
A-ANNO-SYMB
10
15.69444
20
19.14379
30
0
11
15.73611
21
19.07162
31
0
0
LINE
8
A-ANNO-SYMB
10
15.73611
20
19.07162
30
0
11
15.81944
21
19.07162
31
0
0
LINE
8
A-ANNO-SYMB
10
15.81944
20
19.07162
30
0
11
15.86111
21
19.14379
31
0
0
TEXT
8
A-ANNO-SYMB
10
15.77778
20
19.11602
30
0
40
0.045
1
EXT-2
50
0
72
1
11
15.77778
21
19.11602
31
0
0
LINE
8
A-ANNO-SYMB
10
3.41567
20
13.15278
30
0
11
3.374
21
13.22495
31
0
0
LINE
8
A-ANNO-SYMB
10
3.374
20
13.22495
30
0
11
3.29067
21
13.22495
31
0
0
LINE
8
A-ANNO-SYMB
10
3.29067
20
13.22495
30
0
11
3.249
21
13.15278
31
0
0
LINE
8
A-ANNO-SYMB
10
3.249
20
13.15278
30
0
11
3.29067
21
13.08061
31
0
0
LINE
8
A-ANNO-SYMB
10
3.29067
20
13.08061
30
0
11
3.374
21
13.08061
31
0
0
LINE
8
A-ANNO-SYMB
10
3.374
20
13.08061
30
0
11
3.41567
21
13.15278
31
0
0
TEXT
8
A-ANNO-SYMB
10
3.33234
20
13.125
30
0
40
0.045
1
EXT-1
50
0
72
1
11
3.33234
21
13.125
31
0
0
LINE
8
A-ANNO-SYMB
10
12.98611
20
12.97817
30
0
11
12.94444
21
13.05034
31
0
0
LINE
8
A-ANNO-SYMB
10
12.94444
20
13.05034
30
0
11
12.86111
21
13.05034
31
0
0
LINE
8
A-ANNO-SYMB
10
12.86111
20
13.05034
30
0
11
12.81944
21
12.97817
31
0
0
LINE
8
A-ANNO-SYMB
10
12.81944
20
12.97817
30
0
11
12.86111
21
12.906
31
0
0
LINE
8
A-ANNO-SYMB
10
12.86111
20
12.906
30
0
11
12.94444
21
12.906
31
0
0
LINE
8
A-ANNO-SYMB
10
12.94444
20
12.906
30
0
11
12.98611
21
12.97817
31
0
0
TEXT
8
A-ANNO-SYMB
10
12.90278
20
12.95039
30
0
40
0.045
1
A1
50
0
72
1
11
12.90278
21
12.95039
31
0
0
LINE
8
A-ANNO-SYMB
10
12.61111
20
13.72817
30
0
11
12.56944
21
13.80034
31
0
0
LINE
8
A-ANNO-SYMB
10
12.56944
20
13.80034
30
0
11
12.48611
21
13.80034
31
0
0
LINE
8
A-ANNO-SYMB
10
12.48611
20
13.80034
30
0
11
12.44444
21
13.72817
31
0
0
LINE
8
A-ANNO-SYMB
10
12.44444
20
13.72817
30
0
11
12.48611
21
13.656
31
0
0
LINE
8
A-ANNO-SYMB
10
12.48611
20
13.656
30
0
11
12.56944
21
13.656
31
0
0
LINE
8
A-ANNO-SYMB
10
12.56944
20
13.656
30
0
11
12.61111
21
13.72817
31
0
0
TEXT
8
A-ANNO-SYMB
10
12.52778
20
13.70039
30
0
40
0.045
1
A1
50
0
72
1
11
12.52778
21
13.70039
31
0
0
LINE
8
A-ANNO-SYMB
10
21.07739
20
16.81944
30
0
11
21.03572
21
16.89161
31
0
0
LINE
8
A-ANNO-SYMB
10
21.03572
20
16.89161
30
0
11
20.95239
21
16.89161
31
0
0
LINE
8
A-ANNO-SYMB
10
20.95239
20
16.89161
30
0
11
20.91072
21
16.81944
31
0
0
LINE
8
A-ANNO-SYMB
10
20.91072
20
16.81944
30
0
11
20.95239
21
16.74728
31
0
0
LINE
8
A-ANNO-SYMB
10
20.95239
20
16.74728
30
0
11
21.03572
21
16.74728
31
0
0
LINE
8
A-ANNO-SYMB
10
21.03572
20
16.74728
30
0
11
21.07739
21
16.81944
31
0
0
TEXT
8
A-ANNO-SYMB
10
20.99405
20
16.79167
30
0
40
0.045
1
A1
50
0
72
1
11
20.99405
21
16.79167
31
0
0
LINE
8
A-ANNO-SYMB
10
21.82739
20
16.44444
30
0
11
21.78572
21
16.51661
31
0
0
LINE
8
A-ANNO-SYMB
10
21.78572
20
16.51661
30
0
11
21.70239
21
16.51661
31
0
0
LINE
8
A-ANNO-SYMB
10
21.70239
20
16.51661
30
0
11
21.66072
21
16.44444
31
0
0
LINE
8
A-ANNO-SYMB
10
21.66072
20
16.44444
30
0
11
21.70239
21
16.37228
31
0
0
LINE
8
A-ANNO-SYMB
10
21.70239
20
16.37228
30
0
11
21.78572
21
16.37228
31
0
0
LINE
8
A-ANNO-SYMB
10
21.78572
20
16.37228
30
0
11
21.82739
21
16.44444
31
0
0
TEXT
8
A-ANNO-SYMB
10
21.74405
20
16.41667
30
0
40
0.045
1
A1
50
0
72
1
11
21.74405
21
16.41667
31
0
0
LINE
8
A-ANNO-SYMB
10
12.65278
20
10.72817
30
0
11
12.61111
21
10.80034
31
0
0
LINE
8
A-ANNO-SYMB
10
12.61111
20
10.80034
30
0
11
12.52778
21
10.80034
31
0
0
LINE
8
A-ANNO-SYMB
10
12.52778
20
10.80034
30
0
11
12.48611
21
10.72817
31
0
0
LINE
8
A-ANNO-SYMB
10
12.48611
20
10.72817
30
0
11
12.52778
21
10.656
31
0
0
LINE
8
A-ANNO-SYMB
10
12.52778
20
10.656
30
0
11
12.61111
21
10.656
31
0
0
LINE
8
A-ANNO-SYMB
10
12.61111
20
10.656
30
0
11
12.65278
21
10.72817
31
0
0
TEXT
8
A-ANNO-SYMB
10
12.56944
20
10.70039
30
0
40
0.045
1
A1
50
0
72
1
11
12.56944
21
10.70039
31
0
0
LINE
8
A-ANNO-SYMB
10
4.57739
20
12.02778
30
0
11
4.53572
21
12.09995
31
0
0
LINE
8
A-ANNO-SYMB
10
4.53572
20
12.09995
30
0
11
4.45239
21
12.09995
31
0
0
LINE
8
A-ANNO-SYMB
10
4.45239
20
12.09995
30
0
11
4.41072
21
12.02778
31
0
0
LINE
8
A-ANNO-SYMB
10
4.41072
20
12.02778
30
0
11
4.45239
21
11.95561
31
0
0
LINE
8
A-ANNO-SYMB
10
4.45239
20
11.95561
30
0
11
4.53572
21
11.95561
31
0
0
LINE
8
A-ANNO-SYMB
10
4.53572
20
11.95561
30
0
11
4.57739
21
12.02778
31
0
0
TEXT
8
A-ANNO-SYMB
10
4.49405
20
12
30
0
40
0.045
1
A1
50
0
72
1
11
4.49405
21
12
31
0
0
LINE
8
A-ANNO-SYMB
10
6.07739
20
12.02778
30
0
11
6.03572
21
12.09995
31
0
0
LINE
8
A-ANNO-SYMB
10
6.03572
20
12.09995
30
0
11
5.95239
21
12.09995
31
0
0
LINE
8
A-ANNO-SYMB
10
5.95239
20
12.09995
30
0
11
5.91072
21
12.02778
31
0
0
LINE
8
A-ANNO-SYMB
10
5.91072
20
12.02778
30
0
11
5.95239
21
11.95561
31
0
0
LINE
8
A-ANNO-SYMB
10
5.95239
20
11.95561
30
0
11
6.03572
21
11.95561
31
0
0
LINE
8
A-ANNO-SYMB
10
6.03572
20
11.95561
30
0
11
6.07739
21
12.02778
31
0
0
TEXT
8
A-ANNO-SYMB
10
5.99405
20
12
30
0
40
0.045
1
A1
50
0
72
1
11
5.99405
21
12
31
0
0
LINE
8
A-ANNO-SYMB
10
7.57739
20
12.02778
30
0
11
7.53572
21
12.09995
31
0
0
LINE
8
A-ANNO-SYMB
10
7.53572
20
12.09995
30
0
11
7.45239
21
12.09995
31
0
0
LINE
8
A-ANNO-SYMB
10
7.45239
20
12.09995
30
0
11
7.41072
21
12.02778
31
0
0
LINE
8
A-ANNO-SYMB
10
7.41072
20
12.02778
30
0
11
7.45239
21
11.95561
31
0
0
LINE
8
A-ANNO-SYMB
10
7.45239
20
11.95561
30
0
11
7.53572
21
11.95561
31
0
0
LINE
8
A-ANNO-SYMB
10
7.53572
20
11.95561
30
0
11
7.57739
21
12.02778
31
0
0
TEXT
8
A-ANNO-SYMB
10
7.49405
20
12
30
0
40
0.045
1
A1
50
0
72
1
11
7.49405
21
12
31
0
0
LINE
8
A-ANNO-SYMB
10
9.07739
20
12.02778
30
0
11
9.03572
21
12.09995
31
0
0
LINE
8
A-ANNO-SYMB
10
9.03572
20
12.09995
30
0
11
8.95239
21
12.09995
31
0
0
LINE
8
A-ANNO-SYMB
10
8.95239
20
12.09995
30
0
11
8.91072
21
12.02778
31
0
0
LINE
8
A-ANNO-SYMB
10
8.91072
20
12.02778
30
0
11
8.95239
21
11.95561
31
0
0
LINE
8
A-ANNO-SYMB
10
8.95239
20
11.95561
30
0
11
9.03572
21
11.95561
31
0
0
LINE
8
A-ANNO-SYMB
10
9.03572
20
11.95561
30
0
11
9.07739
21
12.02778
31
0
0
TEXT
8
A-ANNO-SYMB
10
8.99405
20
12
30
0
40
0.045
1
A1
50
0
72
1
11
8.99405
21
12
31
0
0
LINE
8
A-ANNO-SYMB
10
10.57739
20
12.02778
30
0
11
10.53572
21
12.09995
31
0
0
LINE
8
A-ANNO-SYMB
10
10.53572
20
12.09995
30
0
11
10.45239
21
12.09995
31
0
0
LINE
8
A-ANNO-SYMB
10
10.45239
20
12.09995
30
0
11
10.41072
21
12.02778
31
0
0
LINE
8
A-ANNO-SYMB
10
10.41072
20
12.02778
30
0
11
10.45239
21
11.95561
31
0
0
LINE
8
A-ANNO-SYMB
10
10.45239
20
11.95561
30
0
11
10.53572
21
11.95561
31
0
0
LINE
8
A-ANNO-SYMB
10
10.53572
20
11.95561
30
0
11
10.57739
21
12.02778
31
0
0
TEXT
8
A-ANNO-SYMB
10
10.49405
20
12
30
0
40
0.045
1
A1
50
0
72
1
11
10.49405
21
12
31
0
0
LINE
8
A-ANNO-SYMB
10
12.07739
20
12.02778
30
0
11
12.03572
21
12.09995
31
0
0
LINE
8
A-ANNO-SYMB
10
12.03572
20
12.09995
30
0
11
11.95239
21
12.09995
31
0
0
LINE
8
A-ANNO-SYMB
10
11.95239
20
12.09995
30
0
11
11.91072
21
12.02778
31
0
0
LINE
8
A-ANNO-SYMB
10
11.91072
20
12.02778
30
0
11
11.95239
21
11.95561
31
0
0
LINE
8
A-ANNO-SYMB
10
11.95239
20
11.95561
30
0
11
12.03572
21
11.95561
31
0
0
LINE
8
A-ANNO-SYMB
10
12.03572
20
11.95561
30
0
11
12.07739
21
12.02778
31
0
0
TEXT
8
A-ANNO-SYMB
10
11.99405
20
12
30
0
40
0.045
1
A1
50
0
72
1
11
11.99405
21
12
31
0
0
LINE
8
A-ANNO-SYMB
10
13.57739
20
12.02778
30
0
11
13.53572
21
12.09995
31
0
0
LINE
8
A-ANNO-SYMB
10
13.53572
20
12.09995
30
0
11
13.45239
21
12.09995
31
0
0
LINE
8
A-ANNO-SYMB
10
13.45239
20
12.09995
30
0
11
13.41072
21
12.02778
31
0
0
LINE
8
A-ANNO-SYMB
10
13.41072
20
12.02778
30
0
11
13.45239
21
11.95561
31
0
0
LINE
8
A-ANNO-SYMB
10
13.45239
20
11.95561
30
0
11
13.53572
21
11.95561
31
0
0
LINE
8
A-ANNO-SYMB
10
13.53572
20
11.95561
30
0
11
13.57739
21
12.02778
31
0
0
TEXT
8
A-ANNO-SYMB
10
13.49405
20
12
30
0
40
0.045
1
A1
50
0
72
1
11
13.49405
21
12
31
0
0
LINE
8
A-ANNO-SYMB
10
15.07739
20
12.02778
30
0
11
15.03572
21
12.09995
31
0
0
LINE
8
A-ANNO-SYMB
10
15.03572
20
12.09995
30
0
11
14.95239
21
12.09995
31
0
0
LINE
8
A-ANNO-SYMB
10
14.95239
20
12.09995
30
0
11
14.91072
21
12.02778
31
0
0
LINE
8
A-ANNO-SYMB
10
14.91072
20
12.02778
30
0
11
14.95239
21
11.95561
31
0
0
LINE
8
A-ANNO-SYMB
10
14.95239
20
11.95561
30
0
11
15.03572
21
11.95561
31
0
0
LINE
8
A-ANNO-SYMB
10
15.03572
20
11.95561
30
0
11
15.07739
21
12.02778
31
0
0
TEXT
8
A-ANNO-SYMB
10
14.99405
20
12
30
0
40
0.045
1
A1
50
0
72
1
11
14.99405
21
12
31
0
0
LINE
8
A-ANNO-SYMB
10
16.57739
20
12.02778
30
0
11
16.53572
21
12.09995
31
0
0
LINE
8
A-ANNO-SYMB
10
16.53572
20
12.09995
30
0
11
16.45239
21
12.09995
31
0
0
LINE
8
A-ANNO-SYMB
10
16.45239
20
12.09995
30
0
11
16.41072
21
12.02778
31
0
0
LINE
8
A-ANNO-SYMB
10
16.41072
20
12.02778
30
0
11
16.45239
21
11.95561
31
0
0
LINE
8
A-ANNO-SYMB
10
16.45239
20
11.95561
30
0
11
16.53572
21
11.95561
31
0
0
LINE
8
A-ANNO-SYMB
10
16.53572
20
11.95561
30
0
11
16.57739
21
12.02778
31
0
0
TEXT
8
A-ANNO-SYMB
10
16.49405
20
12
30
0
40
0.045
1
A1
50
0
72
1
11
16.49405
21
12
31
0
0
LINE
8
A-ANNO-SYMB
10
18.07739
20
12.02778
30
0
11
18.03572
21
12.09995
31
0
0
LINE
8
A-ANNO-SYMB
10
18.03572
20
12.09995
30
0
11
17.95239
21
12.09995
31
0
0
LINE
8
A-ANNO-SYMB
10
17.95239
20
12.09995
30
0
11
17.91072
21
12.02778
31
0
0
LINE
8
A-ANNO-SYMB
10
17.91072
20
12.02778
30
0
11
17.95239
21
11.95561
31
0
0
LINE
8
A-ANNO-SYMB
10
17.95239
20
11.95561
30
0
11
18.03572
21
11.95561
31
0
0
LINE
8
A-ANNO-SYMB
10
18.03572
20
11.95561
30
0
11
18.07739
21
12.02778
31
0
0
TEXT
8
A-ANNO-SYMB
10
17.99405
20
12
30
0
40
0.045
1
A1
50
0
72
1
11
17.99405
21
12
31
0
0
LINE
8
A-ANNO-SYMB
10
19.57739
20
12.02778
30
0
11
19.53572
21
12.09995
31
0
0
LINE
8
A-ANNO-SYMB
10
19.53572
20
12.09995
30
0
11
19.45239
21
12.09995
31
0
0
LINE
8
A-ANNO-SYMB
10
19.45239
20
12.09995
30
0
11
19.41072
21
12.02778
31
0
0
LINE
8
A-ANNO-SYMB
10
19.41072
20
12.02778
30
0
11
19.45239
21
11.95561
31
0
0
LINE
8
A-ANNO-SYMB
10
19.45239
20
11.95561
30
0
11
19.53572
21
11.95561
31
0
0
LINE
8
A-ANNO-SYMB
10
19.53572
20
11.95561
30
0
11
19.57739
21
12.02778
31
0
0
TEXT
8
A-ANNO-SYMB
10
19.49405
20
12
30
0
40
0.045
1
A1
50
0
72
1
11
19.49405
21
12
31
0
0
LINE
8
A-ANNO-SYMB
10
19.57739
20
9.48611
30
0
11
19.53572
21
9.55828
31
0
0
LINE
8
A-ANNO-SYMB
10
19.53572
20
9.55828
30
0
11
19.45239
21
9.55828
31
0
0
LINE
8
A-ANNO-SYMB
10
19.45239
20
9.55828
30
0
11
19.41072
21
9.48611
31
0
0
LINE
8
A-ANNO-SYMB
10
19.41072
20
9.48611
30
0
11
19.45239
21
9.41394
31
0
0
LINE
8
A-ANNO-SYMB
10
19.45239
20
9.41394
30
0
11
19.53572
21
9.41394
31
0
0
LINE
8
A-ANNO-SYMB
10
19.53572
20
9.41394
30
0
11
19.57739
21
9.48611
31
0
0
TEXT
8
A-ANNO-SYMB
10
19.49405
20
9.45833
30
0
40
0.045
1
A1
50
0
72
1
11
19.49405
21
9.45833
31
0
0
LINE
8
A-ANNO-SYMB
10
6.11111
20
16.72817
30
0
11
6.06944
21
16.80034
31
0
0
LINE
8
A-ANNO-SYMB
10
6.06944
20
16.80034
30
0
11
5.98611
21
16.80034
31
0
0
LINE
8
A-ANNO-SYMB
10
5.98611
20
16.80034
30
0
11
5.94444
21
16.72817
31
0
0
LINE
8
A-ANNO-SYMB
10
5.94444
20
16.72817
30
0
11
5.98611
21
16.656
31
0
0
LINE
8
A-ANNO-SYMB
10
5.98611
20
16.656
30
0
11
6.06944
21
16.656
31
0
0
LINE
8
A-ANNO-SYMB
10
6.06944
20
16.656
30
0
11
6.11111
21
16.72817
31
0
0
TEXT
8
A-ANNO-SYMB
10
6.02778
20
16.70039
30
0
40
0.045
1
A2
50
0
72
1
11
6.02778
21
16.70039
31
0
0
LINE
8
A-ANNO-SYMB
10
8.07739
20
15.40278
30
0
11
8.03572
21
15.47495
31
0
0
LINE
8
A-ANNO-SYMB
10
8.03572
20
15.47495
30
0
11
7.95239
21
15.47495
31
0
0
LINE
8
A-ANNO-SYMB
10
7.95239
20
15.47495
30
0
11
7.91072
21
15.40278
31
0
0
LINE
8
A-ANNO-SYMB
10
7.91072
20
15.40278
30
0
11
7.95239
21
15.33061
31
0
0
LINE
8
A-ANNO-SYMB
10
7.95239
20
15.33061
30
0
11
8.03572
21
15.33061
31
0
0
LINE
8
A-ANNO-SYMB
10
8.03572
20
15.33061
30
0
11
8.07739
21
15.40278
31
0
0
TEXT
8
A-ANNO-SYMB
10
7.99405
20
15.375
30
0
40
0.045
1
A2
50
0
72
1
11
7.99405
21
15.375
31
0
0
LINE
8
A-ANNO-SYMB
10
18.90278
20
15.49054
30
0
11
18.86111
21
15.56271
31
0
0
LINE
8
A-ANNO-SYMB
10
18.86111
20
15.56271
30
0
11
18.77778
21
15.56271
31
0
0
LINE
8
A-ANNO-SYMB
10
18.77778
20
15.56271
30
0
11
18.73611
21
15.49054
31
0
0
LINE
8
A-ANNO-SYMB
10
18.73611
20
15.49054
30
0
11
18.77778
21
15.41837
31
0
0
LINE
8
A-ANNO-SYMB
10
18.77778
20
15.41837
30
0
11
18.86111
21
15.41837
31
0
0
LINE
8
A-ANNO-SYMB
10
18.86111
20
15.41837
30
0
11
18.90278
21
15.49054
31
0
0
TEXT
8
A-ANNO-SYMB
10
18.81944
20
15.46276
30
0
40
0.045
1
B1
50
0
72
1
11
18.81944
21
15.46276
31
0
0
LINE
8
A-ANNO-SYMB
10
26.81306
20
17.81944
30
0
11
26.7714
21
17.89161
31
0
0
LINE
8
A-ANNO-SYMB
10
26.7714
20
17.89161
30
0
11
26.68806
21
17.89161
31
0
0
LINE
8
A-ANNO-SYMB
10
26.68806
20
17.89161
30
0
11
26.6464
21
17.81944
31
0
0
LINE
8
A-ANNO-SYMB
10
26.6464
20
17.81944
30
0
11
26.68806
21
17.74728
31
0
0
LINE
8
A-ANNO-SYMB
10
26.68806
20
17.74728
30
0
11
26.7714
21
17.74728
31
0
0
LINE
8
A-ANNO-SYMB
10
26.7714
20
17.74728
30
0
11
26.81306
21
17.81944
31
0
0
TEXT
8
A-ANNO-SYMB
10
26.72973
20
17.79167
30
0
40
0.045
1
CMU
50
0
72
1
11
26.72973
21
17.79167
31
0
0
LINE
8
A-ANNO-SYMB
10
28.52778
20
15.74249
30
0
11
28.48611
21
15.81466
31
0
0
LINE
8
A-ANNO-SYMB
10
28.48611
20
15.81466
30
0
11
28.40278
21
15.81466
31
0
0
LINE
8
A-ANNO-SYMB
10
28.40278
20
15.81466
30
0
11
28.36111
21
15.74249
31
0
0
LINE
8
A-ANNO-SYMB
10
28.36111
20
15.74249
30
0
11
28.40278
21
15.67032
31
0
0
LINE
8
A-ANNO-SYMB
10
28.40278
20
15.67032
30
0
11
28.48611
21
15.67032
31
0
0
LINE
8
A-ANNO-SYMB
10
28.48611
20
15.67032
30
0
11
28.52778
21
15.74249
31
0
0
TEXT
8
A-ANNO-SYMB
10
28.44444
20
15.71471
30
0
40
0.045
1
CMU
50
0
72
1
11
28.44444
21
15.71471
31
0
0
LINE
8
A-ANNO-SYMB
10
25.32804
20
18.81944
30
0
11
25.28637
21
18.89161
31
0
0
LINE
8
A-ANNO-SYMB
10
25.28637
20
18.89161
30
0
11
25.20304
21
18.89161
31
0
0
LINE
8
A-ANNO-SYMB
10
25.20304
20
18.89161
30
0
11
25.16137
21
18.81944
31
0
0
LINE
8
A-ANNO-SYMB
10
25.16137
20
18.81944
30
0
11
25.20304
21
18.74728
31
0
0
LINE
8
A-ANNO-SYMB
10
25.20304
20
18.74728
30
0
11
25.28637
21
18.74728
31
0
0
LINE
8
A-ANNO-SYMB
10
25.28637
20
18.74728
30
0
11
25.32804
21
18.81944
31
0
0
TEXT
8
A-ANNO-SYMB
10
25.2447
20
18.79167
30
0
40
0.045
1
C1
50
0
72
1
11
25.2447
21
18.79167
31
0
0
LINE
8
A-ANNO-SYMB
10
26.65278
20
17.72752
30
0
11
26.61111
21
17.79969
31
0
0
LINE
8
A-ANNO-SYMB
10
26.61111
20
17.79969
30
0
11
26.52778
21
17.79969
31
0
0
LINE
8
A-ANNO-SYMB
10
26.52778
20
17.79969
30
0
11
26.48611
21
17.72752
31
0
0
LINE
8
A-ANNO-SYMB
10
26.48611
20
17.72752
30
0
11
26.52778
21
17.65535
31
0
0
LINE
8
A-ANNO-SYMB
10
26.52778
20
17.65535
30
0
11
26.61111
21
17.65535
31
0
0
LINE
8
A-ANNO-SYMB
10
26.61111
20
17.65535
30
0
11
26.65278
21
17.72752
31
0
0
TEXT
8
A-ANNO-SYMB
10
26.56944
20
17.69974
30
0
40
0.045
1
C1
50
0
72
1
11
26.56944
21
17.69974
31
0
0
LINE
8
A-ANNO-SYMB
10
26.96528
20
9.22817
30
0
11
26.92361
21
9.30034
31
0
0
LINE
8
A-ANNO-SYMB
10
26.92361
20
9.30034
30
0
11
26.84028
21
9.30034
31
0
0
LINE
8
A-ANNO-SYMB
10
26.84028
20
9.30034
30
0
11
26.79861
21
9.22817
31
0
0
LINE
8
A-ANNO-SYMB
10
26.79861
20
9.22817
30
0
11
26.84028
21
9.156
31
0
0
LINE
8
A-ANNO-SYMB
10
26.84028
20
9.156
30
0
11
26.92361
21
9.156
31
0
0
LINE
8
A-ANNO-SYMB
10
26.92361
20
9.156
30
0
11
26.96528
21
9.22817
31
0
0
TEXT
8
A-ANNO-SYMB
10
26.88194
20
9.20039
30
0
40
0.045
1
A2
50
0
72
1
11
26.88194
21
9.20039
31
0
0
LINE
8
A-ANNO-SYMB
10
26.27726
20
11.27778
30
0
11
26.23559
21
11.34995
31
0
0
LINE
8
A-ANNO-SYMB
10
26.23559
20
11.34995
30
0
11
26.15226
21
11.34995
31
0
0
LINE
8
A-ANNO-SYMB
10
26.15226
20
11.34995
30
0
11
26.11059
21
11.27778
31
0
0
LINE
8
A-ANNO-SYMB
10
26.11059
20
11.27778
30
0
11
26.15226
21
11.20561
31
0
0
LINE
8
A-ANNO-SYMB
10
26.15226
20
11.20561
30
0
11
26.23559
21
11.20561
31
0
0
LINE
8
A-ANNO-SYMB
10
26.23559
20
11.20561
30
0
11
26.27726
21
11.27778
31
0
0
TEXT
8
A-ANNO-SYMB
10
26.19392
20
11.25
30
0
40
0.045
1
D1
50
0
72
1
11
26.19392
21
11.25
31
0
0
LINE
8
A-ANNO-SYMB
10
23.70239
20
10.61111
30
0
11
23.66072
21
10.68328
31
0
0
LINE
8
A-ANNO-SYMB
10
23.66072
20
10.68328
30
0
11
23.57739
21
10.68328
31
0
0
LINE
8
A-ANNO-SYMB
10
23.57739
20
10.68328
30
0
11
23.53572
21
10.61111
31
0
0
LINE
8
A-ANNO-SYMB
10
23.53572
20
10.61111
30
0
11
23.57739
21
10.53894
31
0
0
LINE
8
A-ANNO-SYMB
10
23.57739
20
10.53894
30
0
11
23.66072
21
10.53894
31
0
0
LINE
8
A-ANNO-SYMB
10
23.66072
20
10.53894
30
0
11
23.70239
21
10.61111
31
0
0
TEXT
8
A-ANNO-SYMB
10
23.61905
20
10.58333
30
0
40
0.045
1
A1
50
0
72
1
11
23.61905
21
10.58333
31
0
0
LINE
8
A-ANNO-SYMB
10
26.02778
20
12.97817
30
0
11
25.98611
21
13.05034
31
0
0
LINE
8
A-ANNO-SYMB
10
25.98611
20
13.05034
30
0
11
25.90278
21
13.05034
31
0
0
LINE
8
A-ANNO-SYMB
10
25.90278
20
13.05034
30
0
11
25.86111
21
12.97817
31
0
0
LINE
8
A-ANNO-SYMB
10
25.86111
20
12.97817
30
0
11
25.90278
21
12.906
31
0
0
LINE
8
A-ANNO-SYMB
10
25.90278
20
12.906
30
0
11
25.98611
21
12.906
31
0
0
LINE
8
A-ANNO-SYMB
10
25.98611
20
12.906
30
0
11
26.02778
21
12.97817
31
0
0
TEXT
8
A-ANNO-SYMB
10
25.94444
20
12.95039
30
0
40
0.045
1
A1
50
0
72
1
11
25.94444
21
12.95039
31
0
0
LINE
8
A-ANNO-DIMS
10
3.19444
20
6.44403
30
0
11
6.94444
21
6.44403
31
0
0
LINE
8
A-ANNO-DIMS
10
3.19444
20
7.66625
30
0
11
3.19444
21
6.40236
31
0
0
LINE
8
A-ANNO-DIMS
10
3.16989
20
6.41948
30
0
11
3.219
21
6.46858
31
0
0
LINE
8
A-ANNO-DIMS
10
6.94444
20
7.66625
30
0
11
6.94444
21
6.40236
31
0
0
LINE
8
A-ANNO-DIMS
10
6.91989
20
6.41948
30
0
11
6.969
21
6.46858
31
0
0
TEXT
8
A-ANNO-DIMS
10
5.06944
20
6.47181
30
0
40
0.0675
1
30'-0"
50
0
72
1
11
5.06944
21
6.47181
31
0
0
LINE
8
A-ANNO-DIMS
10
6.94444
20
6.44403
30
0
11
10.69444
21
6.44403
31
0
0
LINE
8
A-ANNO-DIMS
10
6.94444
20
7.66625
30
0
11
6.94444
21
6.40236
31
0
0
LINE
8
A-ANNO-DIMS
10
6.91989
20
6.41948
30
0
11
6.969
21
6.46858
31
0
0
LINE
8
A-ANNO-DIMS
10
10.69444
20
7.66625
30
0
11
10.69444
21
6.40236
31
0
0
LINE
8
A-ANNO-DIMS
10
10.66989
20
6.41948
30
0
11
10.719
21
6.46858
31
0
0
TEXT
8
A-ANNO-DIMS
10
8.81944
20
6.47181
30
0
40
0.0675
1
30'-0"
50
0
72
1
11
8.81944
21
6.47181
31
0
0
LINE
8
A-ANNO-DIMS
10
10.69444
20
6.44403
30
0
11
14.11111
21
6.44403
31
0
0
LINE
8
A-ANNO-DIMS
10
10.69444
20
7.66625
30
0
11
10.69444
21
6.40236
31
0
0
LINE
8
A-ANNO-DIMS
10
10.66989
20
6.41948
30
0
11
10.719
21
6.46858
31
0
0
LINE
8
A-ANNO-DIMS
10
14.11111
20
7.66625
30
0
11
14.11111
21
6.40236
31
0
0
LINE
8
A-ANNO-DIMS
10
14.08656
20
6.41948
30
0
11
14.13566
21
6.46858
31
0
0
TEXT
8
A-ANNO-DIMS
10
12.40278
20
6.47181
30
0
40
0.0675
1
27'-4"
50
0
72
1
11
12.40278
21
6.47181
31
0
0
LINE
8
A-ANNO-DIMS
10
14.11111
20
6.44403
30
0
11
17.86111
21
6.44403
31
0
0
LINE
8
A-ANNO-DIMS
10
14.11111
20
7.66625
30
0
11
14.11111
21
6.40236
31
0
0
LINE
8
A-ANNO-DIMS
10
14.08656
20
6.41948
30
0
11
14.13566
21
6.46858
31
0
0
LINE
8
A-ANNO-DIMS
10
17.86111
20
7.66625
30
0
11
17.86111
21
6.40236
31
0
0
LINE
8
A-ANNO-DIMS
10
17.83656
20
6.41948
30
0
11
17.88566
21
6.46858
31
0
0
TEXT
8
A-ANNO-DIMS
10
15.98611
20
6.47181
30
0
40
0.0675
1
30'-0"
50
0
72
1
11
15.98611
21
6.47181
31
0
0
LINE
8
A-ANNO-DIMS
10
17.86111
20
6.44403
30
0
11
21.61111
21
6.44403
31
0
0
LINE
8
A-ANNO-DIMS
10
17.86111
20
7.66625
30
0
11
17.86111
21
6.40236
31
0
0
LINE
8
A-ANNO-DIMS
10
17.83656
20
6.41948
30
0
11
17.88566
21
6.46858
31
0
0
LINE
8
A-ANNO-DIMS
10
21.61111
20
7.66625
30
0
11
21.61111
21
6.40236
31
0
0
LINE
8
A-ANNO-DIMS
10
21.58656
20
6.41948
30
0
11
21.63566
21
6.46858
31
0
0
TEXT
8
A-ANNO-DIMS
10
19.73611
20
6.47181
30
0
40
0.0675
1
30'-0"
50
0
72
1
11
19.73611
21
6.47181
31
0
0
LINE
8
A-ANNO-DIMS
10
21.61111
20
6.44403
30
0
11
25.36111
21
6.44403
31
0
0
LINE
8
A-ANNO-DIMS
10
21.61111
20
7.66625
30
0
11
21.61111
21
6.40236
31
0
0
LINE
8
A-ANNO-DIMS
10
21.58656
20
6.41948
30
0
11
21.63566
21
6.46858
31
0
0
LINE
8
A-ANNO-DIMS
10
25.36111
20
7.66625
30
0
11
25.36111
21
6.40236
31
0
0
LINE
8
A-ANNO-DIMS
10
25.33656
20
6.41948
30
0
11
25.38566
21
6.46858
31
0
0
TEXT
8
A-ANNO-DIMS
10
23.48611
20
6.47181
30
0
40
0.0675
1
30'-0"
50
0
72
1
11
23.48611
21
6.47181
31
0
0
LINE
8
A-ANNO-DIMS
10
25.36111
20
6.44403
30
0
11
29.11111
21
6.44403
31
0
0
LINE
8
A-ANNO-DIMS
10
25.36111
20
7.66625
30
0
11
25.36111
21
6.40236
31
0
0
LINE
8
A-ANNO-DIMS
10
25.33656
20
6.41948
30
0
11
25.38566
21
6.46858
31
0
0
LINE
8
A-ANNO-DIMS
10
29.11111
20
7.66625
30
0
11
29.11111
21
6.40236
31
0
0
LINE
8
A-ANNO-DIMS
10
29.08656
20
6.41948
30
0
11
29.13566
21
6.46858
31
0
0
TEXT
8
A-ANNO-DIMS
10
27.23611
20
6.47181
30
0
40
0.0675
1
30'-0"
50
0
72
1
11
27.23611
21
6.47181
31
0
0
LINE
8
A-ANNO-DIMS
10
3.19444
20
5.69403
30
0
11
29.11111
21
5.69403
31
0
0
LINE
8
A-ANNO-DIMS
10
3.19444
20
7.66625
30
0
11
3.19444
21
5.65236
31
0
0
LINE
8
A-ANNO-DIMS
10
3.16989
20
5.66948
30
0
11
3.219
21
5.71858
31
0
0
LINE
8
A-ANNO-DIMS
10
29.11111
20
7.66625
30
0
11
29.11111
21
5.65236
31
0
0
LINE
8
A-ANNO-DIMS
10
29.08656
20
5.66948
30
0
11
29.13566
21
5.71858
31
0
0
TEXT
8
A-ANNO-DIMS
10
16.15278
20
5.72181
30
0
40
0.0675
1
207'-4"
50
0
72
1
11
16.15278
21
5.72181
31
0
0
LINE
8
A-ANNO-DIMS
10
1.86069
20
7.77778
30
0
11
1.86069
21
11.52778
31
0
0
LINE
8
A-ANNO-DIMS
10
3.08292
20
7.77778
30
0
11
1.81903
21
7.77778
31
0
0
LINE
8
A-ANNO-DIMS
10
1.88525
20
7.75323
30
0
11
1.83614
21
7.80233
31
0
0
LINE
8
A-ANNO-DIMS
10
3.08292
20
11.52778
30
0
11
1.81903
21
11.52778
31
0
0
LINE
8
A-ANNO-DIMS
10
1.88525
20
11.50323
30
0
11
1.83614
21
11.55233
31
0
0
TEXT
8
A-ANNO-DIMS
10
1.83292
20
9.65278
30
0
40
0.0675
1
30'-0"
50
90
72
1
11
1.83292
21
9.65278
31
0
0
LINE
8
A-ANNO-DIMS
10
1.86069
20
11.52778
30
0
11
1.86069
21
15.27778
31
0
0
LINE
8
A-ANNO-DIMS
10
3.08292
20
11.52778
30
0
11
1.81903
21
11.52778
31
0
0
LINE
8
A-ANNO-DIMS
10
1.88525
20
11.50323
30
0
11
1.83614
21
11.55233
31
0
0
LINE
8
A-ANNO-DIMS
10
3.08292
20
15.27778
30
0
11
1.81903
21
15.27778
31
0
0
LINE
8
A-ANNO-DIMS
10
1.88525
20
15.25323
30
0
11
1.83614
21
15.30233
31
0
0
TEXT
8
A-ANNO-DIMS
10
1.83292
20
13.40278
30
0
40
0.0675
1
30'-0"
50
90
72
1
11
1.83292
21
13.40278
31
0
0
LINE
8
A-ANNO-DIMS
10
1.86069
20
15.27778
30
0
11
1.86069
21
19.27778
31
0
0
LINE
8
A-ANNO-DIMS
10
3.08292
20
15.27778
30
0
11
1.81903
21
15.27778
31
0
0
LINE
8
A-ANNO-DIMS
10
1.88525
20
15.25323
30
0
11
1.83614
21
15.30233
31
0
0
LINE
8
A-ANNO-DIMS
10
3.08292
20
19.27778
30
0
11
1.81903
21
19.27778
31
0
0
LINE
8
A-ANNO-DIMS
10
1.88525
20
19.25323
30
0
11
1.83614
21
19.30233
31
0
0
TEXT
8
A-ANNO-DIMS
10
1.83292
20
17.27778
30
0
40
0.0675
1
32'-0"
50
90
72
1
11
1.83292
21
17.27778
31
0
0
LINE
8
A-ANNO-DIMS
10
1.11069
20
7.77778
30
0
11
1.11069
21
19.27778
31
0
0
LINE
8
A-ANNO-DIMS
10
3.08292
20
7.77778
30
0
11
1.06903
21
7.77778
31
0
0
LINE
8
A-ANNO-DIMS
10
1.13525
20
7.75323
30
0
11
1.08614
21
7.80233
31
0
0
LINE
8
A-ANNO-DIMS
10
3.08292
20
19.27778
30
0
11
1.06903
21
19.27778
31
0
0
LINE
8
A-ANNO-DIMS
10
1.13525
20
19.25323
30
0
11
1.08614
21
19.30233
31
0
0
TEXT
8
A-ANNO-DIMS
10
1.08292
20
13.52778
30
0
40
0.0675
1
92'-0"
50
90
72
1
11
1.08292
21
13.52778
31
0
0
LINE
8
A-ANNO-DIMS
10
4.69444
20
11.52778
30
0
11
6.19444
21
11.52778
31
0
0
LINE
8
A-ANNO-DIMS
10
4.69444
20
11.55556
30
0
11
4.69444
21
11.56944
31
0
0
LINE
8
A-ANNO-DIMS
10
4.66989
20
11.50323
30
0
11
4.719
21
11.55233
31
0
0
LINE
8
A-ANNO-DIMS
10
6.19444
20
11.55556
30
0
11
6.19444
21
11.56944
31
0
0
LINE
8
A-ANNO-DIMS
10
6.16989
20
11.50323
30
0
11
6.219
21
11.55233
31
0
0
TEXT
8
A-ANNO-DIMS
10
5.44444
20
11.55556
30
0
40
0.0675
1
12'-0"
50
0
72
1
11
5.44444
21
11.55556
31
0
0
LINE
8
A-ANNO-DIMS
10
6.19444
20
11.52778
30
0
11
7.69444
21
11.52778
31
0
0
LINE
8
A-ANNO-DIMS
10
6.19444
20
11.55556
30
0
11
6.19444
21
11.56944
31
0
0
LINE
8
A-ANNO-DIMS
10
6.16989
20
11.50323
30
0
11
6.219
21
11.55233
31
0
0
LINE
8
A-ANNO-DIMS
10
7.69444
20
11.55556
30
0
11
7.69444
21
11.56944
31
0
0
LINE
8
A-ANNO-DIMS
10
7.66989
20
11.50323
30
0
11
7.719
21
11.55233
31
0
0
TEXT
8
A-ANNO-DIMS
10
6.94444
20
11.55556
30
0
40
0.0675
1
12'-0"
50
0
72
1
11
6.94444
21
11.55556
31
0
0
LINE
8
A-ANNO-DIMS
10
7.69444
20
11.52778
30
0
11
9.19444
21
11.52778
31
0
0
LINE
8
A-ANNO-DIMS
10
7.69444
20
11.55556
30
0
11
7.69444
21
11.56944
31
0
0
LINE
8
A-ANNO-DIMS
10
7.66989
20
11.50323
30
0
11
7.719
21
11.55233
31
0
0
LINE
8
A-ANNO-DIMS
10
9.19444
20
11.55556
30
0
11
9.19444
21
11.56944
31
0
0
LINE
8
A-ANNO-DIMS
10
9.16989
20
11.50323
30
0
11
9.219
21
11.55233
31
0
0
TEXT
8
A-ANNO-DIMS
10
8.44444
20
11.55556
30
0
40
0.0675
1
12'-0"
50
0
72
1
11
8.44444
21
11.55556
31
0
0
LINE
8
A-ANNO-DIMS
10
9.19444
20
11.52778
30
0
11
10.69444
21
11.52778
31
0
0
LINE
8
A-ANNO-DIMS
10
9.19444
20
11.55556
30
0
11
9.19444
21
11.56944
31
0
0
LINE
8
A-ANNO-DIMS
10
9.16989
20
11.50323
30
0
11
9.219
21
11.55233
31
0
0
LINE
8
A-ANNO-DIMS
10
10.69444
20
11.55556
30
0
11
10.69444
21
11.56944
31
0
0
LINE
8
A-ANNO-DIMS
10
10.66989
20
11.50323
30
0
11
10.719
21
11.55233
31
0
0
TEXT
8
A-ANNO-DIMS
10
9.94444
20
11.55556
30
0
40
0.0675
1
12'-0"
50
0
72
1
11
9.94444
21
11.55556
31
0
0
LINE
8
A-ANNO-DIMS
10
4.44444
20
12.77778
30
0
11
4.44444
21
13.52778
31
0
0
LINE
8
A-ANNO-DIMS
10
4.41667
20
12.77778
30
0
11
4.40278
21
12.77778
31
0
0
LINE
8
A-ANNO-DIMS
10
4.469
20
12.75323
30
0
11
4.41989
21
12.80233
31
0
0
LINE
8
A-ANNO-DIMS
10
4.41667
20
13.52778
30
0
11
4.40278
21
13.52778
31
0
0
LINE
8
A-ANNO-DIMS
10
4.469
20
13.50323
30
0
11
4.41989
21
13.55233
31
0
0
TEXT
8
A-ANNO-DIMS
10
4.41667
20
13.15278
30
0
40
0.0675
1
6'-0"
50
90
72
1
11
4.41667
21
13.15278
31
0
0
LINE
8
A-ANNO-DIMS
10
15.69444
20
15.77778
30
0
11
21.19444
21
15.77778
31
0
0
LINE
8
A-ANNO-DIMS
10
15.69444
20
15.80556
30
0
11
15.69444
21
15.81944
31
0
0
LINE
8
A-ANNO-DIMS
10
15.66989
20
15.75323
30
0
11
15.719
21
15.80233
31
0
0
LINE
8
A-ANNO-DIMS
10
21.19444
20
15.80556
30
0
11
21.19444
21
15.81944
31
0
0
LINE
8
A-ANNO-DIMS
10
21.16989
20
15.75323
30
0
11
21.219
21
15.80233
31
0
0
TEXT
8
A-ANNO-DIMS
10
18.44444
20
15.80556
30
0
40
0.0675
1
44'-0"
50
0
72
1
11
18.44444
21
15.80556
31
0
0
LINE
8
A-ANNO-DIMS
10
21.94444
20
14.02778
30
0
11
23.81944
21
14.02778
31
0
0
LINE
8
A-ANNO-DIMS
10
21.94444
20
14.05556
30
0
11
21.94444
21
14.06944
31
0
0
LINE
8
A-ANNO-DIMS
10
21.91989
20
14.00323
30
0
11
21.969
21
14.05233
31
0
0
LINE
8
A-ANNO-DIMS
10
23.81944
20
14.05556
30
0
11
23.81944
21
14.06944
31
0
0
LINE
8
A-ANNO-DIMS
10
23.79489
20
14.00323
30
0
11
23.844
21
14.05233
31
0
0
TEXT
8
A-ANNO-DIMS
10
22.88194
20
14.05556
30
0
40
0.0675
1
15'-0"
50
0
72
1
11
22.88194
21
14.05556
31
0
0
LINE
8
A-ANNO-DIMS
10
24.44444
20
7.77778
30
0
11
24.44444
21
9.02778
31
0
0
LINE
8
A-ANNO-DIMS
10
24.41667
20
7.77778
30
0
11
24.40278
21
7.77778
31
0
0
LINE
8
A-ANNO-DIMS
10
24.469
20
7.75323
30
0
11
24.41989
21
7.80233
31
0
0
LINE
8
A-ANNO-DIMS
10
24.41667
20
9.02778
30
0
11
24.40278
21
9.02778
31
0
0
LINE
8
A-ANNO-DIMS
10
24.469
20
9.00323
30
0
11
24.41989
21
9.05233
31
0
0
TEXT
8
A-ANNO-DIMS
10
24.41667
20
8.40278
30
0
40
0.0675
1
10'-0"
50
90
72
1
11
24.41667
21
8.40278
31
0
0
LINE
8
A-ANNO-SYMB
10
4.41667
20
5.27778
30
0
11
4.41159
21
5.32816
31
0
0
LINE
8
A-ANNO-SYMB
10
4.41159
20
5.32816
30
0
11
4.39702
21
5.37509
31
0
0
LINE
8
A-ANNO-SYMB
10
4.39702
20
5.37509
30
0
11
4.37397
21
5.41756
31
0
0
LINE
8
A-ANNO-SYMB
10
4.37397
20
5.41756
30
0
11
4.34344
21
5.45455
31
0
0
LINE
8
A-ANNO-SYMB
10
4.34344
20
5.45455
30
0
11
4.30644
21
5.48508
31
0
0
LINE
8
A-ANNO-SYMB
10
4.30644
20
5.48508
30
0
11
4.26398
21
5.50813
31
0
0
LINE
8
A-ANNO-SYMB
10
4.26398
20
5.50813
30
0
11
4.21705
21
5.5227
31
0
0
LINE
8
A-ANNO-SYMB
10
4.21705
20
5.5227
30
0
11
4.16667
21
5.52778
31
0
0
LINE
8
A-ANNO-SYMB
10
4.16667
20
5.52778
30
0
11
4.11628
21
5.5227
31
0
0
LINE
8
A-ANNO-SYMB
10
4.11628
20
5.5227
30
0
11
4.06936
21
5.50813
31
0
0
LINE
8
A-ANNO-SYMB
10
4.06936
20
5.50813
30
0
11
4.02689
21
5.48508
31
0
0
LINE
8
A-ANNO-SYMB
10
4.02689
20
5.48508
30
0
11
3.98989
21
5.45455
31
0
0
LINE
8
A-ANNO-SYMB
10
3.98989
20
5.45455
30
0
11
3.95936
21
5.41756
31
0
0
LINE
8
A-ANNO-SYMB
10
3.95936
20
5.41756
30
0
11
3.93631
21
5.37509
31
0
0
LINE
8
A-ANNO-SYMB
10
3.93631
20
5.37509
30
0
11
3.92175
21
5.32816
31
0
0
LINE
8
A-ANNO-SYMB
10
3.92175
20
5.32816
30
0
11
3.91667
21
5.27778
31
0
0
LINE
8
A-ANNO-SYMB
10
3.91667
20
5.27778
30
0
11
3.92175
21
5.22739
31
0
0
LINE
8
A-ANNO-SYMB
10
3.92175
20
5.22739
30
0
11
3.93631
21
5.18047
31
0
0
LINE
8
A-ANNO-SYMB
10
3.93631
20
5.18047
30
0
11
3.95936
21
5.138
31
0
0
LINE
8
A-ANNO-SYMB
10
3.95936
20
5.138
30
0
11
3.98989
21
5.101
31
0
0
LINE
8
A-ANNO-SYMB
10
3.98989
20
5.101
30
0
11
4.02689
21
5.07047
31
0
0
LINE
8
A-ANNO-SYMB
10
4.02689
20
5.07047
30
0
11
4.06936
21
5.04742
31
0
0
LINE
8
A-ANNO-SYMB
10
4.06936
20
5.04742
30
0
11
4.11628
21
5.03286
31
0
0
LINE
8
A-ANNO-SYMB
10
4.11628
20
5.03286
30
0
11
4.16667
21
5.02778
31
0
0
LINE
8
A-ANNO-SYMB
10
4.16667
20
5.02778
30
0
11
4.21705
21
5.03286
31
0
0
LINE
8
A-ANNO-SYMB
10
4.21705
20
5.03286
30
0
11
4.26398
21
5.04742
31
0
0
LINE
8
A-ANNO-SYMB
10
4.26398
20
5.04742
30
0
11
4.30644
21
5.07047
31
0
0
LINE
8
A-ANNO-SYMB
10
4.30644
20
5.07047
30
0
11
4.34344
21
5.101
31
0
0
LINE
8
A-ANNO-SYMB
10
4.34344
20
5.101
30
0
11
4.37397
21
5.138
31
0
0
LINE
8
A-ANNO-SYMB
10
4.37397
20
5.138
30
0
11
4.39702
21
5.18047
31
0
0
LINE
8
A-ANNO-SYMB
10
4.39702
20
5.18047
30
0
11
4.41159
21
5.22739
31
0
0
LINE
8
A-ANNO-SYMB
10
4.41159
20
5.22739
30
0
11
4.41667
21
5.27778
31
0
0
LINE
8
A-ANNO-SYMB
10
4.16667
20
5.52778
30
0
11
4.08333
21
5.13889
31
0
0
LINE
8
A-ANNO-SYMB
10
4.08333
20
5.13889
30
0
11
4.25
21
5.13889
31
0
0
LINE
8
A-ANNO-SYMB
10
4.25
20
5.13889
30
0
11
4.16667
21
5.52778
31
0
0
TEXT
8
A-ANNO-SYMB
10
4.16667
20
5.61111
30
0
40
0.1
1
N
50
0
72
1
11
4.16667
21
5.61111
31
0
0
LINE
8
A-ANNO-SYMB
10
5
20
5.22222
30
0
11
5.5
21
5.22222
31
0
0
LINE
8
A-ANNO-SYMB
10
5.5
20
5.22222
30
0
11
5.5
21
5.27778
31
0
0
LINE
8
A-ANNO-SYMB
10
5.5
20
5.27778
30
0
11
5
21
5.27778
31
0
0
LINE
8
A-ANNO-SYMB
10
5
20
5.27778
30
0
11
5
21
5.22222
31
0
0
TEXT
8
A-ANNO-SYMB
10
5
20
5.09722
30
0
40
0.05
1
0
50
0
72
1
11
5
21
5.09722
31
0
0
LINE
8
A-ANNO-SYMB
10
5.5
20
5.22222
30
0
11
6
21
5.22222
31
0
0
LINE
8
A-ANNO-SYMB
10
6
20
5.22222
30
0
11
6
21
5.27778
31
0
0
LINE
8
A-ANNO-SYMB
10
6
20
5.27778
30
0
11
5.5
21
5.27778
31
0
0
LINE
8
A-ANNO-SYMB
10
5.5
20
5.27778
30
0
11
5.5
21
5.22222
31
0
0
TEXT
8
A-ANNO-SYMB
10
5.5
20
5.09722
30
0
40
0.05
1
4
50
0
72
1
11
5.5
21
5.09722
31
0
0
LINE
8
A-ANNO-SYMB
10
6
20
5.22222
30
0
11
7
21
5.22222
31
0
0
LINE
8
A-ANNO-SYMB
10
7
20
5.22222
30
0
11
7
21
5.27778
31
0
0
LINE
8
A-ANNO-SYMB
10
7
20
5.27778
30
0
11
6
21
5.27778
31
0
0
LINE
8
A-ANNO-SYMB
10
6
20
5.27778
30
0
11
6
21
5.22222
31
0
0
TEXT
8
A-ANNO-SYMB
10
6
20
5.09722
30
0
40
0.05
1
8
50
0
72
1
11
6
21
5.09722
31
0
0
LINE
8
A-ANNO-SYMB
10
7
20
5.22222
30
0
11
9
21
5.22222
31
0
0
LINE
8
A-ANNO-SYMB
10
9
20
5.22222
30
0
11
9
21
5.27778
31
0
0
LINE
8
A-ANNO-SYMB
10
9
20
5.27778
30
0
11
7
21
5.27778
31
0
0
LINE
8
A-ANNO-SYMB
10
7
20
5.27778
30
0
11
7
21
5.22222
31
0
0
TEXT
8
A-ANNO-SYMB
10
7
20
5.09722
30
0
40
0.05
1
16
50
0
72
1
11
7
21
5.09722
31
0
0
TEXT
8
A-ANNO-SYMB
10
9
20
5.09722
30
0
40
0.05
1
32
50
0
72
1
11
9
21
5.09722
31
0
0
LINE
8
A-ANNO-SYMB
10
8.25
20
4.63889
30
0
11
8.24605
21
4.67808
31
0
0
LINE
8
A-ANNO-SYMB
10
8.24605
20
4.67808
30
0
11
8.23472
21
4.71458
31
0
0
LINE
8
A-ANNO-SYMB
10
8.23472
20
4.71458
30
0
11
8.21679
21
4.7476
31
0
0
LINE
8
A-ANNO-SYMB
10
8.21679
20
4.7476
30
0
11
8.19305
21
4.77638
31
0
0
LINE
8
A-ANNO-SYMB
10
8.19305
20
4.77638
30
0
11
8.16427
21
4.80013
31
0
0
LINE
8
A-ANNO-SYMB
10
8.16427
20
4.80013
30
0
11
8.13124
21
4.81805
31
0
0
LINE
8
A-ANNO-SYMB
10
8.13124
20
4.81805
30
0
11
8.09474
21
4.82938
31
0
0
LINE
8
A-ANNO-SYMB
10
8.09474
20
4.82938
30
0
11
8.05556
21
4.83333
31
0
0
LINE
8
A-ANNO-SYMB
10
8.05556
20
4.83333
30
0
11
8.01637
21
4.82938
31
0
0
LINE
8
A-ANNO-SYMB
10
8.01637
20
4.82938
30
0
11
7.97987
21
4.81805
31
0
0
LINE
8
A-ANNO-SYMB
10
7.97987
20
4.81805
30
0
11
7.94684
21
4.80013
31
0
0
LINE
8
A-ANNO-SYMB
10
7.94684
20
4.80013
30
0
11
7.91806
21
4.77638
31
0
0
LINE
8
A-ANNO-SYMB
10
7.91806
20
4.77638
30
0
11
7.89432
21
4.7476
31
0
0
LINE
8
A-ANNO-SYMB
10
7.89432
20
4.7476
30
0
11
7.87639
21
4.71458
31
0
0
LINE
8
A-ANNO-SYMB
10
7.87639
20
4.71458
30
0
11
7.86506
21
4.67808
31
0
0
LINE
8
A-ANNO-SYMB
10
7.86506
20
4.67808
30
0
11
7.86111
21
4.63889
31
0
0
LINE
8
A-ANNO-SYMB
10
7.86111
20
4.63889
30
0
11
7.86506
21
4.5997
31
0
0
LINE
8
A-ANNO-SYMB
10
7.86506
20
4.5997
30
0
11
7.87639
21
4.5632
31
0
0
LINE
8
A-ANNO-SYMB
10
7.87639
20
4.5632
30
0
11
7.89432
21
4.53017
31
0
0
LINE
8
A-ANNO-SYMB
10
7.89432
20
4.53017
30
0
11
7.91806
21
4.5014
31
0
0
LINE
8
A-ANNO-SYMB
10
7.91806
20
4.5014
30
0
11
7.94684
21
4.47765
31
0
0
LINE
8
A-ANNO-SYMB
10
7.94684
20
4.47765
30
0
11
7.97987
21
4.45972
31
0
0
LINE
8
A-ANNO-SYMB
10
7.97987
20
4.45972
30
0
11
8.01637
21
4.44839
31
0
0
LINE
8
A-ANNO-SYMB
10
8.01637
20
4.44839
30
0
11
8.05556
21
4.44444
31
0
0
LINE
8
A-ANNO-SYMB
10
8.05556
20
4.44444
30
0
11
8.09474
21
4.44839
31
0
0
LINE
8
A-ANNO-SYMB
10
8.09474
20
4.44839
30
0
11
8.13124
21
4.45972
31
0
0
LINE
8
A-ANNO-SYMB
10
8.13124
20
4.45972
30
0
11
8.16427
21
4.47765
31
0
0
LINE
8
A-ANNO-SYMB
10
8.16427
20
4.47765
30
0
11
8.19305
21
4.5014
31
0
0
LINE
8
A-ANNO-SYMB
10
8.19305
20
4.5014
30
0
11
8.21679
21
4.53017
31
0
0
LINE
8
A-ANNO-SYMB
10
8.21679
20
4.53017
30
0
11
8.23472
21
4.5632
31
0
0
LINE
8
A-ANNO-SYMB
10
8.23472
20
4.5632
30
0
11
8.24605
21
4.5997
31
0
0
LINE
8
A-ANNO-SYMB
10
8.24605
20
4.5997
30
0
11
8.25
21
4.63889
31
0
0
TEXT
8
A-ANNO-SYMB
10
8.05556
20
4.58333
30
0
40
0.1
1
1
50
0
72
1
11
8.05556
21
4.58333
31
0
0
TEXT
8
A-ANNO-TEXT
10
8.33333
20
4.58333
30
0
40
0.14
1
LEVEL 2 FLOOR PLAN
50
0
0
LINE
8
A-ANNO-TEXT
10
8.33333
20
4.52778
30
0
11
12.5
21
4.52778
31
0
0
TEXT
8
A-ANNO-TEXT
10
8.33333
20
4.36111
30
0
40
0.07
1
SCALE: 1/8" = 1'-0"
50
0
0
TEXT
8
A-ANNO-TEXT
10
30
20
22.22222
30
0
40
0.065
1
GENERAL NOTES
50
0
0
TEXT
8
A-ANNO-TEXT
10
30
20
22.06944
30
0
40
0.065
1
1. ALL PARTITIONS TYPE A1 U.N.O.
50
0
0
TEXT
8
A-ANNO-TEXT
10
30
20
21.91667
30
0
40
0.065
1
2. SEE A-501 FOR PARTITION TYPES
50
0
0
TEXT
8
A-ANNO-TEXT
10
30
20
21.76389
30
0
40
0.065
1
3. SEE A-601 FOR DOOR SCHEDULE
50
0
0
TEXT
8
A-ANNO-TEXT
10
30
20
21.61111
30
0
40
0.065
1
4. DIMENSIONS ARE TO FACE OF STUD
50
0
0
TEXT
8
A-ANNO-TEXT
10
30
20
21.45833
30
0
40
0.065
1
   OR GRID U.N.O.
50
0
0
TEXT
8
A-ANNO-TEXT
10
30
20
21.30556
30
0
40
0.065
1
5. DO NOT SCALE DRAWINGS
50
0
0
TEXT
8
A-ANNO-TEXT
10
30
20
21.15278
30
0
40
0.065
1
6. PROVIDE BLOCKING AT ALL
50
0
0
TEXT
8
A-ANNO-TEXT
10
30
20
21
30
0
40
0.065
1
   WALL-MOUNTED EQUIPMENT
50
0
0
TEXT
8
A-ANNO-TEXT
10
30
20
20.84722
30
0
40
0.065
1
KEYNOTES
50
0
0
TEXT
8
A-ANNO-TEXT
10
30
20
20.69444
30
0
40
0.065
1
08 41 13  ALUMINUM STOREFRONT
50
0
0
TEXT
8
A-ANNO-TEXT
10
30
20
20.54167
30
0
40
0.065
1
09 21 16  GYPSUM BOARD ASSEMBLY
50
0
0
TEXT
8
A-ANNO-TEXT
10
30
20
20.38889
30
0
40
0.065
1
09 22 16  NON-STRUCT. METAL FRAMING
50
0
0
TEXT
8
A-ANNO-TEXT
10
30
20
20.23611
30
0
40
0.065
1
04 22 00  CMU - BY OTHERS
50
0
0
LINE
8
A-ANNO-SYMB
6
DASHED
10
26.44444
20
7.02778
30
0
11
26.44444
21
7.52778
31
0
0
TEXT
8
A-ANNO-TEXT
10
26.56944
20
7.15278
30
0
40
0.06
1
MATCH LINE
50
0
0
LINE
8
G-ANNO-TTLB
10
0.5
20
0.5
30
0
11
35.5
21
0.5
31
0
0
LINE
8
G-ANNO-TTLB
10
35.5
20
0.5
30
0
11
35.5
21
23.5
31
0
0
LINE
8
G-ANNO-TTLB
10
35.5
20
23.5
30
0
11
0.5
21
23.5
31
0
0
LINE
8
G-ANNO-TTLB
10
0.5
20
23.5
30
0
11
0.5
21
0.5
31
0
0
LINE
8
G-ANNO-TTLB
10
33
20
0.5
30
0
11
35.5
21
0.5
31
0
0
LINE
8
G-ANNO-TTLB
10
35.5
20
0.5
30
0
11
35.5
21
23.5
31
0
0
LINE
8
G-ANNO-TTLB
10
35.5
20
23.5
30
0
11
33
21
23.5
31
0
0
LINE
8
G-ANNO-TTLB
10
33
20
23.5
30
0
11
33
21
0.5
31
0
0
LINE
8
G-ANNO-TTLB
10
33
20
21.27778
30
0
11
35.5
21
21.27778
31
0
0
LINE
8
G-ANNO-TTLB
10
33
20
19.05556
30
0
11
35.5
21
19.05556
31
0
0
LINE
8
G-ANNO-TTLB
10
33
20
6.33333
30
0
11
35.5
21
6.33333
31
0
0
LINE
8
G-ANNO-TTLB
10
33
20
4.66667
30
0
11
35.5
21
4.66667
31
0
0
LINE
8
G-ANNO-TTLB
10
33
20
3.27778
30
0
11
35.5
21
3.27778
31
0
0
LINE
8
G-ANNO-TTLB
10
33
20
2.16667
30
0
11
35.5
21
2.16667
31
0
0
TEXT
8
G-ANNO-TTLB
10
33.13889
20
23.16667
30
0
40
0.09
1
ARCADIA DESIGN COLLECTIVE
50
0
0
TEXT
8
G-ANNO-TTLB
10
33.13889
20
22.97222
30
0
40
0.06
1
SYNTHETIC TEST SET - NOT A REAL PROJECT
50
0
0
TEXT
8
G-ANNO-TTLB
10
33.13889
20
22.77778
30
0
40
0.06
1
1200 E CAMELBACK RD, PHOENIX AZ
50
0
0
TEXT
8
G-ANNO-TTLB
10
33.13889
20
21.36111
30
0
40
0.11
1
MESA RIDGE MEDICAL
50
0
0
TEXT
8
G-ANNO-TTLB
10
33.13889
20
21.16667
30
0
40
0.11
1
OFFICE BUILDING
50
0
0
TEXT
8
G-ANNO-TTLB
10
33.13889
20
20.97222
30
0
40
0.06
1
4410 S RIDGE PKWY, PHOENIX AZ
50
0
0
TEXT
8
G-ANNO-TTLB
10
33.13889
20
20.77778
30
0
40
0.06
1
PROJECT NO. 25-118
50
0
0
TEXT
8
G-ANNO-TTLB
10
33.13889
20
6.125
30
0
40
0.07
1
REVISIONS
50
0
0
TEXT
8
G-ANNO-TTLB
10
33.13889
20
5.88889
30
0
40
0.07
1
1
50
0
0
TEXT
8
G-ANNO-TTLB
10
33.41667
20
5.88889
30
0
40
0.06
1
08/04/2026  BID SET
50
0
0
TEXT
8
G-ANNO-TTLB
10
33.13889
20
4.38889
30
0
40
0.07
1
DATE: 08/04/2026
50
0
0
TEXT
8
G-ANNO-TTLB
10
33.13889
20
4.18056
30
0
40
0.07
1
ISSUE: BID SET
50
0
0
TEXT
8
G-ANNO-TTLB
10
33.13889
20
3
30
0
40
0.07
1
SCALE: 1/8" = 1'-0"
50
0
0
TEXT
8
G-ANNO-TTLB
10
33.13889
20
1.88889
30
0
40
0.09
1
LEVEL 2 FLOOR PLAN
50
0
0
TEXT
8
G-ANNO-TTLB
10
33.13889
20
1.19444
30
0
40
0.3
1
A-102
50
0
0
ENDSEC
0
EOF
