0
SECTION
2
HEADER
9
$ACADVER
1
AC1009
9
$INSUNITS
70
1
0
ENDSEC
0
SECTION
2
TABLES
0
TABLE
2
LTYPE
70
2
0
LTYPE
2
CONTINUOUS
70
0
3
Solid line
72
65
73
0
40
0
0
LTYPE
2
DASHED
70
0
3
__ __ __
72
65
73
2
40
0.125
49
0.0833
49
-0.0417
0
ENDTAB
0
TABLE
2
LAYER
70
5
0
LAYER
2
A-ELEV
70
0
62
1
6
CONTINUOUS
0
LAYER
2
A-ANNO-SYMB
70
0
62
2
6
CONTINUOUS
0
LAYER
2
A-ANNO-TEXT
70
0
62
3
6
CONTINUOUS
0
LAYER
2
A-ANNO-DIMS
70
0
62
4
6
CONTINUOUS
0
LAYER
2
G-ANNO-TTLB
70
0
62
5
6
CONTINUOUS
0
ENDTAB
0
ENDSEC
0
SECTION
2
ENTITIES
0
LINE
8
A-ELEV
10
2.56944
20
13.19444
30
0
11
29.94444
21
13.19444
31
0
0
LINE
8
A-ELEV
6
DASHED
10
3.10694
20
15.06944
30
0
11
29.28194
21
15.06944
31
0
0
LINE
8
A-ELEV
6
DASHED
10
3.10694
20
16.69444
30
0
11
29.28194
21
16.69444
31
0
0
LINE
8
A-ELEV
10
3.10694
20
17.06944
30
0
11
29.28194
21
17.06944
31
0
0
LINE
8
A-ELEV
10
3.10694
20
17.15319
30
0
11
29.28194
21
17.15319
31
0
0
LINE
8
A-ELEV
10
3.10694
20
13.19444
30
0
11
3.10694
21
17.15319
31
0
0
LINE
8
A-ELEV
10
29.28194
20
13.19444
30
0
11
29.28194
21
17.15319
31
0
0
LINE
8
A-ELEV
10
3.10694
20
13.56944
30
0
11
29.28194
21
13.56944
31
0
0
LINE
8
A-ELEV
10
3.10694
20
13.57726
30
0
11
29.28194
21
13.57726
31
0
0
LINE
8
A-ELEV
10
3.10694
20
15.13194
30
0
11
29.28194
21
15.13194
31
0
0
LINE
8
A-ELEV
10
3.10694
20
15.13976
30
0
11
29.28194
21
15.13976
31
0
0
LINE
8
A-ELEV
10
3.10694
20
16.75694
30
0
11
29.28194
21
16.75694
31
0
0
LINE
8
A-ELEV
10
3.10694
20
16.76476
30
0
11
29.28194
21
16.76476
31
0
0
LINE
8
A-ELEV
10
5.44444
20
13.69444
30
0
11
5.94444
21
13.69444
31
0
0
LINE
8
A-ELEV
10
5.94444
20
13.69444
30
0
11
5.94444
21
14.31944
31
0
0
LINE
8
A-ELEV
10
5.94444
20
14.31944
30
0
11
5.44444
21
14.31944
31
0
0
LINE
8
A-ELEV
10
5.44444
20
14.31944
30
0
11
5.44444
21
13.69444
31
0
0
LINE
8
A-ELEV
10
5.68403
20
13.69444
30
0
11
5.68403
21
14.31944
31
0
0
LINE
8
A-ELEV
10
5.70486
20
13.69444
30
0
11
5.70486
21
14.31944
31
0
0
LINE
8
A-ELEV
10
5.44444
20
15.44444
30
0
11
5.94444
21
15.44444
31
0
0
LINE
8
A-ELEV
10
5.94444
20
15.44444
30
0
11
5.94444
21
16.06944
31
0
0
LINE
8
A-ELEV
10
5.94444
20
16.06944
30
0
11
5.44444
21
16.06944
31
0
0
LINE
8
A-ELEV
10
5.44444
20
16.06944
30
0
11
5.44444
21
15.44444
31
0
0
LINE
8
A-ELEV
10
5.68403
20
15.44444
30
0
11
5.68403
21
16.06944
31
0
0
LINE
8
A-ELEV
10
5.70486
20
15.44444
30
0
11
5.70486
21
16.06944
31
0
0
LINE
8
A-ELEV
10
10.44444
20
13.69444
30
0
11
10.94444
21
13.69444
31
0
0
LINE
8
A-ELEV
10
10.94444
20
13.69444
30
0
11
10.94444
21
14.31944
31
0
0
LINE
8
A-ELEV
10
10.94444
20
14.31944
30
0
11
10.44444
21
14.31944
31
0
0
LINE
8
A-ELEV
10
10.44444
20
14.31944
30
0
11
10.44444
21
13.69444
31
0
0
LINE
8
A-ELEV
10
10.68403
20
13.69444
30
0
11
10.68403
21
14.31944
31
0
0
LINE
8
A-ELEV
10
10.70486
20
13.69444
30
0
11
10.70486
21
14.31944
31
0
0
LINE
8
A-ELEV
10
10.44444
20
15.44444
30
0
11
10.94444
21
15.44444
31
0
0
LINE
8
A-ELEV
10
10.94444
20
15.44444
30
0
11
10.94444
21
16.06944
31
0
0
LINE
8
A-ELEV
10
10.94444
20
16.06944
30
0
11
10.44444
21
16.06944
31
0
0
LINE
8
A-ELEV
10
10.44444
20
16.06944
30
0
11
10.44444
21
15.44444
31
0
0
LINE
8
A-ELEV
10
10.68403
20
15.44444
30
0
11
10.68403
21
16.06944
31
0
0
LINE
8
A-ELEV
10
10.70486
20
15.44444
30
0
11
10.70486
21
16.06944
31
0
0
LINE
8
A-ELEV
10
15.44444
20
13.69444
30
0
11
15.94444
21
13.69444
31
0
0
LINE
8
A-ELEV
10
15.94444
20
13.69444
30
0
11
15.94444
21
14.31944
31
0
0
LINE
8
A-ELEV
10
15.94444
20
14.31944
30
0
11
15.44444
21
14.31944
31
0
0
LINE
8
A-ELEV
10
15.44444
20
14.31944
30
0
11
15.44444
21
13.69444
31
0
0
LINE
8
A-ELEV
10
15.68403
20
13.69444
30
0
11
15.68403
21
14.31944
31
0
0
LINE
8
A-ELEV
10
15.70486
20
13.69444
30
0
11
15.70486
21
14.31944
31
0
0
LINE
8
A-ELEV
10
15.44444
20
15.44444
30
0
11
15.94444
21
15.44444
31
0
0
LINE
8
A-ELEV
10
15.94444
20
15.44444
30
0
11
15.94444
21
16.06944
31
0
0
LINE
8
A-ELEV
10
15.94444
20
16.06944
30
0
11
15.44444
21
16.06944
31
0
0
LINE
8
A-ELEV
10
15.44444
20
16.06944
30
0
11
15.44444
21
15.44444
31
0
0
LINE
8
A-ELEV
10
15.68403
20
15.44444
30
0
11
15.68403
21
16.06944
31
0
0
LINE
8
A-ELEV
10
15.70486
20
15.44444
30
0
11
15.70486
21
16.06944
31
0
0
LINE
8
A-ELEV
10
20.44444
20
13.69444
30
0
11
20.94444
21
13.69444
31
0
0
LINE
8
A-ELEV
10
20.94444
20
13.69444
30
0
11
20.94444
21
14.31944
31
0
0
LINE
8
A-ELEV
10
20.94444
20
14.31944
30
0
11
20.44444
21
14.31944
31
0
0
LINE
8
A-ELEV
10
20.44444
20
14.31944
30
0
11
20.44444
21
13.69444
31
0
0
LINE
8
A-ELEV
10
20.68403
20
13.69444
30
0
11
20.68403
21
14.31944
31
0
0
LINE
8
A-ELEV
10
20.70486
20
13.69444
30
0
11
20.70486
21
14.31944
31
0
0
LINE
8
A-ELEV
10
20.44444
20
15.44444
30
0
11
20.94444
21
15.44444
31
0
0
LINE
8
A-ELEV
10
20.94444
20
15.44444
30
0
11
20.94444
21
16.06944
31
0
0
LINE
8
A-ELEV
10
20.94444
20
16.06944
30
0
11
20.44444
21
16.06944
31
0
0
LINE
8
A-ELEV
10
20.44444
20
16.06944
30
0
11
20.44444
21
15.44444
31
0
0
LINE
8
A-ELEV
10
20.68403
20
15.44444
30
0
11
20.68403
21
16.06944
31
0
0
LINE
8
A-ELEV
10
20.70486
20
15.44444
30
0
11
20.70486
21
16.06944
31
0
0
LINE
8
A-ELEV
10
25.44444
20
13.69444
30
0
11
25.94444
21
13.69444
31
0
0
LINE
8
A-ELEV
10
25.94444
20
13.69444
30
0
11
25.94444
21
14.31944
31
0
0
LINE
8
A-ELEV
10
25.94444
20
14.31944
30
0
11
25.44444
21
14.31944
31
0
0
LINE
8
A-ELEV
10
25.44444
20
14.31944
30
0
11
25.44444
21
13.69444
31
0
0
LINE
8
A-ELEV
10
25.68403
20
13.69444
30
0
11
25.68403
21
14.31944
31
0
0
LINE
8
A-ELEV
10
25.70486
20
13.69444
30
0
11
25.70486
21
14.31944
31
0
0
LINE
8
A-ELEV
10
25.44444
20
15.44444
30
0
11
25.94444
21
15.44444
31
0
0
LINE
8
A-ELEV
10
25.94444
20
15.44444
30
0
11
25.94444
21
16.06944
31
0
0
LINE
8
A-ELEV
10
25.94444
20
16.06944
30
0
11
25.44444
21
16.06944
31
0
0
LINE
8
A-ELEV
10
25.44444
20
16.06944
30
0
11
25.44444
21
15.44444
31
0
0
LINE
8
A-ELEV
10
25.68403
20
15.44444
30
0
11
25.68403
21
16.06944
31
0
0
LINE
8
A-ELEV
10
25.70486
20
15.44444
30
0
11
25.70486
21
16.06944
31
0
0
LINE
8
A-ELEV
10
3.79601
20
13.19444
30
0
11
3.79601
21
14.44444
31
0
0
LINE
8
A-ELEV
10
3.84288
20
13.19444
30
0
11
3.84288
21
14.44444
31
0
0
LINE
8
A-ELEV
10
4.42101
20
13.19444
30
0
11
4.42101
21
14.44444
31
0
0
LINE
8
A-ELEV
10
4.46788
20
13.19444
30
0
11
4.46788
21
14.44444
31
0
0
LINE
8
A-ELEV
10
5.04601
20
13.19444
30
0
11
5.04601
21
14.44444
31
0
0
LINE
8
A-ELEV
10
5.09288
20
13.19444
30
0
11
5.09288
21
14.44444
31
0
0
LINE
8
A-ELEV
10
5.67101
20
13.19444
30
0
11
5.67101
21
14.44444
31
0
0
LINE
8
A-ELEV
10
5.71788
20
13.19444
30
0
11
5.71788
21
14.44444
31
0
0
LINE
8
A-ELEV
10
6.29601
20
13.19444
30
0
11
6.29601
21
14.44444
31
0
0
LINE
8
A-ELEV
10
6.34288
20
13.19444
30
0
11
6.34288
21
14.44444
31
0
0
LINE
8
A-ELEV
10
3.81944
20
14.44444
30
0
11
6.31944
21
14.44444
31
0
0
LINE
8
A-ELEV
10
3.81944
20
14.49132
30
0
11
6.31944
21
14.49132
31
0
0
LINE
8
A-ANNO-SYMB
10
29.76389
20
13.19444
30
0
11
29.76248
21
13.20844
31
0
0
LINE
8
A-ANNO-SYMB
10
29.76248
20
13.20844
30
0
11
29.75843
21
13.22148
31
0
0
LINE
8
A-ANNO-SYMB
10
29.75843
20
13.22148
30
0
11
29.75203
21
13.23327
31
0
0
LINE
8
A-ANNO-SYMB
10
29.75203
20
13.23327
30
0
11
29.74355
21
13.24355
31
0
0
LINE
8
A-ANNO-SYMB
10
29.74355
20
13.24355
30
0
11
29.73327
21
13.25203
31
0
0
LINE
8
A-ANNO-SYMB
10
29.73327
20
13.25203
30
0
11
29.72148
21
13.25843
31
0
0
LINE
8
A-ANNO-SYMB
10
29.72148
20
13.25843
30
0
11
29.70844
21
13.26248
31
0
0
LINE
8
A-ANNO-SYMB
10
29.70844
20
13.26248
30
0
11
29.69444
21
13.26389
31
0
0
LINE
8
A-ANNO-SYMB
10
29.69444
20
13.26389
30
0
11
29.68045
21
13.26248
31
0
0
LINE
8
A-ANNO-SYMB
10
29.68045
20
13.26248
30
0
11
29.66741
21
13.25843
31
0
0
LINE
8
A-ANNO-SYMB
10
29.66741
20
13.25843
30
0
11
29.65562
21
13.25203
31
0
0
LINE
8
A-ANNO-SYMB
10
29.65562
20
13.25203
30
0
11
29.64534
21
13.24355
31
0
0
LINE
8
A-ANNO-SYMB
10
29.64534
20
13.24355
30
0
11
29.63686
21
13.23327
31
0
0
LINE
8
A-ANNO-SYMB
10
29.63686
20
13.23327
30
0
11
29.63046
21
13.22148
31
0
0
LINE
8
A-ANNO-SYMB
10
29.63046
20
13.22148
30
0
11
29.62641
21
13.20844
31
0
0
LINE
8
A-ANNO-SYMB
10
29.62641
20
13.20844
30
0
11
29.625
21
13.19444
31
0
0
LINE
8
A-ANNO-SYMB
10
29.625
20
13.19444
30
0
11
29.62641
21
13.18045
31
0
0
LINE
8
A-ANNO-SYMB
10
29.62641
20
13.18045
30
0
11
29.63046
21
13.16741
31
0
0
LINE
8
A-ANNO-SYMB
10
29.63046
20
13.16741
30
0
11
29.63686
21
13.15562
31
0
0
LINE
8
A-ANNO-SYMB
10
29.63686
20
13.15562
30
0
11
29.64534
21
13.14534
31
0
0
LINE
8
A-ANNO-SYMB
10
29.64534
20
13.14534
30
0
11
29.65562
21
13.13686
31
0
0
LINE
8
A-ANNO-SYMB
10
29.65562
20
13.13686
30
0
11
29.66741
21
13.13046
31
0
0
LINE
8
A-ANNO-SYMB
10
29.66741
20
13.13046
30
0
11
29.68045
21
13.12641
31
0
0
LINE
8
A-ANNO-SYMB
10
29.68045
20
13.12641
30
0
11
29.69444
21
13.125
31
0
0
LINE
8
A-ANNO-SYMB
10
29.69444
20
13.125
30
0
11
29.70844
21
13.12641
31
0
0
LINE
8
A-ANNO-SYMB
10
29.70844
20
13.12641
30
0
11
29.72148
21
13.13046
31
0
0
LINE
8
A-ANNO-SYMB
10
29.72148
20
13.13046
30
0
11
29.73327
21
13.13686
31
0
0
LINE
8
A-ANNO-SYMB
10
29.73327
20
13.13686
30
0
11
29.74355
21
13.14534
31
0
0
LINE
8
A-ANNO-SYMB
10
29.74355
20
13.14534
30
0
11
29.75203
21
13.15562
31
0
0
LINE
8
A-ANNO-SYMB
10
29.75203
20
13.15562
30
0
11
29.75843
21
13.16741
31
0
0
LINE
8
A-ANNO-SYMB
10
29.75843
20
13.16741
30
0
11
29.76248
21
13.18045
31
0
0
LINE
8
A-ANNO-SYMB
10
29.76248
20
13.18045
30
0
11
29.76389
21
13.19444
31
0
0
TEXT
8
A-ANNO-TEXT
10
29.83333
20
13.16667
30
0
40
0.065
1
LEVEL 1  0'-0"
50
0
0
LINE
8
A-ANNO-SYMB
10
29.76389
20
15.06944
30
0
11
29.76248
21
15.08344
31
0
0
LINE
8
A-ANNO-SYMB
10
29.76248
20
15.08344
30
0
11
29.75843
21
15.09648
31
0
0
LINE
8
A-ANNO-SYMB
10
29.75843
20
15.09648
30
0
11
29.75203
21
15.10827
31
0
0
LINE
8
A-ANNO-SYMB
10
29.75203
20
15.10827
30
0
11
29.74355
21
15.11855
31
0
0
LINE
8
A-ANNO-SYMB
10
29.74355
20
15.11855
30
0
11
29.73327
21
15.12703
31
0
0
LINE
8
A-ANNO-SYMB
10
29.73327
20
15.12703
30
0
11
29.72148
21
15.13343
31
0
0
LINE
8
A-ANNO-SYMB
10
29.72148
20
15.13343
30
0
11
29.70844
21
15.13748
31
0
0
LINE
8
A-ANNO-SYMB
10
29.70844
20
15.13748
30
0
11
29.69444
21
15.13889
31
0
0
LINE
8
A-ANNO-SYMB
10
29.69444
20
15.13889
30
0
11
29.68045
21
15.13748
31
0
0
LINE
8
A-ANNO-SYMB
10
29.68045
20
15.13748
30
0
11
29.66741
21
15.13343
31
0
0
LINE
8
A-ANNO-SYMB
10
29.66741
20
15.13343
30
0
11
29.65562
21
15.12703
31
0
0
LINE
8
A-ANNO-SYMB
10
29.65562
20
15.12703
30
0
11
29.64534
21
15.11855
31
0
0
LINE
8
A-ANNO-SYMB
10
29.64534
20
15.11855
30
0
11
29.63686
21
15.10827
31
0
0
LINE
8
A-ANNO-SYMB
10
29.63686
20
15.10827
30
0
11
29.63046
21
15.09648
31
0
0
LINE
8
A-ANNO-SYMB
10
29.63046
20
15.09648
30
0
11
29.62641
21
15.08344
31
0
0
LINE
8
A-ANNO-SYMB
10
29.62641
20
15.08344
30
0
11
29.625
21
15.06944
31
0
0
LINE
8
A-ANNO-SYMB
10
29.625
20
15.06944
30
0
11
29.62641
21
15.05545
31
0
0
LINE
8
A-ANNO-SYMB
10
29.62641
20
15.05545
30
0
11
29.63046
21
15.04241
31
0
0
LINE
8
A-ANNO-SYMB
10
29.63046
20
15.04241
30
0
11
29.63686
21
15.03062
31
0
0
LINE
8
A-ANNO-SYMB
10
29.63686
20
15.03062
30
0
11
29.64534
21
15.02034
31
0
0
LINE
8
A-ANNO-SYMB
10
29.64534
20
15.02034
30
0
11
29.65562
21
15.01186
31
0
0
LINE
8
A-ANNO-SYMB
10
29.65562
20
15.01186
30
0
11
29.66741
21
15.00546
31
0
0
LINE
8
A-ANNO-SYMB
10
29.66741
20
15.00546
30
0
11
29.68045
21
15.00141
31
0
0
LINE
8
A-ANNO-SYMB
10
29.68045
20
15.00141
30
0
11
29.69444
21
15
31
0
0
LINE
8
A-ANNO-SYMB
10
29.69444
20
15
30
0
11
29.70844
21
15.00141
31
0
0
LINE
8
A-ANNO-SYMB
10
29.70844
20
15.00141
30
0
11
29.72148
21
15.00546
31
0
0
LINE
8
A-ANNO-SYMB
10
29.72148
20
15.00546
30
0
11
29.73327
21
15.01186
31
0
0
LINE
8
A-ANNO-SYMB
10
29.73327
20
15.01186
30
0
11
29.74355
21
15.02034
31
0
0
LINE
8
A-ANNO-SYMB
10
29.74355
20
15.02034
30
0
11
29.75203
21
15.03062
31
0
0
LINE
8
A-ANNO-SYMB
10
29.75203
20
15.03062
30
0
11
29.75843
21
15.04241
31
0
0
LINE
8
A-ANNO-SYMB
10
29.75843
20
15.04241
30
0
11
29.76248
21
15.05545
31
0
0
LINE
8
A-ANNO-SYMB
10
29.76248
20
15.05545
30
0
11
29.76389
21
15.06944
31
0
0
TEXT
8
A-ANNO-TEXT
10
29.83333
20
15.04167
30
0
40
0.065
1
LEVEL 2  15'-0"
50
0
0
LINE
8
A-ANNO-SYMB
10
29.76389
20
16.69444
30
0
11
29.76248
21
16.70844
31
0
0
LINE
8
A-ANNO-SYMB
10
29.76248
20
16.70844
30
0
11
29.75843
21
16.72148
31
0
0
LINE
8
A-ANNO-SYMB
10
29.75843
20
16.72148
30
0
11
29.75203
21
16.73327
31
0
0
LINE
8
A-ANNO-SYMB
10
29.75203
20
16.73327
30
0
11
29.74355
21
16.74355
31
0
0
LINE
8
A-ANNO-SYMB
10
29.74355
20
16.74355
30
0
11
29.73327
21
16.75203
31
0
0
LINE
8
A-ANNO-SYMB
10
29.73327
20
16.75203
30
0
11
29.72148
21
16.75843
31
0
0
LINE
8
A-ANNO-SYMB
10
29.72148
20
16.75843
30
0
11
29.70844
21
16.76248
31
0
0
LINE
8
A-ANNO-SYMB
10
29.70844
20
16.76248
30
0
11
29.69444
21
16.76389
31
0
0
LINE
8
A-ANNO-SYMB
10
29.69444
20
16.76389
30
0
11
29.68045
21
16.76248
31
0
0
LINE
8
A-ANNO-SYMB
10
29.68045
20
16.76248
30
0
11
29.66741
21
16.75843
31
0
0
LINE
8
A-ANNO-SYMB
10
29.66741
20
16.75843
30
0
11
29.65562
21
16.75203
31
0
0
LINE
8
A-ANNO-SYMB
10
29.65562
20
16.75203
30
0
11
29.64534
21
16.74355
31
0
0
LINE
8
A-ANNO-SYMB
10
29.64534
20
16.74355
30
0
11
29.63686
21
16.73327
31
0
0
LINE
8
A-ANNO-SYMB
10
29.63686
20
16.73327
30
0
11
29.63046
21
16.72148
31
0
0
LINE
8
A-ANNO-SYMB
10
29.63046
20
16.72148
30
0
11
29.62641
21
16.70844
31
0
0
LINE
8
A-ANNO-SYMB
10
29.62641
20
16.70844
30
0
11
29.625
21
16.69444
31
0
0
LINE
8
A-ANNO-SYMB
10
29.625
20
16.69444
30
0
11
29.62641
21
16.68045
31
0
0
LINE
8
A-ANNO-SYMB
10
29.62641
20
16.68045
30
0
11
29.63046
21
16.66741
31
0
0
LINE
8
A-ANNO-SYMB
10
29.63046
20
16.66741
30
0
11
29.63686
21
16.65562
31
0
0
LINE
8
A-ANNO-SYMB
10
29.63686
20
16.65562
30
0
11
29.64534
21
16.64534
31
0
0
LINE
8
A-ANNO-SYMB
10
29.64534
20
16.64534
30
0
11
29.65562
21
16.63686
31
0
0
LINE
8
A-ANNO-SYMB
10
29.65562
20
16.63686
30
0
11
29.66741
21
16.63046
31
0
0
LINE
8
A-ANNO-SYMB
10
29.66741
20
16.63046
30
0
11
29.68045
21
16.62641
31
0
0
LINE
8
A-ANNO-SYMB
10
29.68045
20
16.62641
30
0
11
29.69444
21
16.625
31
0
0
LINE
8
A-ANNO-SYMB
10
29.69444
20
16.625
30
0
11
29.70844
21
16.62641
31
0
0
LINE
8
A-ANNO-SYMB
10
29.70844
20
16.62641
30
0
11
29.72148
21
16.63046
31
0
0
LINE
8
A-ANNO-SYMB
10
29.72148
20
16.63046
30
0
11
29.73327
21
16.63686
31
0
0
LINE
8
A-ANNO-SYMB
10
29.73327
20
16.63686
30
0
11
29.74355
21
16.64534
31
0
0
LINE
8
A-ANNO-SYMB
10
29.74355
20
16.64534
30
0
11
29.75203
21
16.65562
31
0
0
LINE
8
A-ANNO-SYMB
10
29.75203
20
16.65562
30
0
11
29.75843
21
16.66741
31
0
0
LINE
8
A-ANNO-SYMB
10
29.75843
20
16.66741
30
0
11
29.76248
21
16.68045
31
0
0
LINE
8
A-ANNO-SYMB
10
29.76248
20
16.68045
30
0
11
29.76389
21
16.69444
31
0
0
TEXT
8
A-ANNO-TEXT
10
29.83333
20
16.66667
30
0
40
0.065
1
ROOF  28'-0"
50
0
0
LINE
8
A-ANNO-DIMS
10
29.44444
20
13.19444
30
0
11
29.44444
21
15.06944
31
0
0
LINE
8
A-ANNO-DIMS
10
29.41667
20
13.19444
30
0
11
29.40278
21
13.19444
31
0
0
LINE
8
A-ANNO-DIMS
10
29.469
20
13.16989
30
0
11
29.41989
21
13.219
31
0
0
LINE
8
A-ANNO-DIMS
10
29.41667
20
15.06944
30
0
11
29.40278
21
15.06944
31
0
0
LINE
8
A-ANNO-DIMS
10
29.469
20
15.04489
30
0
11
29.41989
21
15.094
31
0
0
TEXT
8
A-ANNO-DIMS
10
29.41667
20
14.13194
30
0
40
0.0675
1
15'-0"
50
90
72
1
11
29.41667
21
14.13194
31
0
0
LINE
8
A-ANNO-DIMS
10
29.44444
20
15.06944
30
0
11
29.44444
21
16.69444
31
0
0
LINE
8
A-ANNO-DIMS
10
29.41667
20
15.06944
30
0
11
29.40278
21
15.06944
31
0
0
LINE
8
A-ANNO-DIMS
10
29.469
20
15.04489
30
0
11
29.41989
21
15.094
31
0
0
LINE
8
A-ANNO-DIMS
10
29.41667
20
16.69444
30
0
11
29.40278
21
16.69444
31
0
0
LINE
8
A-ANNO-DIMS
10
29.469
20
16.66989
30
0
11
29.41989
21
16.719
31
0
0
TEXT
8
A-ANNO-DIMS
10
29.41667
20
15.88194
30
0
40
0.0675
1
13'-0"
50
90
72
1
11
29.41667
21
15.88194
31
0
0
LINE
8
A-ANNO-DIMS
10
29.44444
20
16.69444
30
0
11
29.44444
21
17.15319
31
0
0
LINE
8
A-ANNO-DIMS
10
29.41667
20
16.69444
30
0
11
29.40278
21
16.69444
31
0
0
LINE
8
A-ANNO-DIMS
10
29.469
20
16.66989
30
0
11
29.41989
21
16.719
31
0
0
LINE
8
A-ANNO-DIMS
10
29.41667
20
17.15319
30
0
11
29.40278
21
17.15319
31
0
0
LINE
8
A-ANNO-DIMS
10
29.469
20
17.12864
30
0
11
29.41989
21
17.17775
31
0
0
TEXT
8
A-ANNO-DIMS
10
29.41667
20
16.92382
30
0
40
0.0675
1
3'-8 1/16"
50
90
72
1
11
29.41667
21
16.92382
31
0
0
LINE
8
A-ANNO-DIMS
10
3.10694
20
12.69444
30
0
11
29.28194
21
12.69444
31
0
0
LINE
8
A-ANNO-DIMS
10
3.10694
20
12.72222
30
0
11
3.10694
21
12.73611
31
0
0
LINE
8
A-ANNO-DIMS
10
3.08239
20
12.66989
30
0
11
3.1315
21
12.719
31
0
0
LINE
8
A-ANNO-DIMS
10
29.28194
20
12.72222
30
0
11
29.28194
21
12.73611
31
0
0
LINE
8
A-ANNO-DIMS
10
29.25739
20
12.66989
30
0
11
29.3065
21
12.719
31
0
0
TEXT
8
A-ANNO-DIMS
10
16.19444
20
12.72222
30
0
40
0.0675
1
209'-4 13/16"
50
0
72
1
11
16.19444
21
12.72222
31
0
0
LINE
8
A-ANNO-SYMB
10
4.08333
20
12.13889
30
0
11
4.07938
21
12.17808
31
0
0
LINE
8
A-ANNO-SYMB
10
4.07938
20
12.17808
30
0
11
4.06805
21
12.21458
31
0
0
LINE
8
A-ANNO-SYMB
10
4.06805
20
12.21458
30
0
11
4.05013
21
12.2476
31
0
0
LINE
8
A-ANNO-SYMB
10
4.05013
20
12.2476
30
0
11
4.02638
21
12.27638
31
0
0
LINE
8
A-ANNO-SYMB
10
4.02638
20
12.27638
30
0
11
3.9976
21
12.30013
31
0
0
LINE
8
A-ANNO-SYMB
10
3.9976
20
12.30013
30
0
11
3.96458
21
12.31805
31
0
0
LINE
8
A-ANNO-SYMB
10
3.96458
20
12.31805
30
0
11
3.92808
21
12.32938
31
0
0
LINE
8
A-ANNO-SYMB
10
3.92808
20
12.32938
30
0
11
3.88889
21
12.33333
31
0
0
LINE
8
A-ANNO-SYMB
10
3.88889
20
12.33333
30
0
11
3.8497
21
12.32938
31
0
0
LINE
8
A-ANNO-SYMB
10
3.8497
20
12.32938
30
0
11
3.8132
21
12.31805
31
0
0
LINE
8
A-ANNO-SYMB
10
3.8132
20
12.31805
30
0
11
3.78017
21
12.30013
31
0
0
LINE
8
A-ANNO-SYMB
10
3.78017
20
12.30013
30
0
11
3.7514
21
12.27638
31
0
0
LINE
8
A-ANNO-SYMB
10
3.7514
20
12.27638
30
0
11
3.72765
21
12.2476
31
0
0
LINE
8
A-ANNO-SYMB
10
3.72765
20
12.2476
30
0
11
3.70972
21
12.21458
31
0
0
LINE
8
A-ANNO-SYMB
10
3.70972
20
12.21458
30
0
11
3.69839
21
12.17808
31
0
0
LINE
8
A-ANNO-SYMB
10
3.69839
20
12.17808
30
0
11
3.69444
21
12.13889
31
0
0
LINE
8
A-ANNO-SYMB
10
3.69444
20
12.13889
30
0
11
3.69839
21
12.0997
31
0
0
LINE
8
A-ANNO-SYMB
10
3.69839
20
12.0997
30
0
11
3.70972
21
12.0632
31
0
0
LINE
8
A-ANNO-SYMB
10
3.70972
20
12.0632
30
0
11
3.72765
21
12.03017
31
0
0
LINE
8
A-ANNO-SYMB
10
3.72765
20
12.03017
30
0
11
3.7514
21
12.0014
31
0
0
LINE
8
A-ANNO-SYMB
10
3.7514
20
12.0014
30
0
11
3.78017
21
11.97765
31
0
0
LINE
8
A-ANNO-SYMB
10
3.78017
20
11.97765
30
0
11
3.8132
21
11.95972
31
0
0
LINE
8
A-ANNO-SYMB
10
3.8132
20
11.95972
30
0
11
3.8497
21
11.94839
31
0
0
LINE
8
A-ANNO-SYMB
10
3.8497
20
11.94839
30
0
11
3.88889
21
11.94444
31
0
0
LINE
8
A-ANNO-SYMB
10
3.88889
20
11.94444
30
0
11
3.92808
21
11.94839
31
0
0
LINE
8
A-ANNO-SYMB
10
3.92808
20
11.94839
30
0
11
3.96458
21
11.95972
31
0
0
LINE
8
A-ANNO-SYMB
10
3.96458
20
11.95972
30
0
11
3.9976
21
11.97765
31
0
0
LINE
8
A-ANNO-SYMB
10
3.9976
20
11.97765
30
0
11
4.02638
21
12.0014
31
0
0
LINE
8
A-ANNO-SYMB
10
4.02638
20
12.0014
30
0
11
4.05013
21
12.03017
31
0
0
LINE
8
A-ANNO-SYMB
10
4.05013
20
12.03017
30
0
11
4.06805
21
12.0632
31
0
0
LINE
8
A-ANNO-SYMB
10
4.06805
20
12.0632
30
0
11
4.07938
21
12.0997
31
0
0
LINE
8
A-ANNO-SYMB
10
4.07938
20
12.0997
30
0
11
4.08333
21
12.13889
31
0
0
TEXT
8
A-ANNO-SYMB
10
3.88889
20
12.08333
30
0
40
0.1
1
1
50
0
72
1
11
3.88889
21
12.08333
31
0
0
TEXT
8
A-ANNO-TEXT
10
4.16667
20
12.08333
30
0
40
0.14
1
SOUTH ELEVATION
50
0
0
LINE
8
A-ANNO-TEXT
10
4.16667
20
12.02778
30
0
11
8.33333
21
12.02778
31
0
0
TEXT
8
A-ANNO-TEXT
10
4.16667
20
11.86111
30
0
40
0.07
1
SCALE: 1/8" = 1'-0"
50
0
0
LINE
8
A-ELEV
10
2.56944
20
6.25
30
0
11
29.94444
21
6.25
31
0
0
LINE
8
A-ELEV
6
DASHED
10
3.10694
20
8.125
30
0
11
29.28194
21
8.125
31
0
0
LINE
8
A-ELEV
6
DASHED
10
3.10694
20
9.75
30
0
11
29.28194
21
9.75
31
0
0
LINE
8
A-ELEV
10
3.10694
20
10.125
30
0
11
29.28194
21
10.125
31
0
0
LINE
8
A-ELEV
10
3.10694
20
10.20875
30
0
11
29.28194
21
10.20875
31
0
0
LINE
8
A-ELEV
10
3.10694
20
6.25
30
0
11
3.10694
21
10.20875
31
0
0
LINE
8
A-ELEV
10
29.28194
20
6.25
30
0
11
29.28194
21
10.20875
31
0
0
LINE
8
A-ELEV
10
3.10694
20
6.625
30
0
11
29.28194
21
6.625
31
0
0
LINE
8
A-ELEV
10
3.10694
20
6.63281
30
0
11
29.28194
21
6.63281
31
0
0
LINE
8
A-ELEV
10
3.10694
20
8.1875
30
0
11
29.28194
21
8.1875
31
0
0
LINE
8
A-ELEV
10
3.10694
20
8.19531
30
0
11
29.28194
21
8.19531
31
0
0
LINE
8
A-ELEV
10
3.10694
20
9.8125
30
0
11
29.28194
21
9.8125
31
0
0
LINE
8
A-ELEV
10
3.10694
20
9.82031
30
0
11
29.28194
21
9.82031
31
0
0
LINE
8
A-ELEV
10
5.44444
20
6.75
30
0
11
5.94444
21
6.75
31
0
0
LINE
8
A-ELEV
10
5.94444
20
6.75
30
0
11
5.94444
21
7.375
31
0
0
LINE
8
A-ELEV
10
5.94444
20
7.375
30
0
11
5.44444
21
7.375
31
0
0
LINE
8
A-ELEV
10
5.44444
20
7.375
30
0
11
5.44444
21
6.75
31
0
0
LINE
8
A-ELEV
10
5.68403
20
6.75
30
0
11
5.68403
21
7.375
31
0
0
LINE
8
A-ELEV
10
5.70486
20
6.75
30
0
11
5.70486
21
7.375
31
0
0
LINE
8
A-ELEV
10
5.44444
20
8.5
30
0
11
5.94444
21
8.5
31
0
0
LINE
8
A-ELEV
10
5.94444
20
8.5
30
0
11
5.94444
21
9.125
31
0
0
LINE
8
A-ELEV
10
5.94444
20
9.125
30
0
11
5.44444
21
9.125
31
0
0
LINE
8
A-ELEV
10
5.44444
20
9.125
30
0
11
5.44444
21
8.5
31
0
0
LINE
8
A-ELEV
10
5.68403
20
8.5
30
0
11
5.68403
21
9.125
31
0
0
LINE
8
A-ELEV
10
5.70486
20
8.5
30
0
11
5.70486
21
9.125
31
0
0
LINE
8
A-ELEV
10
10.44444
20
6.75
30
0
11
10.94444
21
6.75
31
0
0
LINE
8
A-ELEV
10
10.94444
20
6.75
30
0
11
10.94444
21
7.375
31
0
0
LINE
8
A-ELEV
10
10.94444
20
7.375
30
0
11
10.44444
21
7.375
31
0
0
LINE
8
A-ELEV
10
10.44444
20
7.375
30
0
11
10.44444
21
6.75
31
0
0
LINE
8
A-ELEV
10
10.68403
20
6.75
30
0
11
10.68403
21
7.375
31
0
0
LINE
8
A-ELEV
10
10.70486
20
6.75
30
0
11
10.70486
21
7.375
31
0
0
LINE
8
A-ELEV
10
10.44444
20
8.5
30
0
11
10.94444
21
8.5
31
0
0
LINE
8
A-ELEV
10
10.94444
20
8.5
30
0
11
10.94444
21
9.125
31
0
0
LINE
8
A-ELEV
10
10.94444
20
9.125
30
0
11
10.44444
21
9.125
31
0
0
LINE
8
A-ELEV
10
10.44444
20
9.125
30
0
11
10.44444
21
8.5
31
0
0
LINE
8
A-ELEV
10
10.68403
20
8.5
30
0
11
10.68403
21
9.125
31
0
0
LINE
8
A-ELEV
10
10.70486
20
8.5
30
0
11
10.70486
21
9.125
31
0
0
LINE
8
A-ELEV
10
15.44444
20
6.75
30
0
11
15.94444
21
6.75
31
0
0
LINE
8
A-ELEV
10
15.94444
20
6.75
30
0
11
15.94444
21
7.375
31
0
0
LINE
8
A-ELEV
10
15.94444
20
7.375
30
0
11
15.44444
21
7.375
31
0
0
LINE
8
A-ELEV
10
15.44444
20
7.375
30
0
11
15.44444
21
6.75
31
0
0
LINE
8
A-ELEV
10
15.68403
20
6.75
30
0
11
15.68403
21
7.375
31
0
0
LINE
8
A-ELEV
10
15.70486
20
6.75
30
0
11
15.70486
21
7.375
31
0
0
LINE
8
A-ELEV
10
15.44444
20
8.5
30
0
11
15.94444
21
8.5
31
0
0
LINE
8
A-ELEV
10
15.94444
20
8.5
30
0
11
15.94444
21
9.125
31
0
0
LINE
8
A-ELEV
10
15.94444
20
9.125
30
0
11
15.44444
21
9.125
31
0
0
LINE
8
A-ELEV
10
15.44444
20
9.125
30
0
11
15.44444
21
8.5
31
0
0
LINE
8
A-ELEV
10
15.68403
20
8.5
30
0
11
15.68403
21
9.125
31
0
0
LINE
8
A-ELEV
10
15.70486
20
8.5
30
0
11
15.70486
21
9.125
31
0
0
LINE
8
A-ELEV
10
20.44444
20
6.75
30
0
11
20.94444
21
6.75
31
0
0
LINE
8
A-ELEV
10
20.94444
20
6.75
30
0
11
20.94444
21
7.375
31
0
0
LINE
8
A-ELEV
10
20.94444
20
7.375
30
0
11
20.44444
21
7.375
31
0
0
LINE
8
A-ELEV
10
20.44444
20
7.375
30
0
11
20.44444
21
6.75
31
0
0
LINE
8
A-ELEV
10
20.68403
20
6.75
30
0
11
20.68403
21
7.375
31
0
0
LINE
8
A-ELEV
10
20.70486
20
6.75
30
0
11
20.70486
21
7.375
31
0
0
LINE
8
A-ELEV
10
20.44444
20
8.5
30
0
11
20.94444
21
8.5
31
0
0
LINE
8
A-ELEV
10
20.94444
20
8.5
30
0
11
20.94444
21
9.125
31
0
0
LINE
8
A-ELEV
10
20.94444
20
9.125
30
0
11
20.44444
21
9.125
31
0
0
LINE
8
A-ELEV
10
20.44444
20
9.125
30
0
11
20.44444
21
8.5
31
0
0
LINE
8
A-ELEV
10
20.68403
20
8.5
30
0
11
20.68403
21
9.125
31
0
0
LINE
8
A-ELEV
10
20.70486
20
8.5
30
0
11
20.70486
21
9.125
31
0
0
LINE
8
A-ELEV
10
25.44444
20
6.75
30
0
11
25.94444
21
6.75
31
0
0
LINE
8
A-ELEV
10
25.94444
20
6.75
30
0
11
25.94444
21
7.375
31
0
0
LINE
8
A-ELEV
10
25.94444
20
7.375
30
0
11
25.44444
21
7.375
31
0
0
LINE
8
A-ELEV
10
25.44444
20
7.375
30
0
11
25.44444
21
6.75
31
0
0
LINE
8
A-ELEV
10
25.68403
20
6.75
30
0
11
25.68403
21
7.375
31
0
0
LINE
8
A-ELEV
10
25.70486
20
6.75
30
0
11
25.70486
21
7.375
31
0
0
LINE
8
A-ELEV
10
25.44444
20
8.5
30
0
11
25.94444
21
8.5
31
0
0
LINE
8
A-ELEV
10
25.94444
20
8.5
30
0
11
25.94444
21
9.125
31
0
0
LINE
8
A-ELEV
10
25.94444
20
9.125
30
0
11
25.44444
21
9.125
31
0
0
LINE
8
A-ELEV
10
25.44444
20
9.125
30
0
11
25.44444
21
8.5
31
0
0
LINE
8
A-ELEV
10
25.68403
20
8.5
30
0
11
25.68403
21
9.125
31
0
0
LINE
8
A-ELEV
10
25.70486
20
8.5
30
0
11
25.70486
21
9.125
31
0
0
LINE
8
A-ANNO-SYMB
10
29.76389
20
6.25
30
0
11
29.76248
21
6.264
31
0
0
LINE
8
A-ANNO-SYMB
10
29.76248
20
6.264
30
0
11
29.75843
21
6.27703
31
0
0
LINE
8
A-ANNO-SYMB
10
29.75843
20
6.27703
30
0
11
29.75203
21
6.28883
31
0
0
LINE
8
A-ANNO-SYMB
10
29.75203
20
6.28883
30
0
11
29.74355
21
6.2991
31
0
0
LINE
8
A-ANNO-SYMB
10
29.74355
20
6.2991
30
0
11
29.73327
21
6.30758
31
0
0
LINE
8
A-ANNO-SYMB
10
29.73327
20
6.30758
30
0
11
29.72148
21
6.31399
31
0
0
LINE
8
A-ANNO-SYMB
10
29.72148
20
6.31399
30
0
11
29.70844
21
6.31803
31
0
0
LINE
8
A-ANNO-SYMB
10
29.70844
20
6.31803
30
0
11
29.69444
21
6.31944
31
0
0
LINE
8
A-ANNO-SYMB
10
29.69444
20
6.31944
30
0
11
29.68045
21
6.31803
31
0
0
LINE
8
A-ANNO-SYMB
10
29.68045
20
6.31803
30
0
11
29.66741
21
6.31399
31
0
0
LINE
8
A-ANNO-SYMB
10
29.66741
20
6.31399
30
0
11
29.65562
21
6.30758
31
0
0
LINE
8
A-ANNO-SYMB
10
29.65562
20
6.30758
30
0
11
29.64534
21
6.2991
31
0
0
LINE
8
A-ANNO-SYMB
10
29.64534
20
6.2991
30
0
11
29.63686
21
6.28883
31
0
0
LINE
8
A-ANNO-SYMB
10
29.63686
20
6.28883
30
0
11
29.63046
21
6.27703
31
0
0
LINE
8
A-ANNO-SYMB
10
29.63046
20
6.27703
30
0
11
29.62641
21
6.264
31
0
0
LINE
8
A-ANNO-SYMB
10
29.62641
20
6.264
30
0
11
29.625
21
6.25
31
0
0
LINE
8
A-ANNO-SYMB
10
29.625
20
6.25
30
0
11
29.62641
21
6.236
31
0
0
LINE
8
A-ANNO-SYMB
10
29.62641
20
6.236
30
0
11
29.63046
21
6.22297
31
0
0
LINE
8
A-ANNO-SYMB
10
29.63046
20
6.22297
30
0
11
29.63686
21
6.21117
31
0
0
LINE
8
A-ANNO-SYMB
10
29.63686
20
6.21117
30
0
11
29.64534
21
6.2009
31
0
0
LINE
8
A-ANNO-SYMB
10
29.64534
20
6.2009
30
0
11
29.65562
21
6.19242
31
0
0
LINE
8
A-ANNO-SYMB
10
29.65562
20
6.19242
30
0
11
29.66741
21
6.18601
31
0
0
LINE
8
A-ANNO-SYMB
10
29.66741
20
6.18601
30
0
11
29.68045
21
6.18197
31
0
0
LINE
8
A-ANNO-SYMB
10
29.68045
20
6.18197
30
0
11
29.69444
21
6.18056
31
0
0
LINE
8
A-ANNO-SYMB
10
29.69444
20
6.18056
30
0
11
29.70844
21
6.18197
31
0
0
LINE
8
A-ANNO-SYMB
10
29.70844
20
6.18197
30
0
11
29.72148
21
6.18601
31
0
0
LINE
8
A-ANNO-SYMB
10
29.72148
20
6.18601
30
0
11
29.73327
21
6.19242
31
0
0
LINE
8
A-ANNO-SYMB
10
29.73327
20
6.19242
30
0
11
29.74355
21
6.2009
31
0
0
LINE
8
A-ANNO-SYMB
10
29.74355
20
6.2009
30
0
11
29.75203
21
6.21117
31
0
0
LINE
8
A-ANNO-SYMB
10
29.75203
20
6.21117
30
0
11
29.75843
21
6.22297
31
0
0
LINE
8
A-ANNO-SYMB
10
29.75843
20
6.22297
30
0
11
29.76248
21
6.236
31
0
0
LINE
8
A-ANNO-SYMB
10
29.76248
20
6.236
30
0
11
29.76389
21
6.25
31
0
0
TEXT
8
A-ANNO-TEXT
10
29.83333
20
6.22222
30
0
40
0.065
1
LEVEL 1  0'-0"
50
0
0
LINE
8
A-ANNO-SYMB
10
29.76389
20
8.125
30
0
11
29.76248
21
8.139
31
0
0
LINE
8
A-ANNO-SYMB
10
29.76248
20
8.139
30
0
11
29.75843
21
8.15203
31
0
0
LINE
8
A-ANNO-SYMB
10
29.75843
20
8.15203
30
0
11
29.75203
21
8.16383
31
0
0
LINE
8
A-ANNO-SYMB
10
29.75203
20
8.16383
30
0
11
29.74355
21
8.1741
31
0
0
LINE
8
A-ANNO-SYMB
10
29.74355
20
8.1741
30
0
11
29.73327
21
8.18258
31
0
0
LINE
8
A-ANNO-SYMB
10
29.73327
20
8.18258
30
0
11
29.72148
21
8.18899
31
0
0
LINE
8
A-ANNO-SYMB
10
29.72148
20
8.18899
30
0
11
29.70844
21
8.19303
31
0
0
LINE
8
A-ANNO-SYMB
10
29.70844
20
8.19303
30
0
11
29.69444
21
8.19444
31
0
0
LINE
8
A-ANNO-SYMB
10
29.69444
20
8.19444
30
0
11
29.68045
21
8.19303
31
0
0
LINE
8
A-ANNO-SYMB
10
29.68045
20
8.19303
30
0
11
29.66741
21
8.18899
31
0
0
LINE
8
A-ANNO-SYMB
10
29.66741
20
8.18899
30
0
11
29.65562
21
8.18258
31
0
0
LINE
8
A-ANNO-SYMB
10
29.65562
20
8.18258
30
0
11
29.64534
21
8.1741
31
0
0
LINE
8
A-ANNO-SYMB
10
29.64534
20
8.1741
30
0
11
29.63686
21
8.16383
31
0
0
LINE
8
A-ANNO-SYMB
10
29.63686
20
8.16383
30
0
11
29.63046
21
8.15203
31
0
0
LINE
8
A-ANNO-SYMB
10
29.63046
20
8.15203
30
0
11
29.62641
21
8.139
31
0
0
LINE
8
A-ANNO-SYMB
10
29.62641
20
8.139
30
0
11
29.625
21
8.125
31
0
0
LINE
8
A-ANNO-SYMB
10
29.625
20
8.125
30
0
11
29.62641
21
8.111
31
0
0
LINE
8
A-ANNO-SYMB
10
29.62641
20
8.111
30
0
11
29.63046
21
8.09797
31
0
0
LINE
8
A-ANNO-SYMB
10
29.63046
20
8.09797
30
0
11
29.63686
21
8.08617
31
0
0
LINE
8
A-ANNO-SYMB
10
29.63686
20
8.08617
30
0
11
29.64534
21
8.0759
31
0
0
LINE
8
A-ANNO-SYMB
10
29.64534
20
8.0759
30
0
11
29.65562
21
8.06742
31
0
0
LINE
8
A-ANNO-SYMB
10
29.65562
20
8.06742
30
0
11
29.66741
21
8.06101
31
0
0
LINE
8
A-ANNO-SYMB
10
29.66741
20
8.06101
30
0
11
29.68045
21
8.05697
31
0
0
LINE
8
A-ANNO-SYMB
10
29.68045
20
8.05697
30
0
11
29.69444
21
8.05556
31
0
0
LINE
8
A-ANNO-SYMB
10
29.69444
20
8.05556
30
0
11
29.70844
21
8.05697
31
0
0
LINE
8
A-ANNO-SYMB
10
29.70844
20
8.05697
30
0
11
29.72148
21
8.06101
31
0
0
LINE
8
A-ANNO-SYMB
10
29.72148
20
8.06101
30
0
11
29.73327
21
8.06742
31
0
0
LINE
8
A-ANNO-SYMB
10
29.73327
20
8.06742
30
0
11
29.74355
21
8.0759
31
0
0
LINE
8
A-ANNO-SYMB
10
29.74355
20
8.0759
30
0
11
29.75203
21
8.08617
31
0
0
LINE
8
A-ANNO-SYMB
10
29.75203
20
8.08617
30
0
11
29.75843
21
8.09797
31
0
0
LINE
8
A-ANNO-SYMB
10
29.75843
20
8.09797
30
0
11
29.76248
21
8.111
31
0
0
LINE
8
A-ANNO-SYMB
10
29.76248
20
8.111
30
0
11
29.76389
21
8.125
31
0
0
TEXT
8
A-ANNO-TEXT
10
29.83333
20
8.09722
30
0
40
0.065
1
LEVEL 2  15'-0"
50
0
0
LINE
8
A-ANNO-SYMB
10
29.76389
20
9.75
30
0
11
29.76248
21
9.764
31
0
0
LINE
8
A-ANNO-SYMB
10
29.76248
20
9.764
30
0
11
29.75843
21
9.77703
31
0
0
LINE
8
A-ANNO-SYMB
10
29.75843
20
9.77703
30
0
11
29.75203
21
9.78883
31
0
0
LINE
8
A-ANNO-SYMB
10
29.75203
20
9.78883
30
0
11
29.74355
21
9.7991
31
0
0
LINE
8
A-ANNO-SYMB
10
29.74355
20
9.7991
30
0
11
29.73327
21
9.80758
31
0
0
LINE
8
A-ANNO-SYMB
10
29.73327
20
9.80758
30
0
11
29.72148
21
9.81399
31
0
0
LINE
8
A-ANNO-SYMB
10
29.72148
20
9.81399
30
0
11
29.70844
21
9.81803
31
0
0
LINE
8
A-ANNO-SYMB
10
29.70844
20
9.81803
30
0
11
29.69444
21
9.81944
31
0
0
LINE
8
A-ANNO-SYMB
10
29.69444
20
9.81944
30
0
11
29.68045
21
9.81803
31
0
0
LINE
8
A-ANNO-SYMB
10
29.68045
20
9.81803
30
0
11
29.66741
21
9.81399
31
0
0
LINE
8
A-ANNO-SYMB
10
29.66741
20
9.81399
30
0
11
29.65562
21
9.80758
31
0
0
LINE
8
A-ANNO-SYMB
10
29.65562
20
9.80758
30
0
11
29.64534
21
9.7991
31
0
0
LINE
8
A-ANNO-SYMB
10
29.64534
20
9.7991
30
0
11
29.63686
21
9.78883
31
0
0
LINE
8
A-ANNO-SYMB
10
29.63686
20
9.78883
30
0
11
29.63046
21
9.77703
31
0
0
LINE
8
A-ANNO-SYMB
10
29.63046
20
9.77703
30
0
11
29.62641
21
9.764
31
0
0
LINE
8
A-ANNO-SYMB
10
29.62641
20
9.764
30
0
11
29.625
21
9.75
31
0
0
LINE
8
A-ANNO-SYMB
10
29.625
20
9.75
30
0
11
29.62641
21
9.736
31
0
0
LINE
8
A-ANNO-SYMB
10
29.62641
20
9.736
30
0
11
29.63046
21
9.72297
31
0
0
LINE
8
A-ANNO-SYMB
10
29.63046
20
9.72297
30
0
11
29.63686
21
9.71117
31
0
0
LINE
8
A-ANNO-SYMB
10
29.63686
20
9.71117
30
0
11
29.64534
21
9.7009
31
0
0
LINE
8
A-ANNO-SYMB
10
29.64534
20
9.7009
30
0
11
29.65562
21
9.69242
31
0
0
LINE
8
A-ANNO-SYMB
10
29.65562
20
9.69242
30
0
11
29.66741
21
9.68601
31
0
0
LINE
8
A-ANNO-SYMB
10
29.66741
20
9.68601
30
0
11
29.68045
21
9.68197
31
0
0
LINE
8
A-ANNO-SYMB
10
29.68045
20
9.68197
30
0
11
29.69444
21
9.68056
31
0
0
LINE
8
A-ANNO-SYMB
10
29.69444
20
9.68056
30
0
11
29.70844
21
9.68197
31
0
0
LINE
8
A-ANNO-SYMB
10
29.70844
20
9.68197
30
0
11
29.72148
21
9.68601
31
0
0
LINE
8
A-ANNO-SYMB
10
29.72148
20
9.68601
30
0
11
29.73327
21
9.69242
31
0
0
LINE
8
A-ANNO-SYMB
10
29.73327
20
9.69242
30
0
11
29.74355
21
9.7009
31
0
0
LINE
8
A-ANNO-SYMB
10
29.74355
20
9.7009
30
0
11
29.75203
21
9.71117
31
0
0
LINE
8
A-ANNO-SYMB
10
29.75203
20
9.71117
30
0
11
29.75843
21
9.72297
31
0
0
LINE
8
A-ANNO-SYMB
10
29.75843
20
9.72297
30
0
11
29.76248
21
9.736
31
0
0
LINE
8
A-ANNO-SYMB
10
29.76248
20
9.736
30
0
11
29.76389
21
9.75
31
0
0
TEXT
8
A-ANNO-TEXT
10
29.83333
20
9.72222
30
0
40
0.065
1
ROOF  28'-0"
50
0
0
LINE
8
A-ANNO-DIMS
10
29.44444
20
6.25
30
0
11
29.44444
21
8.125
31
0
0
LINE
8
A-ANNO-DIMS
10
29.41667
20
6.25
30
0
11
29.40278
21
6.25
31
0
0
LINE
8
A-ANNO-DIMS
10
29.469
20
6.22545
30
0
11
29.41989
21
6.27455
31
0
0
LINE
8
A-ANNO-DIMS
10
29.41667
20
8.125
30
0
11
29.40278
21
8.125
31
0
0
LINE
8
A-ANNO-DIMS
10
29.469
20
8.10045
30
0
11
29.41989
21
8.14955
31
0
0
TEXT
8
A-ANNO-DIMS
10
29.41667
20
7.1875
30
0
40
0.0675
1
15'-0"
50
90
72
1
11
29.41667
21
7.1875
31
0
0
LINE
8
A-ANNO-DIMS
10
29.44444
20
8.125
30
0
11
29.44444
21
9.75
31
0
0
LINE
8
A-ANNO-DIMS
10
29.41667
20
8.125
30
0
11
29.40278
21
8.125
31
0
0
LINE
8
A-ANNO-DIMS
10
29.469
20
8.10045
30
0
11
29.41989
21
8.14955
31
0
0
LINE
8
A-ANNO-DIMS
10
29.41667
20
9.75
30
0
11
29.40278
21
9.75
31
0
0
LINE
8
A-ANNO-DIMS
10
29.469
20
9.72545
30
0
11
29.41989
21
9.77455
31
0
0
TEXT
8
A-ANNO-DIMS
10
29.41667
20
8.9375
30
0
40
0.0675
1
13'-0"
50
90
72
1
11
29.41667
21
8.9375
31
0
0
LINE
8
A-ANNO-DIMS
10
29.44444
20
9.75
30
0
11
29.44444
21
10.20875
31
0
0
LINE
8
A-ANNO-DIMS
10
29.41667
20
9.75
30
0
11
29.40278
21
9.75
31
0
0
LINE
8
A-ANNO-DIMS
10
29.469
20
9.72545
30
0
11
29.41989
21
9.77455
31
0
0
LINE
8
A-ANNO-DIMS
10
29.41667
20
10.20875
30
0
11
29.40278
21
10.20875
31
0
0
LINE
8
A-ANNO-DIMS
10
29.469
20
10.1842
30
0
11
29.41989
21
10.2333
31
0
0
TEXT
8
A-ANNO-DIMS
10
29.41667
20
9.97937
30
0
40
0.0675
1
3'-8 1/16"
50
90
72
1
11
29.41667
21
9.97937
31
0
0
LINE
8
A-ANNO-DIMS
10
3.10694
20
5.75
30
0
11
29.28194
21
5.75
31
0
0
LINE
8
A-ANNO-DIMS
10
3.10694
20
5.77778
30
0
11
3.10694
21
5.79167
31
0
0
LINE
8
A-ANNO-DIMS
10
3.08239
20
5.72545
30
0
11
3.1315
21
5.77455
31
0
0
LINE
8
A-ANNO-DIMS
10
29.28194
20
5.77778
30
0
11
29.28194
21
5.79167
31
0
0
LINE
8
A-ANNO-DIMS
10
29.25739
20
5.72545
30
0
11
29.3065
21
5.77455
31
0
0
TEXT
8
A-ANNO-DIMS
10
16.19444
20
5.77778
30
0
40
0.0675
1
209'-4 13/16"
50
0
72
1
11
16.19444
21
5.77778
31
0
0
LINE
8
A-ANNO-SYMB
10
4.08333
20
5.19444
30
0
11
4.07938
21
5.23363
31
0
0
LINE
8
A-ANNO-SYMB
10
4.07938
20
5.23363
30
0
11
4.06805
21
5.27013
31
0
0
LINE
8
A-ANNO-SYMB
10
4.06805
20
5.27013
30
0
11
4.05013
21
5.30316
31
0
0
LINE
8
A-ANNO-SYMB
10
4.05013
20
5.30316
30
0
11
4.02638
21
5.33194
31
0
0
LINE
8
A-ANNO-SYMB
10
4.02638
20
5.33194
30
0
11
3.9976
21
5.35568
31
0
0
LINE
8
A-ANNO-SYMB
10
3.9976
20
5.35568
30
0
11
3.96458
21
5.37361
31
0
0
LINE
8
A-ANNO-SYMB
10
3.96458
20
5.37361
30
0
11
3.92808
21
5.38494
31
0
0
LINE
8
A-ANNO-SYMB
10
3.92808
20
5.38494
30
0
11
3.88889
21
5.38889
31
0
0
LINE
8
A-ANNO-SYMB
10
3.88889
20
5.38889
30
0
11
3.8497
21
5.38494
31
0
0
LINE
8
A-ANNO-SYMB
10
3.8497
20
5.38494
30
0
11
3.8132
21
5.37361
31
0
0
LINE
8
A-ANNO-SYMB
10
3.8132
20
5.37361
30
0
11
3.78017
21
5.35568
31
0
0
LINE
8
A-ANNO-SYMB
10
3.78017
20
5.35568
30
0
11
3.7514
21
5.33194
31
0
0
LINE
8
A-ANNO-SYMB
10
3.7514
20
5.33194
30
0
11
3.72765
21
5.30316
31
0
0
LINE
8
A-ANNO-SYMB
10
3.72765
20
5.30316
30
0
11
3.70972
21
5.27013
31
0
0
LINE
8
A-ANNO-SYMB
10
3.70972
20
5.27013
30
0
11
3.69839
21
5.23363
31
0
0
LINE
8
A-ANNO-SYMB
10
3.69839
20
5.23363
30
0
11
3.69444
21
5.19444
31
0
0
LINE
8
A-ANNO-SYMB
10
3.69444
20
5.19444
30
0
11
3.69839
21
5.15526
31
0
0
LINE
8
A-ANNO-SYMB
10
3.69839
20
5.15526
30
0
11
3.70972
21
5.11876
31
0
0
LINE
8
A-ANNO-SYMB
10
3.70972
20
5.11876
30
0
11
3.72765
21
5.08573
31
0
0
LINE
8
A-ANNO-SYMB
10
3.72765
20
5.08573
30
0
11
3.7514
21
5.05695
31
0
0
LINE
8
A-ANNO-SYMB
10
3.7514
20
5.05695
30
0
11
3.78017
21
5.03321
31
0
0
LINE
8
A-ANNO-SYMB
10
3.78017
20
5.03321
30
0
11
3.8132
21
5.01528
31
0
0
LINE
8
A-ANNO-SYMB
10
3.8132
20
5.01528
30
0
11
3.8497
21
5.00395
31
0
0
LINE
8
A-ANNO-SYMB
10
3.8497
20
5.00395
30
0
11
3.88889
21
5
31
0
0
LINE
8
A-ANNO-SYMB
10
3.88889
20
5
30
0
11
3.92808
21
5.00395
31
0
0
LINE
8
A-ANNO-SYMB
10
3.92808
20
5.00395
30
0
11
3.96458
21
5.01528
31
0
0
LINE
8
A-ANNO-SYMB
10
3.96458
20
5.01528
30
0
11
3.9976
21
5.03321
31
0
0
LINE
8
A-ANNO-SYMB
10
3.9976
20
5.03321
30
0
11
4.02638
21
5.05695
31
0
0
LINE
8
A-ANNO-SYMB
10
4.02638
20
5.05695
30
0
11
4.05013
21
5.08573
31
0
0
LINE
8
A-ANNO-SYMB
10
4.05013
20
5.08573
30
0
11
4.06805
21
5.11876
31
0
0
LINE
8
A-ANNO-SYMB
10
4.06805
20
5.11876
30
0
11
4.07938
21
5.15526
31
0
0
LINE
8
A-ANNO-SYMB
10
4.07938
20
5.15526
30
0
11
4.08333
21
5.19444
31
0
0
TEXT
8
A-ANNO-SYMB
10
3.88889
20
5.13889
30
0
40
0.1
1
1
50
0
72
1
11
3.88889
21
5.13889
31
0
0
TEXT
8
A-ANNO-TEXT
10
4.16667
20
5.13889
30
0
40
0.14
1
NORTH ELEVATION
50
0
0
LINE
8
A-ANNO-TEXT
10
4.16667
20
5.08333
30
0
11
8.33333
21
5.08333
31
0
0
TEXT
8
A-ANNO-TEXT
10
4.16667
20
4.91667
30
0
40
0.07
1
SCALE: 1/8" = 1'-0"
50
0
0
LINE
8
G-ANNO-TTLB
10
0.5
20
0.5
30
0
11
35.5
21
0.5
31
0
0
LINE
8
G-ANNO-TTLB
10
35.5
20
0.5
30
0
11
35.5
21
23.5
31
0
0
LINE
8
G-ANNO-TTLB
10
35.5
20
23.5
30
0
11
0.5
21
23.5
31
0
0
LINE
8
G-ANNO-TTLB
10
0.5
20
23.5
30
0
11
0.5
21
0.5
31
0
0
LINE
8
G-ANNO-TTLB
10
33
20
0.5
30
0
11
35.5
21
0.5
31
0
0
LINE
8
G-ANNO-TTLB
10
35.5
20
0.5
30
0
11
35.5
21
23.5
31
0
0
LINE
8
G-ANNO-TTLB
10
35.5
20
23.5
30
0
11
33
21
23.5
31
0
0
LINE
8
G-ANNO-TTLB
10
33
20
23.5
30
0
11
33
21
0.5
31
0
0
LINE
8
G-ANNO-TTLB
10
33
20
21.27778
30
0
11
35.5
21
21.27778
31
0
0
LINE
8
G-ANNO-TTLB
10
33
20
19.05556
30
0
11
35.5
21
19.05556
31
0
0
LINE
8
G-ANNO-TTLB
10
33
20
6.33333
30
0
11
35.5
21
6.33333
31
0
0
LINE
8
G-ANNO-TTLB
10
33
20
4.66667
30
0
11
35.5
21
4.66667
31
0
0
LINE
8
G-ANNO-TTLB
10
33
20
3.27778
30
0
11
35.5
21
3.27778
31
0
0
LINE
8
G-ANNO-TTLB
10
33
20
2.16667
30
0
11
35.5
21
2.16667
31
0
0
TEXT
8
G-ANNO-TTLB
10
33.13889
20
23.16667
30
0
40
0.09
1
ARCADIA DESIGN COLLECTIVE
50
0
0
TEXT
8
G-ANNO-TTLB
10
33.13889
20
22.97222
30
0
40
0.06
1
SYNTHETIC TEST SET - NOT A REAL PROJECT
50
0
0
TEXT
8
G-ANNO-TTLB
10
33.13889
20
22.77778
30
0
40
0.06
1
1200 E CAMELBACK RD, PHOENIX AZ
50
0
0
TEXT
8
G-ANNO-TTLB
10
33.13889
20
21.36111
30
0
40
0.11
1
MESA RIDGE MEDICAL
50
0
0
TEXT
8
G-ANNO-TTLB
10
33.13889
20
21.16667
30
0
40
0.11
1
OFFICE BUILDING
50
0
0
TEXT
8
G-ANNO-TTLB
10
33.13889
20
20.97222
30
0
40
0.06
1
4410 S RIDGE PKWY, PHOENIX AZ
50
0
0
TEXT
8
G-ANNO-TTLB
10
33.13889
20
20.77778
30
0
40
0.06
1
PROJECT NO. 25-118
50
0
0
TEXT
8
G-ANNO-TTLB
10
33.13889
20
6.125
30
0
40
0.07
1
REVISIONS
50
0
0
TEXT
8
G-ANNO-TTLB
10
33.13889
20
4.38889
30
0
40
0.07
1
DATE: 08/04/2026
50
0
0
TEXT
8
G-ANNO-TTLB
10
33.13889
20
4.18056
30
0
40
0.07
1
ISSUE: BID SET
50
0
0
TEXT
8
G-ANNO-TTLB
10
33.13889
20
3
30
0
40
0.07
1
SCALE: 1/8" = 1'-0"
50
0
0
TEXT
8
G-ANNO-TTLB
10
33.13889
20
1.88889
30
0
40
0.09
1
EXTERIOR ELEVATIONS
50
0
0
TEXT
8
G-ANNO-TTLB
10
33.13889
20
1.19444
30
0
40
0.3
1
A-201
50
0
0
ENDSEC
0
EOF
