0
SECTION
2
HEADER
9
$ACADVER
1
AC1009
9
$INSUNITS
70
1
0
ENDSEC
0
SECTION
2
TABLES
0
TABLE
2
LTYPE
70
2
0
LTYPE
2
CONTINUOUS
70
0
3
Solid line
72
65
73
0
40
0
0
LTYPE
2
DASHED
70
0
3
__ __ __
72
65
73
2
40
0.125
49
0.0833
49
-0.0417
0
ENDTAB
0
TABLE
2
LAYER
70
12
0
LAYER
2
A-WALL
70
0
62
1
6
CONTINUOUS
0
LAYER
2
A-GLAZ
70
0
62
2
6
CONTINUOUS
0
LAYER
2
A-DOOR
70
0
62
3
6
CONTINUOUS
0
LAYER
2
A-ANNO-SYMB
70
0
62
4
6
CONTINUOUS
0
LAYER
2
P-FIXT
70
0
62
5
6
CONTINUOUS
0
LAYER
2
A-ANNO-DIMS
70
0
62
6
6
CONTINUOUS
0
LAYER
2
A-ANNO-TEXT
70
0
62
7
6
CONTINUOUS
0
LAYER
2
A-WALL-CMU
70
0
62
1
6
CONTINUOUS
0
LAYER
2
A-WALL-PATT
70
0
62
2
6
CONTINUOUS
0
LAYER
2
A-FLOR-STRS
70
0
62
3
6
CONTINUOUS
0
LAYER
2
A-DETL
70
0
62
4
6
CONTINUOUS
0
LAYER
2
G-ANNO-TTLB
70
0
62
5
6
CONTINUOUS
0
ENDTAB
0
ENDSEC
0
SECTION
2
ENTITIES
0
LINE
8
A-WALL
10
2.22222
20
8.20356
30
0
11
2.67144
21
8.20356
31
0
0
LINE
8
A-WALL
10
2.773
20
8.20356
30
0
11
7.92144
21
8.20356
31
0
0
LINE
8
A-WALL
10
8.023
20
8.20356
30
0
11
13.37977
21
8.20356
31
0
0
LINE
8
A-WALL
10
2.22222
20
8.19054
30
0
11
2.67144
21
8.19054
31
0
0
LINE
8
A-WALL
10
2.773
20
8.19054
30
0
11
7.92144
21
8.19054
31
0
0
LINE
8
A-WALL
10
8.023
20
8.19054
30
0
11
13.37977
21
8.19054
31
0
0
LINE
8
A-WALL
10
2.22222
20
8.06554
30
0
11
13.56467
21
8.06554
31
0
0
LINE
8
A-WALL
10
2.22222
20
8.05252
30
0
11
13.56467
21
8.05252
31
0
0
LINE
8
A-WALL
10
2.22222
20
8.01866
30
0
11
13.56467
21
8.01866
31
0
0
LINE
8
A-WALL
10
13.37977
20
8.20356
30
0
11
13.37977
21
10.727
31
0
0
LINE
8
A-WALL
10
13.37977
20
10.82856
30
0
11
13.37977
21
12.77778
31
0
0
LINE
8
A-WALL
10
13.37977
20
13.77778
30
0
11
13.37977
21
18.977
31
0
0
LINE
8
A-WALL
10
13.37977
20
19.07856
30
0
11
13.37977
21
19.40278
31
0
0
LINE
8
A-WALL
10
13.3928
20
8.20356
30
0
11
13.3928
21
10.727
31
0
0
LINE
8
A-WALL
10
13.3928
20
10.82856
30
0
11
13.3928
21
12.77778
31
0
0
LINE
8
A-WALL
10
13.3928
20
13.77778
30
0
11
13.3928
21
18.977
31
0
0
LINE
8
A-WALL
10
13.3928
20
19.07856
30
0
11
13.3928
21
19.40278
31
0
0
LINE
8
A-WALL
10
13.5178
20
8.01866
30
0
11
13.5178
21
12.77778
31
0
0
LINE
8
A-WALL
10
13.5178
20
13.77778
30
0
11
13.5178
21
19.40278
31
0
0
LINE
8
A-WALL
10
13.53082
20
8.01866
30
0
11
13.53082
21
12.77778
31
0
0
LINE
8
A-WALL
10
13.53082
20
13.77778
30
0
11
13.53082
21
19.40278
31
0
0
LINE
8
A-WALL
10
13.56467
20
8.01866
30
0
11
13.56467
21
12.77778
31
0
0
LINE
8
A-WALL
10
13.56467
20
13.77778
30
0
11
13.56467
21
19.40278
31
0
0
LINE
8
A-WALL
10
13.37977
20
12.77778
30
0
11
13.56467
21
12.77778
31
0
0
LINE
8
A-WALL
10
13.37977
20
13.77778
30
0
11
13.56467
21
13.77778
31
0
0
LINE
8
A-WALL
10
13.37977
20
19.40278
30
0
11
13.56467
21
19.40278
31
0
0
LINE
8
A-GLAZ
10
13.56467
20
12.77778
30
0
11
13.56467
21
13.77778
31
0
0
LINE
8
A-GLAZ
10
13.47222
20
12.77778
30
0
11
13.47222
21
13.77778
31
0
0
LINE
8
A-GLAZ
10
13.37977
20
12.77778
30
0
11
13.37977
21
13.77778
31
0
0
LINE
8
A-DOOR
10
13.37977
20
19.40278
30
0
11
12.62977
21
19.40278
31
0
0
LINE
8
A-DOOR
10
12.62977
20
19.40278
30
0
11
12.62977
21
19.43924
31
0
0
LINE
8
A-DOOR
10
12.62977
20
19.43924
30
0
11
13.37977
21
19.43924
31
0
0
LINE
8
A-DOOR
10
13.37977
20
19.43924
30
0
11
13.37977
21
19.40278
31
0
0
LINE
8
A-WALL
10
2.22222
20
19.07856
30
0
11
3.84722
21
19.07856
31
0
0
LINE
8
A-WALL
10
4.59722
20
19.07856
30
0
11
11.09722
21
19.07856
31
0
0
LINE
8
A-WALL
10
11.84722
20
19.07856
30
0
11
13.37977
21
19.07856
31
0
0
LINE
8
A-WALL
10
2.22222
20
18.977
30
0
11
2.67144
21
18.977
31
0
0
LINE
8
A-WALL
10
2.773
20
18.977
30
0
11
3.84722
21
18.977
31
0
0
LINE
8
A-WALL
10
4.59722
20
18.977
30
0
11
7.82118
21
18.977
31
0
0
LINE
8
A-WALL
10
8.12326
20
18.977
30
0
11
11.09722
21
18.977
31
0
0
LINE
8
A-WALL
10
11.84722
20
18.977
30
0
11
13.37977
21
18.977
31
0
0
LINE
8
A-WALL
10
3.84722
20
19.07856
30
0
11
3.84722
21
18.977
31
0
0
LINE
8
A-WALL
10
4.59722
20
19.07856
30
0
11
4.59722
21
18.977
31
0
0
LINE
8
A-WALL
10
11.09722
20
19.07856
30
0
11
11.09722
21
18.977
31
0
0
LINE
8
A-WALL
10
11.84722
20
19.07856
30
0
11
11.84722
21
18.977
31
0
0
LINE
8
A-ANNO-SYMB
10
4.29167
20
18.427
30
0
11
4.29026
21
18.44099
31
0
0
LINE
8
A-ANNO-SYMB
10
4.29026
20
18.44099
30
0
11
4.28621
21
18.45403
31
0
0
LINE
8
A-ANNO-SYMB
10
4.28621
20
18.45403
30
0
11
4.27981
21
18.46582
31
0
0
LINE
8
A-ANNO-SYMB
10
4.27981
20
18.46582
30
0
11
4.27133
21
18.4761
31
0
0
LINE
8
A-ANNO-SYMB
10
4.27133
20
18.4761
30
0
11
4.26105
21
18.48458
31
0
0
LINE
8
A-ANNO-SYMB
10
4.26105
20
18.48458
30
0
11
4.24925
21
18.49098
31
0
0
LINE
8
A-ANNO-SYMB
10
4.24925
20
18.49098
30
0
11
4.23622
21
18.49503
31
0
0
LINE
8
A-ANNO-SYMB
10
4.23622
20
18.49503
30
0
11
4.22222
21
18.49644
31
0
0
LINE
8
A-ANNO-SYMB
10
4.22222
20
18.49644
30
0
11
4.20823
21
18.49503
31
0
0
LINE
8
A-ANNO-SYMB
10
4.20823
20
18.49503
30
0
11
4.19519
21
18.49098
31
0
0
LINE
8
A-ANNO-SYMB
10
4.19519
20
18.49098
30
0
11
4.1834
21
18.48458
31
0
0
LINE
8
A-ANNO-SYMB
10
4.1834
20
18.48458
30
0
11
4.17312
21
18.4761
31
0
0
LINE
8
A-ANNO-SYMB
10
4.17312
20
18.4761
30
0
11
4.16464
21
18.46582
31
0
0
LINE
8
A-ANNO-SYMB
10
4.16464
20
18.46582
30
0
11
4.15824
21
18.45403
31
0
0
LINE
8
A-ANNO-SYMB
10
4.15824
20
18.45403
30
0
11
4.15419
21
18.44099
31
0
0
LINE
8
A-ANNO-SYMB
10
4.15419
20
18.44099
30
0
11
4.15278
21
18.427
31
0
0
LINE
8
A-ANNO-SYMB
10
4.15278
20
18.427
30
0
11
4.15419
21
18.413
31
0
0
LINE
8
A-ANNO-SYMB
10
4.15419
20
18.413
30
0
11
4.15824
21
18.39997
31
0
0
LINE
8
A-ANNO-SYMB
10
4.15824
20
18.39997
30
0
11
4.16464
21
18.38817
31
0
0
LINE
8
A-ANNO-SYMB
10
4.16464
20
18.38817
30
0
11
4.17312
21
18.37789
31
0
0
LINE
8
A-ANNO-SYMB
10
4.17312
20
18.37789
30
0
11
4.1834
21
18.36941
31
0
0
LINE
8
A-ANNO-SYMB
10
4.1834
20
18.36941
30
0
11
4.19519
21
18.36301
31
0
0
LINE
8
A-ANNO-SYMB
10
4.19519
20
18.36301
30
0
11
4.20823
21
18.35896
31
0
0
LINE
8
A-ANNO-SYMB
10
4.20823
20
18.35896
30
0
11
4.22222
21
18.35755
31
0
0
LINE
8
A-ANNO-SYMB
10
4.22222
20
18.35755
30
0
11
4.23622
21
18.35896
31
0
0
LINE
8
A-ANNO-SYMB
10
4.23622
20
18.35896
30
0
11
4.24925
21
18.36301
31
0
0
LINE
8
A-ANNO-SYMB
10
4.24925
20
18.36301
30
0
11
4.26105
21
18.36941
31
0
0
LINE
8
A-ANNO-SYMB
10
4.26105
20
18.36941
30
0
11
4.27133
21
18.37789
31
0
0
LINE
8
A-ANNO-SYMB
10
4.27133
20
18.37789
30
0
11
4.27981
21
18.38817
31
0
0
LINE
8
A-ANNO-SYMB
10
4.27981
20
18.38817
30
0
11
4.28621
21
18.39997
31
0
0
LINE
8
A-ANNO-SYMB
10
4.28621
20
18.39997
30
0
11
4.29026
21
18.413
31
0
0
LINE
8
A-ANNO-SYMB
10
4.29026
20
18.413
30
0
11
4.29167
21
18.427
31
0
0
TEXT
8
A-ANNO-SYMB
10
4.22222
20
18.39922
30
0
40
0.05
1
143
50
0
72
1
11
4.22222
21
18.39922
31
0
0
LINE
8
A-ANNO-SYMB
10
11.54167
20
18.427
30
0
11
11.54026
21
18.44099
31
0
0
LINE
8
A-ANNO-SYMB
10
11.54026
20
18.44099
30
0
11
11.53621
21
18.45403
31
0
0
LINE
8
A-ANNO-SYMB
10
11.53621
20
18.45403
30
0
11
11.52981
21
18.46582
31
0
0
LINE
8
A-ANNO-SYMB
10
11.52981
20
18.46582
30
0
11
11.52133
21
18.4761
31
0
0
LINE
8
A-ANNO-SYMB
10
11.52133
20
18.4761
30
0
11
11.51105
21
18.48458
31
0
0
LINE
8
A-ANNO-SYMB
10
11.51105
20
18.48458
30
0
11
11.49925
21
18.49098
31
0
0
LINE
8
A-ANNO-SYMB
10
11.49925
20
18.49098
30
0
11
11.48622
21
18.49503
31
0
0
LINE
8
A-ANNO-SYMB
10
11.48622
20
18.49503
30
0
11
11.47222
21
18.49644
31
0
0
LINE
8
A-ANNO-SYMB
10
11.47222
20
18.49644
30
0
11
11.45823
21
18.49503
31
0
0
LINE
8
A-ANNO-SYMB
10
11.45823
20
18.49503
30
0
11
11.44519
21
18.49098
31
0
0
LINE
8
A-ANNO-SYMB
10
11.44519
20
18.49098
30
0
11
11.4334
21
18.48458
31
0
0
LINE
8
A-ANNO-SYMB
10
11.4334
20
18.48458
30
0
11
11.42312
21
18.4761
31
0
0
LINE
8
A-ANNO-SYMB
10
11.42312
20
18.4761
30
0
11
11.41464
21
18.46582
31
0
0
LINE
8
A-ANNO-SYMB
10
11.41464
20
18.46582
30
0
11
11.40824
21
18.45403
31
0
0
LINE
8
A-ANNO-SYMB
10
11.40824
20
18.45403
30
0
11
11.40419
21
18.44099
31
0
0
LINE
8
A-ANNO-SYMB
10
11.40419
20
18.44099
30
0
11
11.40278
21
18.427
31
0
0
LINE
8
A-ANNO-SYMB
10
11.40278
20
18.427
30
0
11
11.40419
21
18.413
31
0
0
LINE
8
A-ANNO-SYMB
10
11.40419
20
18.413
30
0
11
11.40824
21
18.39997
31
0
0
LINE
8
A-ANNO-SYMB
10
11.40824
20
18.39997
30
0
11
11.41464
21
18.38817
31
0
0
LINE
8
A-ANNO-SYMB
10
11.41464
20
18.38817
30
0
11
11.42312
21
18.37789
31
0
0
LINE
8
A-ANNO-SYMB
10
11.42312
20
18.37789
30
0
11
11.4334
21
18.36941
31
0
0
LINE
8
A-ANNO-SYMB
10
11.4334
20
18.36941
30
0
11
11.44519
21
18.36301
31
0
0
LINE
8
A-ANNO-SYMB
10
11.44519
20
18.36301
30
0
11
11.45823
21
18.35896
31
0
0
LINE
8
A-ANNO-SYMB
10
11.45823
20
18.35896
30
0
11
11.47222
21
18.35755
31
0
0
LINE
8
A-ANNO-SYMB
10
11.47222
20
18.35755
30
0
11
11.48622
21
18.35896
31
0
0
LINE
8
A-ANNO-SYMB
10
11.48622
20
18.35896
30
0
11
11.49925
21
18.36301
31
0
0
LINE
8
A-ANNO-SYMB
10
11.49925
20
18.36301
30
0
11
11.51105
21
18.36941
31
0
0
LINE
8
A-ANNO-SYMB
10
11.51105
20
18.36941
30
0
11
11.52133
21
18.37789
31
0
0
LINE
8
A-ANNO-SYMB
10
11.52133
20
18.37789
30
0
11
11.52981
21
18.38817
31
0
0
LINE
8
A-ANNO-SYMB
10
11.52981
20
18.38817
30
0
11
11.53621
21
18.39997
31
0
0
LINE
8
A-ANNO-SYMB
10
11.53621
20
18.39997
30
0
11
11.54026
21
18.413
31
0
0
LINE
8
A-ANNO-SYMB
10
11.54026
20
18.413
30
0
11
11.54167
21
18.427
31
0
0
TEXT
8
A-ANNO-SYMB
10
11.47222
20
18.39922
30
0
40
0.05
1
144
50
0
72
1
11
11.47222
21
18.39922
31
0
0
LINE
8
A-WALL
10
2.67144
20
8.20356
30
0
11
2.67144
21
18.977
31
0
0
LINE
8
A-WALL
10
2.773
20
8.20356
30
0
11
2.773
21
10.727
31
0
0
LINE
8
A-WALL
10
2.773
20
10.82856
30
0
11
2.773
21
18.977
31
0
0
LINE
8
A-WALL
10
2.773
20
10.82856
30
0
11
4.84722
21
10.82856
31
0
0
LINE
8
A-WALL
10
5.59722
20
10.82856
30
0
11
7.82118
21
10.82856
31
0
0
LINE
8
A-WALL
10
8.12326
20
10.82856
30
0
11
10.09722
21
10.82856
31
0
0
LINE
8
A-WALL
10
10.84722
20
10.82856
30
0
11
13.37977
21
10.82856
31
0
0
LINE
8
A-WALL
10
2.773
20
10.727
30
0
11
4.84722
21
10.727
31
0
0
LINE
8
A-WALL
10
5.59722
20
10.727
30
0
11
7.92144
21
10.727
31
0
0
LINE
8
A-WALL
10
8.023
20
10.727
30
0
11
10.09722
21
10.727
31
0
0
LINE
8
A-WALL
10
10.84722
20
10.727
30
0
11
13.37977
21
10.727
31
0
0
LINE
8
A-WALL
10
4.84722
20
10.82856
30
0
11
4.84722
21
10.727
31
0
0
LINE
8
A-WALL
10
5.59722
20
10.82856
30
0
11
5.59722
21
10.727
31
0
0
LINE
8
A-WALL
10
10.09722
20
10.82856
30
0
11
10.09722
21
10.727
31
0
0
LINE
8
A-WALL
10
10.84722
20
10.82856
30
0
11
10.84722
21
10.727
31
0
0
LINE
8
A-DOOR
10
4.84722
20
10.82856
30
0
11
4.84722
21
11.57856
31
0
0
LINE
8
A-DOOR
10
4.84722
20
11.57856
30
0
11
4.88368
21
11.57856
31
0
0
LINE
8
A-DOOR
10
4.88368
20
11.57856
30
0
11
4.88368
21
10.82856
31
0
0
LINE
8
A-DOOR
10
4.88368
20
10.82856
30
0
11
4.84722
21
10.82856
31
0
0
LINE
8
A-DOOR
10
5.59722
20
10.82856
30
0
11
5.58198
21
10.97971
31
0
0
LINE
8
A-DOOR
10
5.58198
20
10.97971
30
0
11
5.53828
21
11.12049
31
0
0
LINE
8
A-DOOR
10
5.53828
20
11.12049
30
0
11
5.46913
21
11.24789
31
0
0
LINE
8
A-DOOR
10
5.46913
20
11.24789
30
0
11
5.37755
21
11.35889
31
0
0
LINE
8
A-DOOR
10
5.37755
20
11.35889
30
0
11
5.26655
21
11.45047
31
0
0
LINE
8
A-DOOR
10
5.26655
20
11.45047
30
0
11
5.13916
21
11.51962
31
0
0
LINE
8
A-DOOR
10
5.13916
20
11.51962
30
0
11
4.99837
21
11.56332
31
0
0
LINE
8
A-DOOR
10
4.99837
20
11.56332
30
0
11
4.84722
21
11.57856
31
0
0
LINE
8
A-ANNO-SYMB
10
5.29167
20
10.177
30
0
11
5.29026
21
10.19099
31
0
0
LINE
8
A-ANNO-SYMB
10
5.29026
20
10.19099
30
0
11
5.28621
21
10.20403
31
0
0
LINE
8
A-ANNO-SYMB
10
5.28621
20
10.20403
30
0
11
5.27981
21
10.21582
31
0
0
LINE
8
A-ANNO-SYMB
10
5.27981
20
10.21582
30
0
11
5.27133
21
10.2261
31
0
0
LINE
8
A-ANNO-SYMB
10
5.27133
20
10.2261
30
0
11
5.26105
21
10.23458
31
0
0
LINE
8
A-ANNO-SYMB
10
5.26105
20
10.23458
30
0
11
5.24925
21
10.24098
31
0
0
LINE
8
A-ANNO-SYMB
10
5.24925
20
10.24098
30
0
11
5.23622
21
10.24503
31
0
0
LINE
8
A-ANNO-SYMB
10
5.23622
20
10.24503
30
0
11
5.22222
21
10.24644
31
0
0
LINE
8
A-ANNO-SYMB
10
5.22222
20
10.24644
30
0
11
5.20823
21
10.24503
31
0
0
LINE
8
A-ANNO-SYMB
10
5.20823
20
10.24503
30
0
11
5.19519
21
10.24098
31
0
0
LINE
8
A-ANNO-SYMB
10
5.19519
20
10.24098
30
0
11
5.1834
21
10.23458
31
0
0
LINE
8
A-ANNO-SYMB
10
5.1834
20
10.23458
30
0
11
5.17312
21
10.2261
31
0
0
LINE
8
A-ANNO-SYMB
10
5.17312
20
10.2261
30
0
11
5.16464
21
10.21582
31
0
0
LINE
8
A-ANNO-SYMB
10
5.16464
20
10.21582
30
0
11
5.15824
21
10.20403
31
0
0
LINE
8
A-ANNO-SYMB
10
5.15824
20
10.20403
30
0
11
5.15419
21
10.19099
31
0
0
LINE
8
A-ANNO-SYMB
10
5.15419
20
10.19099
30
0
11
5.15278
21
10.177
31
0
0
LINE
8
A-ANNO-SYMB
10
5.15278
20
10.177
30
0
11
5.15419
21
10.163
31
0
0
LINE
8
A-ANNO-SYMB
10
5.15419
20
10.163
30
0
11
5.15824
21
10.14997
31
0
0
LINE
8
A-ANNO-SYMB
10
5.15824
20
10.14997
30
0
11
5.16464
21
10.13817
31
0
0
LINE
8
A-ANNO-SYMB
10
5.16464
20
10.13817
30
0
11
5.17312
21
10.12789
31
0
0
LINE
8
A-ANNO-SYMB
10
5.17312
20
10.12789
30
0
11
5.1834
21
10.11941
31
0
0
LINE
8
A-ANNO-SYMB
10
5.1834
20
10.11941
30
0
11
5.19519
21
10.11301
31
0
0
LINE
8
A-ANNO-SYMB
10
5.19519
20
10.11301
30
0
11
5.20823
21
10.10896
31
0
0
LINE
8
A-ANNO-SYMB
10
5.20823
20
10.10896
30
0
11
5.22222
21
10.10755
31
0
0
LINE
8
A-ANNO-SYMB
10
5.22222
20
10.10755
30
0
11
5.23622
21
10.10896
31
0
0
LINE
8
A-ANNO-SYMB
10
5.23622
20
10.10896
30
0
11
5.24925
21
10.11301
31
0
0
LINE
8
A-ANNO-SYMB
10
5.24925
20
10.11301
30
0
11
5.26105
21
10.11941
31
0
0
LINE
8
A-ANNO-SYMB
10
5.26105
20
10.11941
30
0
11
5.27133
21
10.12789
31
0
0
LINE
8
A-ANNO-SYMB
10
5.27133
20
10.12789
30
0
11
5.27981
21
10.13817
31
0
0
LINE
8
A-ANNO-SYMB
10
5.27981
20
10.13817
30
0
11
5.28621
21
10.14997
31
0
0
LINE
8
A-ANNO-SYMB
10
5.28621
20
10.14997
30
0
11
5.29026
21
10.163
31
0
0
LINE
8
A-ANNO-SYMB
10
5.29026
20
10.163
30
0
11
5.29167
21
10.177
31
0
0
TEXT
8
A-ANNO-SYMB
10
5.22222
20
10.14922
30
0
40
0.05
1
145
50
0
72
1
11
5.22222
21
10.14922
31
0
0
LINE
8
A-DOOR
10
10.09722
20
10.82856
30
0
11
10.09722
21
11.57856
31
0
0
LINE
8
A-DOOR
10
10.09722
20
11.57856
30
0
11
10.13368
21
11.57856
31
0
0
LINE
8
A-DOOR
10
10.13368
20
11.57856
30
0
11
10.13368
21
10.82856
31
0
0
LINE
8
A-DOOR
10
10.13368
20
10.82856
30
0
11
10.09722
21
10.82856
31
0
0
LINE
8
A-DOOR
10
10.84722
20
10.82856
30
0
11
10.83198
21
10.97971
31
0
0
LINE
8
A-DOOR
10
10.83198
20
10.97971
30
0
11
10.78828
21
11.12049
31
0
0
LINE
8
A-DOOR
10
10.78828
20
11.12049
30
0
11
10.71913
21
11.24789
31
0
0
LINE
8
A-DOOR
10
10.71913
20
11.24789
30
0
11
10.62755
21
11.35889
31
0
0
LINE
8
A-DOOR
10
10.62755
20
11.35889
30
0
11
10.51655
21
11.45047
31
0
0
LINE
8
A-DOOR
10
10.51655
20
11.45047
30
0
11
10.38916
21
11.51962
31
0
0
LINE
8
A-DOOR
10
10.38916
20
11.51962
30
0
11
10.24837
21
11.56332
31
0
0
LINE
8
A-DOOR
10
10.24837
20
11.56332
30
0
11
10.09722
21
11.57856
31
0
0
LINE
8
A-ANNO-SYMB
10
10.54167
20
10.177
30
0
11
10.54026
21
10.19099
31
0
0
LINE
8
A-ANNO-SYMB
10
10.54026
20
10.19099
30
0
11
10.53621
21
10.20403
31
0
0
LINE
8
A-ANNO-SYMB
10
10.53621
20
10.20403
30
0
11
10.52981
21
10.21582
31
0
0
LINE
8
A-ANNO-SYMB
10
10.52981
20
10.21582
30
0
11
10.52133
21
10.2261
31
0
0
LINE
8
A-ANNO-SYMB
10
10.52133
20
10.2261
30
0
11
10.51105
21
10.23458
31
0
0
LINE
8
A-ANNO-SYMB
10
10.51105
20
10.23458
30
0
11
10.49925
21
10.24098
31
0
0
LINE
8
A-ANNO-SYMB
10
10.49925
20
10.24098
30
0
11
10.48622
21
10.24503
31
0
0
LINE
8
A-ANNO-SYMB
10
10.48622
20
10.24503
30
0
11
10.47222
21
10.24644
31
0
0
LINE
8
A-ANNO-SYMB
10
10.47222
20
10.24644
30
0
11
10.45823
21
10.24503
31
0
0
LINE
8
A-ANNO-SYMB
10
10.45823
20
10.24503
30
0
11
10.44519
21
10.24098
31
0
0
LINE
8
A-ANNO-SYMB
10
10.44519
20
10.24098
30
0
11
10.4334
21
10.23458
31
0
0
LINE
8
A-ANNO-SYMB
10
10.4334
20
10.23458
30
0
11
10.42312
21
10.2261
31
0
0
LINE
8
A-ANNO-SYMB
10
10.42312
20
10.2261
30
0
11
10.41464
21
10.21582
31
0
0
LINE
8
A-ANNO-SYMB
10
10.41464
20
10.21582
30
0
11
10.40824
21
10.20403
31
0
0
LINE
8
A-ANNO-SYMB
10
10.40824
20
10.20403
30
0
11
10.40419
21
10.19099
31
0
0
LINE
8
A-ANNO-SYMB
10
10.40419
20
10.19099
30
0
11
10.40278
21
10.177
31
0
0
LINE
8
A-ANNO-SYMB
10
10.40278
20
10.177
30
0
11
10.40419
21
10.163
31
0
0
LINE
8
A-ANNO-SYMB
10
10.40419
20
10.163
30
0
11
10.40824
21
10.14997
31
0
0
LINE
8
A-ANNO-SYMB
10
10.40824
20
10.14997
30
0
11
10.41464
21
10.13817
31
0
0
LINE
8
A-ANNO-SYMB
10
10.41464
20
10.13817
30
0
11
10.42312
21
10.12789
31
0
0
LINE
8
A-ANNO-SYMB
10
10.42312
20
10.12789
30
0
11
10.4334
21
10.11941
31
0
0
LINE
8
A-ANNO-SYMB
10
10.4334
20
10.11941
30
0
11
10.44519
21
10.11301
31
0
0
LINE
8
A-ANNO-SYMB
10
10.44519
20
10.11301
30
0
11
10.45823
21
10.10896
31
0
0
LINE
8
A-ANNO-SYMB
10
10.45823
20
10.10896
30
0
11
10.47222
21
10.10755
31
0
0
LINE
8
A-ANNO-SYMB
10
10.47222
20
10.10755
30
0
11
10.48622
21
10.10896
31
0
0
LINE
8
A-ANNO-SYMB
10
10.48622
20
10.10896
30
0
11
10.49925
21
10.11301
31
0
0
LINE
8
A-ANNO-SYMB
10
10.49925
20
10.11301
30
0
11
10.51105
21
10.11941
31
0
0
LINE
8
A-ANNO-SYMB
10
10.51105
20
10.11941
30
0
11
10.52133
21
10.12789
31
0
0
LINE
8
A-ANNO-SYMB
10
10.52133
20
10.12789
30
0
11
10.52981
21
10.13817
31
0
0
LINE
8
A-ANNO-SYMB
10
10.52981
20
10.13817
30
0
11
10.53621
21
10.14997
31
0
0
LINE
8
A-ANNO-SYMB
10
10.53621
20
10.14997
30
0
11
10.54026
21
10.163
31
0
0
LINE
8
A-ANNO-SYMB
10
10.54026
20
10.163
30
0
11
10.54167
21
10.177
31
0
0
TEXT
8
A-ANNO-SYMB
10
10.47222
20
10.14922
30
0
40
0.05
1
146
50
0
72
1
11
10.47222
21
10.14922
31
0
0
LINE
8
A-WALL
10
7.82118
20
10.82856
30
0
11
7.82118
21
18.977
31
0
0
LINE
8
A-WALL
10
7.90972
20
10.82856
30
0
11
7.90972
21
18.977
31
0
0
LINE
8
A-WALL
10
8.03472
20
10.82856
30
0
11
8.03472
21
18.977
31
0
0
LINE
8
A-WALL
10
8.12326
20
10.82856
30
0
11
8.12326
21
18.977
31
0
0
LINE
8
A-WALL
10
7.92144
20
8.20356
30
0
11
7.92144
21
10.727
31
0
0
LINE
8
A-WALL
10
8.023
20
8.20356
30
0
11
8.023
21
10.727
31
0
0
LINE
8
P-FIXT
10
7.37222
20
11.84028
30
0
11
7.82222
21
11.84028
31
0
0
LINE
8
P-FIXT
10
7.82222
20
11.84028
30
0
11
7.82222
21
12.02778
31
0
0
LINE
8
P-FIXT
10
7.82222
20
12.02778
30
0
11
7.37222
21
12.02778
31
0
0
LINE
8
P-FIXT
10
7.37222
20
12.02778
30
0
11
7.37222
21
11.84028
31
0
0
LINE
8
P-FIXT
10
7.78472
20
11.62778
30
0
11
7.78091
21
11.66557
31
0
0
LINE
8
P-FIXT
10
7.78091
20
11.66557
30
0
11
7.76999
21
11.70076
31
0
0
LINE
8
P-FIXT
10
7.76999
20
11.70076
30
0
11
7.7527
21
11.73261
31
0
0
LINE
8
P-FIXT
10
7.7527
20
11.73261
30
0
11
7.7298
21
11.76036
31
0
0
LINE
8
P-FIXT
10
7.7298
20
11.76036
30
0
11
7.70206
21
11.78326
31
0
0
LINE
8
P-FIXT
10
7.70206
20
11.78326
30
0
11
7.67021
21
11.80054
31
0
0
LINE
8
P-FIXT
10
7.67021
20
11.80054
30
0
11
7.63501
21
11.81147
31
0
0
LINE
8
P-FIXT
10
7.63501
20
11.81147
30
0
11
7.59722
21
11.81528
31
0
0
LINE
8
P-FIXT
10
7.59722
20
11.81528
30
0
11
7.55943
21
11.81147
31
0
0
LINE
8
P-FIXT
10
7.55943
20
11.81147
30
0
11
7.52424
21
11.80054
31
0
0
LINE
8
P-FIXT
10
7.52424
20
11.80054
30
0
11
7.49239
21
11.78326
31
0
0
LINE
8
P-FIXT
10
7.49239
20
11.78326
30
0
11
7.46464
21
11.76036
31
0
0
LINE
8
P-FIXT
10
7.46464
20
11.76036
30
0
11
7.44174
21
11.73261
31
0
0
LINE
8
P-FIXT
10
7.44174
20
11.73261
30
0
11
7.42446
21
11.70076
31
0
0
LINE
8
P-FIXT
10
7.42446
20
11.70076
30
0
11
7.41353
21
11.66557
31
0
0
LINE
8
P-FIXT
10
7.41353
20
11.66557
30
0
11
7.40972
21
11.62778
31
0
0
LINE
8
P-FIXT
10
7.40972
20
11.62778
30
0
11
7.41353
21
11.58999
31
0
0
LINE
8
P-FIXT
10
7.41353
20
11.58999
30
0
11
7.42446
21
11.55479
31
0
0
LINE
8
P-FIXT
10
7.42446
20
11.55479
30
0
11
7.44174
21
11.52294
31
0
0
LINE
8
P-FIXT
10
7.44174
20
11.52294
30
0
11
7.46464
21
11.4952
31
0
0
LINE
8
P-FIXT
10
7.46464
20
11.4952
30
0
11
7.49239
21
11.4723
31
0
0
LINE
8
P-FIXT
10
7.49239
20
11.4723
30
0
11
7.52424
21
11.45501
31
0
0
LINE
8
P-FIXT
10
7.52424
20
11.45501
30
0
11
7.55943
21
11.44409
31
0
0
LINE
8
P-FIXT
10
7.55943
20
11.44409
30
0
11
7.59722
21
11.44028
31
0
0
LINE
8
P-FIXT
10
7.59722
20
11.44028
30
0
11
7.63501
21
11.44409
31
0
0
LINE
8
P-FIXT
10
7.63501
20
11.44409
30
0
11
7.67021
21
11.45501
31
0
0
LINE
8
P-FIXT
10
7.67021
20
11.45501
30
0
11
7.70206
21
11.4723
31
0
0
LINE
8
P-FIXT
10
7.70206
20
11.4723
30
0
11
7.7298
21
11.4952
31
0
0
LINE
8
P-FIXT
10
7.7298
20
11.4952
30
0
11
7.7527
21
11.52294
31
0
0
LINE
8
P-FIXT
10
7.7527
20
11.52294
30
0
11
7.76999
21
11.55479
31
0
0
LINE
8
P-FIXT
10
7.76999
20
11.55479
30
0
11
7.78091
21
11.58999
31
0
0
LINE
8
P-FIXT
10
7.78091
20
11.58999
30
0
11
7.78472
21
11.62778
31
0
0
LINE
8
P-FIXT
10
8.12222
20
12.02778
30
0
11
8.57222
21
12.02778
31
0
0
LINE
8
P-FIXT
10
8.57222
20
12.02778
30
0
11
8.57222
21
12.21528
31
0
0
LINE
8
P-FIXT
10
8.57222
20
12.21528
30
0
11
8.12222
21
12.21528
31
0
0
LINE
8
P-FIXT
10
8.12222
20
12.21528
30
0
11
8.12222
21
12.02778
31
0
0
LINE
8
P-FIXT
10
8.53472
20
12.42778
30
0
11
8.53091
21
12.46557
31
0
0
LINE
8
P-FIXT
10
8.53091
20
12.46557
30
0
11
8.51999
21
12.50076
31
0
0
LINE
8
P-FIXT
10
8.51999
20
12.50076
30
0
11
8.5027
21
12.53261
31
0
0
LINE
8
P-FIXT
10
8.5027
20
12.53261
30
0
11
8.4798
21
12.56036
31
0
0
LINE
8
P-FIXT
10
8.4798
20
12.56036
30
0
11
8.45206
21
12.58326
31
0
0
LINE
8
P-FIXT
10
8.45206
20
12.58326
30
0
11
8.42021
21
12.60054
31
0
0
LINE
8
P-FIXT
10
8.42021
20
12.60054
30
0
11
8.38501
21
12.61147
31
0
0
LINE
8
P-FIXT
10
8.38501
20
12.61147
30
0
11
8.34722
21
12.61528
31
0
0
LINE
8
P-FIXT
10
8.34722
20
12.61528
30
0
11
8.30943
21
12.61147
31
0
0
LINE
8
P-FIXT
10
8.30943
20
12.61147
30
0
11
8.27424
21
12.60054
31
0
0
LINE
8
P-FIXT
10
8.27424
20
12.60054
30
0
11
8.24239
21
12.58326
31
0
0
LINE
8
P-FIXT
10
8.24239
20
12.58326
30
0
11
8.21464
21
12.56036
31
0
0
LINE
8
P-FIXT
10
8.21464
20
12.56036
30
0
11
8.19174
21
12.53261
31
0
0
LINE
8
P-FIXT
10
8.19174
20
12.53261
30
0
11
8.17446
21
12.50076
31
0
0
LINE
8
P-FIXT
10
8.17446
20
12.50076
30
0
11
8.16353
21
12.46557
31
0
0
LINE
8
P-FIXT
10
8.16353
20
12.46557
30
0
11
8.15972
21
12.42778
31
0
0
LINE
8
P-FIXT
10
8.15972
20
12.42778
30
0
11
8.16353
21
12.38999
31
0
0
LINE
8
P-FIXT
10
8.16353
20
12.38999
30
0
11
8.17446
21
12.35479
31
0
0
LINE
8
P-FIXT
10
8.17446
20
12.35479
30
0
11
8.19174
21
12.32294
31
0
0
LINE
8
P-FIXT
10
8.19174
20
12.32294
30
0
11
8.21464
21
12.2952
31
0
0
LINE
8
P-FIXT
10
8.21464
20
12.2952
30
0
11
8.24239
21
12.2723
31
0
0
LINE
8
P-FIXT
10
8.24239
20
12.2723
30
0
11
8.27424
21
12.25501
31
0
0
LINE
8
P-FIXT
10
8.27424
20
12.25501
30
0
11
8.30943
21
12.24409
31
0
0
LINE
8
P-FIXT
10
8.30943
20
12.24409
30
0
11
8.34722
21
12.24028
31
0
0
LINE
8
P-FIXT
10
8.34722
20
12.24028
30
0
11
8.38501
21
12.24409
31
0
0
LINE
8
P-FIXT
10
8.38501
20
12.24409
30
0
11
8.42021
21
12.25501
31
0
0
LINE
8
P-FIXT
10
8.42021
20
12.25501
30
0
11
8.45206
21
12.2723
31
0
0
LINE
8
P-FIXT
10
8.45206
20
12.2723
30
0
11
8.4798
21
12.2952
31
0
0
LINE
8
P-FIXT
10
8.4798
20
12.2952
30
0
11
8.5027
21
12.32294
31
0
0
LINE
8
P-FIXT
10
8.5027
20
12.32294
30
0
11
8.51999
21
12.35479
31
0
0
LINE
8
P-FIXT
10
8.51999
20
12.35479
30
0
11
8.53091
21
12.38999
31
0
0
LINE
8
P-FIXT
10
8.53091
20
12.38999
30
0
11
8.53472
21
12.42778
31
0
0
LINE
8
P-FIXT
10
7.37222
20
13.34028
30
0
11
7.82222
21
13.34028
31
0
0
LINE
8
P-FIXT
10
7.82222
20
13.34028
30
0
11
7.82222
21
13.52778
31
0
0
LINE
8
P-FIXT
10
7.82222
20
13.52778
30
0
11
7.37222
21
13.52778
31
0
0
LINE
8
P-FIXT
10
7.37222
20
13.52778
30
0
11
7.37222
21
13.34028
31
0
0
LINE
8
P-FIXT
10
7.78472
20
13.12778
30
0
11
7.78091
21
13.16557
31
0
0
LINE
8
P-FIXT
10
7.78091
20
13.16557
30
0
11
7.76999
21
13.20076
31
0
0
LINE
8
P-FIXT
10
7.76999
20
13.20076
30
0
11
7.7527
21
13.23261
31
0
0
LINE
8
P-FIXT
10
7.7527
20
13.23261
30
0
11
7.7298
21
13.26036
31
0
0
LINE
8
P-FIXT
10
7.7298
20
13.26036
30
0
11
7.70206
21
13.28326
31
0
0
LINE
8
P-FIXT
10
7.70206
20
13.28326
30
0
11
7.67021
21
13.30054
31
0
0
LINE
8
P-FIXT
10
7.67021
20
13.30054
30
0
11
7.63501
21
13.31147
31
0
0
LINE
8
P-FIXT
10
7.63501
20
13.31147
30
0
11
7.59722
21
13.31528
31
0
0
LINE
8
P-FIXT
10
7.59722
20
13.31528
30
0
11
7.55943
21
13.31147
31
0
0
LINE
8
P-FIXT
10
7.55943
20
13.31147
30
0
11
7.52424
21
13.30054
31
0
0
LINE
8
P-FIXT
10
7.52424
20
13.30054
30
0
11
7.49239
21
13.28326
31
0
0
LINE
8
P-FIXT
10
7.49239
20
13.28326
30
0
11
7.46464
21
13.26036
31
0
0
LINE
8
P-FIXT
10
7.46464
20
13.26036
30
0
11
7.44174
21
13.23261
31
0
0
LINE
8
P-FIXT
10
7.44174
20
13.23261
30
0
11
7.42446
21
13.20076
31
0
0
LINE
8
P-FIXT
10
7.42446
20
13.20076
30
0
11
7.41353
21
13.16557
31
0
0
LINE
8
P-FIXT
10
7.41353
20
13.16557
30
0
11
7.40972
21
13.12778
31
0
0
LINE
8
P-FIXT
10
7.40972
20
13.12778
30
0
11
7.41353
21
13.08999
31
0
0
LINE
8
P-FIXT
10
7.41353
20
13.08999
30
0
11
7.42446
21
13.05479
31
0
0
LINE
8
P-FIXT
10
7.42446
20
13.05479
30
0
11
7.44174
21
13.02294
31
0
0
LINE
8
P-FIXT
10
7.44174
20
13.02294
30
0
11
7.46464
21
12.9952
31
0
0
LINE
8
P-FIXT
10
7.46464
20
12.9952
30
0
11
7.49239
21
12.9723
31
0
0
LINE
8
P-FIXT
10
7.49239
20
12.9723
30
0
11
7.52424
21
12.95501
31
0
0
LINE
8
P-FIXT
10
7.52424
20
12.95501
30
0
11
7.55943
21
12.94409
31
0
0
LINE
8
P-FIXT
10
7.55943
20
12.94409
30
0
11
7.59722
21
12.94028
31
0
0
LINE
8
P-FIXT
10
7.59722
20
12.94028
30
0
11
7.63501
21
12.94409
31
0
0
LINE
8
P-FIXT
10
7.63501
20
12.94409
30
0
11
7.67021
21
12.95501
31
0
0
LINE
8
P-FIXT
10
7.67021
20
12.95501
30
0
11
7.70206
21
12.9723
31
0
0
LINE
8
P-FIXT
10
7.70206
20
12.9723
30
0
11
7.7298
21
12.9952
31
0
0
LINE
8
P-FIXT
10
7.7298
20
12.9952
30
0
11
7.7527
21
13.02294
31
0
0
LINE
8
P-FIXT
10
7.7527
20
13.02294
30
0
11
7.76999
21
13.05479
31
0
0
LINE
8
P-FIXT
10
7.76999
20
13.05479
30
0
11
7.78091
21
13.08999
31
0
0
LINE
8
P-FIXT
10
7.78091
20
13.08999
30
0
11
7.78472
21
13.12778
31
0
0
LINE
8
P-FIXT
10
8.12222
20
13.52778
30
0
11
8.57222
21
13.52778
31
0
0
LINE
8
P-FIXT
10
8.57222
20
13.52778
30
0
11
8.57222
21
13.71528
31
0
0
LINE
8
P-FIXT
10
8.57222
20
13.71528
30
0
11
8.12222
21
13.71528
31
0
0
LINE
8
P-FIXT
10
8.12222
20
13.71528
30
0
11
8.12222
21
13.52778
31
0
0
LINE
8
P-FIXT
10
8.53472
20
13.92778
30
0
11
8.53091
21
13.96557
31
0
0
LINE
8
P-FIXT
10
8.53091
20
13.96557
30
0
11
8.51999
21
14.00076
31
0
0
LINE
8
P-FIXT
10
8.51999
20
14.00076
30
0
11
8.5027
21
14.03261
31
0
0
LINE
8
P-FIXT
10
8.5027
20
14.03261
30
0
11
8.4798
21
14.06036
31
0
0
LINE
8
P-FIXT
10
8.4798
20
14.06036
30
0
11
8.45206
21
14.08326
31
0
0
LINE
8
P-FIXT
10
8.45206
20
14.08326
30
0
11
8.42021
21
14.10054
31
0
0
LINE
8
P-FIXT
10
8.42021
20
14.10054
30
0
11
8.38501
21
14.11147
31
0
0
LINE
8
P-FIXT
10
8.38501
20
14.11147
30
0
11
8.34722
21
14.11528
31
0
0
LINE
8
P-FIXT
10
8.34722
20
14.11528
30
0
11
8.30943
21
14.11147
31
0
0
LINE
8
P-FIXT
10
8.30943
20
14.11147
30
0
11
8.27424
21
14.10054
31
0
0
LINE
8
P-FIXT
10
8.27424
20
14.10054
30
0
11
8.24239
21
14.08326
31
0
0
LINE
8
P-FIXT
10
8.24239
20
14.08326
30
0
11
8.21464
21
14.06036
31
0
0
LINE
8
P-FIXT
10
8.21464
20
14.06036
30
0
11
8.19174
21
14.03261
31
0
0
LINE
8
P-FIXT
10
8.19174
20
14.03261
30
0
11
8.17446
21
14.00076
31
0
0
LINE
8
P-FIXT
10
8.17446
20
14.00076
30
0
11
8.16353
21
13.96557
31
0
0
LINE
8
P-FIXT
10
8.16353
20
13.96557
30
0
11
8.15972
21
13.92778
31
0
0
LINE
8
P-FIXT
10
8.15972
20
13.92778
30
0
11
8.16353
21
13.88999
31
0
0
LINE
8
P-FIXT
10
8.16353
20
13.88999
30
0
11
8.17446
21
13.85479
31
0
0
LINE
8
P-FIXT
10
8.17446
20
13.85479
30
0
11
8.19174
21
13.82294
31
0
0
LINE
8
P-FIXT
10
8.19174
20
13.82294
30
0
11
8.21464
21
13.7952
31
0
0
LINE
8
P-FIXT
10
8.21464
20
13.7952
30
0
11
8.24239
21
13.7723
31
0
0
LINE
8
P-FIXT
10
8.24239
20
13.7723
30
0
11
8.27424
21
13.75501
31
0
0
LINE
8
P-FIXT
10
8.27424
20
13.75501
30
0
11
8.30943
21
13.74409
31
0
0
LINE
8
P-FIXT
10
8.30943
20
13.74409
30
0
11
8.34722
21
13.74028
31
0
0
LINE
8
P-FIXT
10
8.34722
20
13.74028
30
0
11
8.38501
21
13.74409
31
0
0
LINE
8
P-FIXT
10
8.38501
20
13.74409
30
0
11
8.42021
21
13.75501
31
0
0
LINE
8
P-FIXT
10
8.42021
20
13.75501
30
0
11
8.45206
21
13.7723
31
0
0
LINE
8
P-FIXT
10
8.45206
20
13.7723
30
0
11
8.4798
21
13.7952
31
0
0
LINE
8
P-FIXT
10
8.4798
20
13.7952
30
0
11
8.5027
21
13.82294
31
0
0
LINE
8
P-FIXT
10
8.5027
20
13.82294
30
0
11
8.51999
21
13.85479
31
0
0
LINE
8
P-FIXT
10
8.51999
20
13.85479
30
0
11
8.53091
21
13.88999
31
0
0
LINE
8
P-FIXT
10
8.53091
20
13.88999
30
0
11
8.53472
21
13.92778
31
0
0
LINE
8
P-FIXT
10
7.37222
20
14.84028
30
0
11
7.82222
21
14.84028
31
0
0
LINE
8
P-FIXT
10
7.82222
20
14.84028
30
0
11
7.82222
21
15.02778
31
0
0
LINE
8
P-FIXT
10
7.82222
20
15.02778
30
0
11
7.37222
21
15.02778
31
0
0
LINE
8
P-FIXT
10
7.37222
20
15.02778
30
0
11
7.37222
21
14.84028
31
0
0
LINE
8
P-FIXT
10
7.78472
20
14.62778
30
0
11
7.78091
21
14.66557
31
0
0
LINE
8
P-FIXT
10
7.78091
20
14.66557
30
0
11
7.76999
21
14.70076
31
0
0
LINE
8
P-FIXT
10
7.76999
20
14.70076
30
0
11
7.7527
21
14.73261
31
0
0
LINE
8
P-FIXT
10
7.7527
20
14.73261
30
0
11
7.7298
21
14.76036
31
0
0
LINE
8
P-FIXT
10
7.7298
20
14.76036
30
0
11
7.70206
21
14.78326
31
0
0
LINE
8
P-FIXT
10
7.70206
20
14.78326
30
0
11
7.67021
21
14.80054
31
0
0
LINE
8
P-FIXT
10
7.67021
20
14.80054
30
0
11
7.63501
21
14.81147
31
0
0
LINE
8
P-FIXT
10
7.63501
20
14.81147
30
0
11
7.59722
21
14.81528
31
0
0
LINE
8
P-FIXT
10
7.59722
20
14.81528
30
0
11
7.55943
21
14.81147
31
0
0
LINE
8
P-FIXT
10
7.55943
20
14.81147
30
0
11
7.52424
21
14.80054
31
0
0
LINE
8
P-FIXT
10
7.52424
20
14.80054
30
0
11
7.49239
21
14.78326
31
0
0
LINE
8
P-FIXT
10
7.49239
20
14.78326
30
0
11
7.46464
21
14.76036
31
0
0
LINE
8
P-FIXT
10
7.46464
20
14.76036
30
0
11
7.44174
21
14.73261
31
0
0
LINE
8
P-FIXT
10
7.44174
20
14.73261
30
0
11
7.42446
21
14.70076
31
0
0
LINE
8
P-FIXT
10
7.42446
20
14.70076
30
0
11
7.41353
21
14.66557
31
0
0
LINE
8
P-FIXT
10
7.41353
20
14.66557
30
0
11
7.40972
21
14.62778
31
0
0
LINE
8
P-FIXT
10
7.40972
20
14.62778
30
0
11
7.41353
21
14.58999
31
0
0
LINE
8
P-FIXT
10
7.41353
20
14.58999
30
0
11
7.42446
21
14.55479
31
0
0
LINE
8
P-FIXT
10
7.42446
20
14.55479
30
0
11
7.44174
21
14.52294
31
0
0
LINE
8
P-FIXT
10
7.44174
20
14.52294
30
0
11
7.46464
21
14.4952
31
0
0
LINE
8
P-FIXT
10
7.46464
20
14.4952
30
0
11
7.49239
21
14.4723
31
0
0
LINE
8
P-FIXT
10
7.49239
20
14.4723
30
0
11
7.52424
21
14.45501
31
0
0
LINE
8
P-FIXT
10
7.52424
20
14.45501
30
0
11
7.55943
21
14.44409
31
0
0
LINE
8
P-FIXT
10
7.55943
20
14.44409
30
0
11
7.59722
21
14.44028
31
0
0
LINE
8
P-FIXT
10
7.59722
20
14.44028
30
0
11
7.63501
21
14.44409
31
0
0
LINE
8
P-FIXT
10
7.63501
20
14.44409
30
0
11
7.67021
21
14.45501
31
0
0
LINE
8
P-FIXT
10
7.67021
20
14.45501
30
0
11
7.70206
21
14.4723
31
0
0
LINE
8
P-FIXT
10
7.70206
20
14.4723
30
0
11
7.7298
21
14.4952
31
0
0
LINE
8
P-FIXT
10
7.7298
20
14.4952
30
0
11
7.7527
21
14.52294
31
0
0
LINE
8
P-FIXT
10
7.7527
20
14.52294
30
0
11
7.76999
21
14.55479
31
0
0
LINE
8
P-FIXT
10
7.76999
20
14.55479
30
0
11
7.78091
21
14.58999
31
0
0
LINE
8
P-FIXT
10
7.78091
20
14.58999
30
0
11
7.78472
21
14.62778
31
0
0
LINE
8
P-FIXT
10
8.12222
20
15.02778
30
0
11
8.57222
21
15.02778
31
0
0
LINE
8
P-FIXT
10
8.57222
20
15.02778
30
0
11
8.57222
21
15.21528
31
0
0
LINE
8
P-FIXT
10
8.57222
20
15.21528
30
0
11
8.12222
21
15.21528
31
0
0
LINE
8
P-FIXT
10
8.12222
20
15.21528
30
0
11
8.12222
21
15.02778
31
0
0
LINE
8
P-FIXT
10
8.53472
20
15.42778
30
0
11
8.53091
21
15.46557
31
0
0
LINE
8
P-FIXT
10
8.53091
20
15.46557
30
0
11
8.51999
21
15.50076
31
0
0
LINE
8
P-FIXT
10
8.51999
20
15.50076
30
0
11
8.5027
21
15.53261
31
0
0
LINE
8
P-FIXT
10
8.5027
20
15.53261
30
0
11
8.4798
21
15.56036
31
0
0
LINE
8
P-FIXT
10
8.4798
20
15.56036
30
0
11
8.45206
21
15.58326
31
0
0
LINE
8
P-FIXT
10
8.45206
20
15.58326
30
0
11
8.42021
21
15.60054
31
0
0
LINE
8
P-FIXT
10
8.42021
20
15.60054
30
0
11
8.38501
21
15.61147
31
0
0
LINE
8
P-FIXT
10
8.38501
20
15.61147
30
0
11
8.34722
21
15.61528
31
0
0
LINE
8
P-FIXT
10
8.34722
20
15.61528
30
0
11
8.30943
21
15.61147
31
0
0
LINE
8
P-FIXT
10
8.30943
20
15.61147
30
0
11
8.27424
21
15.60054
31
0
0
LINE
8
P-FIXT
10
8.27424
20
15.60054
30
0
11
8.24239
21
15.58326
31
0
0
LINE
8
P-FIXT
10
8.24239
20
15.58326
30
0
11
8.21464
21
15.56036
31
0
0
LINE
8
P-FIXT
10
8.21464
20
15.56036
30
0
11
8.19174
21
15.53261
31
0
0
LINE
8
P-FIXT
10
8.19174
20
15.53261
30
0
11
8.17446
21
15.50076
31
0
0
LINE
8
P-FIXT
10
8.17446
20
15.50076
30
0
11
8.16353
21
15.46557
31
0
0
LINE
8
P-FIXT
10
8.16353
20
15.46557
30
0
11
8.15972
21
15.42778
31
0
0
LINE
8
P-FIXT
10
8.15972
20
15.42778
30
0
11
8.16353
21
15.38999
31
0
0
LINE
8
P-FIXT
10
8.16353
20
15.38999
30
0
11
8.17446
21
15.35479
31
0
0
LINE
8
P-FIXT
10
8.17446
20
15.35479
30
0
11
8.19174
21
15.32294
31
0
0
LINE
8
P-FIXT
10
8.19174
20
15.32294
30
0
11
8.21464
21
15.2952
31
0
0
LINE
8
P-FIXT
10
8.21464
20
15.2952
30
0
11
8.24239
21
15.2723
31
0
0
LINE
8
P-FIXT
10
8.24239
20
15.2723
30
0
11
8.27424
21
15.25501
31
0
0
LINE
8
P-FIXT
10
8.27424
20
15.25501
30
0
11
8.30943
21
15.24409
31
0
0
LINE
8
P-FIXT
10
8.30943
20
15.24409
30
0
11
8.34722
21
15.24028
31
0
0
LINE
8
P-FIXT
10
8.34722
20
15.24028
30
0
11
8.38501
21
15.24409
31
0
0
LINE
8
P-FIXT
10
8.38501
20
15.24409
30
0
11
8.42021
21
15.25501
31
0
0
LINE
8
P-FIXT
10
8.42021
20
15.25501
30
0
11
8.45206
21
15.2723
31
0
0
LINE
8
P-FIXT
10
8.45206
20
15.2723
30
0
11
8.4798
21
15.2952
31
0
0
LINE
8
P-FIXT
10
8.4798
20
15.2952
30
0
11
8.5027
21
15.32294
31
0
0
LINE
8
P-FIXT
10
8.5027
20
15.32294
30
0
11
8.51999
21
15.35479
31
0
0
LINE
8
P-FIXT
10
8.51999
20
15.35479
30
0
11
8.53091
21
15.38999
31
0
0
LINE
8
P-FIXT
10
8.53091
20
15.38999
30
0
11
8.53472
21
15.42778
31
0
0
LINE
8
P-FIXT
10
7.24722
20
16.40278
30
0
11
7.69722
21
16.40278
31
0
0
LINE
8
P-FIXT
10
7.69722
20
16.40278
30
0
11
7.69722
21
16.77778
31
0
0
LINE
8
P-FIXT
10
7.69722
20
16.77778
30
0
11
7.24722
21
16.77778
31
0
0
LINE
8
P-FIXT
10
7.24722
20
16.77778
30
0
11
7.24722
21
16.40278
31
0
0
LINE
8
P-FIXT
10
7.59722
20
16.59028
30
0
11
7.59468
21
16.61547
31
0
0
LINE
8
P-FIXT
10
7.59468
20
16.61547
30
0
11
7.5874
21
16.63893
31
0
0
LINE
8
P-FIXT
10
7.5874
20
16.63893
30
0
11
7.57587
21
16.66017
31
0
0
LINE
8
P-FIXT
10
7.57587
20
16.66017
30
0
11
7.56061
21
16.67867
31
0
0
LINE
8
P-FIXT
10
7.56061
20
16.67867
30
0
11
7.54211
21
16.69393
31
0
0
LINE
8
P-FIXT
10
7.54211
20
16.69393
30
0
11
7.52088
21
16.70545
31
0
0
LINE
8
P-FIXT
10
7.52088
20
16.70545
30
0
11
7.49741
21
16.71274
31
0
0
LINE
8
P-FIXT
10
7.49741
20
16.71274
30
0
11
7.47222
21
16.71528
31
0
0
LINE
8
P-FIXT
10
7.47222
20
16.71528
30
0
11
7.44703
21
16.71274
31
0
0
LINE
8
P-FIXT
10
7.44703
20
16.71274
30
0
11
7.42357
21
16.70545
31
0
0
LINE
8
P-FIXT
10
7.42357
20
16.70545
30
0
11
7.40233
21
16.69393
31
0
0
LINE
8
P-FIXT
10
7.40233
20
16.69393
30
0
11
7.38383
21
16.67867
31
0
0
LINE
8
P-FIXT
10
7.38383
20
16.67867
30
0
11
7.36857
21
16.66017
31
0
0
LINE
8
P-FIXT
10
7.36857
20
16.66017
30
0
11
7.35705
21
16.63893
31
0
0
LINE
8
P-FIXT
10
7.35705
20
16.63893
30
0
11
7.34976
21
16.61547
31
0
0
LINE
8
P-FIXT
10
7.34976
20
16.61547
30
0
11
7.34722
21
16.59028
31
0
0
LINE
8
P-FIXT
10
7.34722
20
16.59028
30
0
11
7.34976
21
16.56509
31
0
0
LINE
8
P-FIXT
10
7.34976
20
16.56509
30
0
11
7.35705
21
16.54162
31
0
0
LINE
8
P-FIXT
10
7.35705
20
16.54162
30
0
11
7.36857
21
16.52039
31
0
0
LINE
8
P-FIXT
10
7.36857
20
16.52039
30
0
11
7.38383
21
16.50189
31
0
0
LINE
8
P-FIXT
10
7.38383
20
16.50189
30
0
11
7.40233
21
16.48663
31
0
0
LINE
8
P-FIXT
10
7.40233
20
16.48663
30
0
11
7.42357
21
16.4751
31
0
0
LINE
8
P-FIXT
10
7.42357
20
16.4751
30
0
11
7.44703
21
16.46782
31
0
0
LINE
8
P-FIXT
10
7.44703
20
16.46782
30
0
11
7.47222
21
16.46528
31
0
0
LINE
8
P-FIXT
10
7.47222
20
16.46528
30
0
11
7.49741
21
16.46782
31
0
0
LINE
8
P-FIXT
10
7.49741
20
16.46782
30
0
11
7.52088
21
16.4751
31
0
0
LINE
8
P-FIXT
10
7.52088
20
16.4751
30
0
11
7.54211
21
16.48663
31
0
0
LINE
8
P-FIXT
10
7.54211
20
16.48663
30
0
11
7.56061
21
16.50189
31
0
0
LINE
8
P-FIXT
10
7.56061
20
16.50189
30
0
11
7.57587
21
16.52039
31
0
0
LINE
8
P-FIXT
10
7.57587
20
16.52039
30
0
11
7.5874
21
16.54162
31
0
0
LINE
8
P-FIXT
10
7.5874
20
16.54162
30
0
11
7.59468
21
16.56509
31
0
0
LINE
8
P-FIXT
10
7.59468
20
16.56509
30
0
11
7.59722
21
16.59028
31
0
0
LINE
8
P-FIXT
10
8.37222
20
16.40278
30
0
11
8.82222
21
16.40278
31
0
0
LINE
8
P-FIXT
10
8.82222
20
16.40278
30
0
11
8.82222
21
16.77778
31
0
0
LINE
8
P-FIXT
10
8.82222
20
16.77778
30
0
11
8.37222
21
16.77778
31
0
0
LINE
8
P-FIXT
10
8.37222
20
16.77778
30
0
11
8.37222
21
16.40278
31
0
0
LINE
8
P-FIXT
10
8.72222
20
16.59028
30
0
11
8.71968
21
16.61547
31
0
0
LINE
8
P-FIXT
10
8.71968
20
16.61547
30
0
11
8.7124
21
16.63893
31
0
0
LINE
8
P-FIXT
10
8.7124
20
16.63893
30
0
11
8.70087
21
16.66017
31
0
0
LINE
8
P-FIXT
10
8.70087
20
16.66017
30
0
11
8.68561
21
16.67867
31
0
0
LINE
8
P-FIXT
10
8.68561
20
16.67867
30
0
11
8.66711
21
16.69393
31
0
0
LINE
8
P-FIXT
10
8.66711
20
16.69393
30
0
11
8.64588
21
16.70545
31
0
0
LINE
8
P-FIXT
10
8.64588
20
16.70545
30
0
11
8.62241
21
16.71274
31
0
0
LINE
8
P-FIXT
10
8.62241
20
16.71274
30
0
11
8.59722
21
16.71528
31
0
0
LINE
8
P-FIXT
10
8.59722
20
16.71528
30
0
11
8.57203
21
16.71274
31
0
0
LINE
8
P-FIXT
10
8.57203
20
16.71274
30
0
11
8.54857
21
16.70545
31
0
0
LINE
8
P-FIXT
10
8.54857
20
16.70545
30
0
11
8.52733
21
16.69393
31
0
0
LINE
8
P-FIXT
10
8.52733
20
16.69393
30
0
11
8.50883
21
16.67867
31
0
0
LINE
8
P-FIXT
10
8.50883
20
16.67867
30
0
11
8.49357
21
16.66017
31
0
0
LINE
8
P-FIXT
10
8.49357
20
16.66017
30
0
11
8.48205
21
16.63893
31
0
0
LINE
8
P-FIXT
10
8.48205
20
16.63893
30
0
11
8.47476
21
16.61547
31
0
0
LINE
8
P-FIXT
10
8.47476
20
16.61547
30
0
11
8.47222
21
16.59028
31
0
0
LINE
8
P-FIXT
10
8.47222
20
16.59028
30
0
11
8.47476
21
16.56509
31
0
0
LINE
8
P-FIXT
10
8.47476
20
16.56509
30
0
11
8.48205
21
16.54162
31
0
0
LINE
8
P-FIXT
10
8.48205
20
16.54162
30
0
11
8.49357
21
16.52039
31
0
0
LINE
8
P-FIXT
10
8.49357
20
16.52039
30
0
11
8.50883
21
16.50189
31
0
0
LINE
8
P-FIXT
10
8.50883
20
16.50189
30
0
11
8.52733
21
16.48663
31
0
0
LINE
8
P-FIXT
10
8.52733
20
16.48663
30
0
11
8.54857
21
16.4751
31
0
0
LINE
8
P-FIXT
10
8.54857
20
16.4751
30
0
11
8.57203
21
16.46782
31
0
0
LINE
8
P-FIXT
10
8.57203
20
16.46782
30
0
11
8.59722
21
16.46528
31
0
0
LINE
8
P-FIXT
10
8.59722
20
16.46528
30
0
11
8.62241
21
16.46782
31
0
0
LINE
8
P-FIXT
10
8.62241
20
16.46782
30
0
11
8.64588
21
16.4751
31
0
0
LINE
8
P-FIXT
10
8.64588
20
16.4751
30
0
11
8.66711
21
16.48663
31
0
0
LINE
8
P-FIXT
10
8.66711
20
16.48663
30
0
11
8.68561
21
16.50189
31
0
0
LINE
8
P-FIXT
10
8.68561
20
16.50189
30
0
11
8.70087
21
16.52039
31
0
0
LINE
8
P-FIXT
10
8.70087
20
16.52039
30
0
11
8.7124
21
16.54162
31
0
0
LINE
8
P-FIXT
10
8.7124
20
16.54162
30
0
11
8.71968
21
16.56509
31
0
0
LINE
8
P-FIXT
10
8.71968
20
16.56509
30
0
11
8.72222
21
16.59028
31
0
0
LINE
8
P-FIXT
10
7.24722
20
17.40278
30
0
11
7.69722
21
17.40278
31
0
0
LINE
8
P-FIXT
10
7.69722
20
17.40278
30
0
11
7.69722
21
17.77778
31
0
0
LINE
8
P-FIXT
10
7.69722
20
17.77778
30
0
11
7.24722
21
17.77778
31
0
0
LINE
8
P-FIXT
10
7.24722
20
17.77778
30
0
11
7.24722
21
17.40278
31
0
0
LINE
8
P-FIXT
10
7.59722
20
17.59028
30
0
11
7.59468
21
17.61547
31
0
0
LINE
8
P-FIXT
10
7.59468
20
17.61547
30
0
11
7.5874
21
17.63893
31
0
0
LINE
8
P-FIXT
10
7.5874
20
17.63893
30
0
11
7.57587
21
17.66017
31
0
0
LINE
8
P-FIXT
10
7.57587
20
17.66017
30
0
11
7.56061
21
17.67867
31
0
0
LINE
8
P-FIXT
10
7.56061
20
17.67867
30
0
11
7.54211
21
17.69393
31
0
0
LINE
8
P-FIXT
10
7.54211
20
17.69393
30
0
11
7.52088
21
17.70545
31
0
0
LINE
8
P-FIXT
10
7.52088
20
17.70545
30
0
11
7.49741
21
17.71274
31
0
0
LINE
8
P-FIXT
10
7.49741
20
17.71274
30
0
11
7.47222
21
17.71528
31
0
0
LINE
8
P-FIXT
10
7.47222
20
17.71528
30
0
11
7.44703
21
17.71274
31
0
0
LINE
8
P-FIXT
10
7.44703
20
17.71274
30
0
11
7.42357
21
17.70545
31
0
0
LINE
8
P-FIXT
10
7.42357
20
17.70545
30
0
11
7.40233
21
17.69393
31
0
0
LINE
8
P-FIXT
10
7.40233
20
17.69393
30
0
11
7.38383
21
17.67867
31
0
0
LINE
8
P-FIXT
10
7.38383
20
17.67867
30
0
11
7.36857
21
17.66017
31
0
0
LINE
8
P-FIXT
10
7.36857
20
17.66017
30
0
11
7.35705
21
17.63893
31
0
0
LINE
8
P-FIXT
10
7.35705
20
17.63893
30
0
11
7.34976
21
17.61547
31
0
0
LINE
8
P-FIXT
10
7.34976
20
17.61547
30
0
11
7.34722
21
17.59028
31
0
0
LINE
8
P-FIXT
10
7.34722
20
17.59028
30
0
11
7.34976
21
17.56509
31
0
0
LINE
8
P-FIXT
10
7.34976
20
17.56509
30
0
11
7.35705
21
17.54162
31
0
0
LINE
8
P-FIXT
10
7.35705
20
17.54162
30
0
11
7.36857
21
17.52039
31
0
0
LINE
8
P-FIXT
10
7.36857
20
17.52039
30
0
11
7.38383
21
17.50189
31
0
0
LINE
8
P-FIXT
10
7.38383
20
17.50189
30
0
11
7.40233
21
17.48663
31
0
0
LINE
8
P-FIXT
10
7.40233
20
17.48663
30
0
11
7.42357
21
17.4751
31
0
0
LINE
8
P-FIXT
10
7.42357
20
17.4751
30
0
11
7.44703
21
17.46782
31
0
0
LINE
8
P-FIXT
10
7.44703
20
17.46782
30
0
11
7.47222
21
17.46528
31
0
0
LINE
8
P-FIXT
10
7.47222
20
17.46528
30
0
11
7.49741
21
17.46782
31
0
0
LINE
8
P-FIXT
10
7.49741
20
17.46782
30
0
11
7.52088
21
17.4751
31
0
0
LINE
8
P-FIXT
10
7.52088
20
17.4751
30
0
11
7.54211
21
17.48663
31
0
0
LINE
8
P-FIXT
10
7.54211
20
17.48663
30
0
11
7.56061
21
17.50189
31
0
0
LINE
8
P-FIXT
10
7.56061
20
17.50189
30
0
11
7.57587
21
17.52039
31
0
0
LINE
8
P-FIXT
10
7.57587
20
17.52039
30
0
11
7.5874
21
17.54162
31
0
0
LINE
8
P-FIXT
10
7.5874
20
17.54162
30
0
11
7.59468
21
17.56509
31
0
0
LINE
8
P-FIXT
10
7.59468
20
17.56509
30
0
11
7.59722
21
17.59028
31
0
0
LINE
8
P-FIXT
10
8.37222
20
17.40278
30
0
11
8.82222
21
17.40278
31
0
0
LINE
8
P-FIXT
10
8.82222
20
17.40278
30
0
11
8.82222
21
17.77778
31
0
0
LINE
8
P-FIXT
10
8.82222
20
17.77778
30
0
11
8.37222
21
17.77778
31
0
0
LINE
8
P-FIXT
10
8.37222
20
17.77778
30
0
11
8.37222
21
17.40278
31
0
0
LINE
8
P-FIXT
10
8.72222
20
17.59028
30
0
11
8.71968
21
17.61547
31
0
0
LINE
8
P-FIXT
10
8.71968
20
17.61547
30
0
11
8.7124
21
17.63893
31
0
0
LINE
8
P-FIXT
10
8.7124
20
17.63893
30
0
11
8.70087
21
17.66017
31
0
0
LINE
8
P-FIXT
10
8.70087
20
17.66017
30
0
11
8.68561
21
17.67867
31
0
0
LINE
8
P-FIXT
10
8.68561
20
17.67867
30
0
11
8.66711
21
17.69393
31
0
0
LINE
8
P-FIXT
10
8.66711
20
17.69393
30
0
11
8.64588
21
17.70545
31
0
0
LINE
8
P-FIXT
10
8.64588
20
17.70545
30
0
11
8.62241
21
17.71274
31
0
0
LINE
8
P-FIXT
10
8.62241
20
17.71274
30
0
11
8.59722
21
17.71528
31
0
0
LINE
8
P-FIXT
10
8.59722
20
17.71528
30
0
11
8.57203
21
17.71274
31
0
0
LINE
8
P-FIXT
10
8.57203
20
17.71274
30
0
11
8.54857
21
17.70545
31
0
0
LINE
8
P-FIXT
10
8.54857
20
17.70545
30
0
11
8.52733
21
17.69393
31
0
0
LINE
8
P-FIXT
10
8.52733
20
17.69393
30
0
11
8.50883
21
17.67867
31
0
0
LINE
8
P-FIXT
10
8.50883
20
17.67867
30
0
11
8.49357
21
17.66017
31
0
0
LINE
8
P-FIXT
10
8.49357
20
17.66017
30
0
11
8.48205
21
17.63893
31
0
0
LINE
8
P-FIXT
10
8.48205
20
17.63893
30
0
11
8.47476
21
17.61547
31
0
0
LINE
8
P-FIXT
10
8.47476
20
17.61547
30
0
11
8.47222
21
17.59028
31
0
0
LINE
8
P-FIXT
10
8.47222
20
17.59028
30
0
11
8.47476
21
17.56509
31
0
0
LINE
8
P-FIXT
10
8.47476
20
17.56509
30
0
11
8.48205
21
17.54162
31
0
0
LINE
8
P-FIXT
10
8.48205
20
17.54162
30
0
11
8.49357
21
17.52039
31
0
0
LINE
8
P-FIXT
10
8.49357
20
17.52039
30
0
11
8.50883
21
17.50189
31
0
0
LINE
8
P-FIXT
10
8.50883
20
17.50189
30
0
11
8.52733
21
17.48663
31
0
0
LINE
8
P-FIXT
10
8.52733
20
17.48663
30
0
11
8.54857
21
17.4751
31
0
0
LINE
8
P-FIXT
10
8.54857
20
17.4751
30
0
11
8.57203
21
17.46782
31
0
0
LINE
8
P-FIXT
10
8.57203
20
17.46782
30
0
11
8.59722
21
17.46528
31
0
0
LINE
8
P-FIXT
10
8.59722
20
17.46528
30
0
11
8.62241
21
17.46782
31
0
0
LINE
8
P-FIXT
10
8.62241
20
17.46782
30
0
11
8.64588
21
17.4751
31
0
0
LINE
8
P-FIXT
10
8.64588
20
17.4751
30
0
11
8.66711
21
17.48663
31
0
0
LINE
8
P-FIXT
10
8.66711
20
17.48663
30
0
11
8.68561
21
17.50189
31
0
0
LINE
8
P-FIXT
10
8.68561
20
17.50189
30
0
11
8.70087
21
17.52039
31
0
0
LINE
8
P-FIXT
10
8.70087
20
17.52039
30
0
11
8.7124
21
17.54162
31
0
0
LINE
8
P-FIXT
10
8.7124
20
17.54162
30
0
11
8.71968
21
17.56509
31
0
0
LINE
8
P-FIXT
10
8.71968
20
17.56509
30
0
11
8.72222
21
17.59028
31
0
0
LINE
8
P-FIXT
10
6.09722
20
12.76736
30
0
11
7.82222
21
12.76736
31
0
0
LINE
8
P-FIXT
10
8.12222
20
12.76736
30
0
11
9.84722
21
12.76736
31
0
0
LINE
8
P-FIXT
10
6.09722
20
12.78819
30
0
11
7.82222
21
12.78819
31
0
0
LINE
8
P-FIXT
10
8.12222
20
12.78819
30
0
11
9.84722
21
12.78819
31
0
0
LINE
8
P-FIXT
10
6.09722
20
14.26736
30
0
11
7.82222
21
14.26736
31
0
0
LINE
8
P-FIXT
10
8.12222
20
14.26736
30
0
11
9.84722
21
14.26736
31
0
0
LINE
8
P-FIXT
10
6.09722
20
14.28819
30
0
11
7.82222
21
14.28819
31
0
0
LINE
8
P-FIXT
10
8.12222
20
14.28819
30
0
11
9.84722
21
14.28819
31
0
0
LINE
8
P-FIXT
10
2.97222
20
10.85903
30
0
11
3.84722
21
10.85903
31
0
0
LINE
8
P-FIXT
10
2.97222
20
10.89028
30
0
11
3.84722
21
10.89028
31
0
0
LINE
8
A-ANNO-DIMS
10
2.72222
20
19.52778
30
0
11
7.97222
21
19.52778
31
0
0
LINE
8
A-ANNO-DIMS
10
2.72222
20
19.55556
30
0
11
2.72222
21
19.56944
31
0
0
LINE
8
A-ANNO-DIMS
10
2.69767
20
19.50323
30
0
11
2.74677
21
19.55233
31
0
0
LINE
8
A-ANNO-DIMS
10
7.97222
20
19.55556
30
0
11
7.97222
21
19.56944
31
0
0
LINE
8
A-ANNO-DIMS
10
7.94767
20
19.50323
30
0
11
7.99677
21
19.55233
31
0
0
TEXT
8
A-ANNO-DIMS
10
5.34722
20
19.55556
30
0
40
0.0675
1
21'-0"
50
0
72
1
11
5.34722
21
19.55556
31
0
0
LINE
8
A-ANNO-DIMS
10
7.97222
20
19.52778
30
0
11
13.47222
21
19.52778
31
0
0
LINE
8
A-ANNO-DIMS
10
7.97222
20
19.55556
30
0
11
7.97222
21
19.56944
31
0
0
LINE
8
A-ANNO-DIMS
10
7.94767
20
19.50323
30
0
11
7.99677
21
19.55233
31
0
0
LINE
8
A-ANNO-DIMS
10
13.47222
20
19.55556
30
0
11
13.47222
21
19.56944
31
0
0
LINE
8
A-ANNO-DIMS
10
13.44767
20
19.50323
30
0
11
13.49677
21
19.55233
31
0
0
TEXT
8
A-ANNO-DIMS
10
10.72222
20
19.55556
30
0
40
0.0675
1
22'-0"
50
0
72
1
11
10.72222
21
19.55556
31
0
0
LINE
8
A-ANNO-DIMS
10
2.22222
20
8.27778
30
0
11
2.22222
21
10.77778
31
0
0
LINE
8
A-ANNO-DIMS
10
2.19444
20
8.27778
30
0
11
2.18056
21
8.27778
31
0
0
LINE
8
A-ANNO-DIMS
10
2.24677
20
8.25323
30
0
11
2.19767
21
8.30233
31
0
0
LINE
8
A-ANNO-DIMS
10
2.19444
20
10.77778
30
0
11
2.18056
21
10.77778
31
0
0
LINE
8
A-ANNO-DIMS
10
2.24677
20
10.75323
30
0
11
2.19767
21
10.80233
31
0
0
TEXT
8
A-ANNO-DIMS
10
2.19444
20
9.52778
30
0
40
0.0675
1
10'-0"
50
90
72
1
11
2.19444
21
9.52778
31
0
0
LINE
8
A-ANNO-DIMS
10
2.22222
20
10.77778
30
0
11
2.22222
21
19.02778
31
0
0
LINE
8
A-ANNO-DIMS
10
2.19444
20
10.77778
30
0
11
2.18056
21
10.77778
31
0
0
LINE
8
A-ANNO-DIMS
10
2.24677
20
10.75323
30
0
11
2.19767
21
10.80233
31
0
0
LINE
8
A-ANNO-DIMS
10
2.19444
20
19.02778
30
0
11
2.18056
21
19.02778
31
0
0
LINE
8
A-ANNO-DIMS
10
2.24677
20
19.00323
30
0
11
2.19767
21
19.05233
31
0
0
TEXT
8
A-ANNO-DIMS
10
2.19444
20
14.90278
30
0
40
0.0675
1
33'-0"
50
90
72
1
11
2.19444
21
14.90278
31
0
0
LINE
8
A-ANNO-DIMS
10
6.09722
20
11.52778
30
0
11
7.97222
21
11.52778
31
0
0
LINE
8
A-ANNO-DIMS
10
6.09722
20
11.55556
30
0
11
6.09722
21
11.56944
31
0
0
LINE
8
A-ANNO-DIMS
10
6.07267
20
11.50323
30
0
11
6.12177
21
11.55233
31
0
0
LINE
8
A-ANNO-DIMS
10
7.97222
20
11.55556
30
0
11
7.97222
21
11.56944
31
0
0
LINE
8
A-ANNO-DIMS
10
7.94767
20
11.50323
30
0
11
7.99677
21
11.55233
31
0
0
TEXT
8
A-ANNO-DIMS
10
7.03472
20
11.55556
30
0
40
0.0675
1
7'-6"
50
0
72
1
11
7.03472
21
11.55556
31
0
0
LINE
8
A-ANNO-DIMS
10
7.97222
20
16.02778
30
0
11
9.84722
21
16.02778
31
0
0
LINE
8
A-ANNO-DIMS
10
7.97222
20
16.05556
30
0
11
7.97222
21
16.06944
31
0
0
LINE
8
A-ANNO-DIMS
10
7.94767
20
16.00323
30
0
11
7.99677
21
16.05233
31
0
0
LINE
8
A-ANNO-DIMS
10
9.84722
20
16.05556
30
0
11
9.84722
21
16.06944
31
0
0
LINE
8
A-ANNO-DIMS
10
9.82267
20
16.00323
30
0
11
9.87177
21
16.05233
31
0
0
TEXT
8
A-ANNO-DIMS
10
8.90972
20
16.05556
30
0
40
0.0675
1
7'-6"
50
0
72
1
11
8.90972
21
16.05556
31
0
0
LINE
8
A-ANNO-DIMS
10
2.72222
20
10.02778
30
0
11
5.34722
21
10.02778
31
0
0
LINE
8
A-ANNO-DIMS
10
2.72222
20
10.05556
30
0
11
2.72222
21
10.06944
31
0
0
LINE
8
A-ANNO-DIMS
10
2.69767
20
10.00323
30
0
11
2.74677
21
10.05233
31
0
0
LINE
8
A-ANNO-DIMS
10
5.34722
20
10.05556
30
0
11
5.34722
21
10.06944
31
0
0
LINE
8
A-ANNO-DIMS
10
5.32267
20
10.00323
30
0
11
5.37177
21
10.05233
31
0
0
TEXT
8
A-ANNO-DIMS
10
4.03472
20
10.05556
30
0
40
0.0675
1
10'-6"
50
0
72
1
11
4.03472
21
10.05556
31
0
0
LINE
8
A-ANNO-DIMS
10
10.47222
20
9.02778
30
0
11
13.47222
21
9.02778
31
0
0
LINE
8
A-ANNO-DIMS
10
10.47222
20
9.05556
30
0
11
10.47222
21
9.06944
31
0
0
LINE
8
A-ANNO-DIMS
10
10.44767
20
9.00323
30
0
11
10.49677
21
9.05233
31
0
0
LINE
8
A-ANNO-DIMS
10
13.47222
20
9.05556
30
0
11
13.47222
21
9.06944
31
0
0
LINE
8
A-ANNO-DIMS
10
13.44767
20
9.00323
30
0
11
13.49677
21
9.05233
31
0
0
TEXT
8
A-ANNO-DIMS
10
11.97222
20
9.05556
30
0
40
0.0675
1
12'-0"
50
0
72
1
11
11.97222
21
9.05556
31
0
0
LINE
8
A-ANNO-DIMS
10
12.47222
20
10.77778
30
0
11
12.47222
21
15.02778
31
0
0
LINE
8
A-ANNO-DIMS
10
12.44444
20
10.77778
30
0
11
12.43056
21
10.77778
31
0
0
LINE
8
A-ANNO-DIMS
10
12.49677
20
10.75323
30
0
11
12.44767
21
10.80233
31
0
0
LINE
8
A-ANNO-DIMS
10
12.44444
20
15.02778
30
0
11
12.43056
21
15.02778
31
0
0
LINE
8
A-ANNO-DIMS
10
12.49677
20
15.00323
30
0
11
12.44767
21
15.05233
31
0
0
TEXT
8
A-ANNO-DIMS
10
12.44444
20
12.90278
30
0
40
0.0675
1
17'-0"
50
90
72
1
11
12.44444
21
12.90278
31
0
0
TEXT
8
A-ANNO-TEXT
10
5.22222
20
15.80556
30
0
40
0.08
1
MEN
50
0
72
1
11
5.22222
21
15.80556
31
0
0
LINE
8
A-ANNO-SYMB
10
5.06944
20
15.625
30
0
11
5.375
21
15.625
31
0
0
LINE
8
A-ANNO-SYMB
10
5.375
20
15.625
30
0
11
5.375
21
15.76389
31
0
0
LINE
8
A-ANNO-SYMB
10
5.375
20
15.76389
30
0
11
5.06944
21
15.76389
31
0
0
LINE
8
A-ANNO-SYMB
10
5.06944
20
15.76389
30
0
11
5.06944
21
15.625
31
0
0
TEXT
8
A-ANNO-SYMB
10
5.22222
20
15.65278
30
0
40
0.07
1
143
50
0
72
1
11
5.22222
21
15.65278
31
0
0
TEXT
8
A-ANNO-TEXT
10
10.72222
20
15.80556
30
0
40
0.08
1
WOMEN
50
0
72
1
11
10.72222
21
15.80556
31
0
0
LINE
8
A-ANNO-SYMB
10
10.56944
20
15.625
30
0
11
10.875
21
15.625
31
0
0
LINE
8
A-ANNO-SYMB
10
10.875
20
15.625
30
0
11
10.875
21
15.76389
31
0
0
LINE
8
A-ANNO-SYMB
10
10.875
20
15.76389
30
0
11
10.56944
21
15.76389
31
0
0
LINE
8
A-ANNO-SYMB
10
10.56944
20
15.76389
30
0
11
10.56944
21
15.625
31
0
0
TEXT
8
A-ANNO-SYMB
10
10.72222
20
15.65278
30
0
40
0.07
1
144
50
0
72
1
11
10.72222
21
15.65278
31
0
0
TEXT
8
A-ANNO-TEXT
10
5.22222
20
9.30556
30
0
40
0.08
1
ELEC
50
0
72
1
11
5.22222
21
9.30556
31
0
0
LINE
8
A-ANNO-SYMB
10
5.06944
20
9.125
30
0
11
5.375
21
9.125
31
0
0
LINE
8
A-ANNO-SYMB
10
5.375
20
9.125
30
0
11
5.375
21
9.26389
31
0
0
LINE
8
A-ANNO-SYMB
10
5.375
20
9.26389
30
0
11
5.06944
21
9.26389
31
0
0
LINE
8
A-ANNO-SYMB
10
5.06944
20
9.26389
30
0
11
5.06944
21
9.125
31
0
0
TEXT
8
A-ANNO-SYMB
10
5.22222
20
9.15278
30
0
40
0.07
1
145
50
0
72
1
11
5.22222
21
9.15278
31
0
0
TEXT
8
A-ANNO-TEXT
10
10.72222
20
9.30556
30
0
40
0.08
1
JAN
50
0
72
1
11
10.72222
21
9.30556
31
0
0
LINE
8
A-ANNO-SYMB
10
10.56944
20
9.125
30
0
11
10.875
21
9.125
31
0
0
LINE
8
A-ANNO-SYMB
10
10.875
20
9.125
30
0
11
10.875
21
9.26389
31
0
0
LINE
8
A-ANNO-SYMB
10
10.875
20
9.26389
30
0
11
10.56944
21
9.26389
31
0
0
LINE
8
A-ANNO-SYMB
10
10.56944
20
9.26389
30
0
11
10.56944
21
9.125
31
0
0
TEXT
8
A-ANNO-SYMB
10
10.72222
20
9.15278
30
0
40
0.07
1
146
50
0
72
1
11
10.72222
21
9.15278
31
0
0
LINE
8
A-ANNO-SYMB
10
2.69444
20
5.61111
30
0
11
2.69049
21
5.6503
31
0
0
LINE
8
A-ANNO-SYMB
10
2.69049
20
5.6503
30
0
11
2.67916
21
5.6868
31
0
0
LINE
8
A-ANNO-SYMB
10
2.67916
20
5.6868
30
0
11
2.66124
21
5.71983
31
0
0
LINE
8
A-ANNO-SYMB
10
2.66124
20
5.71983
30
0
11
2.63749
21
5.7486
31
0
0
LINE
8
A-ANNO-SYMB
10
2.63749
20
5.7486
30
0
11
2.60872
21
5.77235
31
0
0
LINE
8
A-ANNO-SYMB
10
2.60872
20
5.77235
30
0
11
2.57569
21
5.79028
31
0
0
LINE
8
A-ANNO-SYMB
10
2.57569
20
5.79028
30
0
11
2.53919
21
5.80161
31
0
0
LINE
8
A-ANNO-SYMB
10
2.53919
20
5.80161
30
0
11
2.5
21
5.80556
31
0
0
LINE
8
A-ANNO-SYMB
10
2.5
20
5.80556
30
0
11
2.46081
21
5.80161
31
0
0
LINE
8
A-ANNO-SYMB
10
2.46081
20
5.80161
30
0
11
2.42431
21
5.79028
31
0
0
LINE
8
A-ANNO-SYMB
10
2.42431
20
5.79028
30
0
11
2.39128
21
5.77235
31
0
0
LINE
8
A-ANNO-SYMB
10
2.39128
20
5.77235
30
0
11
2.36251
21
5.7486
31
0
0
LINE
8
A-ANNO-SYMB
10
2.36251
20
5.7486
30
0
11
2.33876
21
5.71983
31
0
0
LINE
8
A-ANNO-SYMB
10
2.33876
20
5.71983
30
0
11
2.32084
21
5.6868
31
0
0
LINE
8
A-ANNO-SYMB
10
2.32084
20
5.6868
30
0
11
2.30951
21
5.6503
31
0
0
LINE
8
A-ANNO-SYMB
10
2.30951
20
5.6503
30
0
11
2.30556
21
5.61111
31
0
0
LINE
8
A-ANNO-SYMB
10
2.30556
20
5.61111
30
0
11
2.30951
21
5.57192
31
0
0
LINE
8
A-ANNO-SYMB
10
2.30951
20
5.57192
30
0
11
2.32084
21
5.53542
31
0
0
LINE
8
A-ANNO-SYMB
10
2.32084
20
5.53542
30
0
11
2.33876
21
5.5024
31
0
0
LINE
8
A-ANNO-SYMB
10
2.33876
20
5.5024
30
0
11
2.36251
21
5.47362
31
0
0
LINE
8
A-ANNO-SYMB
10
2.36251
20
5.47362
30
0
11
2.39128
21
5.44987
31
0
0
LINE
8
A-ANNO-SYMB
10
2.39128
20
5.44987
30
0
11
2.42431
21
5.43195
31
0
0
LINE
8
A-ANNO-SYMB
10
2.42431
20
5.43195
30
0
11
2.46081
21
5.42062
31
0
0
LINE
8
A-ANNO-SYMB
10
2.46081
20
5.42062
30
0
11
2.5
21
5.41667
31
0
0
LINE
8
A-ANNO-SYMB
10
2.5
20
5.41667
30
0
11
2.53919
21
5.42062
31
0
0
LINE
8
A-ANNO-SYMB
10
2.53919
20
5.42062
30
0
11
2.57569
21
5.43195
31
0
0
LINE
8
A-ANNO-SYMB
10
2.57569
20
5.43195
30
0
11
2.60872
21
5.44987
31
0
0
LINE
8
A-ANNO-SYMB
10
2.60872
20
5.44987
30
0
11
2.63749
21
5.47362
31
0
0
LINE
8
A-ANNO-SYMB
10
2.63749
20
5.47362
30
0
11
2.66124
21
5.5024
31
0
0
LINE
8
A-ANNO-SYMB
10
2.66124
20
5.5024
30
0
11
2.67916
21
5.53542
31
0
0
LINE
8
A-ANNO-SYMB
10
2.67916
20
5.53542
30
0
11
2.69049
21
5.57192
31
0
0
LINE
8
A-ANNO-SYMB
10
2.69049
20
5.57192
30
0
11
2.69444
21
5.61111
31
0
0
TEXT
8
A-ANNO-SYMB
10
2.5
20
5.55556
30
0
40
0.1
1
1
50
0
72
1
11
2.5
21
5.55556
31
0
0
TEXT
8
A-ANNO-TEXT
10
2.77778
20
5.55556
30
0
40
0.14
1
ENLARGED RESTROOM PLAN
50
0
0
LINE
8
A-ANNO-TEXT
10
2.77778
20
5.5
30
0
11
6.94444
21
5.5
31
0
0
TEXT
8
A-ANNO-TEXT
10
2.77778
20
5.33333
30
0
40
0.07
1
SCALE: 1/4" = 1'-0"
50
0
0
LINE
8
A-WALL
10
25.09288
20
3.05556
30
0
11
25.09288
21
3.8342
31
0
0
LINE
8
A-WALL
10
25.09288
20
4.21441
30
0
11
25.09288
21
19.21962
31
0
0
LINE
8
A-WALL
10
25.11892
20
3.05556
30
0
11
25.11892
21
3.8342
31
0
0
LINE
8
A-WALL
10
25.11892
20
4.21441
30
0
11
25.11892
21
19.21962
31
0
0
LINE
8
A-WALL
10
25.36892
20
3.05556
30
0
11
25.36892
21
19.55816
31
0
0
LINE
8
A-WALL
10
25.39497
20
3.05556
30
0
11
25.39497
21
19.55816
31
0
0
LINE
8
A-WALL
10
25.46267
20
3.05556
30
0
11
25.46267
21
19.55816
31
0
0
LINE
8
A-WALL
10
25.09288
20
19.21962
30
0
11
22.02778
21
19.21962
31
0
0
LINE
8
A-WALL
10
20.52778
20
19.21962
30
0
11
16.43663
21
19.21962
31
0
0
LINE
8
A-WALL
10
16.05642
20
19.21962
30
0
11
15.27778
21
19.21962
31
0
0
LINE
8
A-WALL
10
25.09288
20
19.24566
30
0
11
22.02778
21
19.24566
31
0
0
LINE
8
A-WALL
10
20.52778
20
19.24566
30
0
11
16.43663
21
19.24566
31
0
0
LINE
8
A-WALL
10
16.05642
20
19.24566
30
0
11
15.27778
21
19.24566
31
0
0
LINE
8
A-WALL
10
25.46267
20
19.49566
30
0
11
22.02778
21
19.49566
31
0
0
LINE
8
A-WALL
10
20.52778
20
19.49566
30
0
11
15.27778
21
19.49566
31
0
0
LINE
8
A-WALL
10
25.46267
20
19.55816
30
0
11
22.02778
21
19.55816
31
0
0
LINE
8
A-WALL
10
20.52778
20
19.55816
30
0
11
15.27778
21
19.55816
31
0
0
LINE
8
A-WALL
10
22.02778
20
19.21962
30
0
11
22.02778
21
19.55816
31
0
0
LINE
8
A-WALL
10
20.52778
20
19.21962
30
0
11
20.52778
21
19.55816
31
0
0
LINE
8
A-DOOR
10
22.02778
20
19.21962
30
0
11
22.02778
21
17.71962
31
0
0
LINE
8
A-DOOR
10
22.02778
20
17.71962
30
0
11
21.95486
21
17.71962
31
0
0
LINE
8
A-DOOR
10
21.95486
20
17.71962
30
0
11
21.95486
21
19.21962
31
0
0
LINE
8
A-DOOR
10
21.95486
20
19.21962
30
0
11
22.02778
21
19.21962
31
0
0
LINE
8
A-DOOR
10
20.52778
20
19.21962
30
0
11
20.55825
21
18.91732
31
0
0
LINE
8
A-DOOR
10
20.55825
20
18.91732
30
0
11
20.64566
21
18.63575
31
0
0
LINE
8
A-DOOR
10
20.64566
20
18.63575
30
0
11
20.78395
21
18.38095
31
0
0
LINE
8
A-DOOR
10
20.78395
20
18.38095
30
0
11
20.96712
21
18.15896
31
0
0
LINE
8
A-DOOR
10
20.96712
20
18.15896
30
0
11
21.18911
21
17.97579
31
0
0
LINE
8
A-DOOR
10
21.18911
20
17.97579
30
0
11
21.44391
21
17.8375
31
0
0
LINE
8
A-DOOR
10
21.44391
20
17.8375
30
0
11
21.72548
21
17.75009
31
0
0
LINE
8
A-DOOR
10
21.72548
20
17.75009
30
0
11
22.02778
21
17.71962
31
0
0
LINE
8
A-WALL-CMU
10
16.11892
20
3.8967
30
0
11
16.11892
21
11.9566
31
0
0
LINE
8
A-WALL-CMU
10
16.11892
20
12.15451
30
0
11
16.11892
21
19.21962
31
0
0
LINE
8
A-WALL-CMU
10
16.43663
20
4.21441
30
0
11
16.43663
21
19.21962
31
0
0
LINE
8
A-WALL-PATT
10
16.43663
20
4.05556
30
0
11
16.11892
21
4.37326
31
0
0
LINE
8
A-WALL-PATT
10
16.43663
20
4.09722
30
0
11
16.11892
21
4.41493
31
0
0
LINE
8
A-WALL-PATT
10
16.43663
20
4.13889
30
0
11
16.11892
21
4.4566
31
0
0
LINE
8
A-WALL-PATT
10
16.43663
20
4.18056
30
0
11
16.11892
21
4.49826
31
0
0
LINE
8
A-WALL-PATT
10
16.43663
20
4.22222
30
0
11
16.11892
21
4.53993
31
0
0
LINE
8
A-WALL-PATT
10
16.43663
20
4.26389
30
0
11
16.11892
21
4.5816
31
0
0
LINE
8
A-WALL-PATT
10
16.43663
20
4.30556
30
0
11
16.11892
21
4.62326
31
0
0
LINE
8
A-WALL-PATT
10
16.43663
20
4.34722
30
0
11
16.11892
21
4.66493
31
0
0
LINE
8
A-WALL-PATT
10
16.43663
20
4.38889
30
0
11
16.11892
21
4.7066
31
0
0
LINE
8
A-WALL-PATT
10
16.43663
20
4.43056
30
0
11
16.11892
21
4.74826
31
0
0
LINE
8
A-WALL-PATT
10
16.43663
20
4.47222
30
0
11
16.11892
21
4.78993
31
0
0
LINE
8
A-WALL-PATT
10
16.43663
20
4.51389
30
0
11
16.11892
21
4.8316
31
0
0
LINE
8
A-WALL-PATT
10
16.43663
20
4.55556
30
0
11
16.11892
21
4.87326
31
0
0
LINE
8
A-WALL-PATT
10
16.43663
20
4.59722
30
0
11
16.11892
21
4.91493
31
0
0
LINE
8
A-WALL-PATT
10
16.43663
20
4.63889
30
0
11
16.11892
21
4.9566
31
0
0
LINE
8
A-WALL-PATT
10
16.43663
20
4.68056
30
0
11
16.11892
21
4.99826
31
0
0
LINE
8
A-WALL-PATT
10
16.43663
20
4.72222
30
0
11
16.11892
21
5.03993
31
0
0
LINE
8
A-WALL-PATT
10
16.43663
20
4.76389
30
0
11
16.11892
21
5.0816
31
0
0
LINE
8
A-WALL-PATT
10
16.43663
20
4.80556
30
0
11
16.11892
21
5.12326
31
0
0
LINE
8
A-WALL-PATT
10
16.43663
20
4.84722
30
0
11
16.11892
21
5.16493
31
0
0
LINE
8
A-WALL-PATT
10
16.43663
20
4.88889
30
0
11
16.11892
21
5.2066
31
0
0
LINE
8
A-WALL-PATT
10
16.43663
20
4.93056
30
0
11
16.11892
21
5.24826
31
0
0
LINE
8
A-WALL-PATT
10
16.43663
20
4.97222
30
0
11
16.11892
21
5.28993
31
0
0
LINE
8
A-WALL-PATT
10
16.43663
20
5.01389
30
0
11
16.11892
21
5.3316
31
0
0
LINE
8
A-WALL-PATT
10
16.43663
20
5.05556
30
0
11
16.11892
21
5.37326
31
0
0
LINE
8
A-WALL-PATT
10
16.43663
20
5.09722
30
0
11
16.11892
21
5.41493
31
0
0
LINE
8
A-WALL-PATT
10
16.43663
20
5.13889
30
0
11
16.11892
21
5.4566
31
0
0
LINE
8
A-WALL-PATT
10
16.43663
20
5.18056
30
0
11
16.11892
21
5.49826
31
0
0
LINE
8
A-WALL-PATT
10
16.43663
20
5.22222
30
0
11
16.11892
21
5.53993
31
0
0
LINE
8
A-WALL-PATT
10
16.43663
20
5.26389
30
0
11
16.11892
21
5.5816
31
0
0
LINE
8
A-WALL-PATT
10
16.43663
20
5.30556
30
0
11
16.11892
21
5.62326
31
0
0
LINE
8
A-WALL-PATT
10
16.43663
20
5.34722
30
0
11
16.11892
21
5.66493
31
0
0
LINE
8
A-WALL-PATT
10
16.43663
20
5.38889
30
0
11
16.11892
21
5.7066
31
0
0
LINE
8
A-WALL-PATT
10
16.43663
20
5.43056
30
0
11
16.11892
21
5.74826
31
0
0
LINE
8
A-WALL-PATT
10
16.43663
20
5.47222
30
0
11
16.11892
21
5.78993
31
0
0
LINE
8
A-WALL-PATT
10
16.43663
20
5.51389
30
0
11
16.11892
21
5.8316
31
0
0
LINE
8
A-WALL-PATT
10
16.43663
20
5.55556
30
0
11
16.11892
21
5.87326
31
0
0
LINE
8
A-WALL-PATT
10
16.43663
20
5.59722
30
0
11
16.11892
21
5.91493
31
0
0
LINE
8
A-WALL-PATT
10
16.43663
20
5.63889
30
0
11
16.11892
21
5.9566
31
0
0
LINE
8
A-WALL-PATT
10
16.43663
20
5.68056
30
0
11
16.11892
21
5.99826
31
0
0
LINE
8
A-WALL-PATT
10
16.43663
20
5.72222
30
0
11
16.11892
21
6.03993
31
0
0
LINE
8
A-WALL-PATT
10
16.43663
20
5.76389
30
0
11
16.11892
21
6.0816
31
0
0
LINE
8
A-WALL-PATT
10
16.43663
20
5.80556
30
0
11
16.11892
21
6.12326
31
0
0
LINE
8
A-WALL-PATT
10
16.43663
20
5.84722
30
0
11
16.11892
21
6.16493
31
0
0
LINE
8
A-WALL-PATT
10
16.43663
20
5.88889
30
0
11
16.11892
21
6.2066
31
0
0
LINE
8
A-WALL-PATT
10
16.43663
20
5.93056
30
0
11
16.11892
21
6.24826
31
0
0
LINE
8
A-WALL-PATT
10
16.43663
20
5.97222
30
0
11
16.11892
21
6.28993
31
0
0
LINE
8
A-WALL-PATT
10
16.43663
20
6.01389
30
0
11
16.11892
21
6.3316
31
0
0
LINE
8
A-WALL-PATT
10
16.43663
20
6.05556
30
0
11
16.11892
21
6.37326
31
0
0
LINE
8
A-WALL-PATT
10
16.43663
20
6.09722
30
0
11
16.11892
21
6.41493
31
0
0
LINE
8
A-WALL-PATT
10
16.43663
20
6.13889
30
0
11
16.11892
21
6.4566
31
0
0
LINE
8
A-WALL-PATT
10
16.43663
20
6.18056
30
0
11
16.11892
21
6.49826
31
0
0
LINE
8
A-WALL-PATT
10
16.43663
20
6.22222
30
0
11
16.11892
21
6.53993
31
0
0
LINE
8
A-WALL-PATT
10
16.43663
20
6.26389
30
0
11
16.11892
21
6.5816
31
0
0
LINE
8
A-WALL-PATT
10
16.43663
20
6.30556
30
0
11
16.11892
21
6.62326
31
0
0
LINE
8
A-WALL-PATT
10
16.43663
20
6.34722
30
0
11
16.11892
21
6.66493
31
0
0
LINE
8
A-WALL-PATT
10
16.43663
20
6.38889
30
0
11
16.11892
21
6.7066
31
0
0
LINE
8
A-WALL-PATT
10
16.43663
20
6.43056
30
0
11
16.11892
21
6.74826
31
0
0
LINE
8
A-WALL-PATT
10
16.43663
20
6.47222
30
0
11
16.11892
21
6.78993
31
0
0
LINE
8
A-WALL-PATT
10
16.43663
20
6.51389
30
0
11
16.11892
21
6.8316
31
0
0
LINE
8
A-WALL-PATT
10
16.43663
20
6.55556
30
0
11
16.11892
21
6.87326
31
0
0
LINE
8
A-WALL-PATT
10
16.43663
20
6.59722
30
0
11
16.11892
21
6.91493
31
0
0
LINE
8
A-WALL-PATT
10
16.43663
20
6.63889
30
0
11
16.11892
21
6.9566
31
0
0
LINE
8
A-WALL-PATT
10
16.43663
20
6.68056
30
0
11
16.11892
21
6.99826
31
0
0
LINE
8
A-WALL-PATT
10
16.43663
20
6.72222
30
0
11
16.11892
21
7.03993
31
0
0
LINE
8
A-WALL-PATT
10
16.43663
20
6.76389
30
0
11
16.11892
21
7.0816
31
0
0
LINE
8
A-WALL-PATT
10
16.43663
20
6.80556
30
0
11
16.11892
21
7.12326
31
0
0
LINE
8
A-WALL-PATT
10
16.43663
20
6.84722
30
0
11
16.11892
21
7.16493
31
0
0
LINE
8
A-WALL-PATT
10
16.43663
20
6.88889
30
0
11
16.11892
21
7.2066
31
0
0
LINE
8
A-WALL-PATT
10
16.43663
20
6.93056
30
0
11
16.11892
21
7.24826
31
0
0
LINE
8
A-WALL-PATT
10
16.43663
20
6.97222
30
0
11
16.11892
21
7.28993
31
0
0
LINE
8
A-WALL-PATT
10
16.43663
20
7.01389
30
0
11
16.11892
21
7.3316
31
0
0
LINE
8
A-WALL-PATT
10
16.43663
20
7.05556
30
0
11
16.11892
21
7.37326
31
0
0
LINE
8
A-WALL-PATT
10
16.43663
20
7.09722
30
0
11
16.11892
21
7.41493
31
0
0
LINE
8
A-WALL-PATT
10
16.43663
20
7.13889
30
0
11
16.11892
21
7.4566
31
0
0
LINE
8
A-WALL-PATT
10
16.43663
20
7.18056
30
0
11
16.11892
21
7.49826
31
0
0
LINE
8
A-WALL-PATT
10
16.43663
20
7.22222
30
0
11
16.11892
21
7.53993
31
0
0
LINE
8
A-WALL-PATT
10
16.43663
20
7.26389
30
0
11
16.11892
21
7.5816
31
0
0
LINE
8
A-WALL-PATT
10
16.43663
20
7.30556
30
0
11
16.11892
21
7.62326
31
0
0
LINE
8
A-WALL-PATT
10
16.43663
20
7.34722
30
0
11
16.11892
21
7.66493
31
0
0
LINE
8
A-WALL-PATT
10
16.43663
20
7.38889
30
0
11
16.11892
21
7.7066
31
0
0
LINE
8
A-WALL-PATT
10
16.43663
20
7.43056
30
0
11
16.11892
21
7.74826
31
0
0
LINE
8
A-WALL-PATT
10
16.43663
20
7.47222
30
0
11
16.11892
21
7.78993
31
0
0
LINE
8
A-WALL-PATT
10
16.43663
20
7.51389
30
0
11
16.11892
21
7.8316
31
0
0
LINE
8
A-WALL-PATT
10
16.43663
20
7.55556
30
0
11
16.11892
21
7.87326
31
0
0
LINE
8
A-WALL-PATT
10
16.43663
20
7.59722
30
0
11
16.11892
21
7.91493
31
0
0
LINE
8
A-WALL-PATT
10
16.43663
20
7.63889
30
0
11
16.11892
21
7.9566
31
0
0
LINE
8
A-WALL-PATT
10
16.43663
20
7.68056
30
0
11
16.11892
21
7.99826
31
0
0
LINE
8
A-WALL-PATT
10
16.43663
20
7.72222
30
0
11
16.11892
21
8.03993
31
0
0
LINE
8
A-WALL-PATT
10
16.43663
20
7.76389
30
0
11
16.11892
21
8.0816
31
0
0
LINE
8
A-WALL-PATT
10
16.43663
20
7.80556
30
0
11
16.11892
21
8.12326
31
0
0
LINE
8
A-WALL-PATT
10
16.43663
20
7.84722
30
0
11
16.11892
21
8.16493
31
0
0
LINE
8
A-WALL-PATT
10
16.43663
20
7.88889
30
0
11
16.11892
21
8.2066
31
0
0
LINE
8
A-WALL-PATT
10
16.43663
20
7.93056
30
0
11
16.11892
21
8.24826
31
0
0
LINE
8
A-WALL-PATT
10
16.43663
20
7.97222
30
0
11
16.11892
21
8.28993
31
0
0
LINE
8
A-WALL-PATT
10
16.43663
20
8.01389
30
0
11
16.11892
21
8.3316
31
0
0
LINE
8
A-WALL-PATT
10
16.43663
20
8.05556
30
0
11
16.11892
21
8.37326
31
0
0
LINE
8
A-WALL-PATT
10
16.43663
20
8.09722
30
0
11
16.11892
21
8.41493
31
0
0
LINE
8
A-WALL-PATT
10
16.43663
20
8.13889
30
0
11
16.11892
21
8.4566
31
0
0
LINE
8
A-WALL-PATT
10
16.43663
20
8.18056
30
0
11
16.11892
21
8.49826
31
0
0
LINE
8
A-WALL-PATT
10
16.43663
20
8.22222
30
0
11
16.11892
21
8.53993
31
0
0
LINE
8
A-WALL-PATT
10
16.43663
20
8.26389
30
0
11
16.11892
21
8.5816
31
0
0
LINE
8
A-WALL-PATT
10
16.43663
20
8.30556
30
0
11
16.11892
21
8.62326
31
0
0
LINE
8
A-WALL-PATT
10
16.43663
20
8.34722
30
0
11
16.11892
21
8.66493
31
0
0
LINE
8
A-WALL-PATT
10
16.43663
20
8.38889
30
0
11
16.11892
21
8.7066
31
0
0
LINE
8
A-WALL-PATT
10
16.43663
20
8.43056
30
0
11
16.11892
21
8.74826
31
0
0
LINE
8
A-WALL-PATT
10
16.43663
20
8.47222
30
0
11
16.11892
21
8.78993
31
0
0
LINE
8
A-WALL-PATT
10
16.43663
20
8.51389
30
0
11
16.11892
21
8.8316
31
0
0
LINE
8
A-WALL-PATT
10
16.43663
20
8.55556
30
0
11
16.11892
21
8.87326
31
0
0
LINE
8
A-WALL-PATT
10
16.43663
20
8.59722
30
0
11
16.11892
21
8.91493
31
0
0
LINE
8
A-WALL-PATT
10
16.43663
20
8.63889
30
0
11
16.11892
21
8.9566
31
0
0
LINE
8
A-WALL-PATT
10
16.43663
20
8.68056
30
0
11
16.11892
21
8.99826
31
0
0
LINE
8
A-WALL-PATT
10
16.43663
20
8.72222
30
0
11
16.11892
21
9.03993
31
0
0
LINE
8
A-WALL-PATT
10
16.43663
20
8.76389
30
0
11
16.11892
21
9.0816
31
0
0
LINE
8
A-WALL-PATT
10
16.43663
20
8.80556
30
0
11
16.11892
21
9.12326
31
0
0
LINE
8
A-WALL-PATT
10
16.43663
20
8.84722
30
0
11
16.11892
21
9.16493
31
0
0
LINE
8
A-WALL-PATT
10
16.43663
20
8.88889
30
0
11
16.11892
21
9.2066
31
0
0
LINE
8
A-WALL-PATT
10
16.43663
20
8.93056
30
0
11
16.11892
21
9.24826
31
0
0
LINE
8
A-WALL-PATT
10
16.43663
20
8.97222
30
0
11
16.11892
21
9.28993
31
0
0
LINE
8
A-WALL-PATT
10
16.43663
20
9.01389
30
0
11
16.11892
21
9.3316
31
0
0
LINE
8
A-WALL-PATT
10
16.43663
20
9.05556
30
0
11
16.11892
21
9.37326
31
0
0
LINE
8
A-WALL-PATT
10
16.43663
20
9.09722
30
0
11
16.11892
21
9.41493
31
0
0
LINE
8
A-WALL-PATT
10
16.43663
20
9.13889
30
0
11
16.11892
21
9.4566
31
0
0
LINE
8
A-WALL-PATT
10
16.43663
20
9.18056
30
0
11
16.11892
21
9.49826
31
0
0
LINE
8
A-WALL-PATT
10
16.43663
20
9.22222
30
0
11
16.11892
21
9.53993
31
0
0
LINE
8
A-WALL-PATT
10
16.43663
20
9.26389
30
0
11
16.11892
21
9.5816
31
0
0
LINE
8
A-WALL-PATT
10
16.43663
20
9.30556
30
0
11
16.11892
21
9.62326
31
0
0
LINE
8
A-WALL-PATT
10
16.43663
20
9.34722
30
0
11
16.11892
21
9.66493
31
0
0
LINE
8
A-WALL-PATT
10
16.43663
20
9.38889
30
0
11
16.11892
21
9.7066
31
0
0
LINE
8
A-WALL-PATT
10
16.43663
20
9.43056
30
0
11
16.11892
21
9.74826
31
0
0
LINE
8
A-WALL-PATT
10
16.43663
20
9.47222
30
0
11
16.11892
21
9.78993
31
0
0
LINE
8
A-WALL-PATT
10
16.43663
20
9.51389
30
0
11
16.11892
21
9.8316
31
0
0
LINE
8
A-WALL-PATT
10
16.43663
20
9.55556
30
0
11
16.11892
21
9.87326
31
0
0
LINE
8
A-WALL-PATT
10
16.43663
20
9.59722
30
0
11
16.11892
21
9.91493
31
0
0
LINE
8
A-WALL-PATT
10
16.43663
20
9.63889
30
0
11
16.11892
21
9.9566
31
0
0
LINE
8
A-WALL-PATT
10
16.43663
20
9.68056
30
0
11
16.11892
21
9.99826
31
0
0
LINE
8
A-WALL-PATT
10
16.43663
20
9.72222
30
0
11
16.11892
21
10.03993
31
0
0
LINE
8
A-WALL-PATT
10
16.43663
20
9.76389
30
0
11
16.11892
21
10.0816
31
0
0
LINE
8
A-WALL-PATT
10
16.43663
20
9.80556
30
0
11
16.11892
21
10.12326
31
0
0
LINE
8
A-WALL-PATT
10
16.43663
20
9.84722
30
0
11
16.11892
21
10.16493
31
0
0
LINE
8
A-WALL-PATT
10
16.43663
20
9.88889
30
0
11
16.11892
21
10.2066
31
0
0
LINE
8
A-WALL-PATT
10
16.43663
20
9.93056
30
0
11
16.11892
21
10.24826
31
0
0
LINE
8
A-WALL-PATT
10
16.43663
20
9.97222
30
0
11
16.11892
21
10.28993
31
0
0
LINE
8
A-WALL-PATT
10
16.43663
20
10.01389
30
0
11
16.11892
21
10.3316
31
0
0
LINE
8
A-WALL-PATT
10
16.43663
20
10.05556
30
0
11
16.11892
21
10.37326
31
0
0
LINE
8
A-WALL-PATT
10
16.43663
20
10.09722
30
0
11
16.11892
21
10.41493
31
0
0
LINE
8
A-WALL-PATT
10
16.43663
20
10.13889
30
0
11
16.11892
21
10.4566
31
0
0
LINE
8
A-WALL-PATT
10
16.43663
20
10.18056
30
0
11
16.11892
21
10.49826
31
0
0
LINE
8
A-WALL-PATT
10
16.43663
20
10.22222
30
0
11
16.11892
21
10.53993
31
0
0
LINE
8
A-WALL-PATT
10
16.43663
20
10.26389
30
0
11
16.11892
21
10.5816
31
0
0
LINE
8
A-WALL-PATT
10
16.43663
20
10.30556
30
0
11
16.11892
21
10.62326
31
0
0
LINE
8
A-WALL-PATT
10
16.43663
20
10.34722
30
0
11
16.11892
21
10.66493
31
0
0
LINE
8
A-WALL-PATT
10
16.43663
20
10.38889
30
0
11
16.11892
21
10.7066
31
0
0
LINE
8
A-WALL-PATT
10
16.43663
20
10.43056
30
0
11
16.11892
21
10.74826
31
0
0
LINE
8
A-WALL-PATT
10
16.43663
20
10.47222
30
0
11
16.11892
21
10.78993
31
0
0
LINE
8
A-WALL-PATT
10
16.43663
20
10.51389
30
0
11
16.11892
21
10.8316
31
0
0
LINE
8
A-WALL-PATT
10
16.43663
20
10.55556
30
0
11
16.11892
21
10.87326
31
0
0
LINE
8
A-WALL-PATT
10
16.43663
20
10.59722
30
0
11
16.11892
21
10.91493
31
0
0
LINE
8
A-WALL-PATT
10
16.43663
20
10.63889
30
0
11
16.11892
21
10.9566
31
0
0
LINE
8
A-WALL-PATT
10
16.43663
20
10.68056
30
0
11
16.11892
21
10.99826
31
0
0
LINE
8
A-WALL-PATT
10
16.43663
20
10.72222
30
0
11
16.11892
21
11.03993
31
0
0
LINE
8
A-WALL-PATT
10
16.43663
20
10.76389
30
0
11
16.11892
21
11.0816
31
0
0
LINE
8
A-WALL-PATT
10
16.43663
20
10.80556
30
0
11
16.11892
21
11.12326
31
0
0
LINE
8
A-WALL-PATT
10
16.43663
20
10.84722
30
0
11
16.11892
21
11.16493
31
0
0
LINE
8
A-WALL-PATT
10
16.43663
20
10.88889
30
0
11
16.11892
21
11.2066
31
0
0
LINE
8
A-WALL-PATT
10
16.43663
20
10.93056
30
0
11
16.11892
21
11.24826
31
0
0
LINE
8
A-WALL-PATT
10
16.43663
20
10.97222
30
0
11
16.11892
21
11.28993
31
0
0
LINE
8
A-WALL-PATT
10
16.43663
20
11.01389
30
0
11
16.11892
21
11.3316
31
0
0
LINE
8
A-WALL-PATT
10
16.43663
20
11.05556
30
0
11
16.11892
21
11.37326
31
0
0
LINE
8
A-WALL-PATT
10
16.43663
20
11.09722
30
0
11
16.11892
21
11.41493
31
0
0
LINE
8
A-WALL-PATT
10
16.43663
20
11.13889
30
0
11
16.11892
21
11.4566
31
0
0
LINE
8
A-WALL-PATT
10
16.43663
20
11.18056
30
0
11
16.11892
21
11.49826
31
0
0
LINE
8
A-WALL-PATT
10
16.43663
20
11.22222
30
0
11
16.11892
21
11.53993
31
0
0
LINE
8
A-WALL-PATT
10
16.43663
20
11.26389
30
0
11
16.11892
21
11.5816
31
0
0
LINE
8
A-WALL-PATT
10
16.43663
20
11.30556
30
0
11
16.11892
21
11.62326
31
0
0
LINE
8
A-WALL-PATT
10
16.43663
20
11.34722
30
0
11
16.11892
21
11.66493
31
0
0
LINE
8
A-WALL-PATT
10
16.43663
20
11.38889
30
0
11
16.11892
21
11.7066
31
0
0
LINE
8
A-WALL-PATT
10
16.43663
20
11.43056
30
0
11
16.11892
21
11.74826
31
0
0
LINE
8
A-WALL-PATT
10
16.43663
20
11.47222
30
0
11
16.11892
21
11.78993
31
0
0
LINE
8
A-WALL-PATT
10
16.43663
20
11.51389
30
0
11
16.11892
21
11.8316
31
0
0
LINE
8
A-WALL-PATT
10
16.43663
20
11.55556
30
0
11
16.11892
21
11.87326
31
0
0
LINE
8
A-WALL-PATT
10
16.43663
20
11.59722
30
0
11
16.11892
21
11.91493
31
0
0
LINE
8
A-WALL-PATT
10
16.43663
20
11.63889
30
0
11
16.11892
21
11.9566
31
0
0
LINE
8
A-WALL-PATT
10
16.43663
20
11.68056
30
0
11
16.11892
21
11.99826
31
0
0
LINE
8
A-WALL-PATT
10
16.43663
20
11.72222
30
0
11
16.11892
21
12.03993
31
0
0
LINE
8
A-WALL-PATT
10
16.43663
20
11.76389
30
0
11
16.11892
21
12.0816
31
0
0
LINE
8
A-WALL-PATT
10
16.43663
20
11.80556
30
0
11
16.11892
21
12.12326
31
0
0
LINE
8
A-WALL-PATT
10
16.43663
20
11.84722
30
0
11
16.11892
21
12.16493
31
0
0
LINE
8
A-WALL-PATT
10
16.43663
20
11.88889
30
0
11
16.11892
21
12.2066
31
0
0
LINE
8
A-WALL-PATT
10
16.43663
20
11.93056
30
0
11
16.11892
21
12.24826
31
0
0
LINE
8
A-WALL-PATT
10
16.43663
20
11.97222
30
0
11
16.11892
21
12.28993
31
0
0
LINE
8
A-WALL-PATT
10
16.43663
20
12.01389
30
0
11
16.11892
21
12.3316
31
0
0
LINE
8
A-WALL-PATT
10
16.43663
20
12.05556
30
0
11
16.11892
21
12.37326
31
0
0
LINE
8
A-WALL-PATT
10
16.43663
20
12.09722
30
0
11
16.11892
21
12.41493
31
0
0
LINE
8
A-WALL-PATT
10
16.43663
20
12.13889
30
0
11
16.11892
21
12.4566
31
0
0
LINE
8
A-WALL-PATT
10
16.43663
20
12.18056
30
0
11
16.11892
21
12.49826
31
0
0
LINE
8
A-WALL-PATT
10
16.43663
20
12.22222
30
0
11
16.11892
21
12.53993
31
0
0
LINE
8
A-WALL-PATT
10
16.43663
20
12.26389
30
0
11
16.11892
21
12.5816
31
0
0
LINE
8
A-WALL-PATT
10
16.43663
20
12.30556
30
0
11
16.11892
21
12.62326
31
0
0
LINE
8
A-WALL-PATT
10
16.43663
20
12.34722
30
0
11
16.11892
21
12.66493
31
0
0
LINE
8
A-WALL-PATT
10
16.43663
20
12.38889
30
0
11
16.11892
21
12.7066
31
0
0
LINE
8
A-WALL-PATT
10
16.43663
20
12.43056
30
0
11
16.11892
21
12.74826
31
0
0
LINE
8
A-WALL-PATT
10
16.43663
20
12.47222
30
0
11
16.11892
21
12.78993
31
0
0
LINE
8
A-WALL-PATT
10
16.43663
20
12.51389
30
0
11
16.11892
21
12.8316
31
0
0
LINE
8
A-WALL-PATT
10
16.43663
20
12.55556
30
0
11
16.11892
21
12.87326
31
0
0
LINE
8
A-WALL-PATT
10
16.43663
20
12.59722
30
0
11
16.11892
21
12.91493
31
0
0
LINE
8
A-WALL-PATT
10
16.43663
20
12.63889
30
0
11
16.11892
21
12.9566
31
0
0
LINE
8
A-WALL-PATT
10
16.43663
20
12.68056
30
0
11
16.11892
21
12.99826
31
0
0
LINE
8
A-WALL-PATT
10
16.43663
20
12.72222
30
0
11
16.11892
21
13.03993
31
0
0
LINE
8
A-WALL-PATT
10
16.43663
20
12.76389
30
0
11
16.11892
21
13.0816
31
0
0
LINE
8
A-WALL-PATT
10
16.43663
20
12.80556
30
0
11
16.11892
21
13.12326
31
0
0
LINE
8
A-WALL-PATT
10
16.43663
20
12.84722
30
0
11
16.11892
21
13.16493
31
0
0
LINE
8
A-WALL-PATT
10
16.43663
20
12.88889
30
0
11
16.11892
21
13.2066
31
0
0
LINE
8
A-WALL-PATT
10
16.43663
20
12.93056
30
0
11
16.11892
21
13.24826
31
0
0
LINE
8
A-WALL-PATT
10
16.43663
20
12.97222
30
0
11
16.11892
21
13.28993
31
0
0
LINE
8
A-WALL-PATT
10
16.43663
20
13.01389
30
0
11
16.11892
21
13.3316
31
0
0
LINE
8
A-WALL-PATT
10
16.43663
20
13.05556
30
0
11
16.11892
21
13.37326
31
0
0
LINE
8
A-WALL-PATT
10
16.43663
20
13.09722
30
0
11
16.11892
21
13.41493
31
0
0
LINE
8
A-WALL-PATT
10
16.43663
20
13.13889
30
0
11
16.11892
21
13.4566
31
0
0
LINE
8
A-WALL-PATT
10
16.43663
20
13.18056
30
0
11
16.11892
21
13.49826
31
0
0
LINE
8
A-WALL-PATT
10
16.43663
20
13.22222
30
0
11
16.11892
21
13.53993
31
0
0
LINE
8
A-WALL-PATT
10
16.43663
20
13.26389
30
0
11
16.11892
21
13.5816
31
0
0
LINE
8
A-WALL-PATT
10
16.43663
20
13.30556
30
0
11
16.11892
21
13.62326
31
0
0
LINE
8
A-WALL-PATT
10
16.43663
20
13.34722
30
0
11
16.11892
21
13.66493
31
0
0
LINE
8
A-WALL-PATT
10
16.43663
20
13.38889
30
0
11
16.11892
21
13.7066
31
0
0
LINE
8
A-WALL-PATT
10
16.43663
20
13.43056
30
0
11
16.11892
21
13.74826
31
0
0
LINE
8
A-WALL-PATT
10
16.43663
20
13.47222
30
0
11
16.11892
21
13.78993
31
0
0
LINE
8
A-WALL-PATT
10
16.43663
20
13.51389
30
0
11
16.11892
21
13.8316
31
0
0
LINE
8
A-WALL-PATT
10
16.43663
20
13.55556
30
0
11
16.11892
21
13.87326
31
0
0
LINE
8
A-WALL-PATT
10
16.43663
20
13.59722
30
0
11
16.11892
21
13.91493
31
0
0
LINE
8
A-WALL-PATT
10
16.43663
20
13.63889
30
0
11
16.11892
21
13.9566
31
0
0
LINE
8
A-WALL-PATT
10
16.43663
20
13.68056
30
0
11
16.11892
21
13.99826
31
0
0
LINE
8
A-WALL-PATT
10
16.43663
20
13.72222
30
0
11
16.11892
21
14.03993
31
0
0
LINE
8
A-WALL-PATT
10
16.43663
20
13.76389
30
0
11
16.11892
21
14.0816
31
0
0
LINE
8
A-WALL-PATT
10
16.43663
20
13.80556
30
0
11
16.11892
21
14.12326
31
0
0
LINE
8
A-WALL-PATT
10
16.43663
20
13.84722
30
0
11
16.11892
21
14.16493
31
0
0
LINE
8
A-WALL-PATT
10
16.43663
20
13.88889
30
0
11
16.11892
21
14.2066
31
0
0
LINE
8
A-WALL-PATT
10
16.43663
20
13.93056
30
0
11
16.11892
21
14.24826
31
0
0
LINE
8
A-WALL-PATT
10
16.43663
20
13.97222
30
0
11
16.11892
21
14.28993
31
0
0
LINE
8
A-WALL-PATT
10
16.43663
20
14.01389
30
0
11
16.11892
21
14.3316
31
0
0
LINE
8
A-WALL-PATT
10
16.43663
20
14.05556
30
0
11
16.11892
21
14.37326
31
0
0
LINE
8
A-WALL-PATT
10
16.43663
20
14.09722
30
0
11
16.11892
21
14.41493
31
0
0
LINE
8
A-WALL-PATT
10
16.43663
20
14.13889
30
0
11
16.11892
21
14.4566
31
0
0
LINE
8
A-WALL-PATT
10
16.43663
20
14.18056
30
0
11
16.11892
21
14.49826
31
0
0
LINE
8
A-WALL-PATT
10
16.43663
20
14.22222
30
0
11
16.11892
21
14.53993
31
0
0
LINE
8
A-WALL-PATT
10
16.43663
20
14.26389
30
0
11
16.11892
21
14.5816
31
0
0
LINE
8
A-WALL-PATT
10
16.43663
20
14.30556
30
0
11
16.11892
21
14.62326
31
0
0
LINE
8
A-WALL-PATT
10
16.43663
20
14.34722
30
0
11
16.11892
21
14.66493
31
0
0
LINE
8
A-WALL-PATT
10
16.43663
20
14.38889
30
0
11
16.11892
21
14.7066
31
0
0
LINE
8
A-WALL-PATT
10
16.43663
20
14.43056
30
0
11
16.11892
21
14.74826
31
0
0
LINE
8
A-WALL-PATT
10
16.43663
20
14.47222
30
0
11
16.11892
21
14.78993
31
0
0
LINE
8
A-WALL-PATT
10
16.43663
20
14.51389
30
0
11
16.11892
21
14.8316
31
0
0
LINE
8
A-WALL-PATT
10
16.43663
20
14.55556
30
0
11
16.11892
21
14.87326
31
0
0
LINE
8
A-WALL-PATT
10
16.43663
20
14.59722
30
0
11
16.11892
21
14.91493
31
0
0
LINE
8
A-WALL-PATT
10
16.43663
20
14.63889
30
0
11
16.11892
21
14.9566
31
0
0
LINE
8
A-WALL-PATT
10
16.43663
20
14.68056
30
0
11
16.11892
21
14.99826
31
0
0
LINE
8
A-WALL-PATT
10
16.43663
20
14.72222
30
0
11
16.11892
21
15.03993
31
0
0
LINE
8
A-WALL-PATT
10
16.43663
20
14.76389
30
0
11
16.11892
21
15.0816
31
0
0
LINE
8
A-WALL-PATT
10
16.43663
20
14.80556
30
0
11
16.11892
21
15.12326
31
0
0
LINE
8
A-WALL-PATT
10
16.43663
20
14.84722
30
0
11
16.11892
21
15.16493
31
0
0
LINE
8
A-WALL-PATT
10
16.43663
20
14.88889
30
0
11
16.11892
21
15.2066
31
0
0
LINE
8
A-WALL-PATT
10
16.43663
20
14.93056
30
0
11
16.11892
21
15.24826
31
0
0
LINE
8
A-WALL-PATT
10
16.43663
20
14.97222
30
0
11
16.11892
21
15.28993
31
0
0
LINE
8
A-WALL-PATT
10
16.43663
20
15.01389
30
0
11
16.11892
21
15.3316
31
0
0
LINE
8
A-WALL-PATT
10
16.43663
20
15.05556
30
0
11
16.11892
21
15.37326
31
0
0
LINE
8
A-WALL-PATT
10
16.43663
20
15.09722
30
0
11
16.11892
21
15.41493
31
0
0
LINE
8
A-WALL-PATT
10
16.43663
20
15.13889
30
0
11
16.11892
21
15.4566
31
0
0
LINE
8
A-WALL-PATT
10
16.43663
20
15.18056
30
0
11
16.11892
21
15.49826
31
0
0
LINE
8
A-WALL-PATT
10
16.43663
20
15.22222
30
0
11
16.11892
21
15.53993
31
0
0
LINE
8
A-WALL-PATT
10
16.43663
20
15.26389
30
0
11
16.11892
21
15.5816
31
0
0
LINE
8
A-WALL-PATT
10
16.43663
20
15.30556
30
0
11
16.11892
21
15.62326
31
0
0
LINE
8
A-WALL-PATT
10
16.43663
20
15.34722
30
0
11
16.11892
21
15.66493
31
0
0
LINE
8
A-WALL-PATT
10
16.43663
20
15.38889
30
0
11
16.11892
21
15.7066
31
0
0
LINE
8
A-WALL-PATT
10
16.43663
20
15.43056
30
0
11
16.11892
21
15.74826
31
0
0
LINE
8
A-WALL-PATT
10
16.43663
20
15.47222
30
0
11
16.11892
21
15.78993
31
0
0
LINE
8
A-WALL-PATT
10
16.43663
20
15.51389
30
0
11
16.11892
21
15.8316
31
0
0
LINE
8
A-WALL-PATT
10
16.43663
20
15.55556
30
0
11
16.11892
21
15.87326
31
0
0
LINE
8
A-WALL-PATT
10
16.43663
20
15.59722
30
0
11
16.11892
21
15.91493
31
0
0
LINE
8
A-WALL-PATT
10
16.43663
20
15.63889
30
0
11
16.11892
21
15.9566
31
0
0
LINE
8
A-WALL-PATT
10
16.43663
20
15.68056
30
0
11
16.11892
21
15.99826
31
0
0
LINE
8
A-WALL-PATT
10
16.43663
20
15.72222
30
0
11
16.11892
21
16.03993
31
0
0
LINE
8
A-WALL-PATT
10
16.43663
20
15.76389
30
0
11
16.11892
21
16.0816
31
0
0
LINE
8
A-WALL-PATT
10
16.43663
20
15.80556
30
0
11
16.11892
21
16.12326
31
0
0
LINE
8
A-WALL-PATT
10
16.43663
20
15.84722
30
0
11
16.11892
21
16.16493
31
0
0
LINE
8
A-WALL-PATT
10
16.43663
20
15.88889
30
0
11
16.11892
21
16.2066
31
0
0
LINE
8
A-WALL-PATT
10
16.43663
20
15.93056
30
0
11
16.11892
21
16.24826
31
0
0
LINE
8
A-WALL-PATT
10
16.43663
20
15.97222
30
0
11
16.11892
21
16.28993
31
0
0
LINE
8
A-WALL-PATT
10
16.43663
20
16.01389
30
0
11
16.11892
21
16.3316
31
0
0
LINE
8
A-WALL-PATT
10
16.43663
20
16.05556
30
0
11
16.11892
21
16.37326
31
0
0
LINE
8
A-WALL-PATT
10
16.43663
20
16.09722
30
0
11
16.11892
21
16.41493
31
0
0
LINE
8
A-WALL-PATT
10
16.43663
20
16.13889
30
0
11
16.11892
21
16.4566
31
0
0
LINE
8
A-WALL-PATT
10
16.43663
20
16.18056
30
0
11
16.11892
21
16.49826
31
0
0
LINE
8
A-WALL-PATT
10
16.43663
20
16.22222
30
0
11
16.11892
21
16.53993
31
0
0
LINE
8
A-WALL-PATT
10
16.43663
20
16.26389
30
0
11
16.11892
21
16.5816
31
0
0
LINE
8
A-WALL-PATT
10
16.43663
20
16.30556
30
0
11
16.11892
21
16.62326
31
0
0
LINE
8
A-WALL-PATT
10
16.43663
20
16.34722
30
0
11
16.11892
21
16.66493
31
0
0
LINE
8
A-WALL-PATT
10
16.43663
20
16.38889
30
0
11
16.11892
21
16.7066
31
0
0
LINE
8
A-WALL-PATT
10
16.43663
20
16.43056
30
0
11
16.11892
21
16.74826
31
0
0
LINE
8
A-WALL-PATT
10
16.43663
20
16.47222
30
0
11
16.11892
21
16.78993
31
0
0
LINE
8
A-WALL-PATT
10
16.43663
20
16.51389
30
0
11
16.11892
21
16.8316
31
0
0
LINE
8
A-WALL-PATT
10
16.43663
20
16.55556
30
0
11
16.11892
21
16.87326
31
0
0
LINE
8
A-WALL-PATT
10
16.43663
20
16.59722
30
0
11
16.11892
21
16.91493
31
0
0
LINE
8
A-WALL-PATT
10
16.43663
20
16.63889
30
0
11
16.11892
21
16.9566
31
0
0
LINE
8
A-WALL-PATT
10
16.43663
20
16.68056
30
0
11
16.11892
21
16.99826
31
0
0
LINE
8
A-WALL-PATT
10
16.43663
20
16.72222
30
0
11
16.11892
21
17.03993
31
0
0
LINE
8
A-WALL-PATT
10
16.43663
20
16.76389
30
0
11
16.11892
21
17.0816
31
0
0
LINE
8
A-WALL-PATT
10
16.43663
20
16.80556
30
0
11
16.11892
21
17.12326
31
0
0
LINE
8
A-WALL-PATT
10
16.43663
20
16.84722
30
0
11
16.11892
21
17.16493
31
0
0
LINE
8
A-WALL-PATT
10
16.43663
20
16.88889
30
0
11
16.11892
21
17.2066
31
0
0
LINE
8
A-WALL-PATT
10
16.43663
20
16.93056
30
0
11
16.11892
21
17.24826
31
0
0
LINE
8
A-WALL-PATT
10
16.43663
20
16.97222
30
0
11
16.11892
21
17.28993
31
0
0
LINE
8
A-WALL-PATT
10
16.43663
20
17.01389
30
0
11
16.11892
21
17.3316
31
0
0
LINE
8
A-WALL-PATT
10
16.43663
20
17.05556
30
0
11
16.11892
21
17.37326
31
0
0
LINE
8
A-WALL-PATT
10
16.43663
20
17.09722
30
0
11
16.11892
21
17.41493
31
0
0
LINE
8
A-WALL-PATT
10
16.43663
20
17.13889
30
0
11
16.11892
21
17.4566
31
0
0
LINE
8
A-WALL-PATT
10
16.43663
20
17.18056
30
0
11
16.11892
21
17.49826
31
0
0
LINE
8
A-WALL-PATT
10
16.43663
20
17.22222
30
0
11
16.11892
21
17.53993
31
0
0
LINE
8
A-WALL-PATT
10
16.43663
20
17.26389
30
0
11
16.11892
21
17.5816
31
0
0
LINE
8
A-WALL-PATT
10
16.43663
20
17.30556
30
0
11
16.11892
21
17.62326
31
0
0
LINE
8
A-WALL-PATT
10
16.43663
20
17.34722
30
0
11
16.11892
21
17.66493
31
0
0
LINE
8
A-WALL-PATT
10
16.43663
20
17.38889
30
0
11
16.11892
21
17.7066
31
0
0
LINE
8
A-WALL-PATT
10
16.43663
20
17.43056
30
0
11
16.11892
21
17.74826
31
0
0
LINE
8
A-WALL-PATT
10
16.43663
20
17.47222
30
0
11
16.11892
21
17.78993
31
0
0
LINE
8
A-WALL-PATT
10
16.43663
20
17.51389
30
0
11
16.11892
21
17.8316
31
0
0
LINE
8
A-WALL-PATT
10
16.43663
20
17.55556
30
0
11
16.11892
21
17.87326
31
0
0
LINE
8
A-WALL-PATT
10
16.43663
20
17.59722
30
0
11
16.11892
21
17.91493
31
0
0
LINE
8
A-WALL-PATT
10
16.43663
20
17.63889
30
0
11
16.11892
21
17.9566
31
0
0
LINE
8
A-WALL-PATT
10
16.43663
20
17.68056
30
0
11
16.11892
21
17.99826
31
0
0
LINE
8
A-WALL-PATT
10
16.43663
20
17.72222
30
0
11
16.11892
21
18.03993
31
0
0
LINE
8
A-WALL-PATT
10
16.43663
20
17.76389
30
0
11
16.11892
21
18.0816
31
0
0
LINE
8
A-WALL-PATT
10
16.43663
20
17.80556
30
0
11
16.11892
21
18.12326
31
0
0
LINE
8
A-WALL-PATT
10
16.43663
20
17.84722
30
0
11
16.11892
21
18.16493
31
0
0
LINE
8
A-WALL-PATT
10
16.43663
20
17.88889
30
0
11
16.11892
21
18.2066
31
0
0
LINE
8
A-WALL-PATT
10
16.43663
20
17.93056
30
0
11
16.11892
21
18.24826
31
0
0
LINE
8
A-WALL-PATT
10
16.43663
20
17.97222
30
0
11
16.11892
21
18.28993
31
0
0
LINE
8
A-WALL-PATT
10
16.43663
20
18.01389
30
0
11
16.11892
21
18.3316
31
0
0
LINE
8
A-WALL-PATT
10
16.43663
20
18.05556
30
0
11
16.11892
21
18.37326
31
0
0
LINE
8
A-WALL-PATT
10
16.43663
20
18.09722
30
0
11
16.11892
21
18.41493
31
0
0
LINE
8
A-WALL-PATT
10
16.43663
20
18.13889
30
0
11
16.11892
21
18.4566
31
0
0
LINE
8
A-WALL-PATT
10
16.43663
20
18.18056
30
0
11
16.11892
21
18.49826
31
0
0
LINE
8
A-WALL-PATT
10
16.43663
20
18.22222
30
0
11
16.11892
21
18.53993
31
0
0
LINE
8
A-WALL-PATT
10
16.43663
20
18.26389
30
0
11
16.11892
21
18.5816
31
0
0
LINE
8
A-WALL-PATT
10
16.43663
20
18.30556
30
0
11
16.11892
21
18.62326
31
0
0
LINE
8
A-WALL-PATT
10
16.43663
20
18.34722
30
0
11
16.11892
21
18.66493
31
0
0
LINE
8
A-WALL-PATT
10
16.43663
20
18.38889
30
0
11
16.11892
21
18.7066
31
0
0
LINE
8
A-WALL-PATT
10
16.43663
20
18.43056
30
0
11
16.11892
21
18.74826
31
0
0
LINE
8
A-WALL-PATT
10
16.43663
20
18.47222
30
0
11
16.11892
21
18.78993
31
0
0
LINE
8
A-WALL-PATT
10
16.43663
20
18.51389
30
0
11
16.11892
21
18.8316
31
0
0
LINE
8
A-WALL-PATT
10
16.43663
20
18.55556
30
0
11
16.11892
21
18.87326
31
0
0
LINE
8
A-WALL-PATT
10
16.43663
20
18.59722
30
0
11
16.11892
21
18.91493
31
0
0
LINE
8
A-WALL-PATT
10
16.43663
20
18.63889
30
0
11
16.11892
21
18.9566
31
0
0
LINE
8
A-WALL-PATT
10
16.43663
20
18.68056
30
0
11
16.11892
21
18.99826
31
0
0
LINE
8
A-WALL-PATT
10
16.43663
20
18.72222
30
0
11
16.11892
21
19.03993
31
0
0
LINE
8
A-WALL-PATT
10
16.43663
20
18.76389
30
0
11
16.11892
21
19.0816
31
0
0
LINE
8
A-WALL-PATT
10
16.43663
20
18.80556
30
0
11
16.11892
21
19.12326
31
0
0
LINE
8
A-WALL-PATT
10
16.43663
20
18.84722
30
0
11
16.11892
21
19.16493
31
0
0
LINE
8
A-WALL-PATT
10
16.43663
20
18.88889
30
0
11
16.11892
21
19.2066
31
0
0
LINE
8
A-WALL-PATT
10
16.43663
20
18.93056
30
0
11
16.11892
21
19.24826
31
0
0
LINE
8
A-WALL-PATT
10
16.43663
20
18.97222
30
0
11
16.11892
21
19.28993
31
0
0
LINE
8
A-WALL-PATT
10
16.43663
20
19.01389
30
0
11
16.11892
21
19.3316
31
0
0
LINE
8
A-WALL-PATT
10
16.43663
20
19.05556
30
0
11
16.11892
21
19.37326
31
0
0
LINE
8
A-WALL-CMU
10
16.43663
20
4.21441
30
0
11
25.09288
21
4.21441
31
0
0
LINE
8
A-WALL-CMU
10
16.11892
20
3.8967
30
0
11
25.09288
21
3.8967
31
0
0
LINE
8
A-WALL-PATT
10
16.27778
20
3.8967
30
0
11
16.59549
21
4.21441
31
0
0
LINE
8
A-WALL-PATT
10
16.31944
20
3.8967
30
0
11
16.63715
21
4.21441
31
0
0
LINE
8
A-WALL-PATT
10
16.36111
20
3.8967
30
0
11
16.67882
21
4.21441
31
0
0
LINE
8
A-WALL-PATT
10
16.40278
20
3.8967
30
0
11
16.72049
21
4.21441
31
0
0
LINE
8
A-WALL-PATT
10
16.44444
20
3.8967
30
0
11
16.76215
21
4.21441
31
0
0
LINE
8
A-WALL-PATT
10
16.48611
20
3.8967
30
0
11
16.80382
21
4.21441
31
0
0
LINE
8
A-WALL-PATT
10
16.52778
20
3.8967
30
0
11
16.84549
21
4.21441
31
0
0
LINE
8
A-WALL-PATT
10
16.56944
20
3.8967
30
0
11
16.88715
21
4.21441
31
0
0
LINE
8
A-WALL-PATT
10
16.61111
20
3.8967
30
0
11
16.92882
21
4.21441
31
0
0
LINE
8
A-WALL-PATT
10
16.65278
20
3.8967
30
0
11
16.97049
21
4.21441
31
0
0
LINE
8
A-WALL-PATT
10
16.69444
20
3.8967
30
0
11
17.01215
21
4.21441
31
0
0
LINE
8
A-WALL-PATT
10
16.73611
20
3.8967
30
0
11
17.05382
21
4.21441
31
0
0
LINE
8
A-WALL-PATT
10
16.77778
20
3.8967
30
0
11
17.09549
21
4.21441
31
0
0
LINE
8
A-WALL-PATT
10
16.81944
20
3.8967
30
0
11
17.13715
21
4.21441
31
0
0
LINE
8
A-WALL-PATT
10
16.86111
20
3.8967
30
0
11
17.17882
21
4.21441
31
0
0
LINE
8
A-WALL-PATT
10
16.90278
20
3.8967
30
0
11
17.22049
21
4.21441
31
0
0
LINE
8
A-WALL-PATT
10
16.94444
20
3.8967
30
0
11
17.26215
21
4.21441
31
0
0
LINE
8
A-WALL-PATT
10
16.98611
20
3.8967
30
0
11
17.30382
21
4.21441
31
0
0
LINE
8
A-WALL-PATT
10
17.02778
20
3.8967
30
0
11
17.34549
21
4.21441
31
0
0
LINE
8
A-WALL-PATT
10
17.06944
20
3.8967
30
0
11
17.38715
21
4.21441
31
0
0
LINE
8
A-WALL-PATT
10
17.11111
20
3.8967
30
0
11
17.42882
21
4.21441
31
0
0
LINE
8
A-WALL-PATT
10
17.15278
20
3.8967
30
0
11
17.47049
21
4.21441
31
0
0
LINE
8
A-WALL-PATT
10
17.19444
20
3.8967
30
0
11
17.51215
21
4.21441
31
0
0
LINE
8
A-WALL-PATT
10
17.23611
20
3.8967
30
0
11
17.55382
21
4.21441
31
0
0
LINE
8
A-WALL-PATT
10
17.27778
20
3.8967
30
0
11
17.59549
21
4.21441
31
0
0
LINE
8
A-WALL-PATT
10
17.31944
20
3.8967
30
0
11
17.63715
21
4.21441
31
0
0
LINE
8
A-WALL-PATT
10
17.36111
20
3.8967
30
0
11
17.67882
21
4.21441
31
0
0
LINE
8
A-WALL-PATT
10
17.40278
20
3.8967
30
0
11
17.72049
21
4.21441
31
0
0
LINE
8
A-WALL-PATT
10
17.44444
20
3.8967
30
0
11
17.76215
21
4.21441
31
0
0
LINE
8
A-WALL-PATT
10
17.48611
20
3.8967
30
0
11
17.80382
21
4.21441
31
0
0
LINE
8
A-WALL-PATT
10
17.52778
20
3.8967
30
0
11
17.84549
21
4.21441
31
0
0
LINE
8
A-WALL-PATT
10
17.56944
20
3.8967
30
0
11
17.88715
21
4.21441
31
0
0
LINE
8
A-WALL-PATT
10
17.61111
20
3.8967
30
0
11
17.92882
21
4.21441
31
0
0
LINE
8
A-WALL-PATT
10
17.65278
20
3.8967
30
0
11
17.97049
21
4.21441
31
0
0
LINE
8
A-WALL-PATT
10
17.69444
20
3.8967
30
0
11
18.01215
21
4.21441
31
0
0
LINE
8
A-WALL-PATT
10
17.73611
20
3.8967
30
0
11
18.05382
21
4.21441
31
0
0
LINE
8
A-WALL-PATT
10
17.77778
20
3.8967
30
0
11
18.09549
21
4.21441
31
0
0
LINE
8
A-WALL-PATT
10
17.81944
20
3.8967
30
0
11
18.13715
21
4.21441
31
0
0
LINE
8
A-WALL-PATT
10
17.86111
20
3.8967
30
0
11
18.17882
21
4.21441
31
0
0
LINE
8
A-WALL-PATT
10
17.90278
20
3.8967
30
0
11
18.22049
21
4.21441
31
0
0
LINE
8
A-WALL-PATT
10
17.94444
20
3.8967
30
0
11
18.26215
21
4.21441
31
0
0
LINE
8
A-WALL-PATT
10
17.98611
20
3.8967
30
0
11
18.30382
21
4.21441
31
0
0
LINE
8
A-WALL-PATT
10
18.02778
20
3.8967
30
0
11
18.34549
21
4.21441
31
0
0
LINE
8
A-WALL-PATT
10
18.06944
20
3.8967
30
0
11
18.38715
21
4.21441
31
0
0
LINE
8
A-WALL-PATT
10
18.11111
20
3.8967
30
0
11
18.42882
21
4.21441
31
0
0
LINE
8
A-WALL-PATT
10
18.15278
20
3.8967
30
0
11
18.47049
21
4.21441
31
0
0
LINE
8
A-WALL-PATT
10
18.19444
20
3.8967
30
0
11
18.51215
21
4.21441
31
0
0
LINE
8
A-WALL-PATT
10
18.23611
20
3.8967
30
0
11
18.55382
21
4.21441
31
0
0
LINE
8
A-WALL-PATT
10
18.27778
20
3.8967
30
0
11
18.59549
21
4.21441
31
0
0
LINE
8
A-WALL-PATT
10
18.31944
20
3.8967
30
0
11
18.63715
21
4.21441
31
0
0
LINE
8
A-WALL-PATT
10
18.36111
20
3.8967
30
0
11
18.67882
21
4.21441
31
0
0
LINE
8
A-WALL-PATT
10
18.40278
20
3.8967
30
0
11
18.72049
21
4.21441
31
0
0
LINE
8
A-WALL-PATT
10
18.44444
20
3.8967
30
0
11
18.76215
21
4.21441
31
0
0
LINE
8
A-WALL-PATT
10
18.48611
20
3.8967
30
0
11
18.80382
21
4.21441
31
0
0
LINE
8
A-WALL-PATT
10
18.52778
20
3.8967
30
0
11
18.84549
21
4.21441
31
0
0
LINE
8
A-WALL-PATT
10
18.56944
20
3.8967
30
0
11
18.88715
21
4.21441
31
0
0
LINE
8
A-WALL-PATT
10
18.61111
20
3.8967
30
0
11
18.92882
21
4.21441
31
0
0
LINE
8
A-WALL-PATT
10
18.65278
20
3.8967
30
0
11
18.97049
21
4.21441
31
0
0
LINE
8
A-WALL-PATT
10
18.69444
20
3.8967
30
0
11
19.01215
21
4.21441
31
0
0
LINE
8
A-WALL-PATT
10
18.73611
20
3.8967
30
0
11
19.05382
21
4.21441
31
0
0
LINE
8
A-WALL-PATT
10
18.77778
20
3.8967
30
0
11
19.09549
21
4.21441
31
0
0
LINE
8
A-WALL-PATT
10
18.81944
20
3.8967
30
0
11
19.13715
21
4.21441
31
0
0
LINE
8
A-WALL-PATT
10
18.86111
20
3.8967
30
0
11
19.17882
21
4.21441
31
0
0
LINE
8
A-WALL-PATT
10
18.90278
20
3.8967
30
0
11
19.22049
21
4.21441
31
0
0
LINE
8
A-WALL-PATT
10
18.94444
20
3.8967
30
0
11
19.26215
21
4.21441
31
0
0
LINE
8
A-WALL-PATT
10
18.98611
20
3.8967
30
0
11
19.30382
21
4.21441
31
0
0
LINE
8
A-WALL-PATT
10
19.02778
20
3.8967
30
0
11
19.34549
21
4.21441
31
0
0
LINE
8
A-WALL-PATT
10
19.06944
20
3.8967
30
0
11
19.38715
21
4.21441
31
0
0
LINE
8
A-WALL-PATT
10
19.11111
20
3.8967
30
0
11
19.42882
21
4.21441
31
0
0
LINE
8
A-WALL-PATT
10
19.15278
20
3.8967
30
0
11
19.47049
21
4.21441
31
0
0
LINE
8
A-WALL-PATT
10
19.19444
20
3.8967
30
0
11
19.51215
21
4.21441
31
0
0
LINE
8
A-WALL-PATT
10
19.23611
20
3.8967
30
0
11
19.55382
21
4.21441
31
0
0
LINE
8
A-WALL-PATT
10
19.27778
20
3.8967
30
0
11
19.59549
21
4.21441
31
0
0
LINE
8
A-WALL-PATT
10
19.31944
20
3.8967
30
0
11
19.63715
21
4.21441
31
0
0
LINE
8
A-WALL-PATT
10
19.36111
20
3.8967
30
0
11
19.67882
21
4.21441
31
0
0
LINE
8
A-WALL-PATT
10
19.40278
20
3.8967
30
0
11
19.72049
21
4.21441
31
0
0
LINE
8
A-WALL-PATT
10
19.44444
20
3.8967
30
0
11
19.76215
21
4.21441
31
0
0
LINE
8
A-WALL-PATT
10
19.48611
20
3.8967
30
0
11
19.80382
21
4.21441
31
0
0
LINE
8
A-WALL-PATT
10
19.52778
20
3.8967
30
0
11
19.84549
21
4.21441
31
0
0
LINE
8
A-WALL-PATT
10
19.56944
20
3.8967
30
0
11
19.88715
21
4.21441
31
0
0
LINE
8
A-WALL-PATT
10
19.61111
20
3.8967
30
0
11
19.92882
21
4.21441
31
0
0
LINE
8
A-WALL-PATT
10
19.65278
20
3.8967
30
0
11
19.97049
21
4.21441
31
0
0
LINE
8
A-WALL-PATT
10
19.69444
20
3.8967
30
0
11
20.01215
21
4.21441
31
0
0
LINE
8
A-WALL-PATT
10
19.73611
20
3.8967
30
0
11
20.05382
21
4.21441
31
0
0
LINE
8
A-WALL-PATT
10
19.77778
20
3.8967
30
0
11
20.09549
21
4.21441
31
0
0
LINE
8
A-WALL-PATT
10
19.81944
20
3.8967
30
0
11
20.13715
21
4.21441
31
0
0
LINE
8
A-WALL-PATT
10
19.86111
20
3.8967
30
0
11
20.17882
21
4.21441
31
0
0
LINE
8
A-WALL-PATT
10
19.90278
20
3.8967
30
0
11
20.22049
21
4.21441
31
0
0
LINE
8
A-WALL-PATT
10
19.94444
20
3.8967
30
0
11
20.26215
21
4.21441
31
0
0
LINE
8
A-WALL-PATT
10
19.98611
20
3.8967
30
0
11
20.30382
21
4.21441
31
0
0
LINE
8
A-WALL-PATT
10
20.02778
20
3.8967
30
0
11
20.34549
21
4.21441
31
0
0
LINE
8
A-WALL-PATT
10
20.06944
20
3.8967
30
0
11
20.38715
21
4.21441
31
0
0
LINE
8
A-WALL-PATT
10
20.11111
20
3.8967
30
0
11
20.42882
21
4.21441
31
0
0
LINE
8
A-WALL-PATT
10
20.15278
20
3.8967
30
0
11
20.47049
21
4.21441
31
0
0
LINE
8
A-WALL-PATT
10
20.19444
20
3.8967
30
0
11
20.51215
21
4.21441
31
0
0
LINE
8
A-WALL-PATT
10
20.23611
20
3.8967
30
0
11
20.55382
21
4.21441
31
0
0
LINE
8
A-WALL-PATT
10
20.27778
20
3.8967
30
0
11
20.59549
21
4.21441
31
0
0
LINE
8
A-WALL-PATT
10
20.31944
20
3.8967
30
0
11
20.63715
21
4.21441
31
0
0
LINE
8
A-WALL-PATT
10
20.36111
20
3.8967
30
0
11
20.67882
21
4.21441
31
0
0
LINE
8
A-WALL-PATT
10
20.40278
20
3.8967
30
0
11
20.72049
21
4.21441
31
0
0
LINE
8
A-WALL-PATT
10
20.44444
20
3.8967
30
0
11
20.76215
21
4.21441
31
0
0
LINE
8
A-WALL-PATT
10
20.48611
20
3.8967
30
0
11
20.80382
21
4.21441
31
0
0
LINE
8
A-WALL-PATT
10
20.52778
20
3.8967
30
0
11
20.84549
21
4.21441
31
0
0
LINE
8
A-WALL-PATT
10
20.56944
20
3.8967
30
0
11
20.88715
21
4.21441
31
0
0
LINE
8
A-WALL-PATT
10
20.61111
20
3.8967
30
0
11
20.92882
21
4.21441
31
0
0
LINE
8
A-WALL-PATT
10
20.65278
20
3.8967
30
0
11
20.97049
21
4.21441
31
0
0
LINE
8
A-WALL-PATT
10
20.69444
20
3.8967
30
0
11
21.01215
21
4.21441
31
0
0
LINE
8
A-WALL-PATT
10
20.73611
20
3.8967
30
0
11
21.05382
21
4.21441
31
0
0
LINE
8
A-WALL-PATT
10
20.77778
20
3.8967
30
0
11
21.09549
21
4.21441
31
0
0
LINE
8
A-WALL-PATT
10
20.81944
20
3.8967
30
0
11
21.13715
21
4.21441
31
0
0
LINE
8
A-WALL-PATT
10
20.86111
20
3.8967
30
0
11
21.17882
21
4.21441
31
0
0
LINE
8
A-WALL-PATT
10
20.90278
20
3.8967
30
0
11
21.22049
21
4.21441
31
0
0
LINE
8
A-WALL-PATT
10
20.94444
20
3.8967
30
0
11
21.26215
21
4.21441
31
0
0
LINE
8
A-WALL-PATT
10
20.98611
20
3.8967
30
0
11
21.30382
21
4.21441
31
0
0
LINE
8
A-WALL-PATT
10
21.02778
20
3.8967
30
0
11
21.34549
21
4.21441
31
0
0
LINE
8
A-WALL-PATT
10
21.06944
20
3.8967
30
0
11
21.38715
21
4.21441
31
0
0
LINE
8
A-WALL-PATT
10
21.11111
20
3.8967
30
0
11
21.42882
21
4.21441
31
0
0
LINE
8
A-WALL-PATT
10
21.15278
20
3.8967
30
0
11
21.47049
21
4.21441
31
0
0
LINE
8
A-WALL-PATT
10
21.19444
20
3.8967
30
0
11
21.51215
21
4.21441
31
0
0
LINE
8
A-WALL-PATT
10
21.23611
20
3.8967
30
0
11
21.55382
21
4.21441
31
0
0
LINE
8
A-WALL-PATT
10
21.27778
20
3.8967
30
0
11
21.59549
21
4.21441
31
0
0
LINE
8
A-WALL-PATT
10
21.31944
20
3.8967
30
0
11
21.63715
21
4.21441
31
0
0
LINE
8
A-WALL-PATT
10
21.36111
20
3.8967
30
0
11
21.67882
21
4.21441
31
0
0
LINE
8
A-WALL-PATT
10
21.40278
20
3.8967
30
0
11
21.72049
21
4.21441
31
0
0
LINE
8
A-WALL-PATT
10
21.44444
20
3.8967
30
0
11
21.76215
21
4.21441
31
0
0
LINE
8
A-WALL-PATT
10
21.48611
20
3.8967
30
0
11
21.80382
21
4.21441
31
0
0
LINE
8
A-WALL-PATT
10
21.52778
20
3.8967
30
0
11
21.84549
21
4.21441
31
0
0
LINE
8
A-WALL-PATT
10
21.56944
20
3.8967
30
0
11
21.88715
21
4.21441
31
0
0
LINE
8
A-WALL-PATT
10
21.61111
20
3.8967
30
0
11
21.92882
21
4.21441
31
0
0
LINE
8
A-WALL-PATT
10
21.65278
20
3.8967
30
0
11
21.97049
21
4.21441
31
0
0
LINE
8
A-WALL-PATT
10
21.69444
20
3.8967
30
0
11
22.01215
21
4.21441
31
0
0
LINE
8
A-WALL-PATT
10
21.73611
20
3.8967
30
0
11
22.05382
21
4.21441
31
0
0
LINE
8
A-WALL-PATT
10
21.77778
20
3.8967
30
0
11
22.09549
21
4.21441
31
0
0
LINE
8
A-WALL-PATT
10
21.81944
20
3.8967
30
0
11
22.13715
21
4.21441
31
0
0
LINE
8
A-WALL-PATT
10
21.86111
20
3.8967
30
0
11
22.17882
21
4.21441
31
0
0
LINE
8
A-WALL-PATT
10
21.90278
20
3.8967
30
0
11
22.22049
21
4.21441
31
0
0
LINE
8
A-WALL-PATT
10
21.94444
20
3.8967
30
0
11
22.26215
21
4.21441
31
0
0
LINE
8
A-WALL-PATT
10
21.98611
20
3.8967
30
0
11
22.30382
21
4.21441
31
0
0
LINE
8
A-WALL-PATT
10
22.02778
20
3.8967
30
0
11
22.34549
21
4.21441
31
0
0
LINE
8
A-WALL-PATT
10
22.06944
20
3.8967
30
0
11
22.38715
21
4.21441
31
0
0
LINE
8
A-WALL-PATT
10
22.11111
20
3.8967
30
0
11
22.42882
21
4.21441
31
0
0
LINE
8
A-WALL-PATT
10
22.15278
20
3.8967
30
0
11
22.47049
21
4.21441
31
0
0
LINE
8
A-WALL-PATT
10
22.19444
20
3.8967
30
0
11
22.51215
21
4.21441
31
0
0
LINE
8
A-WALL-PATT
10
22.23611
20
3.8967
30
0
11
22.55382
21
4.21441
31
0
0
LINE
8
A-WALL-PATT
10
22.27778
20
3.8967
30
0
11
22.59549
21
4.21441
31
0
0
LINE
8
A-WALL-PATT
10
22.31944
20
3.8967
30
0
11
22.63715
21
4.21441
31
0
0
LINE
8
A-WALL-PATT
10
22.36111
20
3.8967
30
0
11
22.67882
21
4.21441
31
0
0
LINE
8
A-WALL-PATT
10
22.40278
20
3.8967
30
0
11
22.72049
21
4.21441
31
0
0
LINE
8
A-WALL-PATT
10
22.44444
20
3.8967
30
0
11
22.76215
21
4.21441
31
0
0
LINE
8
A-WALL-PATT
10
22.48611
20
3.8967
30
0
11
22.80382
21
4.21441
31
0
0
LINE
8
A-WALL-PATT
10
22.52778
20
3.8967
30
0
11
22.84549
21
4.21441
31
0
0
LINE
8
A-WALL-PATT
10
22.56944
20
3.8967
30
0
11
22.88715
21
4.21441
31
0
0
LINE
8
A-WALL-PATT
10
22.61111
20
3.8967
30
0
11
22.92882
21
4.21441
31
0
0
LINE
8
A-WALL-PATT
10
22.65278
20
3.8967
30
0
11
22.97049
21
4.21441
31
0
0
LINE
8
A-WALL-PATT
10
22.69444
20
3.8967
30
0
11
23.01215
21
4.21441
31
0
0
LINE
8
A-WALL-PATT
10
22.73611
20
3.8967
30
0
11
23.05382
21
4.21441
31
0
0
LINE
8
A-WALL-PATT
10
22.77778
20
3.8967
30
0
11
23.09549
21
4.21441
31
0
0
LINE
8
A-WALL-PATT
10
22.81944
20
3.8967
30
0
11
23.13715
21
4.21441
31
0
0
LINE
8
A-WALL-PATT
10
22.86111
20
3.8967
30
0
11
23.17882
21
4.21441
31
0
0
LINE
8
A-WALL-PATT
10
22.90278
20
3.8967
30
0
11
23.22049
21
4.21441
31
0
0
LINE
8
A-WALL-PATT
10
22.94444
20
3.8967
30
0
11
23.26215
21
4.21441
31
0
0
LINE
8
A-WALL-PATT
10
22.98611
20
3.8967
30
0
11
23.30382
21
4.21441
31
0
0
LINE
8
A-WALL-PATT
10
23.02778
20
3.8967
30
0
11
23.34549
21
4.21441
31
0
0
LINE
8
A-WALL-PATT
10
23.06944
20
3.8967
30
0
11
23.38715
21
4.21441
31
0
0
LINE
8
A-WALL-PATT
10
23.11111
20
3.8967
30
0
11
23.42882
21
4.21441
31
0
0
LINE
8
A-WALL-PATT
10
23.15278
20
3.8967
30
0
11
23.47049
21
4.21441
31
0
0
LINE
8
A-WALL-PATT
10
23.19444
20
3.8967
30
0
11
23.51215
21
4.21441
31
0
0
LINE
8
A-WALL-PATT
10
23.23611
20
3.8967
30
0
11
23.55382
21
4.21441
31
0
0
LINE
8
A-WALL-PATT
10
23.27778
20
3.8967
30
0
11
23.59549
21
4.21441
31
0
0
LINE
8
A-WALL-PATT
10
23.31944
20
3.8967
30
0
11
23.63715
21
4.21441
31
0
0
LINE
8
A-WALL-PATT
10
23.36111
20
3.8967
30
0
11
23.67882
21
4.21441
31
0
0
LINE
8
A-WALL-PATT
10
23.40278
20
3.8967
30
0
11
23.72049
21
4.21441
31
0
0
LINE
8
A-WALL-PATT
10
23.44444
20
3.8967
30
0
11
23.76215
21
4.21441
31
0
0
LINE
8
A-WALL-PATT
10
23.48611
20
3.8967
30
0
11
23.80382
21
4.21441
31
0
0
LINE
8
A-WALL-PATT
10
23.52778
20
3.8967
30
0
11
23.84549
21
4.21441
31
0
0
LINE
8
A-WALL-PATT
10
23.56944
20
3.8967
30
0
11
23.88715
21
4.21441
31
0
0
LINE
8
A-WALL-PATT
10
23.61111
20
3.8967
30
0
11
23.92882
21
4.21441
31
0
0
LINE
8
A-WALL-PATT
10
23.65278
20
3.8967
30
0
11
23.97049
21
4.21441
31
0
0
LINE
8
A-WALL-PATT
10
23.69444
20
3.8967
30
0
11
24.01215
21
4.21441
31
0
0
LINE
8
A-WALL-PATT
10
23.73611
20
3.8967
30
0
11
24.05382
21
4.21441
31
0
0
LINE
8
A-WALL-PATT
10
23.77778
20
3.8967
30
0
11
24.09549
21
4.21441
31
0
0
LINE
8
A-WALL-PATT
10
23.81944
20
3.8967
30
0
11
24.13715
21
4.21441
31
0
0
LINE
8
A-WALL-PATT
10
23.86111
20
3.8967
30
0
11
24.17882
21
4.21441
31
0
0
LINE
8
A-WALL-PATT
10
23.90278
20
3.8967
30
0
11
24.22049
21
4.21441
31
0
0
LINE
8
A-WALL-PATT
10
23.94444
20
3.8967
30
0
11
24.26215
21
4.21441
31
0
0
LINE
8
A-WALL-PATT
10
23.98611
20
3.8967
30
0
11
24.30382
21
4.21441
31
0
0
LINE
8
A-WALL-PATT
10
24.02778
20
3.8967
30
0
11
24.34549
21
4.21441
31
0
0
LINE
8
A-WALL-PATT
10
24.06944
20
3.8967
30
0
11
24.38715
21
4.21441
31
0
0
LINE
8
A-WALL-PATT
10
24.11111
20
3.8967
30
0
11
24.42882
21
4.21441
31
0
0
LINE
8
A-WALL-PATT
10
24.15278
20
3.8967
30
0
11
24.47049
21
4.21441
31
0
0
LINE
8
A-WALL-PATT
10
24.19444
20
3.8967
30
0
11
24.51215
21
4.21441
31
0
0
LINE
8
A-WALL-PATT
10
24.23611
20
3.8967
30
0
11
24.55382
21
4.21441
31
0
0
LINE
8
A-WALL-PATT
10
24.27778
20
3.8967
30
0
11
24.59549
21
4.21441
31
0
0
LINE
8
A-WALL-PATT
10
24.31944
20
3.8967
30
0
11
24.63715
21
4.21441
31
0
0
LINE
8
A-WALL-PATT
10
24.36111
20
3.8967
30
0
11
24.67882
21
4.21441
31
0
0
LINE
8
A-WALL-PATT
10
24.40278
20
3.8967
30
0
11
24.72049
21
4.21441
31
0
0
LINE
8
A-WALL-PATT
10
24.44444
20
3.8967
30
0
11
24.76215
21
4.21441
31
0
0
LINE
8
A-WALL-PATT
10
24.48611
20
3.8967
30
0
11
24.80382
21
4.21441
31
0
0
LINE
8
A-WALL-PATT
10
24.52778
20
3.8967
30
0
11
24.84549
21
4.21441
31
0
0
LINE
8
A-WALL-PATT
10
24.56944
20
3.8967
30
0
11
24.88715
21
4.21441
31
0
0
LINE
8
A-WALL-PATT
10
24.61111
20
3.8967
30
0
11
24.92882
21
4.21441
31
0
0
LINE
8
A-WALL-PATT
10
24.65278
20
3.8967
30
0
11
24.97049
21
4.21441
31
0
0
LINE
8
A-WALL-PATT
10
24.69444
20
3.8967
30
0
11
25.01215
21
4.21441
31
0
0
LINE
8
A-WALL-PATT
10
24.73611
20
3.8967
30
0
11
25.05382
21
4.21441
31
0
0
LINE
8
A-WALL-PATT
10
24.77778
20
3.8967
30
0
11
25.09549
21
4.21441
31
0
0
LINE
8
A-WALL-PATT
10
24.81944
20
3.8967
30
0
11
25.13715
21
4.21441
31
0
0
LINE
8
A-WALL-PATT
10
24.86111
20
3.8967
30
0
11
25.17882
21
4.21441
31
0
0
LINE
8
A-WALL-PATT
10
24.90278
20
3.8967
30
0
11
25.22049
21
4.21441
31
0
0
LINE
8
A-WALL-PATT
10
24.94444
20
3.8967
30
0
11
25.26215
21
4.21441
31
0
0
LINE
8
A-WALL
10
16.05642
20
3.8342
30
0
11
16.05642
21
11.9566
31
0
0
LINE
8
A-WALL
10
16.05642
20
12.15451
30
0
11
16.05642
21
19.21962
31
0
0
LINE
8
A-WALL
10
16.11892
20
3.8967
30
0
11
16.11892
21
11.9566
31
0
0
LINE
8
A-WALL
10
16.11892
20
12.15451
30
0
11
16.11892
21
19.21962
31
0
0
LINE
8
A-WALL
10
16.11892
20
3.8967
30
0
11
25.09288
21
3.8967
31
0
0
LINE
8
A-WALL
10
16.05642
20
3.8342
30
0
11
25.09288
21
3.8342
31
0
0
LINE
8
A-WALL
10
15.27778
20
12.15451
30
0
11
16.05642
21
12.15451
31
0
0
LINE
8
A-WALL
10
15.27778
20
11.9566
30
0
11
16.05642
21
11.9566
31
0
0
LINE
8
A-FLOR-STRS
10
16.43778
20
6.05556
30
0
11
20.64028
21
6.05556
31
0
0
LINE
8
A-FLOR-STRS
10
20.89028
20
6.05556
30
0
11
25.09278
21
6.05556
31
0
0
LINE
8
A-FLOR-STRS
10
16.43778
20
6.51389
30
0
11
20.64028
21
6.51389
31
0
0
LINE
8
A-FLOR-STRS
10
20.89028
20
6.51389
30
0
11
25.09278
21
6.51389
31
0
0
LINE
8
A-FLOR-STRS
10
16.43778
20
6.97222
30
0
11
20.64028
21
6.97222
31
0
0
LINE
8
A-FLOR-STRS
10
20.89028
20
6.97222
30
0
11
25.09278
21
6.97222
31
0
0
LINE
8
A-FLOR-STRS
10
16.43778
20
7.43056
30
0
11
20.64028
21
7.43056
31
0
0
LINE
8
A-FLOR-STRS
10
20.89028
20
7.43056
30
0
11
25.09278
21
7.43056
31
0
0
LINE
8
A-FLOR-STRS
10
16.43778
20
7.88889
30
0
11
20.64028
21
7.88889
31
0
0
LINE
8
A-FLOR-STRS
10
20.89028
20
7.88889
30
0
11
25.09278
21
7.88889
31
0
0
LINE
8
A-FLOR-STRS
10
16.43778
20
8.34722
30
0
11
20.64028
21
8.34722
31
0
0
LINE
8
A-FLOR-STRS
10
20.89028
20
8.34722
30
0
11
25.09278
21
8.34722
31
0
0
LINE
8
A-FLOR-STRS
10
16.43778
20
8.80556
30
0
11
20.64028
21
8.80556
31
0
0
LINE
8
A-FLOR-STRS
10
20.89028
20
8.80556
30
0
11
25.09278
21
8.80556
31
0
0
LINE
8
A-FLOR-STRS
10
16.43778
20
9.26389
30
0
11
20.64028
21
9.26389
31
0
0
LINE
8
A-FLOR-STRS
10
20.89028
20
9.26389
30
0
11
25.09278
21
9.26389
31
0
0
LINE
8
A-FLOR-STRS
10
16.43778
20
9.72222
30
0
11
20.64028
21
9.72222
31
0
0
LINE
8
A-FLOR-STRS
10
20.89028
20
9.72222
30
0
11
25.09278
21
9.72222
31
0
0
LINE
8
A-FLOR-STRS
10
16.43778
20
10.18056
30
0
11
20.64028
21
10.18056
31
0
0
LINE
8
A-FLOR-STRS
10
20.89028
20
10.18056
30
0
11
25.09278
21
10.18056
31
0
0
LINE
8
A-FLOR-STRS
10
16.43778
20
10.63889
30
0
11
20.64028
21
10.63889
31
0
0
LINE
8
A-FLOR-STRS
10
20.89028
20
10.63889
30
0
11
25.09278
21
10.63889
31
0
0
LINE
8
A-FLOR-STRS
10
16.43778
20
11.09722
30
0
11
20.64028
21
11.09722
31
0
0
LINE
8
A-FLOR-STRS
10
20.89028
20
11.09722
30
0
11
25.09278
21
11.09722
31
0
0
LINE
8
A-FLOR-STRS
10
16.43778
20
11.55556
30
0
11
20.64028
21
11.55556
31
0
0
LINE
8
A-FLOR-STRS
10
20.89028
20
11.55556
30
0
11
25.09278
21
11.55556
31
0
0
LINE
8
A-FLOR-STRS
10
16.43778
20
12.01389
30
0
11
20.64028
21
12.01389
31
0
0
LINE
8
A-FLOR-STRS
10
20.89028
20
12.01389
30
0
11
25.09278
21
12.01389
31
0
0
LINE
8
A-FLOR-STRS
10
16.43778
20
12.47222
30
0
11
20.64028
21
12.47222
31
0
0
LINE
8
A-FLOR-STRS
10
20.89028
20
12.47222
30
0
11
25.09278
21
12.47222
31
0
0
LINE
8
A-FLOR-STRS
10
16.43778
20
12.93056
30
0
11
20.64028
21
12.93056
31
0
0
LINE
8
A-FLOR-STRS
10
20.89028
20
12.93056
30
0
11
25.09278
21
12.93056
31
0
0
LINE
8
A-FLOR-STRS
10
16.53153
20
5.05556
30
0
11
16.53153
21
14.05556
31
0
0
LINE
8
A-FLOR-STRS
10
24.99903
20
5.05556
30
0
11
24.99903
21
14.05556
31
0
0
LINE
8
A-FLOR-STRS
10
16.59403
20
5.05556
30
0
11
16.59403
21
14.05556
31
0
0
LINE
8
A-FLOR-STRS
10
24.93653
20
5.05556
30
0
11
24.93653
21
14.05556
31
0
0
LINE
8
A-FLOR-STRS
10
20.64028
20
5.05556
30
0
11
20.64028
21
14.05556
31
0
0
LINE
8
A-FLOR-STRS
10
20.89028
20
5.05556
30
0
11
20.89028
21
14.05556
31
0
0
TEXT
8
A-ANNO-TEXT
10
17.43778
20
15.05556
30
0
40
0.06
1
UP
50
0
0
LINE
8
A-ANNO-DIMS
10
16.43778
20
5.05556
30
0
11
25.09278
21
5.05556
31
0
0
LINE
8
A-ANNO-DIMS
10
16.43778
20
5.08333
30
0
11
16.43778
21
5.09722
31
0
0
LINE
8
A-ANNO-DIMS
10
16.41323
20
5.031
30
0
11
16.46233
21
5.08011
31
0
0
LINE
8
A-ANNO-DIMS
10
25.09278
20
5.08333
30
0
11
25.09278
21
5.09722
31
0
0
LINE
8
A-ANNO-DIMS
10
25.06823
20
5.031
30
0
11
25.11733
21
5.08011
31
0
0
TEXT
8
A-ANNO-DIMS
10
20.76528
20
5.08333
30
0
40
0.0675
1
17'-3 3/4"
50
0
72
1
11
20.76528
21
5.08333
31
0
0
LINE
8
A-ANNO-DIMS
10
20.77778
20
3.89556
30
0
11
20.77778
21
19.20556
31
0
0
LINE
8
A-ANNO-DIMS
10
20.75
20
3.89556
30
0
11
20.73611
21
3.89556
31
0
0
LINE
8
A-ANNO-DIMS
10
20.80233
20
3.871
30
0
11
20.75323
21
3.92011
31
0
0
LINE
8
A-ANNO-DIMS
10
20.75
20
19.20556
30
0
11
20.73611
21
19.20556
31
0
0
LINE
8
A-ANNO-DIMS
10
20.80233
20
19.181
30
0
11
20.75323
21
19.23011
31
0
0
TEXT
8
A-ANNO-DIMS
10
20.75
20
11.55056
30
0
40
0.0675
1
30'-7 7/16"
50
90
72
1
11
20.75
21
11.55056
31
0
0
LINE
8
A-ANNO-DIMS
10
16.43778
20
16.05556
30
0
11
20.64278
21
16.05556
31
0
0
LINE
8
A-ANNO-DIMS
10
16.43778
20
16.08333
30
0
11
16.43778
21
16.09722
31
0
0
LINE
8
A-ANNO-DIMS
10
16.41323
20
16.031
30
0
11
16.46233
21
16.08011
31
0
0
LINE
8
A-ANNO-DIMS
10
20.64278
20
16.08333
30
0
11
20.64278
21
16.09722
31
0
0
LINE
8
A-ANNO-DIMS
10
20.61823
20
16.031
30
0
11
20.66733
21
16.08011
31
0
0
TEXT
8
A-ANNO-DIMS
10
18.54028
20
16.08333
30
0
40
0.0675
1
8'-4 15/16"
50
0
72
1
11
18.54028
21
16.08333
31
0
0
LINE
8
A-ANNO-SYMB
10
15.88889
20
2.13889
30
0
11
15.88494
21
2.17808
31
0
0
LINE
8
A-ANNO-SYMB
10
15.88494
20
2.17808
30
0
11
15.87361
21
2.21458
31
0
0
LINE
8
A-ANNO-SYMB
10
15.87361
20
2.21458
30
0
11
15.85568
21
2.2476
31
0
0
LINE
8
A-ANNO-SYMB
10
15.85568
20
2.2476
30
0
11
15.83194
21
2.27638
31
0
0
LINE
8
A-ANNO-SYMB
10
15.83194
20
2.27638
30
0
11
15.80316
21
2.30013
31
0
0
LINE
8
A-ANNO-SYMB
10
15.80316
20
2.30013
30
0
11
15.77013
21
2.31805
31
0
0
LINE
8
A-ANNO-SYMB
10
15.77013
20
2.31805
30
0
11
15.73363
21
2.32938
31
0
0
LINE
8
A-ANNO-SYMB
10
15.73363
20
2.32938
30
0
11
15.69444
21
2.33333
31
0
0
LINE
8
A-ANNO-SYMB
10
15.69444
20
2.33333
30
0
11
15.65526
21
2.32938
31
0
0
LINE
8
A-ANNO-SYMB
10
15.65526
20
2.32938
30
0
11
15.61876
21
2.31805
31
0
0
LINE
8
A-ANNO-SYMB
10
15.61876
20
2.31805
30
0
11
15.58573
21
2.30013
31
0
0
LINE
8
A-ANNO-SYMB
10
15.58573
20
2.30013
30
0
11
15.55695
21
2.27638
31
0
0
LINE
8
A-ANNO-SYMB
10
15.55695
20
2.27638
30
0
11
15.53321
21
2.2476
31
0
0
LINE
8
A-ANNO-SYMB
10
15.53321
20
2.2476
30
0
11
15.51528
21
2.21458
31
0
0
LINE
8
A-ANNO-SYMB
10
15.51528
20
2.21458
30
0
11
15.50395
21
2.17808
31
0
0
LINE
8
A-ANNO-SYMB
10
15.50395
20
2.17808
30
0
11
15.5
21
2.13889
31
0
0
LINE
8
A-ANNO-SYMB
10
15.5
20
2.13889
30
0
11
15.50395
21
2.0997
31
0
0
LINE
8
A-ANNO-SYMB
10
15.50395
20
2.0997
30
0
11
15.51528
21
2.0632
31
0
0
LINE
8
A-ANNO-SYMB
10
15.51528
20
2.0632
30
0
11
15.53321
21
2.03017
31
0
0
LINE
8
A-ANNO-SYMB
10
15.53321
20
2.03017
30
0
11
15.55695
21
2.0014
31
0
0
LINE
8
A-ANNO-SYMB
10
15.55695
20
2.0014
30
0
11
15.58573
21
1.97765
31
0
0
LINE
8
A-ANNO-SYMB
10
15.58573
20
1.97765
30
0
11
15.61876
21
1.95972
31
0
0
LINE
8
A-ANNO-SYMB
10
15.61876
20
1.95972
30
0
11
15.65526
21
1.94839
31
0
0
LINE
8
A-ANNO-SYMB
10
15.65526
20
1.94839
30
0
11
15.69444
21
1.94444
31
0
0
LINE
8
A-ANNO-SYMB
10
15.69444
20
1.94444
30
0
11
15.73363
21
1.94839
31
0
0
LINE
8
A-ANNO-SYMB
10
15.73363
20
1.94839
30
0
11
15.77013
21
1.95972
31
0
0
LINE
8
A-ANNO-SYMB
10
15.77013
20
1.95972
30
0
11
15.80316
21
1.97765
31
0
0
LINE
8
A-ANNO-SYMB
10
15.80316
20
1.97765
30
0
11
15.83194
21
2.0014
31
0
0
LINE
8
A-ANNO-SYMB
10
15.83194
20
2.0014
30
0
11
15.85568
21
2.03017
31
0
0
LINE
8
A-ANNO-SYMB
10
15.85568
20
2.03017
30
0
11
15.87361
21
2.0632
31
0
0
LINE
8
A-ANNO-SYMB
10
15.87361
20
2.0632
30
0
11
15.88494
21
2.0997
31
0
0
LINE
8
A-ANNO-SYMB
10
15.88494
20
2.0997
30
0
11
15.88889
21
2.13889
31
0
0
TEXT
8
A-ANNO-SYMB
10
15.69444
20
2.08333
30
0
40
0.1
1
1
50
0
72
1
11
15.69444
21
2.08333
31
0
0
TEXT
8
A-ANNO-TEXT
10
15.97222
20
2.08333
30
0
40
0.14
1
ENLARGED STAIR PLAN
50
0
0
LINE
8
A-ANNO-TEXT
10
15.97222
20
2.02778
30
0
11
20.13889
21
2.02778
31
0
0
TEXT
8
A-ANNO-TEXT
10
15.97222
20
1.86111
30
0
40
0.07
1
SCALE: 1/2" = 1'-0"
50
0
0
LINE
8
A-DETL
10
27.08333
20
18.05556
30
0
11
32.08333
21
18.05556
31
0
0
LINE
8
A-DETL
10
27.08333
20
18.19444
30
0
11
32.08333
21
18.19444
31
0
0
LINE
8
A-DETL
10
29.02778
20
12.5
30
0
11
29.02778
21
17.98611
31
0
0
LINE
8
A-DETL
10
29.19444
20
12.5
30
0
11
29.19444
21
17.98611
31
0
0
LINE
8
A-DETL
10
29.97222
20
12.5
30
0
11
29.97222
21
17.98611
31
0
0
LINE
8
A-DETL
10
30.13889
20
12.5
30
0
11
30.13889
21
17.98611
31
0
0
LINE
8
A-DETL
10
28.90278
20
12.5
30
0
11
28.90278
21
17.77778
31
0
0
LINE
8
A-DETL
10
29.02778
20
12.5
30
0
11
29.02778
21
17.77778
31
0
0
LINE
8
A-DETL
10
30.13889
20
12.5
30
0
11
30.13889
21
17.77778
31
0
0
LINE
8
A-DETL
10
30.26389
20
12.5
30
0
11
30.26389
21
17.77778
31
0
0
TEXT
8
A-ANNO-DIMS
10
29.58333
20
18.47222
30
0
40
0.0675
1
1'-0"
50
0
72
1
11
29.58333
21
18.47222
31
0
0
LINE
8
A-ANNO-DIMS
10
28.90278
20
18.40278
30
0
11
30.26389
21
18.40278
31
0
0
TEXT
8
A-ANNO-DIMS
10
30.97222
20
15.27778
30
0
40
0.0675
1
2'-6"
50
0
72
1
11
30.97222
21
15.27778
31
0
0
LINE
8
A-ANNO-DIMS
10
30.83333
20
12.77778
30
0
11
30.83333
21
17.77778
31
0
0
TEXT
8
A-ANNO-DIMS
10
27.91667
20
16.66667
30
0
40
0.0675
1
3'-0"
50
0
72
1
11
27.91667
21
16.66667
31
0
0
LINE
8
A-ANNO-DIMS
10
27.36111
20
16.52778
30
0
11
28.47222
21
16.52778
31
0
0
LINE
8
A-ANNO-SYMB
10
27
20
12
30
0
11
26.99605
21
12.03919
31
0
0
LINE
8
A-ANNO-SYMB
10
26.99605
20
12.03919
30
0
11
26.98472
21
12.07569
31
0
0
LINE
8
A-ANNO-SYMB
10
26.98472
20
12.07569
30
0
11
26.96679
21
12.10872
31
0
0
LINE
8
A-ANNO-SYMB
10
26.96679
20
12.10872
30
0
11
26.94305
21
12.13749
31
0
0
LINE
8
A-ANNO-SYMB
10
26.94305
20
12.13749
30
0
11
26.91427
21
12.16124
31
0
0
LINE
8
A-ANNO-SYMB
10
26.91427
20
12.16124
30
0
11
26.88124
21
12.17916
31
0
0
LINE
8
A-ANNO-SYMB
10
26.88124
20
12.17916
30
0
11
26.84474
21
12.19049
31
0
0
LINE
8
A-ANNO-SYMB
10
26.84474
20
12.19049
30
0
11
26.80556
21
12.19444
31
0
0
LINE
8
A-ANNO-SYMB
10
26.80556
20
12.19444
30
0
11
26.76637
21
12.19049
31
0
0
LINE
8
A-ANNO-SYMB
10
26.76637
20
12.19049
30
0
11
26.72987
21
12.17916
31
0
0
LINE
8
A-ANNO-SYMB
10
26.72987
20
12.17916
30
0
11
26.69684
21
12.16124
31
0
0
LINE
8
A-ANNO-SYMB
10
26.69684
20
12.16124
30
0
11
26.66806
21
12.13749
31
0
0
LINE
8
A-ANNO-SYMB
10
26.66806
20
12.13749
30
0
11
26.64432
21
12.10872
31
0
0
LINE
8
A-ANNO-SYMB
10
26.64432
20
12.10872
30
0
11
26.62639
21
12.07569
31
0
0
LINE
8
A-ANNO-SYMB
10
26.62639
20
12.07569
30
0
11
26.61506
21
12.03919
31
0
0
LINE
8
A-ANNO-SYMB
10
26.61506
20
12.03919
30
0
11
26.61111
21
12
31
0
0
LINE
8
A-ANNO-SYMB
10
26.61111
20
12
30
0
11
26.61506
21
11.96081
31
0
0
LINE
8
A-ANNO-SYMB
10
26.61506
20
11.96081
30
0
11
26.62639
21
11.92431
31
0
0
LINE
8
A-ANNO-SYMB
10
26.62639
20
11.92431
30
0
11
26.64432
21
11.89128
31
0
0
LINE
8
A-ANNO-SYMB
10
26.64432
20
11.89128
30
0
11
26.66806
21
11.86251
31
0
0
LINE
8
A-ANNO-SYMB
10
26.66806
20
11.86251
30
0
11
26.69684
21
11.83876
31
0
0
LINE
8
A-ANNO-SYMB
10
26.69684
20
11.83876
30
0
11
26.72987
21
11.82084
31
0
0
LINE
8
A-ANNO-SYMB
10
26.72987
20
11.82084
30
0
11
26.76637
21
11.80951
31
0
0
LINE
8
A-ANNO-SYMB
10
26.76637
20
11.80951
30
0
11
26.80556
21
11.80556
31
0
0
LINE
8
A-ANNO-SYMB
10
26.80556
20
11.80556
30
0
11
26.84474
21
11.80951
31
0
0
LINE
8
A-ANNO-SYMB
10
26.84474
20
11.80951
30
0
11
26.88124
21
11.82084
31
0
0
LINE
8
A-ANNO-SYMB
10
26.88124
20
11.82084
30
0
11
26.91427
21
11.83876
31
0
0
LINE
8
A-ANNO-SYMB
10
26.91427
20
11.83876
30
0
11
26.94305
21
11.86251
31
0
0
LINE
8
A-ANNO-SYMB
10
26.94305
20
11.86251
30
0
11
26.96679
21
11.89128
31
0
0
LINE
8
A-ANNO-SYMB
10
26.96679
20
11.89128
30
0
11
26.98472
21
11.92431
31
0
0
LINE
8
A-ANNO-SYMB
10
26.98472
20
11.92431
30
0
11
26.99605
21
11.96081
31
0
0
LINE
8
A-ANNO-SYMB
10
26.99605
20
11.96081
30
0
11
27
21
12
31
0
0
TEXT
8
A-ANNO-SYMB
10
26.80556
20
11.94444
30
0
40
0.1
1
1
50
0
72
1
11
26.80556
21
11.94444
31
0
0
TEXT
8
A-ANNO-TEXT
10
27.08333
20
11.94444
30
0
40
0.14
1
HEAD OF WALL DETAIL
50
0
0
LINE
8
A-ANNO-TEXT
10
27.08333
20
11.88889
30
0
11
31.25
21
11.88889
31
0
0
TEXT
8
A-ANNO-TEXT
10
27.08333
20
11.72222
30
0
40
0.07
1
SCALE: NTS
50
0
0
LINE
8
G-ANNO-TTLB
10
0.5
20
0.5
30
0
11
35.5
21
0.5
31
0
0
LINE
8
G-ANNO-TTLB
10
35.5
20
0.5
30
0
11
35.5
21
23.5
31
0
0
LINE
8
G-ANNO-TTLB
10
35.5
20
23.5
30
0
11
0.5
21
23.5
31
0
0
LINE
8
G-ANNO-TTLB
10
0.5
20
23.5
30
0
11
0.5
21
0.5
31
0
0
LINE
8
G-ANNO-TTLB
10
33
20
0.5
30
0
11
35.5
21
0.5
31
0
0
LINE
8
G-ANNO-TTLB
10
35.5
20
0.5
30
0
11
35.5
21
23.5
31
0
0
LINE
8
G-ANNO-TTLB
10
35.5
20
23.5
30
0
11
33
21
23.5
31
0
0
LINE
8
G-ANNO-TTLB
10
33
20
23.5
30
0
11
33
21
0.5
31
0
0
LINE
8
G-ANNO-TTLB
10
33
20
21.27778
30
0
11
35.5
21
21.27778
31
0
0
LINE
8
G-ANNO-TTLB
10
33
20
19.05556
30
0
11
35.5
21
19.05556
31
0
0
LINE
8
G-ANNO-TTLB
10
33
20
6.33333
30
0
11
35.5
21
6.33333
31
0
0
LINE
8
G-ANNO-TTLB
10
33
20
4.66667
30
0
11
35.5
21
4.66667
31
0
0
LINE
8
G-ANNO-TTLB
10
33
20
3.27778
30
0
11
35.5
21
3.27778
31
0
0
LINE
8
G-ANNO-TTLB
10
33
20
2.16667
30
0
11
35.5
21
2.16667
31
0
0
TEXT
8
G-ANNO-TTLB
10
33.13889
20
23.16667
30
0
40
0.09
1
ARCADIA DESIGN COLLECTIVE
50
0
0
TEXT
8
G-ANNO-TTLB
10
33.13889
20
22.97222
30
0
40
0.06
1
SYNTHETIC TEST SET - NOT A REAL PROJECT
50
0
0
TEXT
8
G-ANNO-TTLB
10
33.13889
20
22.77778
30
0
40
0.06
1
1200 E CAMELBACK RD, PHOENIX AZ
50
0
0
TEXT
8
G-ANNO-TTLB
10
33.13889
20
21.36111
30
0
40
0.11
1
MESA RIDGE MEDICAL
50
0
0
TEXT
8
G-ANNO-TTLB
10
33.13889
20
21.16667
30
0
40
0.11
1
OFFICE BUILDING
50
0
0
TEXT
8
G-ANNO-TTLB
10
33.13889
20
20.97222
30
0
40
0.06
1
4410 S RIDGE PKWY, PHOENIX AZ
50
0
0
TEXT
8
G-ANNO-TTLB
10
33.13889
20
20.77778
30
0
40
0.06
1
PROJECT NO. 25-118
50
0
0
TEXT
8
G-ANNO-TTLB
10
33.13889
20
6.125
30
0
40
0.07
1
REVISIONS
50
0
0
TEXT
8
G-ANNO-TTLB
10
33.13889
20
4.38889
30
0
40
0.07
1
DATE: 08/04/2026
50
0
0
TEXT
8
G-ANNO-TTLB
10
33.13889
20
4.18056
30
0
40
0.07
1
ISSUE: BID SET
50
0
0
TEXT
8
G-ANNO-TTLB
10
33.13889
20
3
30
0
40
0.07
1
SCALE: AS NOTED
50
0
0
TEXT
8
G-ANNO-TTLB
10
33.13889
20
1.88889
30
0
40
0.09
1
ENLARGED PLANS
50
0
0
TEXT
8
G-ANNO-TTLB
10
33.13889
20
1.19444
30
0
40
0.3
1
A-401
50
0
0
ENDSEC
0
EOF
