0
SECTION
2
HEADER
9
$ACADVER
1
AC1009
9
$INSUNITS
70
1
0
ENDSEC
0
SECTION
2
TABLES
0
TABLE
2
LTYPE
70
2
0
LTYPE
2
CONTINUOUS
70
0
3
Solid line
72
65
73
0
40
0
0
LTYPE
2
DASHED
70
0
3
__ __ __
72
65
73
2
40
0.125
49
0.0833
49
-0.0417
0
ENDTAB
0
TABLE
2
LAYER
70
3
0
LAYER
2
A-DETL
70
0
62
1
6
CONTINUOUS
0
LAYER
2
A-ANNO-TEXT
70
0
62
2
6
CONTINUOUS
0
LAYER
2
G-ANNO-TTLB
70
0
62
3
6
CONTINUOUS
0
ENDTAB
0
ENDSEC
0
SECTION
2
ENTITIES
0
LINE
8
A-DETL
10
2.08333
20
21.44271
30
0
11
8.08333
21
21.44271
31
0
0
LINE
8
A-DETL
10
2.08333
20
20.22396
30
0
11
8.08333
21
20.22396
31
0
0
LINE
8
A-DETL
10
2.08333
20
21.28646
30
0
11
8.08333
21
21.28646
31
0
0
LINE
8
A-DETL
10
2.08333
20
20.38021
30
0
11
8.08333
21
20.38021
31
0
0
LINE
8
A-DETL
10
2.36111
20
20.41667
30
0
11
2.36111
21
21.25
31
0
0
LINE
8
A-DETL
10
6.36111
20
20.41667
30
0
11
6.36111
21
21.25
31
0
0
TEXT
8
A-ANNO-TEXT
10
8.5
20
20.97222
30
0
40
0.14
1
A1
50
0
0
TEXT
8
A-ANNO-TEXT
10
8.5
20
20.72222
30
0
40
0.065
1
3-5/8" 20ga stud @ 16" OC, 1 layer 5/8" Type X each side (
50
0
0
TEXT
8
A-ANNO-TEXT
10
8.5
20
20.55556
30
0
40
0.065
1
4-7/8")
50
0
0
LINE
8
A-DETL
10
16.66667
20
21.44271
30
0
11
22.66667
21
21.44271
31
0
0
LINE
8
A-DETL
10
16.66667
20
20.22396
30
0
11
22.66667
21
20.22396
31
0
0
LINE
8
A-DETL
10
16.66667
20
21.28646
30
0
11
22.66667
21
21.28646
31
0
0
LINE
8
A-DETL
10
16.66667
20
20.38021
30
0
11
22.66667
21
20.38021
31
0
0
LINE
8
A-DETL
10
16.94444
20
20.41667
30
0
11
16.94444
21
21.25
31
0
0
LINE
8
A-DETL
10
20.94444
20
20.41667
30
0
11
20.94444
21
21.25
31
0
0
TEXT
8
A-ANNO-TEXT
10
23.08333
20
20.97222
30
0
40
0.14
1
A2
50
0
0
TEXT
8
A-ANNO-TEXT
10
23.08333
20
20.72222
30
0
40
0.065
1
A1 with 3-1/2" acoustic batt, to deck (4-7/8")
50
0
0
TEXT
8
A-ANNO-TEXT
10
23.08333
20
20.55556
30
0
40
0.065
1

50
0
0
LINE
8
A-DETL
10
2.08333
20
18.12847
30
0
11
8.08333
21
18.12847
31
0
0
LINE
8
A-DETL
10
2.08333
20
16.31597
30
0
11
8.08333
21
16.31597
31
0
0
LINE
8
A-DETL
10
2.08333
20
17.97222
30
0
11
8.08333
21
17.97222
31
0
0
LINE
8
A-DETL
10
2.08333
20
16.47222
30
0
11
8.08333
21
16.47222
31
0
0
LINE
8
A-DETL
10
2.36111
20
16.80556
30
0
11
2.36111
21
17.63889
31
0
0
LINE
8
A-DETL
10
6.36111
20
16.80556
30
0
11
6.36111
21
17.63889
31
0
0
TEXT
8
A-ANNO-TEXT
10
8.5
20
17.36111
30
0
40
0.14
1
B1
50
0
0
TEXT
8
A-ANNO-TEXT
10
8.5
20
17.11111
30
0
40
0.065
1
6" 18ga stud @ 16" OC, 1 layer 5/8" Type X each side (7-1/
50
0
0
TEXT
8
A-ANNO-TEXT
10
8.5
20
16.94444
30
0
40
0.065
1
4")
50
0
0
LINE
8
A-DETL
10
16.66667
20
17.81597
30
0
11
22.66667
21
17.81597
31
0
0
LINE
8
A-DETL
10
16.66667
20
16.62847
30
0
11
22.66667
21
16.62847
31
0
0
LINE
8
A-DETL
10
16.66667
20
17.65972
30
0
11
22.66667
21
17.65972
31
0
0
LINE
8
A-DETL
10
16.66667
20
16.78472
30
0
11
22.66667
21
16.78472
31
0
0
LINE
8
A-DETL
10
16.94444
20
16.80556
30
0
11
16.94444
21
17.63889
31
0
0
TEXT
8
A-ANNO-TEXT
10
23.08333
20
17.36111
30
0
40
0.14
1
C1
50
0
0
TEXT
8
A-ANNO-TEXT
10
23.08333
20
17.11111
30
0
40
0.065
1
2-hr shaft wall: 2-1/2" CH stud @ 24" OC, 1" liner shaft s
50
0
0
TEXT
8
A-ANNO-TEXT
10
23.08333
20
16.94444
30
0
40
0.065
1
ide, 2 layers 5/8" Type X room side (4-3/4")
50
0
0
LINE
8
A-DETL
10
2.08333
20
15.42361
30
0
11
8.08333
21
15.42361
31
0
0
LINE
8
A-DETL
10
2.08333
20
14.36111
30
0
11
8.08333
21
14.36111
31
0
0
LINE
8
A-DETL
10
2.08333
20
12.86111
30
0
11
8.08333
21
12.86111
31
0
0
LINE
8
A-DETL
10
2.08333
20
11.79861
30
0
11
8.08333
21
11.79861
31
0
0
LINE
8
A-DETL
10
2.08333
20
15.26736
30
0
11
8.08333
21
15.26736
31
0
0
LINE
8
A-DETL
10
2.08333
20
11.95486
30
0
11
8.08333
21
11.95486
31
0
0
LINE
8
A-DETL
10
2.36111
20
13.19444
30
0
11
2.36111
21
14.02778
31
0
0
LINE
8
A-DETL
10
6.36111
20
13.19444
30
0
11
6.36111
21
14.02778
31
0
0
TEXT
8
A-ANNO-TEXT
10
8.5
20
13.75
30
0
40
0.14
1
D1
50
0
0
TEXT
8
A-ANNO-TEXT
10
8.5
20
13.5
30
0
40
0.065
1
Chase wall: double 3-5/8" stud @ 16" OC with 6" gap, 1 lay
50
0
0
TEXT
8
A-ANNO-TEXT
10
8.5
20
13.33333
30
0
40
0.065
1
er 5/8" each outer side (14-1/2")
50
0
0
LINE
8
A-DETL
10
16.66667
20
13.79861
30
0
11
22.66667
21
13.79861
31
0
0
LINE
8
A-DETL
10
16.66667
20
13.42361
30
0
11
22.66667
21
13.42361
31
0
0
LINE
8
A-DETL
10
16.66667
20
13.64236
30
0
11
22.66667
21
13.64236
31
0
0
LINE
8
A-DETL
10
16.66667
20
13.57986
30
0
11
22.66667
21
13.57986
31
0
0
LINE
8
A-DETL
10
16.94444
20
13.19444
30
0
11
16.94444
21
14.02778
31
0
0
LINE
8
A-DETL
10
20.94444
20
13.19444
30
0
11
20.94444
21
14.02778
31
0
0
TEXT
8
A-ANNO-TEXT
10
23.08333
20
13.75
30
0
40
0.14
1
F1
50
0
0
TEXT
8
A-ANNO-TEXT
10
23.08333
20
13.5
30
0
40
0.065
1
Furring: 7/8" hat channel @ 16" OC + 1 layer 5/8" one side
50
0
0
TEXT
8
A-ANNO-TEXT
10
23.08333
20
13.33333
30
0
40
0.065
1
, on CMU (1-1/2")
50
0
0
LINE
8
A-DETL
10
2.08333
20
11.10938
30
0
11
8.08333
21
11.10938
31
0
0
LINE
8
A-DETL
10
2.08333
20
10.95313
30
0
11
8.08333
21
10.95313
31
0
0
LINE
8
A-DETL
10
2.08333
20
9.45313
30
0
11
8.08333
21
9.45313
31
0
0
LINE
8
A-DETL
10
2.08333
20
9.29688
30
0
11
8.08333
21
9.29688
31
0
0
LINE
8
A-DETL
10
2.08333
20
8.89063
30
0
11
8.08333
21
8.89063
31
0
0
LINE
8
A-DETL
10
2.08333
20
9.04688
30
0
11
8.08333
21
9.04688
31
0
0
LINE
8
A-DETL
10
2.36111
20
9.58333
30
0
11
2.36111
21
10.41667
31
0
0
LINE
8
A-DETL
10
6.36111
20
9.58333
30
0
11
6.36111
21
10.41667
31
0
0
TEXT
8
A-ANNO-TEXT
10
8.5
20
10.13889
30
0
40
0.14
1
EXT-1
50
0
0
TEXT
8
A-ANNO-TEXT
10
8.5
20
9.88889
30
0
40
0.065
1
Exterior: 6" 18ga stud @ 16" OC, 5/8" gyp inside, 5/8" she
50
0
0
TEXT
8
A-ANNO-TEXT
10
8.5
20
9.72222
30
0
40
0.065
1
athing, 1-1/2" EPS + EIFS (8-7/8")
50
0
0
LINE
8
A-DETL
10
16.66667
20
11.01563
30
0
11
22.66667
21
11.01563
31
0
0
LINE
8
A-DETL
10
16.66667
20
10.85938
30
0
11
22.66667
21
10.85938
31
0
0
LINE
8
A-DETL
10
16.66667
20
9.35938
30
0
11
22.66667
21
9.35938
31
0
0
LINE
8
A-DETL
10
16.66667
20
8.98438
30
0
11
22.66667
21
8.98438
31
0
0
LINE
8
A-DETL
10
16.66667
20
9.14063
30
0
11
22.66667
21
9.14063
31
0
0
LINE
8
A-DETL
10
16.94444
20
9.58333
30
0
11
16.94444
21
10.41667
31
0
0
LINE
8
A-DETL
10
20.94444
20
9.58333
30
0
11
20.94444
21
10.41667
31
0
0
TEXT
8
A-ANNO-TEXT
10
23.08333
20
10.13889
30
0
40
0.14
1
EXT-2
50
0
0
TEXT
8
A-ANNO-TEXT
10
23.08333
20
9.88889
30
0
40
0.065
1
Exterior: 6" 18ga stud @ 16" OC, 5/8" gyp inside, 5/8" she
50
0
0
TEXT
8
A-ANNO-TEXT
10
23.08333
20
9.72222
30
0
40
0.065
1
athing, 3-coat stucco (8-1/8")
50
0
0
LINE
8
A-DETL
10
2.08333
20
7.34201
30
0
11
8.08333
21
7.34201
31
0
0
LINE
8
A-DETL
10
2.08333
20
5.43576
30
0
11
8.08333
21
5.43576
31
0
0
LINE
8
A-DETL
10
2.36111
20
5.97222
30
0
11
2.36111
21
6.80556
31
0
0
TEXT
8
A-ANNO-TEXT
10
8.5
20
6.52778
30
0
40
0.14
1
CMU
50
0
0
TEXT
8
A-ANNO-TEXT
10
8.5
20
6.27778
30
0
40
0.065
1
8" CMU (by others — not drywall scope)
50
0
0
TEXT
8
A-ANNO-TEXT
10
8.5
20
6.11111
30
0
40
0.065
1

50
0
0
LINE
8
A-DETL
10
16.66667
20
6.95139
30
0
11
22.66667
21
6.95139
31
0
0
LINE
8
A-DETL
10
16.66667
20
5.82639
30
0
11
22.66667
21
5.82639
31
0
0
LINE
8
A-DETL
10
16.94444
20
5.97222
30
0
11
16.94444
21
6.80556
31
0
0
TEXT
8
A-ANNO-TEXT
10
23.08333
20
6.52778
30
0
40
0.14
1
SF
50
0
0
TEXT
8
A-ANNO-TEXT
10
23.08333
20
6.27778
30
0
40
0.065
1
Aluminium storefront, 4-1/2" frame (by others — not drywal
50
0
0
TEXT
8
A-ANNO-TEXT
10
23.08333
20
6.11111
30
0
40
0.065
1
l scope)
50
0
0
TEXT
8
A-ANNO-TEXT
10
2.08333
20
23.33333
30
0
40
0.14
1
PARTITION TYPES   SCALE: 3" = 1'-0"
50
0
0
LINE
8
G-ANNO-TTLB
10
0.5
20
0.5
30
0
11
35.5
21
0.5
31
0
0
LINE
8
G-ANNO-TTLB
10
35.5
20
0.5
30
0
11
35.5
21
23.5
31
0
0
LINE
8
G-ANNO-TTLB
10
35.5
20
23.5
30
0
11
0.5
21
23.5
31
0
0
LINE
8
G-ANNO-TTLB
10
0.5
20
23.5
30
0
11
0.5
21
0.5
31
0
0
LINE
8
G-ANNO-TTLB
10
33
20
0.5
30
0
11
35.5
21
0.5
31
0
0
LINE
8
G-ANNO-TTLB
10
35.5
20
0.5
30
0
11
35.5
21
23.5
31
0
0
LINE
8
G-ANNO-TTLB
10
35.5
20
23.5
30
0
11
33
21
23.5
31
0
0
LINE
8
G-ANNO-TTLB
10
33
20
23.5
30
0
11
33
21
0.5
31
0
0
LINE
8
G-ANNO-TTLB
10
33
20
21.27778
30
0
11
35.5
21
21.27778
31
0
0
LINE
8
G-ANNO-TTLB
10
33
20
19.05556
30
0
11
35.5
21
19.05556
31
0
0
LINE
8
G-ANNO-TTLB
10
33
20
6.33333
30
0
11
35.5
21
6.33333
31
0
0
LINE
8
G-ANNO-TTLB
10
33
20
4.66667
30
0
11
35.5
21
4.66667
31
0
0
LINE
8
G-ANNO-TTLB
10
33
20
3.27778
30
0
11
35.5
21
3.27778
31
0
0
LINE
8
G-ANNO-TTLB
10
33
20
2.16667
30
0
11
35.5
21
2.16667
31
0
0
TEXT
8
G-ANNO-TTLB
10
33.13889
20
23.16667
30
0
40
0.09
1
ARCADIA DESIGN COLLECTIVE
50
0
0
TEXT
8
G-ANNO-TTLB
10
33.13889
20
22.97222
30
0
40
0.06
1
SYNTHETIC TEST SET - NOT A REAL PROJECT
50
0
0
TEXT
8
G-ANNO-TTLB
10
33.13889
20
22.77778
30
0
40
0.06
1
1200 E CAMELBACK RD, PHOENIX AZ
50
0
0
TEXT
8
G-ANNO-TTLB
10
33.13889
20
21.36111
30
0
40
0.11
1
MESA RIDGE MEDICAL
50
0
0
TEXT
8
G-ANNO-TTLB
10
33.13889
20
21.16667
30
0
40
0.11
1
OFFICE BUILDING
50
0
0
TEXT
8
G-ANNO-TTLB
10
33.13889
20
20.97222
30
0
40
0.06
1
4410 S RIDGE PKWY, PHOENIX AZ
50
0
0
TEXT
8
G-ANNO-TTLB
10
33.13889
20
20.77778
30
0
40
0.06
1
PROJECT NO. 25-118
50
0
0
TEXT
8
G-ANNO-TTLB
10
33.13889
20
6.125
30
0
40
0.07
1
REVISIONS
50
0
0
TEXT
8
G-ANNO-TTLB
10
33.13889
20
4.38889
30
0
40
0.07
1
DATE: 08/04/2026
50
0
0
TEXT
8
G-ANNO-TTLB
10
33.13889
20
4.18056
30
0
40
0.07
1
ISSUE: BID SET
50
0
0
TEXT
8
G-ANNO-TTLB
10
33.13889
20
3
30
0
40
0.07
1
SCALE: 3" = 1'-0"
50
0
0
TEXT
8
G-ANNO-TTLB
10
33.13889
20
1.88889
30
0
40
0.09
1
PARTITION TYPES
50
0
0
TEXT
8
G-ANNO-TTLB
10
33.13889
20
1.19444
30
0
40
0.3
1
A-501
50
0
0
ENDSEC
0
EOF
