0
SECTION
2
HEADER
9
$ACADVER
1
AC1009
9
$INSUNITS
70
1
0
ENDSEC
0
SECTION
2
TABLES
0
TABLE
2
LTYPE
70
2
0
LTYPE
2
CONTINUOUS
70
0
3
Solid line
72
65
73
0
40
0
0
LTYPE
2
DASHED
70
0
3
__ __ __
72
65
73
2
40
0.125
49
0.0833
49
-0.0417
0
ENDTAB
0
TABLE
2
LAYER
70
2
0
LAYER
2
A-ANNO-TEXT
70
0
62
1
6
CONTINUOUS
0
LAYER
2
G-ANNO-TTLB
70
0
62
2
6
CONTINUOUS
0
ENDTAB
0
ENDSEC
0
SECTION
2
ENTITIES
0
TEXT
8
A-ANNO-TEXT
10
1.11111
20
21.94444
30
0
40
0.12
1
DOOR SCHEDULE
50
0
0
TEXT
8
A-ANNO-TEXT
10
1.15278
20
21.66667
30
0
40
0.07
1
MARK
50
0
0
TEXT
8
A-ANNO-TEXT
10
1.84722
20
21.66667
30
0
40
0.07
1
WIDTH
50
0
0
TEXT
8
A-ANNO-TEXT
10
2.61111
20
21.66667
30
0
40
0.07
1
HEIGHT
50
0
0
TEXT
8
A-ANNO-TEXT
10
3.375
20
21.66667
30
0
40
0.07
1
TYPE
50
0
0
TEXT
8
A-ANNO-TEXT
10
3.93056
20
21.66667
30
0
40
0.07
1
MATERIAL
50
0
0
TEXT
8
A-ANNO-TEXT
10
4.90278
20
21.66667
30
0
40
0.07
1
FRAME
50
0
0
TEXT
8
A-ANNO-TEXT
10
5.52778
20
21.66667
30
0
40
0.07
1
RATING
50
0
0
TEXT
8
A-ANNO-TEXT
10
6.29167
20
21.66667
30
0
40
0.07
1
HDW SET
50
0
0
TEXT
8
A-ANNO-TEXT
10
7.05556
20
21.66667
30
0
40
0.07
1
REMARKS
50
0
0
TEXT
8
A-ANNO-TEXT
10
1.15278
20
21.47222
30
0
40
0.07
1
100A
50
0
0
TEXT
8
A-ANNO-TEXT
10
1.84722
20
21.47222
30
0
40
0.07
1
3'-0"
50
0
0
TEXT
8
A-ANNO-TEXT
10
2.61111
20
21.47222
30
0
40
0.07
1
7'-0"
50
0
0
TEXT
8
A-ANNO-TEXT
10
3.375
20
21.47222
30
0
40
0.07
1
A
50
0
0
TEXT
8
A-ANNO-TEXT
10
3.93056
20
21.47222
30
0
40
0.07
1
WD
50
0
0
TEXT
8
A-ANNO-TEXT
10
4.90278
20
21.47222
30
0
40
0.07
1
HM
50
0
0
TEXT
8
A-ANNO-TEXT
10
5.52778
20
21.47222
30
0
40
0.07
1
20 MIN
50
0
0
TEXT
8
A-ANNO-TEXT
10
6.29167
20
21.47222
30
0
40
0.07
1
1
50
0
0
TEXT
8
A-ANNO-TEXT
10
1.15278
20
21.27778
30
0
40
0.07
1
150A
50
0
0
TEXT
8
A-ANNO-TEXT
10
1.84722
20
21.27778
30
0
40
0.07
1
3'-0"
50
0
0
TEXT
8
A-ANNO-TEXT
10
2.61111
20
21.27778
30
0
40
0.07
1
7'-0"
50
0
0
TEXT
8
A-ANNO-TEXT
10
3.375
20
21.27778
30
0
40
0.07
1
A
50
0
0
TEXT
8
A-ANNO-TEXT
10
3.93056
20
21.27778
30
0
40
0.07
1
WD
50
0
0
TEXT
8
A-ANNO-TEXT
10
4.90278
20
21.27778
30
0
40
0.07
1
HM
50
0
0
TEXT
8
A-ANNO-TEXT
10
5.52778
20
21.27778
30
0
40
0.07
1
90 MIN
50
0
0
TEXT
8
A-ANNO-TEXT
10
6.29167
20
21.27778
30
0
40
0.07
1
2
50
0
0
TEXT
8
A-ANNO-TEXT
10
1.15278
20
21.08333
30
0
40
0.07
1
110
50
0
0
TEXT
8
A-ANNO-TEXT
10
1.84722
20
21.08333
30
0
40
0.07
1
3'-0"
50
0
0
TEXT
8
A-ANNO-TEXT
10
2.61111
20
21.08333
30
0
40
0.07
1
7'-0"
50
0
0
TEXT
8
A-ANNO-TEXT
10
3.375
20
21.08333
30
0
40
0.07
1
A
50
0
0
TEXT
8
A-ANNO-TEXT
10
3.93056
20
21.08333
30
0
40
0.07
1
WD
50
0
0
TEXT
8
A-ANNO-TEXT
10
4.90278
20
21.08333
30
0
40
0.07
1
HM
50
0
0
TEXT
8
A-ANNO-TEXT
10
6.29167
20
21.08333
30
0
40
0.07
1
3
50
0
0
TEXT
8
A-ANNO-TEXT
10
1.15278
20
20.88889
30
0
40
0.07
1
111
50
0
0
TEXT
8
A-ANNO-TEXT
10
1.84722
20
20.88889
30
0
40
0.07
1
3'-0"
50
0
0
TEXT
8
A-ANNO-TEXT
10
2.61111
20
20.88889
30
0
40
0.07
1
7'-0"
50
0
0
TEXT
8
A-ANNO-TEXT
10
3.375
20
20.88889
30
0
40
0.07
1
A
50
0
0
TEXT
8
A-ANNO-TEXT
10
3.93056
20
20.88889
30
0
40
0.07
1
WD
50
0
0
TEXT
8
A-ANNO-TEXT
10
4.90278
20
20.88889
30
0
40
0.07
1
HM
50
0
0
TEXT
8
A-ANNO-TEXT
10
6.29167
20
20.88889
30
0
40
0.07
1
4
50
0
0
TEXT
8
A-ANNO-TEXT
10
1.15278
20
20.69444
30
0
40
0.07
1
112
50
0
0
TEXT
8
A-ANNO-TEXT
10
1.84722
20
20.69444
30
0
40
0.07
1
3'-0"
50
0
0
TEXT
8
A-ANNO-TEXT
10
2.61111
20
20.69444
30
0
40
0.07
1
7'-0"
50
0
0
TEXT
8
A-ANNO-TEXT
10
3.375
20
20.69444
30
0
40
0.07
1
A
50
0
0
TEXT
8
A-ANNO-TEXT
10
3.93056
20
20.69444
30
0
40
0.07
1
WD
50
0
0
TEXT
8
A-ANNO-TEXT
10
4.90278
20
20.69444
30
0
40
0.07
1
HM
50
0
0
TEXT
8
A-ANNO-TEXT
10
6.29167
20
20.69444
30
0
40
0.07
1
5
50
0
0
TEXT
8
A-ANNO-TEXT
10
1.15278
20
20.5
30
0
40
0.07
1
113
50
0
0
TEXT
8
A-ANNO-TEXT
10
1.84722
20
20.5
30
0
40
0.07
1
3'-0"
50
0
0
TEXT
8
A-ANNO-TEXT
10
2.61111
20
20.5
30
0
40
0.07
1
7'-0"
50
0
0
TEXT
8
A-ANNO-TEXT
10
3.375
20
20.5
30
0
40
0.07
1
A
50
0
0
TEXT
8
A-ANNO-TEXT
10
3.93056
20
20.5
30
0
40
0.07
1
WD
50
0
0
TEXT
8
A-ANNO-TEXT
10
4.90278
20
20.5
30
0
40
0.07
1
HM
50
0
0
TEXT
8
A-ANNO-TEXT
10
6.29167
20
20.5
30
0
40
0.07
1
6
50
0
0
TEXT
8
A-ANNO-TEXT
10
1.15278
20
20.30556
30
0
40
0.07
1
114
50
0
0
TEXT
8
A-ANNO-TEXT
10
1.84722
20
20.30556
30
0
40
0.07
1
3'-0"
50
0
0
TEXT
8
A-ANNO-TEXT
10
2.61111
20
20.30556
30
0
40
0.07
1
7'-0"
50
0
0
TEXT
8
A-ANNO-TEXT
10
3.375
20
20.30556
30
0
40
0.07
1
A
50
0
0
TEXT
8
A-ANNO-TEXT
10
3.93056
20
20.30556
30
0
40
0.07
1
WD
50
0
0
TEXT
8
A-ANNO-TEXT
10
4.90278
20
20.30556
30
0
40
0.07
1
HM
50
0
0
TEXT
8
A-ANNO-TEXT
10
6.29167
20
20.30556
30
0
40
0.07
1
1
50
0
0
TEXT
8
A-ANNO-TEXT
10
1.15278
20
20.11111
30
0
40
0.07
1
130
50
0
0
TEXT
8
A-ANNO-TEXT
10
1.84722
20
20.11111
30
0
40
0.07
1
3'-0"
50
0
0
TEXT
8
A-ANNO-TEXT
10
2.61111
20
20.11111
30
0
40
0.07
1
7'-0"
50
0
0
TEXT
8
A-ANNO-TEXT
10
3.375
20
20.11111
30
0
40
0.07
1
A
50
0
0
TEXT
8
A-ANNO-TEXT
10
3.93056
20
20.11111
30
0
40
0.07
1
WD
50
0
0
TEXT
8
A-ANNO-TEXT
10
4.90278
20
20.11111
30
0
40
0.07
1
HM
50
0
0
TEXT
8
A-ANNO-TEXT
10
5.52778
20
20.11111
30
0
40
0.07
1
20 MIN
50
0
0
TEXT
8
A-ANNO-TEXT
10
6.29167
20
20.11111
30
0
40
0.07
1
2
50
0
0
TEXT
8
A-ANNO-TEXT
10
1.15278
20
19.91667
30
0
40
0.07
1
131
50
0
0
TEXT
8
A-ANNO-TEXT
10
1.84722
20
19.91667
30
0
40
0.07
1
3'-0"
50
0
0
TEXT
8
A-ANNO-TEXT
10
2.61111
20
19.91667
30
0
40
0.07
1
7'-0"
50
0
0
TEXT
8
A-ANNO-TEXT
10
3.375
20
19.91667
30
0
40
0.07
1
A
50
0
0
TEXT
8
A-ANNO-TEXT
10
3.93056
20
19.91667
30
0
40
0.07
1
WD
50
0
0
TEXT
8
A-ANNO-TEXT
10
4.90278
20
19.91667
30
0
40
0.07
1
HM
50
0
0
TEXT
8
A-ANNO-TEXT
10
6.29167
20
19.91667
30
0
40
0.07
1
3
50
0
0
TEXT
8
A-ANNO-TEXT
10
1.15278
20
19.72222
30
0
40
0.07
1
132
50
0
0
TEXT
8
A-ANNO-TEXT
10
1.84722
20
19.72222
30
0
40
0.07
1
3'-0"
50
0
0
TEXT
8
A-ANNO-TEXT
10
2.61111
20
19.72222
30
0
40
0.07
1
7'-0"
50
0
0
TEXT
8
A-ANNO-TEXT
10
3.375
20
19.72222
30
0
40
0.07
1
A
50
0
0
TEXT
8
A-ANNO-TEXT
10
3.93056
20
19.72222
30
0
40
0.07
1
WD
50
0
0
TEXT
8
A-ANNO-TEXT
10
4.90278
20
19.72222
30
0
40
0.07
1
HM
50
0
0
TEXT
8
A-ANNO-TEXT
10
6.29167
20
19.72222
30
0
40
0.07
1
4
50
0
0
TEXT
8
A-ANNO-TEXT
10
1.15278
20
19.52778
30
0
40
0.07
1
133
50
0
0
TEXT
8
A-ANNO-TEXT
10
1.84722
20
19.52778
30
0
40
0.07
1
3'-0"
50
0
0
TEXT
8
A-ANNO-TEXT
10
2.61111
20
19.52778
30
0
40
0.07
1
7'-0"
50
0
0
TEXT
8
A-ANNO-TEXT
10
3.375
20
19.52778
30
0
40
0.07
1
A
50
0
0
TEXT
8
A-ANNO-TEXT
10
3.93056
20
19.52778
30
0
40
0.07
1
WD
50
0
0
TEXT
8
A-ANNO-TEXT
10
4.90278
20
19.52778
30
0
40
0.07
1
HM
50
0
0
TEXT
8
A-ANNO-TEXT
10
6.29167
20
19.52778
30
0
40
0.07
1
5
50
0
0
TEXT
8
A-ANNO-TEXT
10
1.15278
20
19.33333
30
0
40
0.07
1
134
50
0
0
TEXT
8
A-ANNO-TEXT
10
1.84722
20
19.33333
30
0
40
0.07
1
3'-0"
50
0
0
TEXT
8
A-ANNO-TEXT
10
2.61111
20
19.33333
30
0
40
0.07
1
7'-0"
50
0
0
TEXT
8
A-ANNO-TEXT
10
3.375
20
19.33333
30
0
40
0.07
1
A
50
0
0
TEXT
8
A-ANNO-TEXT
10
3.93056
20
19.33333
30
0
40
0.07
1
WD
50
0
0
TEXT
8
A-ANNO-TEXT
10
4.90278
20
19.33333
30
0
40
0.07
1
HM
50
0
0
TEXT
8
A-ANNO-TEXT
10
6.29167
20
19.33333
30
0
40
0.07
1
6
50
0
0
TEXT
8
A-ANNO-TEXT
10
1.15278
20
19.13889
30
0
40
0.07
1
120
50
0
0
TEXT
8
A-ANNO-TEXT
10
1.84722
20
19.13889
30
0
40
0.07
1
6'-0"
50
0
0
TEXT
8
A-ANNO-TEXT
10
2.61111
20
19.13889
30
0
40
0.07
1
7'-0"
50
0
0
TEXT
8
A-ANNO-TEXT
10
3.375
20
19.13889
30
0
40
0.07
1
PR
50
0
0
TEXT
8
A-ANNO-TEXT
10
3.93056
20
19.13889
30
0
40
0.07
1
WD
50
0
0
TEXT
8
A-ANNO-TEXT
10
4.90278
20
19.13889
30
0
40
0.07
1
HM
50
0
0
TEXT
8
A-ANNO-TEXT
10
5.52778
20
19.13889
30
0
40
0.07
1
90 MIN
50
0
0
TEXT
8
A-ANNO-TEXT
10
6.29167
20
19.13889
30
0
40
0.07
1
1
50
0
0
TEXT
8
A-ANNO-TEXT
10
7.05556
20
19.18056
30
0
40
0.055
1
PROVIDE CLOSERS
50
0
0
TEXT
8
A-ANNO-TEXT
10
7.05556
20
19.09028
30
0
40
0.055
1
AND FLUSH BOLTS
50
0
0
TEXT
8
A-ANNO-TEXT
10
1.15278
20
18.94444
30
0
40
0.07
1
118
50
0
0
TEXT
8
A-ANNO-TEXT
10
1.84722
20
18.94444
30
0
40
0.07
1
4'-6"
50
0
0
TEXT
8
A-ANNO-TEXT
10
2.61111
20
18.94444
30
0
40
0.07
1
7'-0"
50
0
0
TEXT
8
A-ANNO-TEXT
10
3.375
20
18.94444
30
0
40
0.07
1
SL
50
0
0
TEXT
8
A-ANNO-TEXT
10
3.93056
20
18.94444
30
0
40
0.07
1
WD
50
0
0
TEXT
8
A-ANNO-TEXT
10
4.90278
20
18.94444
30
0
40
0.07
1
HM
50
0
0
TEXT
8
A-ANNO-TEXT
10
6.29167
20
18.94444
30
0
40
0.07
1
2
50
0
0
TEXT
8
A-ANNO-TEXT
10
7.05556
20
18.94444
30
0
40
0.07
1
TEMPERED SIDELITE
50
0
0
TEXT
8
A-ANNO-TEXT
10
1.15278
20
18.75
30
0
40
0.07
1
116
50
0
0
TEXT
8
A-ANNO-TEXT
10
1.84722
20
18.75
30
0
40
0.07
1
3'-0"
50
0
0
TEXT
8
A-ANNO-TEXT
10
2.61111
20
18.75
30
0
40
0.07
1
7'-0"
50
0
0
TEXT
8
A-ANNO-TEXT
10
3.375
20
18.75
30
0
40
0.07
1
A
50
0
0
TEXT
8
A-ANNO-TEXT
10
3.93056
20
18.75
30
0
40
0.07
1
WD
50
0
0
TEXT
8
A-ANNO-TEXT
10
4.90278
20
18.75
30
0
40
0.07
1
HM
50
0
0
TEXT
8
A-ANNO-TEXT
10
5.52778
20
18.75
30
0
40
0.07
1
20 MIN
50
0
0
TEXT
8
A-ANNO-TEXT
10
6.29167
20
18.75
30
0
40
0.07
1
3
50
0
0
TEXT
8
A-ANNO-TEXT
10
1.15278
20
18.55556
30
0
40
0.07
1
140
50
0
0
TEXT
8
A-ANNO-TEXT
10
1.84722
20
18.55556
30
0
40
0.07
1
3'-0"
50
0
0
TEXT
8
A-ANNO-TEXT
10
2.61111
20
18.55556
30
0
40
0.07
1
7'-0"
50
0
0
TEXT
8
A-ANNO-TEXT
10
3.375
20
18.55556
30
0
40
0.07
1
A
50
0
0
TEXT
8
A-ANNO-TEXT
10
3.93056
20
18.55556
30
0
40
0.07
1
WD
50
0
0
TEXT
8
A-ANNO-TEXT
10
4.90278
20
18.55556
30
0
40
0.07
1
HM
50
0
0
TEXT
8
A-ANNO-TEXT
10
6.29167
20
18.55556
30
0
40
0.07
1
4
50
0
0
TEXT
8
A-ANNO-TEXT
10
1.15278
20
18.36111
30
0
40
0.07
1
141
50
0
0
TEXT
8
A-ANNO-TEXT
10
1.84722
20
18.36111
30
0
40
0.07
1
3'-0"
50
0
0
TEXT
8
A-ANNO-TEXT
10
2.61111
20
18.36111
30
0
40
0.07
1
7'-0"
50
0
0
TEXT
8
A-ANNO-TEXT
10
3.375
20
18.36111
30
0
40
0.07
1
A
50
0
0
TEXT
8
A-ANNO-TEXT
10
3.93056
20
18.36111
30
0
40
0.07
1
WD
50
0
0
TEXT
8
A-ANNO-TEXT
10
4.90278
20
18.36111
30
0
40
0.07
1
HM
50
0
0
TEXT
8
A-ANNO-TEXT
10
6.29167
20
18.36111
30
0
40
0.07
1
5
50
0
0
TEXT
8
A-ANNO-TEXT
10
1.15278
20
18.16667
30
0
40
0.07
1
142
50
0
0
TEXT
8
A-ANNO-TEXT
10
1.84722
20
18.16667
30
0
40
0.07
1
6'-0"
50
0
0
TEXT
8
A-ANNO-TEXT
10
2.61111
20
18.16667
30
0
40
0.07
1
7'-0"
50
0
0
TEXT
8
A-ANNO-TEXT
10
3.375
20
18.16667
30
0
40
0.07
1
PR
50
0
0
TEXT
8
A-ANNO-TEXT
10
3.93056
20
18.16667
30
0
40
0.07
1
WD
50
0
0
TEXT
8
A-ANNO-TEXT
10
4.90278
20
18.16667
30
0
40
0.07
1
HM
50
0
0
TEXT
8
A-ANNO-TEXT
10
6.29167
20
18.16667
30
0
40
0.07
1
6
50
0
0
TEXT
8
A-ANNO-TEXT
10
7.05556
20
18.20833
30
0
40
0.055
1
PROVIDE CLOSERS
50
0
0
TEXT
8
A-ANNO-TEXT
10
7.05556
20
18.11806
30
0
40
0.055
1
AND FLUSH BOLTS
50
0
0
TEXT
8
A-ANNO-TEXT
10
1.15278
20
17.97222
30
0
40
0.07
1
143
50
0
0
TEXT
8
A-ANNO-TEXT
10
1.84722
20
17.97222
30
0
40
0.07
1
3'-0"
50
0
0
TEXT
8
A-ANNO-TEXT
10
2.61111
20
17.97222
30
0
40
0.07
1
7'-0"
50
0
0
TEXT
8
A-ANNO-TEXT
10
3.375
20
17.97222
30
0
40
0.07
1
A
50
0
0
TEXT
8
A-ANNO-TEXT
10
3.93056
20
17.97222
30
0
40
0.07
1
HM
50
0
0
TEXT
8
A-ANNO-TEXT
10
4.90278
20
17.97222
30
0
40
0.07
1
HM
50
0
0
TEXT
8
A-ANNO-TEXT
10
6.29167
20
17.97222
30
0
40
0.07
1
1
50
0
0
TEXT
8
A-ANNO-TEXT
10
1.15278
20
17.77778
30
0
40
0.07
1
144
50
0
0
TEXT
8
A-ANNO-TEXT
10
1.84722
20
17.77778
30
0
40
0.07
1
3'-0"
50
0
0
TEXT
8
A-ANNO-TEXT
10
2.61111
20
17.77778
30
0
40
0.07
1
7'-0"
50
0
0
TEXT
8
A-ANNO-TEXT
10
3.375
20
17.77778
30
0
40
0.07
1
A
50
0
0
TEXT
8
A-ANNO-TEXT
10
3.93056
20
17.77778
30
0
40
0.07
1
HM
50
0
0
TEXT
8
A-ANNO-TEXT
10
4.90278
20
17.77778
30
0
40
0.07
1
HM
50
0
0
TEXT
8
A-ANNO-TEXT
10
6.29167
20
17.77778
30
0
40
0.07
1
2
50
0
0
TEXT
8
A-ANNO-TEXT
10
1.15278
20
17.58333
30
0
40
0.07
1
145
50
0
0
TEXT
8
A-ANNO-TEXT
10
1.84722
20
17.58333
30
0
40
0.07
1
3'-0"
50
0
0
TEXT
8
A-ANNO-TEXT
10
2.61111
20
17.58333
30
0
40
0.07
1
7'-0"
50
0
0
TEXT
8
A-ANNO-TEXT
10
3.375
20
17.58333
30
0
40
0.07
1
A
50
0
0
TEXT
8
A-ANNO-TEXT
10
3.93056
20
17.58333
30
0
40
0.07
1
HM
50
0
0
TEXT
8
A-ANNO-TEXT
10
4.90278
20
17.58333
30
0
40
0.07
1
HM
50
0
0
TEXT
8
A-ANNO-TEXT
10
5.52778
20
17.58333
30
0
40
0.07
1
90 MIN
50
0
0
TEXT
8
A-ANNO-TEXT
10
6.29167
20
17.58333
30
0
40
0.07
1
3
50
0
0
TEXT
8
A-ANNO-TEXT
10
1.15278
20
17.38889
30
0
40
0.07
1
146
50
0
0
TEXT
8
A-ANNO-TEXT
10
1.84722
20
17.38889
30
0
40
0.07
1
3'-0"
50
0
0
TEXT
8
A-ANNO-TEXT
10
2.61111
20
17.38889
30
0
40
0.07
1
7'-0"
50
0
0
TEXT
8
A-ANNO-TEXT
10
3.375
20
17.38889
30
0
40
0.07
1
A
50
0
0
TEXT
8
A-ANNO-TEXT
10
3.93056
20
17.38889
30
0
40
0.07
1
HM
50
0
0
TEXT
8
A-ANNO-TEXT
10
4.90278
20
17.38889
30
0
40
0.07
1
HM
50
0
0
TEXT
8
A-ANNO-TEXT
10
5.52778
20
17.38889
30
0
40
0.07
1
20 MIN
50
0
0
TEXT
8
A-ANNO-TEXT
10
6.29167
20
17.38889
30
0
40
0.07
1
4
50
0
0
TEXT
8
A-ANNO-TEXT
10
1.15278
20
17.19444
30
0
40
0.07
1
121
50
0
0
TEXT
8
A-ANNO-TEXT
10
1.84722
20
17.19444
30
0
40
0.07
1
3'-0"
50
0
0
TEXT
8
A-ANNO-TEXT
10
2.61111
20
17.19444
30
0
40
0.07
1
7'-0"
50
0
0
TEXT
8
A-ANNO-TEXT
10
3.375
20
17.19444
30
0
40
0.07
1
A
50
0
0
TEXT
8
A-ANNO-TEXT
10
3.93056
20
17.19444
30
0
40
0.07
1
WD
50
0
0
TEXT
8
A-ANNO-TEXT
10
4.90278
20
17.19444
30
0
40
0.07
1
HM
50
0
0
TEXT
8
A-ANNO-TEXT
10
6.29167
20
17.19444
30
0
40
0.07
1
5
50
0
0
TEXT
8
A-ANNO-TEXT
10
1.15278
20
17
30
0
40
0.07
1
122
50
0
0
TEXT
8
A-ANNO-TEXT
10
1.84722
20
17
30
0
40
0.07
1
3'-0"
50
0
0
TEXT
8
A-ANNO-TEXT
10
2.61111
20
17
30
0
40
0.07
1
7'-0"
50
0
0
TEXT
8
A-ANNO-TEXT
10
3.375
20
17
30
0
40
0.07
1
A
50
0
0
TEXT
8
A-ANNO-TEXT
10
3.93056
20
17
30
0
40
0.07
1
WD
50
0
0
TEXT
8
A-ANNO-TEXT
10
4.90278
20
17
30
0
40
0.07
1
HM
50
0
0
TEXT
8
A-ANNO-TEXT
10
5.52778
20
17
30
0
40
0.07
1
90 MIN
50
0
0
TEXT
8
A-ANNO-TEXT
10
6.29167
20
17
30
0
40
0.07
1
6
50
0
0
TEXT
8
A-ANNO-TEXT
10
1.15278
20
16.80556
30
0
40
0.07
1
125
50
0
0
TEXT
8
A-ANNO-TEXT
10
1.84722
20
16.80556
30
0
40
0.07
1
3'-0"
50
0
0
TEXT
8
A-ANNO-TEXT
10
2.61111
20
16.80556
30
0
40
0.07
1
7'-0"
50
0
0
TEXT
8
A-ANNO-TEXT
10
3.375
20
16.80556
30
0
40
0.07
1
A
50
0
0
TEXT
8
A-ANNO-TEXT
10
3.93056
20
16.80556
30
0
40
0.07
1
WD
50
0
0
TEXT
8
A-ANNO-TEXT
10
4.90278
20
16.80556
30
0
40
0.07
1
HM
50
0
0
TEXT
8
A-ANNO-TEXT
10
6.29167
20
16.80556
30
0
40
0.07
1
1
50
0
0
TEXT
8
A-ANNO-TEXT
10
1.15278
20
16.61111
30
0
40
0.07
1
126
50
0
0
TEXT
8
A-ANNO-TEXT
10
1.84722
20
16.61111
30
0
40
0.07
1
3'-0"
50
0
0
TEXT
8
A-ANNO-TEXT
10
2.61111
20
16.61111
30
0
40
0.07
1
7'-0"
50
0
0
TEXT
8
A-ANNO-TEXT
10
3.375
20
16.61111
30
0
40
0.07
1
A
50
0
0
TEXT
8
A-ANNO-TEXT
10
3.93056
20
16.61111
30
0
40
0.07
1
WD
50
0
0
TEXT
8
A-ANNO-TEXT
10
4.90278
20
16.61111
30
0
40
0.07
1
HM
50
0
0
TEXT
8
A-ANNO-TEXT
10
6.29167
20
16.61111
30
0
40
0.07
1
2
50
0
0
TEXT
8
A-ANNO-TEXT
10
1.15278
20
16.41667
30
0
40
0.07
1
127
50
0
0
TEXT
8
A-ANNO-TEXT
10
1.84722
20
16.41667
30
0
40
0.07
1
3'-0"
50
0
0
TEXT
8
A-ANNO-TEXT
10
2.61111
20
16.41667
30
0
40
0.07
1
7'-0"
50
0
0
TEXT
8
A-ANNO-TEXT
10
3.375
20
16.41667
30
0
40
0.07
1
A
50
0
0
TEXT
8
A-ANNO-TEXT
10
3.93056
20
16.41667
30
0
40
0.07
1
WD
50
0
0
TEXT
8
A-ANNO-TEXT
10
4.90278
20
16.41667
30
0
40
0.07
1
HM
50
0
0
TEXT
8
A-ANNO-TEXT
10
6.29167
20
16.41667
30
0
40
0.07
1
3
50
0
0
TEXT
8
A-ANNO-TEXT
10
1.15278
20
16.22222
30
0
40
0.07
1
128
50
0
0
TEXT
8
A-ANNO-TEXT
10
1.84722
20
16.22222
30
0
40
0.07
1
3'-0"
50
0
0
TEXT
8
A-ANNO-TEXT
10
2.61111
20
16.22222
30
0
40
0.07
1
7'-0"
50
0
0
TEXT
8
A-ANNO-TEXT
10
3.375
20
16.22222
30
0
40
0.07
1
A
50
0
0
TEXT
8
A-ANNO-TEXT
10
3.93056
20
16.22222
30
0
40
0.07
1
WD
50
0
0
TEXT
8
A-ANNO-TEXT
10
4.90278
20
16.22222
30
0
40
0.07
1
HM
50
0
0
TEXT
8
A-ANNO-TEXT
10
6.29167
20
16.22222
30
0
40
0.07
1
4
50
0
0
TEXT
8
A-ANNO-TEXT
10
1.15278
20
16.02778
30
0
40
0.07
1
135
50
0
0
TEXT
8
A-ANNO-TEXT
10
1.84722
20
16.02778
30
0
40
0.07
1
3'-0"
50
0
0
TEXT
8
A-ANNO-TEXT
10
2.61111
20
16.02778
30
0
40
0.07
1
7'-0"
50
0
0
TEXT
8
A-ANNO-TEXT
10
3.375
20
16.02778
30
0
40
0.07
1
A
50
0
0
TEXT
8
A-ANNO-TEXT
10
3.93056
20
16.02778
30
0
40
0.07
1
WD
50
0
0
TEXT
8
A-ANNO-TEXT
10
4.90278
20
16.02778
30
0
40
0.07
1
HM
50
0
0
TEXT
8
A-ANNO-TEXT
10
5.52778
20
16.02778
30
0
40
0.07
1
20 MIN
50
0
0
TEXT
8
A-ANNO-TEXT
10
6.29167
20
16.02778
30
0
40
0.07
1
5
50
0
0
TEXT
8
A-ANNO-TEXT
10
1.15278
20
15.83333
30
0
40
0.07
1
136
50
0
0
TEXT
8
A-ANNO-TEXT
10
1.84722
20
15.83333
30
0
40
0.07
1
3'-0"
50
0
0
TEXT
8
A-ANNO-TEXT
10
2.61111
20
15.83333
30
0
40
0.07
1
7'-0"
50
0
0
TEXT
8
A-ANNO-TEXT
10
3.375
20
15.83333
30
0
40
0.07
1
A
50
0
0
TEXT
8
A-ANNO-TEXT
10
3.93056
20
15.83333
30
0
40
0.07
1
WD
50
0
0
TEXT
8
A-ANNO-TEXT
10
4.90278
20
15.83333
30
0
40
0.07
1
HM
50
0
0
TEXT
8
A-ANNO-TEXT
10
6.29167
20
15.83333
30
0
40
0.07
1
6
50
0
0
TEXT
8
A-ANNO-TEXT
10
1.15278
20
15.63889
30
0
40
0.07
1
137
50
0
0
TEXT
8
A-ANNO-TEXT
10
1.84722
20
15.63889
30
0
40
0.07
1
3'-0"
50
0
0
TEXT
8
A-ANNO-TEXT
10
2.61111
20
15.63889
30
0
40
0.07
1
7'-0"
50
0
0
TEXT
8
A-ANNO-TEXT
10
3.375
20
15.63889
30
0
40
0.07
1
A
50
0
0
TEXT
8
A-ANNO-TEXT
10
3.93056
20
15.63889
30
0
40
0.07
1
WD
50
0
0
TEXT
8
A-ANNO-TEXT
10
4.90278
20
15.63889
30
0
40
0.07
1
HM
50
0
0
TEXT
8
A-ANNO-TEXT
10
6.29167
20
15.63889
30
0
40
0.07
1
1
50
0
0
TEXT
8
A-ANNO-TEXT
10
1.15278
20
15.44444
30
0
40
0.07
1
102
50
0
0
TEXT
8
A-ANNO-TEXT
10
1.84722
20
15.44444
30
0
40
0.07
1
3'-0"
50
0
0
TEXT
8
A-ANNO-TEXT
10
2.61111
20
15.44444
30
0
40
0.07
1
7'-0"
50
0
0
TEXT
8
A-ANNO-TEXT
10
3.375
20
15.44444
30
0
40
0.07
1
A
50
0
0
TEXT
8
A-ANNO-TEXT
10
3.93056
20
15.44444
30
0
40
0.07
1
WD
50
0
0
TEXT
8
A-ANNO-TEXT
10
4.90278
20
15.44444
30
0
40
0.07
1
HM
50
0
0
TEXT
8
A-ANNO-TEXT
10
6.29167
20
15.44444
30
0
40
0.07
1
2
50
0
0
TEXT
8
A-ANNO-TEXT
10
1.15278
20
15.25
30
0
40
0.07
1
103
50
0
0
TEXT
8
A-ANNO-TEXT
10
1.84722
20
15.25
30
0
40
0.07
1
3'-0"
50
0
0
TEXT
8
A-ANNO-TEXT
10
2.61111
20
15.25
30
0
40
0.07
1
7'-0"
50
0
0
TEXT
8
A-ANNO-TEXT
10
3.375
20
15.25
30
0
40
0.07
1
A
50
0
0
TEXT
8
A-ANNO-TEXT
10
3.93056
20
15.25
30
0
40
0.07
1
WD
50
0
0
TEXT
8
A-ANNO-TEXT
10
4.90278
20
15.25
30
0
40
0.07
1
HM
50
0
0
TEXT
8
A-ANNO-TEXT
10
6.29167
20
15.25
30
0
40
0.07
1
3
50
0
0
TEXT
8
A-ANNO-TEXT
10
1.15278
20
15.05556
30
0
40
0.07
1
CO1
50
0
0
TEXT
8
A-ANNO-TEXT
10
1.84722
20
15.05556
30
0
40
0.07
1
6'-0"
50
0
0
TEXT
8
A-ANNO-TEXT
10
2.61111
20
15.05556
30
0
40
0.07
1
8'-0"
50
0
0
TEXT
8
A-ANNO-TEXT
10
3.375
20
15.05556
30
0
40
0.07
1
CO
50
0
0
TEXT
8
A-ANNO-TEXT
10
4.90278
20
15.05556
30
0
40
0.07
1
HM
50
0
0
LINE
8
A-ANNO-TEXT
10
1.11111
20
21.80556
30
0
11
8.81944
21
21.80556
31
0
0
LINE
8
A-ANNO-TEXT
10
1.11111
20
21.61111
30
0
11
8.81944
21
21.61111
31
0
0
LINE
8
A-ANNO-TEXT
10
1.11111
20
21.41667
30
0
11
8.81944
21
21.41667
31
0
0
LINE
8
A-ANNO-TEXT
10
1.11111
20
21.22222
30
0
11
8.81944
21
21.22222
31
0
0
LINE
8
A-ANNO-TEXT
10
1.11111
20
21.02778
30
0
11
8.81944
21
21.02778
31
0
0
LINE
8
A-ANNO-TEXT
10
1.11111
20
20.83333
30
0
11
8.81944
21
20.83333
31
0
0
LINE
8
A-ANNO-TEXT
10
1.11111
20
20.63889
30
0
11
8.81944
21
20.63889
31
0
0
LINE
8
A-ANNO-TEXT
10
1.11111
20
20.44444
30
0
11
8.81944
21
20.44444
31
0
0
LINE
8
A-ANNO-TEXT
10
1.11111
20
20.25
30
0
11
8.81944
21
20.25
31
0
0
LINE
8
A-ANNO-TEXT
10
1.11111
20
20.05556
30
0
11
8.81944
21
20.05556
31
0
0
LINE
8
A-ANNO-TEXT
10
1.11111
20
19.86111
30
0
11
8.81944
21
19.86111
31
0
0
LINE
8
A-ANNO-TEXT
10
1.11111
20
19.66667
30
0
11
8.81944
21
19.66667
31
0
0
LINE
8
A-ANNO-TEXT
10
1.11111
20
19.47222
30
0
11
8.81944
21
19.47222
31
0
0
LINE
8
A-ANNO-TEXT
10
1.11111
20
19.27778
30
0
11
8.81944
21
19.27778
31
0
0
LINE
8
A-ANNO-TEXT
10
1.11111
20
19.08333
30
0
11
8.81944
21
19.08333
31
0
0
LINE
8
A-ANNO-TEXT
10
1.11111
20
18.88889
30
0
11
8.81944
21
18.88889
31
0
0
LINE
8
A-ANNO-TEXT
10
1.11111
20
18.69444
30
0
11
8.81944
21
18.69444
31
0
0
LINE
8
A-ANNO-TEXT
10
1.11111
20
18.5
30
0
11
8.81944
21
18.5
31
0
0
LINE
8
A-ANNO-TEXT
10
1.11111
20
18.30556
30
0
11
8.81944
21
18.30556
31
0
0
LINE
8
A-ANNO-TEXT
10
1.11111
20
18.11111
30
0
11
8.81944
21
18.11111
31
0
0
LINE
8
A-ANNO-TEXT
10
1.11111
20
17.91667
30
0
11
8.81944
21
17.91667
31
0
0
LINE
8
A-ANNO-TEXT
10
1.11111
20
17.72222
30
0
11
8.81944
21
17.72222
31
0
0
LINE
8
A-ANNO-TEXT
10
1.11111
20
17.52778
30
0
11
8.81944
21
17.52778
31
0
0
LINE
8
A-ANNO-TEXT
10
1.11111
20
17.33333
30
0
11
8.81944
21
17.33333
31
0
0
LINE
8
A-ANNO-TEXT
10
1.11111
20
17.13889
30
0
11
8.81944
21
17.13889
31
0
0
LINE
8
A-ANNO-TEXT
10
1.11111
20
16.94444
30
0
11
8.81944
21
16.94444
31
0
0
LINE
8
A-ANNO-TEXT
10
1.11111
20
16.75
30
0
11
8.81944
21
16.75
31
0
0
LINE
8
A-ANNO-TEXT
10
1.11111
20
16.55556
30
0
11
8.81944
21
16.55556
31
0
0
LINE
8
A-ANNO-TEXT
10
1.11111
20
16.36111
30
0
11
8.81944
21
16.36111
31
0
0
LINE
8
A-ANNO-TEXT
10
1.11111
20
16.16667
30
0
11
8.81944
21
16.16667
31
0
0
LINE
8
A-ANNO-TEXT
10
1.11111
20
15.97222
30
0
11
8.81944
21
15.97222
31
0
0
LINE
8
A-ANNO-TEXT
10
1.11111
20
15.77778
30
0
11
8.81944
21
15.77778
31
0
0
LINE
8
A-ANNO-TEXT
10
1.11111
20
15.58333
30
0
11
8.81944
21
15.58333
31
0
0
LINE
8
A-ANNO-TEXT
10
1.11111
20
15.38889
30
0
11
8.81944
21
15.38889
31
0
0
LINE
8
A-ANNO-TEXT
10
1.11111
20
15.19444
30
0
11
8.81944
21
15.19444
31
0
0
LINE
8
A-ANNO-TEXT
10
1.11111
20
15
30
0
11
8.81944
21
15
31
0
0
LINE
8
A-ANNO-TEXT
10
1.11111
20
21.80556
30
0
11
1.11111
21
15
31
0
0
LINE
8
A-ANNO-TEXT
10
1.80556
20
21.80556
30
0
11
1.80556
21
15
31
0
0
LINE
8
A-ANNO-TEXT
10
2.56944
20
21.80556
30
0
11
2.56944
21
15
31
0
0
LINE
8
A-ANNO-TEXT
10
3.33333
20
21.80556
30
0
11
3.33333
21
15
31
0
0
LINE
8
A-ANNO-TEXT
10
3.88889
20
21.80556
30
0
11
3.88889
21
15
31
0
0
LINE
8
A-ANNO-TEXT
10
4.86111
20
21.80556
30
0
11
4.86111
21
15
31
0
0
LINE
8
A-ANNO-TEXT
10
5.48611
20
21.80556
30
0
11
5.48611
21
15
31
0
0
LINE
8
A-ANNO-TEXT
10
6.25
20
21.80556
30
0
11
6.25
21
15
31
0
0
LINE
8
A-ANNO-TEXT
10
7.01389
20
21.80556
30
0
11
7.01389
21
15
31
0
0
LINE
8
A-ANNO-TEXT
10
8.81944
20
21.80556
30
0
11
8.81944
21
15
31
0
0
TEXT
8
A-ANNO-TEXT
10
13.88889
20
21.94444
30
0
40
0.12
1
WINDOW SCHEDULE
50
0
0
TEXT
8
A-ANNO-TEXT
10
13.93056
20
21.66667
30
0
40
0.07
1
MARK
50
0
0
TEXT
8
A-ANNO-TEXT
10
14.76389
20
21.66667
30
0
40
0.07
1
TYPE
50
0
0
TEXT
8
A-ANNO-TEXT
10
15.31944
20
21.66667
30
0
40
0.07
1
WIDTH
50
0
0
TEXT
8
A-ANNO-TEXT
10
16.08333
20
21.66667
30
0
40
0.07
1
HEIGHT
50
0
0
TEXT
8
A-ANNO-TEXT
10
16.84722
20
21.66667
30
0
40
0.07
1
SILL
50
0
0
TEXT
8
A-ANNO-TEXT
10
17.54167
20
21.66667
30
0
40
0.07
1
GLAZING
50
0
0
TEXT
8
A-ANNO-TEXT
10
13.93056
20
21.47222
30
0
40
0.07
1
SF1
50
0
0
TEXT
8
A-ANNO-TEXT
10
14.76389
20
21.47222
30
0
40
0.07
1
SF
50
0
0
TEXT
8
A-ANNO-TEXT
10
15.31944
20
21.47222
30
0
40
0.07
1
20'-0"
50
0
0
TEXT
8
A-ANNO-TEXT
10
16.08333
20
21.47222
30
0
40
0.07
1
10'-0"
50
0
0
TEXT
8
A-ANNO-TEXT
10
16.84722
20
21.47222
30
0
40
0.07
1
0'-0"
50
0
0
TEXT
8
A-ANNO-TEXT
10
17.54167
20
21.47222
30
0
40
0.07
1
1" IGU LOW-E
50
0
0
TEXT
8
A-ANNO-TEXT
10
13.93056
20
21.27778
30
0
40
0.07
1
W1-1
50
0
0
TEXT
8
A-ANNO-TEXT
10
14.76389
20
21.27778
30
0
40
0.07
1
W1
50
0
0
TEXT
8
A-ANNO-TEXT
10
15.31944
20
21.27778
30
0
40
0.07
1
4'-0"
50
0
0
TEXT
8
A-ANNO-TEXT
10
16.08333
20
21.27778
30
0
40
0.07
1
5'-0"
50
0
0
TEXT
8
A-ANNO-TEXT
10
16.84722
20
21.27778
30
0
40
0.07
1
3'-0"
50
0
0
TEXT
8
A-ANNO-TEXT
10
17.54167
20
21.27778
30
0
40
0.07
1
1" IGU LOW-E
50
0
0
TEXT
8
A-ANNO-TEXT
10
13.93056
20
21.08333
30
0
40
0.07
1
W1-2
50
0
0
TEXT
8
A-ANNO-TEXT
10
14.76389
20
21.08333
30
0
40
0.07
1
W1
50
0
0
TEXT
8
A-ANNO-TEXT
10
15.31944
20
21.08333
30
0
40
0.07
1
4'-0"
50
0
0
TEXT
8
A-ANNO-TEXT
10
16.08333
20
21.08333
30
0
40
0.07
1
5'-0"
50
0
0
TEXT
8
A-ANNO-TEXT
10
16.84722
20
21.08333
30
0
40
0.07
1
3'-0"
50
0
0
TEXT
8
A-ANNO-TEXT
10
17.54167
20
21.08333
30
0
40
0.07
1
1" IGU LOW-E
50
0
0
TEXT
8
A-ANNO-TEXT
10
13.93056
20
20.88889
30
0
40
0.07
1
W1-3
50
0
0
TEXT
8
A-ANNO-TEXT
10
14.76389
20
20.88889
30
0
40
0.07
1
W1
50
0
0
TEXT
8
A-ANNO-TEXT
10
15.31944
20
20.88889
30
0
40
0.07
1
4'-0"
50
0
0
TEXT
8
A-ANNO-TEXT
10
16.08333
20
20.88889
30
0
40
0.07
1
5'-0"
50
0
0
TEXT
8
A-ANNO-TEXT
10
16.84722
20
20.88889
30
0
40
0.07
1
3'-0"
50
0
0
TEXT
8
A-ANNO-TEXT
10
17.54167
20
20.88889
30
0
40
0.07
1
1" IGU LOW-E
50
0
0
TEXT
8
A-ANNO-TEXT
10
13.93056
20
20.69444
30
0
40
0.07
1
W1-4
50
0
0
TEXT
8
A-ANNO-TEXT
10
14.76389
20
20.69444
30
0
40
0.07
1
W1
50
0
0
TEXT
8
A-ANNO-TEXT
10
15.31944
20
20.69444
30
0
40
0.07
1
4'-0"
50
0
0
TEXT
8
A-ANNO-TEXT
10
16.08333
20
20.69444
30
0
40
0.07
1
5'-0"
50
0
0
TEXT
8
A-ANNO-TEXT
10
16.84722
20
20.69444
30
0
40
0.07
1
3'-0"
50
0
0
TEXT
8
A-ANNO-TEXT
10
17.54167
20
20.69444
30
0
40
0.07
1
1" IGU LOW-E
50
0
0
TEXT
8
A-ANNO-TEXT
10
13.93056
20
20.5
30
0
40
0.07
1
W1-E1
50
0
0
TEXT
8
A-ANNO-TEXT
10
14.76389
20
20.5
30
0
40
0.07
1
W1
50
0
0
TEXT
8
A-ANNO-TEXT
10
15.31944
20
20.5
30
0
40
0.07
1
4'-0"
50
0
0
TEXT
8
A-ANNO-TEXT
10
16.08333
20
20.5
30
0
40
0.07
1
5'-0"
50
0
0
TEXT
8
A-ANNO-TEXT
10
16.84722
20
20.5
30
0
40
0.07
1
3'-0"
50
0
0
TEXT
8
A-ANNO-TEXT
10
17.54167
20
20.5
30
0
40
0.07
1
1" IGU LOW-E
50
0
0
TEXT
8
A-ANNO-TEXT
10
13.93056
20
20.30556
30
0
40
0.07
1
W1-E2
50
0
0
TEXT
8
A-ANNO-TEXT
10
14.76389
20
20.30556
30
0
40
0.07
1
W1
50
0
0
TEXT
8
A-ANNO-TEXT
10
15.31944
20
20.30556
30
0
40
0.07
1
4'-0"
50
0
0
TEXT
8
A-ANNO-TEXT
10
16.08333
20
20.30556
30
0
40
0.07
1
5'-0"
50
0
0
TEXT
8
A-ANNO-TEXT
10
16.84722
20
20.30556
30
0
40
0.07
1
3'-0"
50
0
0
TEXT
8
A-ANNO-TEXT
10
17.54167
20
20.30556
30
0
40
0.07
1
1" IGU LOW-E
50
0
0
TEXT
8
A-ANNO-TEXT
10
13.93056
20
20.11111
30
0
40
0.07
1
W2-1
50
0
0
TEXT
8
A-ANNO-TEXT
10
14.76389
20
20.11111
30
0
40
0.07
1
W2
50
0
0
TEXT
8
A-ANNO-TEXT
10
15.31944
20
20.11111
30
0
40
0.07
1
5'-0"
50
0
0
TEXT
8
A-ANNO-TEXT
10
16.08333
20
20.11111
30
0
40
0.07
1
5'-0"
50
0
0
TEXT
8
A-ANNO-TEXT
10
16.84722
20
20.11111
30
0
40
0.07
1
3'-0"
50
0
0
TEXT
8
A-ANNO-TEXT
10
17.54167
20
20.11111
30
0
40
0.07
1
1" IGU LOW-E
50
0
0
TEXT
8
A-ANNO-TEXT
10
13.93056
20
19.91667
30
0
40
0.07
1
W2-2
50
0
0
TEXT
8
A-ANNO-TEXT
10
14.76389
20
19.91667
30
0
40
0.07
1
W2
50
0
0
TEXT
8
A-ANNO-TEXT
10
15.31944
20
19.91667
30
0
40
0.07
1
5'-0"
50
0
0
TEXT
8
A-ANNO-TEXT
10
16.08333
20
19.91667
30
0
40
0.07
1
5'-0"
50
0
0
TEXT
8
A-ANNO-TEXT
10
16.84722
20
19.91667
30
0
40
0.07
1
3'-0"
50
0
0
TEXT
8
A-ANNO-TEXT
10
17.54167
20
19.91667
30
0
40
0.07
1
1" IGU LOW-E
50
0
0
TEXT
8
A-ANNO-TEXT
10
13.93056
20
19.72222
30
0
40
0.07
1
W2-3
50
0
0
TEXT
8
A-ANNO-TEXT
10
14.76389
20
19.72222
30
0
40
0.07
1
W2
50
0
0
TEXT
8
A-ANNO-TEXT
10
15.31944
20
19.72222
30
0
40
0.07
1
5'-0"
50
0
0
TEXT
8
A-ANNO-TEXT
10
16.08333
20
19.72222
30
0
40
0.07
1
5'-0"
50
0
0
TEXT
8
A-ANNO-TEXT
10
16.84722
20
19.72222
30
0
40
0.07
1
3'-0"
50
0
0
TEXT
8
A-ANNO-TEXT
10
17.54167
20
19.72222
30
0
40
0.07
1
1" IGU LOW-E
50
0
0
TEXT
8
A-ANNO-TEXT
10
13.93056
20
19.52778
30
0
40
0.07
1
W2-4
50
0
0
TEXT
8
A-ANNO-TEXT
10
14.76389
20
19.52778
30
0
40
0.07
1
W2
50
0
0
TEXT
8
A-ANNO-TEXT
10
15.31944
20
19.52778
30
0
40
0.07
1
5'-0"
50
0
0
TEXT
8
A-ANNO-TEXT
10
16.08333
20
19.52778
30
0
40
0.07
1
5'-0"
50
0
0
TEXT
8
A-ANNO-TEXT
10
16.84722
20
19.52778
30
0
40
0.07
1
3'-0"
50
0
0
TEXT
8
A-ANNO-TEXT
10
17.54167
20
19.52778
30
0
40
0.07
1
1" IGU LOW-E
50
0
0
TEXT
8
A-ANNO-TEXT
10
13.93056
20
19.33333
30
0
40
0.07
1
W2-5
50
0
0
TEXT
8
A-ANNO-TEXT
10
14.76389
20
19.33333
30
0
40
0.07
1
W2
50
0
0
TEXT
8
A-ANNO-TEXT
10
15.31944
20
19.33333
30
0
40
0.07
1
5'-0"
50
0
0
TEXT
8
A-ANNO-TEXT
10
16.08333
20
19.33333
30
0
40
0.07
1
5'-0"
50
0
0
TEXT
8
A-ANNO-TEXT
10
16.84722
20
19.33333
30
0
40
0.07
1
3'-0"
50
0
0
TEXT
8
A-ANNO-TEXT
10
17.54167
20
19.33333
30
0
40
0.07
1
1" IGU LOW-E
50
0
0
TEXT
8
A-ANNO-TEXT
10
13.93056
20
19.13889
30
0
40
0.07
1
W2-6
50
0
0
TEXT
8
A-ANNO-TEXT
10
14.76389
20
19.13889
30
0
40
0.07
1
W2
50
0
0
TEXT
8
A-ANNO-TEXT
10
15.31944
20
19.13889
30
0
40
0.07
1
5'-0"
50
0
0
TEXT
8
A-ANNO-TEXT
10
16.08333
20
19.13889
30
0
40
0.07
1
5'-0"
50
0
0
TEXT
8
A-ANNO-TEXT
10
16.84722
20
19.13889
30
0
40
0.07
1
3'-0"
50
0
0
TEXT
8
A-ANNO-TEXT
10
17.54167
20
19.13889
30
0
40
0.07
1
1" IGU LOW-E
50
0
0
TEXT
8
A-ANNO-TEXT
10
13.93056
20
18.94444
30
0
40
0.07
1
W1-W1
50
0
0
TEXT
8
A-ANNO-TEXT
10
14.76389
20
18.94444
30
0
40
0.07
1
W1
50
0
0
TEXT
8
A-ANNO-TEXT
10
15.31944
20
18.94444
30
0
40
0.07
1
4'-0"
50
0
0
TEXT
8
A-ANNO-TEXT
10
16.08333
20
18.94444
30
0
40
0.07
1
5'-0"
50
0
0
TEXT
8
A-ANNO-TEXT
10
16.84722
20
18.94444
30
0
40
0.07
1
3'-0"
50
0
0
TEXT
8
A-ANNO-TEXT
10
17.54167
20
18.94444
30
0
40
0.07
1
1" IGU LOW-E
50
0
0
TEXT
8
A-ANNO-TEXT
10
13.93056
20
18.75
30
0
40
0.07
1
W1-W2
50
0
0
TEXT
8
A-ANNO-TEXT
10
14.76389
20
18.75
30
0
40
0.07
1
W1
50
0
0
TEXT
8
A-ANNO-TEXT
10
15.31944
20
18.75
30
0
40
0.07
1
4'-0"
50
0
0
TEXT
8
A-ANNO-TEXT
10
16.08333
20
18.75
30
0
40
0.07
1
5'-0"
50
0
0
TEXT
8
A-ANNO-TEXT
10
16.84722
20
18.75
30
0
40
0.07
1
3'-0"
50
0
0
TEXT
8
A-ANNO-TEXT
10
17.54167
20
18.75
30
0
40
0.07
1
1" IGU LOW-E
50
0
0
TEXT
8
A-ANNO-TEXT
10
13.93056
20
18.55556
30
0
40
0.07
1
RL1
50
0
0
TEXT
8
A-ANNO-TEXT
10
14.76389
20
18.55556
30
0
40
0.07
1
RL
50
0
0
TEXT
8
A-ANNO-TEXT
10
15.31944
20
18.55556
30
0
40
0.07
1
4'-0"
50
0
0
TEXT
8
A-ANNO-TEXT
10
16.08333
20
18.55556
30
0
40
0.07
1
4'-0"
50
0
0
TEXT
8
A-ANNO-TEXT
10
16.84722
20
18.55556
30
0
40
0.07
1
3'-0"
50
0
0
TEXT
8
A-ANNO-TEXT
10
17.54167
20
18.55556
30
0
40
0.07
1
1/4" TEMP
50
0
0
LINE
8
A-ANNO-TEXT
10
13.88889
20
21.80556
30
0
11
18.75
21
21.80556
31
0
0
LINE
8
A-ANNO-TEXT
10
13.88889
20
21.61111
30
0
11
18.75
21
21.61111
31
0
0
LINE
8
A-ANNO-TEXT
10
13.88889
20
21.41667
30
0
11
18.75
21
21.41667
31
0
0
LINE
8
A-ANNO-TEXT
10
13.88889
20
21.22222
30
0
11
18.75
21
21.22222
31
0
0
LINE
8
A-ANNO-TEXT
10
13.88889
20
21.02778
30
0
11
18.75
21
21.02778
31
0
0
LINE
8
A-ANNO-TEXT
10
13.88889
20
20.83333
30
0
11
18.75
21
20.83333
31
0
0
LINE
8
A-ANNO-TEXT
10
13.88889
20
20.63889
30
0
11
18.75
21
20.63889
31
0
0
LINE
8
A-ANNO-TEXT
10
13.88889
20
20.44444
30
0
11
18.75
21
20.44444
31
0
0
LINE
8
A-ANNO-TEXT
10
13.88889
20
20.25
30
0
11
18.75
21
20.25
31
0
0
LINE
8
A-ANNO-TEXT
10
13.88889
20
20.05556
30
0
11
18.75
21
20.05556
31
0
0
LINE
8
A-ANNO-TEXT
10
13.88889
20
19.86111
30
0
11
18.75
21
19.86111
31
0
0
LINE
8
A-ANNO-TEXT
10
13.88889
20
19.66667
30
0
11
18.75
21
19.66667
31
0
0
LINE
8
A-ANNO-TEXT
10
13.88889
20
19.47222
30
0
11
18.75
21
19.47222
31
0
0
LINE
8
A-ANNO-TEXT
10
13.88889
20
19.27778
30
0
11
18.75
21
19.27778
31
0
0
LINE
8
A-ANNO-TEXT
10
13.88889
20
19.08333
30
0
11
18.75
21
19.08333
31
0
0
LINE
8
A-ANNO-TEXT
10
13.88889
20
18.88889
30
0
11
18.75
21
18.88889
31
0
0
LINE
8
A-ANNO-TEXT
10
13.88889
20
18.69444
30
0
11
18.75
21
18.69444
31
0
0
LINE
8
A-ANNO-TEXT
10
13.88889
20
18.5
30
0
11
18.75
21
18.5
31
0
0
LINE
8
A-ANNO-TEXT
10
13.88889
20
21.80556
30
0
11
13.88889
21
18.5
31
0
0
LINE
8
A-ANNO-TEXT
10
14.72222
20
21.80556
30
0
11
14.72222
21
18.5
31
0
0
LINE
8
A-ANNO-TEXT
10
15.27778
20
21.80556
30
0
11
15.27778
21
18.5
31
0
0
LINE
8
A-ANNO-TEXT
10
16.04167
20
21.80556
30
0
11
16.04167
21
18.5
31
0
0
LINE
8
A-ANNO-TEXT
10
16.80556
20
21.80556
30
0
11
16.80556
21
18.5
31
0
0
LINE
8
A-ANNO-TEXT
10
17.5
20
21.80556
30
0
11
17.5
21
18.5
31
0
0
LINE
8
A-ANNO-TEXT
10
18.75
20
21.80556
30
0
11
18.75
21
18.5
31
0
0
LINE
8
G-ANNO-TTLB
10
0.5
20
0.5
30
0
11
35.5
21
0.5
31
0
0
LINE
8
G-ANNO-TTLB
10
35.5
20
0.5
30
0
11
35.5
21
23.5
31
0
0
LINE
8
G-ANNO-TTLB
10
35.5
20
23.5
30
0
11
0.5
21
23.5
31
0
0
LINE
8
G-ANNO-TTLB
10
0.5
20
23.5
30
0
11
0.5
21
0.5
31
0
0
LINE
8
G-ANNO-TTLB
10
33
20
0.5
30
0
11
35.5
21
0.5
31
0
0
LINE
8
G-ANNO-TTLB
10
35.5
20
0.5
30
0
11
35.5
21
23.5
31
0
0
LINE
8
G-ANNO-TTLB
10
35.5
20
23.5
30
0
11
33
21
23.5
31
0
0
LINE
8
G-ANNO-TTLB
10
33
20
23.5
30
0
11
33
21
0.5
31
0
0
LINE
8
G-ANNO-TTLB
10
33
20
21.27778
30
0
11
35.5
21
21.27778
31
0
0
LINE
8
G-ANNO-TTLB
10
33
20
19.05556
30
0
11
35.5
21
19.05556
31
0
0
LINE
8
G-ANNO-TTLB
10
33
20
6.33333
30
0
11
35.5
21
6.33333
31
0
0
LINE
8
G-ANNO-TTLB
10
33
20
4.66667
30
0
11
35.5
21
4.66667
31
0
0
LINE
8
G-ANNO-TTLB
10
33
20
3.27778
30
0
11
35.5
21
3.27778
31
0
0
LINE
8
G-ANNO-TTLB
10
33
20
2.16667
30
0
11
35.5
21
2.16667
31
0
0
TEXT
8
G-ANNO-TTLB
10
33.13889
20
23.16667
30
0
40
0.09
1
ARCADIA DESIGN COLLECTIVE
50
0
0
TEXT
8
G-ANNO-TTLB
10
33.13889
20
22.97222
30
0
40
0.06
1
SYNTHETIC TEST SET - NOT A REAL PROJECT
50
0
0
TEXT
8
G-ANNO-TTLB
10
33.13889
20
22.77778
30
0
40
0.06
1
1200 E CAMELBACK RD, PHOENIX AZ
50
0
0
TEXT
8
G-ANNO-TTLB
10
33.13889
20
21.36111
30
0
40
0.11
1
MESA RIDGE MEDICAL
50
0
0
TEXT
8
G-ANNO-TTLB
10
33.13889
20
21.16667
30
0
40
0.11
1
OFFICE BUILDING
50
0
0
TEXT
8
G-ANNO-TTLB
10
33.13889
20
20.97222
30
0
40
0.06
1
4410 S RIDGE PKWY, PHOENIX AZ
50
0
0
TEXT
8
G-ANNO-TTLB
10
33.13889
20
20.77778
30
0
40
0.06
1
PROJECT NO. 25-118
50
0
0
TEXT
8
G-ANNO-TTLB
10
33.13889
20
6.125
30
0
40
0.07
1
REVISIONS
50
0
0
TEXT
8
G-ANNO-TTLB
10
33.13889
20
4.38889
30
0
40
0.07
1
DATE: 08/04/2026
50
0
0
TEXT
8
G-ANNO-TTLB
10
33.13889
20
4.18056
30
0
40
0.07
1
ISSUE: BID SET
50
0
0
TEXT
8
G-ANNO-TTLB
10
33.13889
20
3
30
0
40
0.07
1
SCALE: NONE
50
0
0
TEXT
8
G-ANNO-TTLB
10
33.13889
20
1.88889
30
0
40
0.09
1
SCHEDULES
50
0
0
TEXT
8
G-ANNO-TTLB
10
33.13889
20
1.19444
30
0
40
0.3
1
A-601
50
0
0
ENDSEC
0
EOF
