0
SECTION
2
HEADER
9
$ACADVER
1
AC1009
9
$INSUNITS
70
1
0
ENDSEC
0
SECTION
2
TABLES
0
TABLE
2
LTYPE
70
2
0
LTYPE
2
CONTINUOUS
70
0
3
Solid line
72
65
73
0
40
0
0
LTYPE
2
DASHED
70
0
3
__ __ __
72
65
73
2
40
0.125
49
0.0833
49
-0.0417
0
ENDTAB
0
TABLE
2
LAYER
70
3
0
LAYER
2
G-ANNO-TEXT
70
0
62
1
6
CONTINUOUS
0
LAYER
2
G-MAP
70
0
62
2
6
CONTINUOUS
0
LAYER
2
G-ANNO-TTLB
70
0
62
3
6
CONTINUOUS
0
ENDTAB
0
ENDSEC
0
SECTION
2
ENTITIES
0
TEXT
8
G-ANNO-TEXT
10
2.77778
20
20.13889
30
0
40
0.4
1
MESA RIDGE MEDICAL OFFICE BUILDING
50
0
0
TEXT
8
G-ANNO-TEXT
10
2.77778
20
19.44444
30
0
40
0.18
1
4410 S RIDGE PARKWAY, PHOENIX, ARIZONA
50
0
0
TEXT
8
G-ANNO-TEXT
10
2.77778
20
18.88889
30
0
40
0.18
1
BID SET - 08/04/2026
50
0
0
TEXT
8
G-ANNO-TEXT
10
2.77778
20
17.36111
30
0
40
0.09
1
PROJECT DATA
50
0
0
TEXT
8
G-ANNO-TEXT
10
5.55556
20
17.36111
30
0
40
0.09
1

50
0
0
TEXT
8
G-ANNO-TEXT
10
2.77778
20
17.13889
30
0
40
0.09
1
OCCUPANCY
50
0
0
TEXT
8
G-ANNO-TEXT
10
5.55556
20
17.13889
30
0
40
0.09
1
B (BUSINESS / OUTPATIENT CLINIC)
50
0
0
TEXT
8
G-ANNO-TEXT
10
2.77778
20
16.91667
30
0
40
0.09
1
CONSTRUCTION TYPE
50
0
0
TEXT
8
G-ANNO-TEXT
10
5.55556
20
16.91667
30
0
40
0.09
1
II-B, SPRINKLERED
50
0
0
TEXT
8
G-ANNO-TEXT
10
2.77778
20
16.69444
30
0
40
0.09
1
STORIES
50
0
0
TEXT
8
G-ANNO-TEXT
10
5.55556
20
16.69444
30
0
40
0.09
1
2
50
0
0
TEXT
8
G-ANNO-TEXT
10
2.77778
20
16.47222
30
0
40
0.09
1
GROSS AREA
50
0
0
TEXT
8
G-ANNO-TEXT
10
5.55556
20
16.47222
30
0
40
0.09
1
38,800 SF
50
0
0
TEXT
8
G-ANNO-TEXT
10
2.77778
20
16.25
30
0
40
0.09
1
CODE
50
0
0
TEXT
8
G-ANNO-TEXT
10
5.55556
20
16.25
30
0
40
0.09
1
2018 IBC W/ PHOENIX AMENDMENTS
50
0
0
TEXT
8
G-ANNO-TEXT
10
2.77778
20
14.72222
30
0
40
0.12
1
SHEET INDEX
50
0
0
TEXT
8
G-ANNO-TEXT
10
2.77778
20
14.44444
30
0
40
0.09
1
G-001
50
0
0
TEXT
8
G-ANNO-TEXT
10
3.88889
20
14.44444
30
0
40
0.09
1
COVER SHEET
50
0
0
LINE
8
G-ANNO-TEXT
10
2.70833
20
14.38889
30
0
11
8.33333
21
14.38889
31
0
0
TEXT
8
G-ANNO-TEXT
10
2.77778
20
14.22222
30
0
40
0.09
1
A-101
50
0
0
TEXT
8
G-ANNO-TEXT
10
3.88889
20
14.22222
30
0
40
0.09
1
LEVEL 1 FLOOR PLAN
50
0
0
LINE
8
G-ANNO-TEXT
10
2.70833
20
14.16667
30
0
11
8.33333
21
14.16667
31
0
0
TEXT
8
G-ANNO-TEXT
10
2.77778
20
14
30
0
40
0.09
1
A-102
50
0
0
TEXT
8
G-ANNO-TEXT
10
3.88889
20
14
30
0
40
0.09
1
LEVEL 2 FLOOR PLAN
50
0
0
LINE
8
G-ANNO-TEXT
10
2.70833
20
13.94444
30
0
11
8.33333
21
13.94444
31
0
0
TEXT
8
G-ANNO-TEXT
10
2.77778
20
13.77778
30
0
40
0.09
1
A-111
50
0
0
TEXT
8
G-ANNO-TEXT
10
3.88889
20
13.77778
30
0
40
0.09
1
LEVEL 1 REFLECTED CEILING PLAN
50
0
0
LINE
8
G-ANNO-TEXT
10
2.70833
20
13.72222
30
0
11
8.33333
21
13.72222
31
0
0
TEXT
8
G-ANNO-TEXT
10
2.77778
20
13.55556
30
0
40
0.09
1
A-201
50
0
0
TEXT
8
G-ANNO-TEXT
10
3.88889
20
13.55556
30
0
40
0.09
1
EXTERIOR ELEVATIONS
50
0
0
LINE
8
G-ANNO-TEXT
10
2.70833
20
13.5
30
0
11
8.33333
21
13.5
31
0
0
TEXT
8
G-ANNO-TEXT
10
2.77778
20
13.33333
30
0
40
0.09
1
A-401
50
0
0
TEXT
8
G-ANNO-TEXT
10
3.88889
20
13.33333
30
0
40
0.09
1
ENLARGED PLANS AND DETAILS
50
0
0
LINE
8
G-ANNO-TEXT
10
2.70833
20
13.27778
30
0
11
8.33333
21
13.27778
31
0
0
TEXT
8
G-ANNO-TEXT
10
2.77778
20
13.11111
30
0
40
0.09
1
A-501
50
0
0
TEXT
8
G-ANNO-TEXT
10
3.88889
20
13.11111
30
0
40
0.09
1
PARTITION TYPES
50
0
0
LINE
8
G-ANNO-TEXT
10
2.70833
20
13.05556
30
0
11
8.33333
21
13.05556
31
0
0
TEXT
8
G-ANNO-TEXT
10
2.77778
20
12.88889
30
0
40
0.09
1
A-601
50
0
0
TEXT
8
G-ANNO-TEXT
10
3.88889
20
12.88889
30
0
40
0.09
1
DOOR AND WINDOW SCHEDULES
50
0
0
LINE
8
G-ANNO-TEXT
10
2.70833
20
12.83333
30
0
11
8.33333
21
12.83333
31
0
0
TEXT
8
G-ANNO-TEXT
10
2.77778
20
12.66667
30
0
40
0.09
1
S-101
50
0
0
TEXT
8
G-ANNO-TEXT
10
3.88889
20
12.66667
30
0
40
0.09
1
LEVEL 2 FRAMING PLAN
50
0
0
LINE
8
G-ANNO-TEXT
10
2.70833
20
12.61111
30
0
11
8.33333
21
12.61111
31
0
0
TEXT
8
G-ANNO-TEXT
10
2.77778
20
12.44444
30
0
40
0.09
1
M-101
50
0
0
TEXT
8
G-ANNO-TEXT
10
3.88889
20
12.44444
30
0
40
0.09
1
LEVEL 1 MECHANICAL PLAN
50
0
0
LINE
8
G-ANNO-TEXT
10
2.70833
20
12.38889
30
0
11
8.33333
21
12.38889
31
0
0
LINE
8
G-MAP
10
15.27778
20
6.94444
30
0
11
27.77778
21
6.94444
31
0
0
LINE
8
G-MAP
10
15.27778
20
7.11111
30
0
11
27.77778
21
7.11111
31
0
0
LINE
8
G-MAP
10
15.27778
20
9.72222
30
0
11
27.77778
21
9.72222
31
0
0
LINE
8
G-MAP
10
15.27778
20
9.88889
30
0
11
27.77778
21
9.88889
31
0
0
LINE
8
G-MAP
10
15.27778
20
12.5
30
0
11
27.77778
21
12.5
31
0
0
LINE
8
G-MAP
10
15.27778
20
12.66667
30
0
11
27.77778
21
12.66667
31
0
0
LINE
8
G-MAP
10
15.27778
20
15.27778
30
0
11
27.77778
21
15.27778
31
0
0
LINE
8
G-MAP
10
15.27778
20
15.44444
30
0
11
27.77778
21
15.44444
31
0
0
LINE
8
G-MAP
10
15.27778
20
6.94444
30
0
11
15.27778
21
15.44444
31
0
0
LINE
8
G-MAP
10
15.44444
20
6.94444
30
0
11
15.44444
21
15.44444
31
0
0
LINE
8
G-MAP
10
19.44444
20
6.94444
30
0
11
19.44444
21
15.44444
31
0
0
LINE
8
G-MAP
10
19.61111
20
6.94444
30
0
11
19.61111
21
15.44444
31
0
0
LINE
8
G-MAP
10
23.61111
20
6.94444
30
0
11
23.61111
21
15.44444
31
0
0
LINE
8
G-MAP
10
23.77778
20
6.94444
30
0
11
23.77778
21
15.44444
31
0
0
LINE
8
G-MAP
10
27.77778
20
6.94444
30
0
11
27.77778
21
15.44444
31
0
0
LINE
8
G-MAP
10
27.94444
20
6.94444
30
0
11
27.94444
21
15.44444
31
0
0
TEXT
8
G-MAP
10
19.72222
20
11.11111
30
0
40
0.14
1
SITE
50
0
0
TEXT
8
G-MAP
10
15.27778
20
6.52778
30
0
40
0.1
1
VICINITY MAP   N.T.S.
50
0
0
LINE
8
G-MAP
10
2.77778
20
6.94444
30
0
11
5.66667
21
6.94444
31
0
0
LINE
8
G-MAP
10
5.66667
20
6.94444
30
0
11
5.66667
21
8.23611
31
0
0
LINE
8
G-MAP
10
5.66667
20
8.23611
30
0
11
2.77778
21
8.23611
31
0
0
LINE
8
G-MAP
10
2.77778
20
8.23611
30
0
11
2.77778
21
6.94444
31
0
0
LINE
8
G-MAP
10
2.80556
20
6.97222
30
0
11
5.63889
21
6.97222
31
0
0
LINE
8
G-MAP
10
5.63889
20
6.97222
30
0
11
5.63889
21
8.20833
31
0
0
LINE
8
G-MAP
10
5.63889
20
8.20833
30
0
11
2.80556
21
8.20833
31
0
0
LINE
8
G-MAP
10
2.80556
20
8.20833
30
0
11
2.80556
21
6.97222
31
0
0
TEXT
8
G-MAP
10
2.77778
20
6.66667
30
0
40
0.1
1
KEY PLAN
50
0
0
LINE
8
G-ANNO-TTLB
10
0.5
20
0.5
30
0
11
35.5
21
0.5
31
0
0
LINE
8
G-ANNO-TTLB
10
35.5
20
0.5
30
0
11
35.5
21
23.5
31
0
0
LINE
8
G-ANNO-TTLB
10
35.5
20
23.5
30
0
11
0.5
21
23.5
31
0
0
LINE
8
G-ANNO-TTLB
10
0.5
20
23.5
30
0
11
0.5
21
0.5
31
0
0
LINE
8
G-ANNO-TTLB
10
33
20
0.5
30
0
11
35.5
21
0.5
31
0
0
LINE
8
G-ANNO-TTLB
10
35.5
20
0.5
30
0
11
35.5
21
23.5
31
0
0
LINE
8
G-ANNO-TTLB
10
35.5
20
23.5
30
0
11
33
21
23.5
31
0
0
LINE
8
G-ANNO-TTLB
10
33
20
23.5
30
0
11
33
21
0.5
31
0
0
LINE
8
G-ANNO-TTLB
10
33
20
21.27778
30
0
11
35.5
21
21.27778
31
0
0
LINE
8
G-ANNO-TTLB
10
33
20
19.05556
30
0
11
35.5
21
19.05556
31
0
0
LINE
8
G-ANNO-TTLB
10
33
20
6.33333
30
0
11
35.5
21
6.33333
31
0
0
LINE
8
G-ANNO-TTLB
10
33
20
4.66667
30
0
11
35.5
21
4.66667
31
0
0
LINE
8
G-ANNO-TTLB
10
33
20
3.27778
30
0
11
35.5
21
3.27778
31
0
0
LINE
8
G-ANNO-TTLB
10
33
20
2.16667
30
0
11
35.5
21
2.16667
31
0
0
TEXT
8
G-ANNO-TTLB
10
33.13889
20
23.16667
30
0
40
0.09
1
ARCADIA DESIGN COLLECTIVE
50
0
0
TEXT
8
G-ANNO-TTLB
10
33.13889
20
22.97222
30
0
40
0.06
1
SYNTHETIC TEST SET - NOT A REAL PROJECT
50
0
0
TEXT
8
G-ANNO-TTLB
10
33.13889
20
22.77778
30
0
40
0.06
1
1200 E CAMELBACK RD, PHOENIX AZ
50
0
0
TEXT
8
G-ANNO-TTLB
10
33.13889
20
21.36111
30
0
40
0.11
1
MESA RIDGE MEDICAL
50
0
0
TEXT
8
G-ANNO-TTLB
10
33.13889
20
21.16667
30
0
40
0.11
1
OFFICE BUILDING
50
0
0
TEXT
8
G-ANNO-TTLB
10
33.13889
20
20.97222
30
0
40
0.06
1
4410 S RIDGE PKWY, PHOENIX AZ
50
0
0
TEXT
8
G-ANNO-TTLB
10
33.13889
20
20.77778
30
0
40
0.06
1
PROJECT NO. 25-118
50
0
0
TEXT
8
G-ANNO-TTLB
10
33.13889
20
6.125
30
0
40
0.07
1
REVISIONS
50
0
0
TEXT
8
G-ANNO-TTLB
10
33.13889
20
4.38889
30
0
40
0.07
1
DATE: 08/04/2026
50
0
0
TEXT
8
G-ANNO-TTLB
10
33.13889
20
4.18056
30
0
40
0.07
1
ISSUE: BID SET
50
0
0
TEXT
8
G-ANNO-TTLB
10
33.13889
20
3
30
0
40
0.07
1
SCALE: NONE
50
0
0
TEXT
8
G-ANNO-TTLB
10
33.13889
20
1.88889
30
0
40
0.09
1
COVER SHEET
50
0
0
TEXT
8
G-ANNO-TTLB
10
33.13889
20
1.19444
30
0
40
0.3
1
G-001
50
0
0
ENDSEC
0
EOF
