0
SECTION
2
HEADER
9
$ACADVER
1
AC1009
9
$INSUNITS
70
1
0
ENDSEC
0
SECTION
2
TABLES
0
TABLE
2
LTYPE
70
2
0
LTYPE
2
CONTINUOUS
70
0
3
Solid line
72
65
73
0
40
0
0
LTYPE
2
DASHED
70
0
3
__ __ __
72
65
73
2
40
0.125
49
0.0833
49
-0.0417
0
ENDTAB
0
TABLE
2
LAYER
70
10
0
LAYER
2
S-GRID
70
0
62
1
6
CONTINUOUS
0
LAYER
2
S-BEAM
70
0
62
2
6
CONTINUOUS
0
LAYER
2
S-JOIS
70
0
62
3
6
CONTINUOUS
0
LAYER
2
S-ANNO
70
0
62
4
6
CONTINUOUS
0
LAYER
2
A-COLS
70
0
62
5
6
CONTINUOUS
0
LAYER
2
S-SLAB
70
0
62
6
6
CONTINUOUS
0
LAYER
2
A-ANNO-DIMS
70
0
62
7
6
CONTINUOUS
0
LAYER
2
A-ANNO-SYMB
70
0
62
1
6
CONTINUOUS
0
LAYER
2
A-ANNO-TEXT
70
0
62
2
6
CONTINUOUS
0
LAYER
2
G-ANNO-TTLB
70
0
62
3
6
CONTINUOUS
0
ENDTAB
0
ENDSEC
0
SECTION
2
ENTITIES
0
LINE
8
S-GRID
6
DASHED
10
3.19444
20
7.02778
30
0
11
3.19444
21
21.40278
31
0
0
LINE
8
S-GRID
10
3.36111
20
21.56944
30
0
11
3.35773
21
21.60303
31
0
0
LINE
8
S-GRID
10
3.35773
20
21.60303
30
0
11
3.34801
21
21.63432
31
0
0
LINE
8
S-GRID
10
3.34801
20
21.63432
30
0
11
3.33265
21
21.66263
31
0
0
LINE
8
S-GRID
10
3.33265
20
21.66263
30
0
11
3.3123
21
21.6873
31
0
0
LINE
8
S-GRID
10
3.3123
20
21.6873
30
0
11
3.28763
21
21.70765
31
0
0
LINE
8
S-GRID
10
3.28763
20
21.70765
30
0
11
3.25932
21
21.72301
31
0
0
LINE
8
S-GRID
10
3.25932
20
21.72301
30
0
11
3.22803
21
21.73273
31
0
0
LINE
8
S-GRID
10
3.22803
20
21.73273
30
0
11
3.19444
21
21.73611
31
0
0
LINE
8
S-GRID
10
3.19444
20
21.73611
30
0
11
3.16086
21
21.73273
31
0
0
LINE
8
S-GRID
10
3.16086
20
21.73273
30
0
11
3.12957
21
21.72301
31
0
0
LINE
8
S-GRID
10
3.12957
20
21.72301
30
0
11
3.10126
21
21.70765
31
0
0
LINE
8
S-GRID
10
3.10126
20
21.70765
30
0
11
3.07659
21
21.6873
31
0
0
LINE
8
S-GRID
10
3.07659
20
21.6873
30
0
11
3.05624
21
21.66263
31
0
0
LINE
8
S-GRID
10
3.05624
20
21.66263
30
0
11
3.04088
21
21.63432
31
0
0
LINE
8
S-GRID
10
3.04088
20
21.63432
30
0
11
3.03116
21
21.60303
31
0
0
LINE
8
S-GRID
10
3.03116
20
21.60303
30
0
11
3.02778
21
21.56944
31
0
0
LINE
8
S-GRID
10
3.02778
20
21.56944
30
0
11
3.03116
21
21.53586
31
0
0
LINE
8
S-GRID
10
3.03116
20
21.53586
30
0
11
3.04088
21
21.50457
31
0
0
LINE
8
S-GRID
10
3.04088
20
21.50457
30
0
11
3.05624
21
21.47626
31
0
0
LINE
8
S-GRID
10
3.05624
20
21.47626
30
0
11
3.07659
21
21.45159
31
0
0
LINE
8
S-GRID
10
3.07659
20
21.45159
30
0
11
3.10126
21
21.43124
31
0
0
LINE
8
S-GRID
10
3.10126
20
21.43124
30
0
11
3.12957
21
21.41588
31
0
0
LINE
8
S-GRID
10
3.12957
20
21.41588
30
0
11
3.16086
21
21.40616
31
0
0
LINE
8
S-GRID
10
3.16086
20
21.40616
30
0
11
3.19444
21
21.40278
31
0
0
LINE
8
S-GRID
10
3.19444
20
21.40278
30
0
11
3.22803
21
21.40616
31
0
0
LINE
8
S-GRID
10
3.22803
20
21.40616
30
0
11
3.25932
21
21.41588
31
0
0
LINE
8
S-GRID
10
3.25932
20
21.41588
30
0
11
3.28763
21
21.43124
31
0
0
LINE
8
S-GRID
10
3.28763
20
21.43124
30
0
11
3.3123
21
21.45159
31
0
0
LINE
8
S-GRID
10
3.3123
20
21.45159
30
0
11
3.33265
21
21.47626
31
0
0
LINE
8
S-GRID
10
3.33265
20
21.47626
30
0
11
3.34801
21
21.50457
31
0
0
LINE
8
S-GRID
10
3.34801
20
21.50457
30
0
11
3.35773
21
21.53586
31
0
0
LINE
8
S-GRID
10
3.35773
20
21.53586
30
0
11
3.36111
21
21.56944
31
0
0
TEXT
8
S-GRID
10
3.19444
20
21.51389
30
0
40
0.12
1
A
50
0
72
1
11
3.19444
21
21.51389
31
0
0
LINE
8
S-GRID
6
DASHED
10
6.94444
20
7.02778
30
0
11
6.94444
21
21.40278
31
0
0
LINE
8
S-GRID
10
7.11111
20
21.56944
30
0
11
7.10773
21
21.60303
31
0
0
LINE
8
S-GRID
10
7.10773
20
21.60303
30
0
11
7.09801
21
21.63432
31
0
0
LINE
8
S-GRID
10
7.09801
20
21.63432
30
0
11
7.08265
21
21.66263
31
0
0
LINE
8
S-GRID
10
7.08265
20
21.66263
30
0
11
7.0623
21
21.6873
31
0
0
LINE
8
S-GRID
10
7.0623
20
21.6873
30
0
11
7.03763
21
21.70765
31
0
0
LINE
8
S-GRID
10
7.03763
20
21.70765
30
0
11
7.00932
21
21.72301
31
0
0
LINE
8
S-GRID
10
7.00932
20
21.72301
30
0
11
6.97803
21
21.73273
31
0
0
LINE
8
S-GRID
10
6.97803
20
21.73273
30
0
11
6.94444
21
21.73611
31
0
0
LINE
8
S-GRID
10
6.94444
20
21.73611
30
0
11
6.91086
21
21.73273
31
0
0
LINE
8
S-GRID
10
6.91086
20
21.73273
30
0
11
6.87957
21
21.72301
31
0
0
LINE
8
S-GRID
10
6.87957
20
21.72301
30
0
11
6.85126
21
21.70765
31
0
0
LINE
8
S-GRID
10
6.85126
20
21.70765
30
0
11
6.82659
21
21.6873
31
0
0
LINE
8
S-GRID
10
6.82659
20
21.6873
30
0
11
6.80624
21
21.66263
31
0
0
LINE
8
S-GRID
10
6.80624
20
21.66263
30
0
11
6.79088
21
21.63432
31
0
0
LINE
8
S-GRID
10
6.79088
20
21.63432
30
0
11
6.78116
21
21.60303
31
0
0
LINE
8
S-GRID
10
6.78116
20
21.60303
30
0
11
6.77778
21
21.56944
31
0
0
LINE
8
S-GRID
10
6.77778
20
21.56944
30
0
11
6.78116
21
21.53586
31
0
0
LINE
8
S-GRID
10
6.78116
20
21.53586
30
0
11
6.79088
21
21.50457
31
0
0
LINE
8
S-GRID
10
6.79088
20
21.50457
30
0
11
6.80624
21
21.47626
31
0
0
LINE
8
S-GRID
10
6.80624
20
21.47626
30
0
11
6.82659
21
21.45159
31
0
0
LINE
8
S-GRID
10
6.82659
20
21.45159
30
0
11
6.85126
21
21.43124
31
0
0
LINE
8
S-GRID
10
6.85126
20
21.43124
30
0
11
6.87957
21
21.41588
31
0
0
LINE
8
S-GRID
10
6.87957
20
21.41588
30
0
11
6.91086
21
21.40616
31
0
0
LINE
8
S-GRID
10
6.91086
20
21.40616
30
0
11
6.94444
21
21.40278
31
0
0
LINE
8
S-GRID
10
6.94444
20
21.40278
30
0
11
6.97803
21
21.40616
31
0
0
LINE
8
S-GRID
10
6.97803
20
21.40616
30
0
11
7.00932
21
21.41588
31
0
0
LINE
8
S-GRID
10
7.00932
20
21.41588
30
0
11
7.03763
21
21.43124
31
0
0
LINE
8
S-GRID
10
7.03763
20
21.43124
30
0
11
7.0623
21
21.45159
31
0
0
LINE
8
S-GRID
10
7.0623
20
21.45159
30
0
11
7.08265
21
21.47626
31
0
0
LINE
8
S-GRID
10
7.08265
20
21.47626
30
0
11
7.09801
21
21.50457
31
0
0
LINE
8
S-GRID
10
7.09801
20
21.50457
30
0
11
7.10773
21
21.53586
31
0
0
LINE
8
S-GRID
10
7.10773
20
21.53586
30
0
11
7.11111
21
21.56944
31
0
0
TEXT
8
S-GRID
10
6.94444
20
21.51389
30
0
40
0.12
1
B
50
0
72
1
11
6.94444
21
21.51389
31
0
0
LINE
8
S-GRID
6
DASHED
10
10.69444
20
7.02778
30
0
11
10.69444
21
21.40278
31
0
0
LINE
8
S-GRID
10
10.86111
20
21.56944
30
0
11
10.85773
21
21.60303
31
0
0
LINE
8
S-GRID
10
10.85773
20
21.60303
30
0
11
10.84801
21
21.63432
31
0
0
LINE
8
S-GRID
10
10.84801
20
21.63432
30
0
11
10.83265
21
21.66263
31
0
0
LINE
8
S-GRID
10
10.83265
20
21.66263
30
0
11
10.8123
21
21.6873
31
0
0
LINE
8
S-GRID
10
10.8123
20
21.6873
30
0
11
10.78763
21
21.70765
31
0
0
LINE
8
S-GRID
10
10.78763
20
21.70765
30
0
11
10.75932
21
21.72301
31
0
0
LINE
8
S-GRID
10
10.75932
20
21.72301
30
0
11
10.72803
21
21.73273
31
0
0
LINE
8
S-GRID
10
10.72803
20
21.73273
30
0
11
10.69444
21
21.73611
31
0
0
LINE
8
S-GRID
10
10.69444
20
21.73611
30
0
11
10.66086
21
21.73273
31
0
0
LINE
8
S-GRID
10
10.66086
20
21.73273
30
0
11
10.62957
21
21.72301
31
0
0
LINE
8
S-GRID
10
10.62957
20
21.72301
30
0
11
10.60126
21
21.70765
31
0
0
LINE
8
S-GRID
10
10.60126
20
21.70765
30
0
11
10.57659
21
21.6873
31
0
0
LINE
8
S-GRID
10
10.57659
20
21.6873
30
0
11
10.55624
21
21.66263
31
0
0
LINE
8
S-GRID
10
10.55624
20
21.66263
30
0
11
10.54088
21
21.63432
31
0
0
LINE
8
S-GRID
10
10.54088
20
21.63432
30
0
11
10.53116
21
21.60303
31
0
0
LINE
8
S-GRID
10
10.53116
20
21.60303
30
0
11
10.52778
21
21.56944
31
0
0
LINE
8
S-GRID
10
10.52778
20
21.56944
30
0
11
10.53116
21
21.53586
31
0
0
LINE
8
S-GRID
10
10.53116
20
21.53586
30
0
11
10.54088
21
21.50457
31
0
0
LINE
8
S-GRID
10
10.54088
20
21.50457
30
0
11
10.55624
21
21.47626
31
0
0
LINE
8
S-GRID
10
10.55624
20
21.47626
30
0
11
10.57659
21
21.45159
31
0
0
LINE
8
S-GRID
10
10.57659
20
21.45159
30
0
11
10.60126
21
21.43124
31
0
0
LINE
8
S-GRID
10
10.60126
20
21.43124
30
0
11
10.62957
21
21.41588
31
0
0
LINE
8
S-GRID
10
10.62957
20
21.41588
30
0
11
10.66086
21
21.40616
31
0
0
LINE
8
S-GRID
10
10.66086
20
21.40616
30
0
11
10.69444
21
21.40278
31
0
0
LINE
8
S-GRID
10
10.69444
20
21.40278
30
0
11
10.72803
21
21.40616
31
0
0
LINE
8
S-GRID
10
10.72803
20
21.40616
30
0
11
10.75932
21
21.41588
31
0
0
LINE
8
S-GRID
10
10.75932
20
21.41588
30
0
11
10.78763
21
21.43124
31
0
0
LINE
8
S-GRID
10
10.78763
20
21.43124
30
0
11
10.8123
21
21.45159
31
0
0
LINE
8
S-GRID
10
10.8123
20
21.45159
30
0
11
10.83265
21
21.47626
31
0
0
LINE
8
S-GRID
10
10.83265
20
21.47626
30
0
11
10.84801
21
21.50457
31
0
0
LINE
8
S-GRID
10
10.84801
20
21.50457
30
0
11
10.85773
21
21.53586
31
0
0
LINE
8
S-GRID
10
10.85773
20
21.53586
30
0
11
10.86111
21
21.56944
31
0
0
TEXT
8
S-GRID
10
10.69444
20
21.51389
30
0
40
0.12
1
C
50
0
72
1
11
10.69444
21
21.51389
31
0
0
LINE
8
S-GRID
6
DASHED
10
14.11111
20
7.02778
30
0
11
14.11111
21
21.40278
31
0
0
LINE
8
S-GRID
10
14.27778
20
21.56944
30
0
11
14.27439
21
21.60303
31
0
0
LINE
8
S-GRID
10
14.27439
20
21.60303
30
0
11
14.26468
21
21.63432
31
0
0
LINE
8
S-GRID
10
14.26468
20
21.63432
30
0
11
14.24931
21
21.66263
31
0
0
LINE
8
S-GRID
10
14.24931
20
21.66263
30
0
11
14.22896
21
21.6873
31
0
0
LINE
8
S-GRID
10
14.22896
20
21.6873
30
0
11
14.2043
21
21.70765
31
0
0
LINE
8
S-GRID
10
14.2043
20
21.70765
30
0
11
14.17599
21
21.72301
31
0
0
LINE
8
S-GRID
10
14.17599
20
21.72301
30
0
11
14.1447
21
21.73273
31
0
0
LINE
8
S-GRID
10
14.1447
20
21.73273
30
0
11
14.11111
21
21.73611
31
0
0
LINE
8
S-GRID
10
14.11111
20
21.73611
30
0
11
14.07752
21
21.73273
31
0
0
LINE
8
S-GRID
10
14.07752
20
21.73273
30
0
11
14.04624
21
21.72301
31
0
0
LINE
8
S-GRID
10
14.04624
20
21.72301
30
0
11
14.01793
21
21.70765
31
0
0
LINE
8
S-GRID
10
14.01793
20
21.70765
30
0
11
13.99326
21
21.6873
31
0
0
LINE
8
S-GRID
10
13.99326
20
21.6873
30
0
11
13.97291
21
21.66263
31
0
0
LINE
8
S-GRID
10
13.97291
20
21.66263
30
0
11
13.95754
21
21.63432
31
0
0
LINE
8
S-GRID
10
13.95754
20
21.63432
30
0
11
13.94783
21
21.60303
31
0
0
LINE
8
S-GRID
10
13.94783
20
21.60303
30
0
11
13.94444
21
21.56944
31
0
0
LINE
8
S-GRID
10
13.94444
20
21.56944
30
0
11
13.94783
21
21.53586
31
0
0
LINE
8
S-GRID
10
13.94783
20
21.53586
30
0
11
13.95754
21
21.50457
31
0
0
LINE
8
S-GRID
10
13.95754
20
21.50457
30
0
11
13.97291
21
21.47626
31
0
0
LINE
8
S-GRID
10
13.97291
20
21.47626
30
0
11
13.99326
21
21.45159
31
0
0
LINE
8
S-GRID
10
13.99326
20
21.45159
30
0
11
14.01793
21
21.43124
31
0
0
LINE
8
S-GRID
10
14.01793
20
21.43124
30
0
11
14.04624
21
21.41588
31
0
0
LINE
8
S-GRID
10
14.04624
20
21.41588
30
0
11
14.07752
21
21.40616
31
0
0
LINE
8
S-GRID
10
14.07752
20
21.40616
30
0
11
14.11111
21
21.40278
31
0
0
LINE
8
S-GRID
10
14.11111
20
21.40278
30
0
11
14.1447
21
21.40616
31
0
0
LINE
8
S-GRID
10
14.1447
20
21.40616
30
0
11
14.17599
21
21.41588
31
0
0
LINE
8
S-GRID
10
14.17599
20
21.41588
30
0
11
14.2043
21
21.43124
31
0
0
LINE
8
S-GRID
10
14.2043
20
21.43124
30
0
11
14.22896
21
21.45159
31
0
0
LINE
8
S-GRID
10
14.22896
20
21.45159
30
0
11
14.24931
21
21.47626
31
0
0
LINE
8
S-GRID
10
14.24931
20
21.47626
30
0
11
14.26468
21
21.50457
31
0
0
LINE
8
S-GRID
10
14.26468
20
21.50457
30
0
11
14.27439
21
21.53586
31
0
0
LINE
8
S-GRID
10
14.27439
20
21.53586
30
0
11
14.27778
21
21.56944
31
0
0
TEXT
8
S-GRID
10
14.11111
20
21.51389
30
0
40
0.12
1
D
50
0
72
1
11
14.11111
21
21.51389
31
0
0
LINE
8
S-GRID
6
DASHED
10
17.86111
20
7.02778
30
0
11
17.86111
21
21.40278
31
0
0
LINE
8
S-GRID
10
18.02778
20
21.56944
30
0
11
18.02439
21
21.60303
31
0
0
LINE
8
S-GRID
10
18.02439
20
21.60303
30
0
11
18.01468
21
21.63432
31
0
0
LINE
8
S-GRID
10
18.01468
20
21.63432
30
0
11
17.99931
21
21.66263
31
0
0
LINE
8
S-GRID
10
17.99931
20
21.66263
30
0
11
17.97896
21
21.6873
31
0
0
LINE
8
S-GRID
10
17.97896
20
21.6873
30
0
11
17.9543
21
21.70765
31
0
0
LINE
8
S-GRID
10
17.9543
20
21.70765
30
0
11
17.92599
21
21.72301
31
0
0
LINE
8
S-GRID
10
17.92599
20
21.72301
30
0
11
17.8947
21
21.73273
31
0
0
LINE
8
S-GRID
10
17.8947
20
21.73273
30
0
11
17.86111
21
21.73611
31
0
0
LINE
8
S-GRID
10
17.86111
20
21.73611
30
0
11
17.82752
21
21.73273
31
0
0
LINE
8
S-GRID
10
17.82752
20
21.73273
30
0
11
17.79624
21
21.72301
31
0
0
LINE
8
S-GRID
10
17.79624
20
21.72301
30
0
11
17.76793
21
21.70765
31
0
0
LINE
8
S-GRID
10
17.76793
20
21.70765
30
0
11
17.74326
21
21.6873
31
0
0
LINE
8
S-GRID
10
17.74326
20
21.6873
30
0
11
17.72291
21
21.66263
31
0
0
LINE
8
S-GRID
10
17.72291
20
21.66263
30
0
11
17.70754
21
21.63432
31
0
0
LINE
8
S-GRID
10
17.70754
20
21.63432
30
0
11
17.69783
21
21.60303
31
0
0
LINE
8
S-GRID
10
17.69783
20
21.60303
30
0
11
17.69444
21
21.56944
31
0
0
LINE
8
S-GRID
10
17.69444
20
21.56944
30
0
11
17.69783
21
21.53586
31
0
0
LINE
8
S-GRID
10
17.69783
20
21.53586
30
0
11
17.70754
21
21.50457
31
0
0
LINE
8
S-GRID
10
17.70754
20
21.50457
30
0
11
17.72291
21
21.47626
31
0
0
LINE
8
S-GRID
10
17.72291
20
21.47626
30
0
11
17.74326
21
21.45159
31
0
0
LINE
8
S-GRID
10
17.74326
20
21.45159
30
0
11
17.76793
21
21.43124
31
0
0
LINE
8
S-GRID
10
17.76793
20
21.43124
30
0
11
17.79624
21
21.41588
31
0
0
LINE
8
S-GRID
10
17.79624
20
21.41588
30
0
11
17.82752
21
21.40616
31
0
0
LINE
8
S-GRID
10
17.82752
20
21.40616
30
0
11
17.86111
21
21.40278
31
0
0
LINE
8
S-GRID
10
17.86111
20
21.40278
30
0
11
17.8947
21
21.40616
31
0
0
LINE
8
S-GRID
10
17.8947
20
21.40616
30
0
11
17.92599
21
21.41588
31
0
0
LINE
8
S-GRID
10
17.92599
20
21.41588
30
0
11
17.9543
21
21.43124
31
0
0
LINE
8
S-GRID
10
17.9543
20
21.43124
30
0
11
17.97896
21
21.45159
31
0
0
LINE
8
S-GRID
10
17.97896
20
21.45159
30
0
11
17.99931
21
21.47626
31
0
0
LINE
8
S-GRID
10
17.99931
20
21.47626
30
0
11
18.01468
21
21.50457
31
0
0
LINE
8
S-GRID
10
18.01468
20
21.50457
30
0
11
18.02439
21
21.53586
31
0
0
LINE
8
S-GRID
10
18.02439
20
21.53586
30
0
11
18.02778
21
21.56944
31
0
0
TEXT
8
S-GRID
10
17.86111
20
21.51389
30
0
40
0.12
1
E
50
0
72
1
11
17.86111
21
21.51389
31
0
0
LINE
8
S-GRID
6
DASHED
10
21.61111
20
7.02778
30
0
11
21.61111
21
21.40278
31
0
0
LINE
8
S-GRID
10
21.77778
20
21.56944
30
0
11
21.77439
21
21.60303
31
0
0
LINE
8
S-GRID
10
21.77439
20
21.60303
30
0
11
21.76468
21
21.63432
31
0
0
LINE
8
S-GRID
10
21.76468
20
21.63432
30
0
11
21.74931
21
21.66263
31
0
0
LINE
8
S-GRID
10
21.74931
20
21.66263
30
0
11
21.72896
21
21.6873
31
0
0
LINE
8
S-GRID
10
21.72896
20
21.6873
30
0
11
21.7043
21
21.70765
31
0
0
LINE
8
S-GRID
10
21.7043
20
21.70765
30
0
11
21.67599
21
21.72301
31
0
0
LINE
8
S-GRID
10
21.67599
20
21.72301
30
0
11
21.6447
21
21.73273
31
0
0
LINE
8
S-GRID
10
21.6447
20
21.73273
30
0
11
21.61111
21
21.73611
31
0
0
LINE
8
S-GRID
10
21.61111
20
21.73611
30
0
11
21.57752
21
21.73273
31
0
0
LINE
8
S-GRID
10
21.57752
20
21.73273
30
0
11
21.54624
21
21.72301
31
0
0
LINE
8
S-GRID
10
21.54624
20
21.72301
30
0
11
21.51793
21
21.70765
31
0
0
LINE
8
S-GRID
10
21.51793
20
21.70765
30
0
11
21.49326
21
21.6873
31
0
0
LINE
8
S-GRID
10
21.49326
20
21.6873
30
0
11
21.47291
21
21.66263
31
0
0
LINE
8
S-GRID
10
21.47291
20
21.66263
30
0
11
21.45754
21
21.63432
31
0
0
LINE
8
S-GRID
10
21.45754
20
21.63432
30
0
11
21.44783
21
21.60303
31
0
0
LINE
8
S-GRID
10
21.44783
20
21.60303
30
0
11
21.44444
21
21.56944
31
0
0
LINE
8
S-GRID
10
21.44444
20
21.56944
30
0
11
21.44783
21
21.53586
31
0
0
LINE
8
S-GRID
10
21.44783
20
21.53586
30
0
11
21.45754
21
21.50457
31
0
0
LINE
8
S-GRID
10
21.45754
20
21.50457
30
0
11
21.47291
21
21.47626
31
0
0
LINE
8
S-GRID
10
21.47291
20
21.47626
30
0
11
21.49326
21
21.45159
31
0
0
LINE
8
S-GRID
10
21.49326
20
21.45159
30
0
11
21.51793
21
21.43124
31
0
0
LINE
8
S-GRID
10
21.51793
20
21.43124
30
0
11
21.54624
21
21.41588
31
0
0
LINE
8
S-GRID
10
21.54624
20
21.41588
30
0
11
21.57752
21
21.40616
31
0
0
LINE
8
S-GRID
10
21.57752
20
21.40616
30
0
11
21.61111
21
21.40278
31
0
0
LINE
8
S-GRID
10
21.61111
20
21.40278
30
0
11
21.6447
21
21.40616
31
0
0
LINE
8
S-GRID
10
21.6447
20
21.40616
30
0
11
21.67599
21
21.41588
31
0
0
LINE
8
S-GRID
10
21.67599
20
21.41588
30
0
11
21.7043
21
21.43124
31
0
0
LINE
8
S-GRID
10
21.7043
20
21.43124
30
0
11
21.72896
21
21.45159
31
0
0
LINE
8
S-GRID
10
21.72896
20
21.45159
30
0
11
21.74931
21
21.47626
31
0
0
LINE
8
S-GRID
10
21.74931
20
21.47626
30
0
11
21.76468
21
21.50457
31
0
0
LINE
8
S-GRID
10
21.76468
20
21.50457
30
0
11
21.77439
21
21.53586
31
0
0
LINE
8
S-GRID
10
21.77439
20
21.53586
30
0
11
21.77778
21
21.56944
31
0
0
TEXT
8
S-GRID
10
21.61111
20
21.51389
30
0
40
0.12
1
F
50
0
72
1
11
21.61111
21
21.51389
31
0
0
LINE
8
S-GRID
6
DASHED
10
25.36111
20
7.02778
30
0
11
25.36111
21
21.40278
31
0
0
LINE
8
S-GRID
10
25.52778
20
21.56944
30
0
11
25.52439
21
21.60303
31
0
0
LINE
8
S-GRID
10
25.52439
20
21.60303
30
0
11
25.51468
21
21.63432
31
0
0
LINE
8
S-GRID
10
25.51468
20
21.63432
30
0
11
25.49931
21
21.66263
31
0
0
LINE
8
S-GRID
10
25.49931
20
21.66263
30
0
11
25.47896
21
21.6873
31
0
0
LINE
8
S-GRID
10
25.47896
20
21.6873
30
0
11
25.4543
21
21.70765
31
0
0
LINE
8
S-GRID
10
25.4543
20
21.70765
30
0
11
25.42599
21
21.72301
31
0
0
LINE
8
S-GRID
10
25.42599
20
21.72301
30
0
11
25.3947
21
21.73273
31
0
0
LINE
8
S-GRID
10
25.3947
20
21.73273
30
0
11
25.36111
21
21.73611
31
0
0
LINE
8
S-GRID
10
25.36111
20
21.73611
30
0
11
25.32752
21
21.73273
31
0
0
LINE
8
S-GRID
10
25.32752
20
21.73273
30
0
11
25.29624
21
21.72301
31
0
0
LINE
8
S-GRID
10
25.29624
20
21.72301
30
0
11
25.26793
21
21.70765
31
0
0
LINE
8
S-GRID
10
25.26793
20
21.70765
30
0
11
25.24326
21
21.6873
31
0
0
LINE
8
S-GRID
10
25.24326
20
21.6873
30
0
11
25.22291
21
21.66263
31
0
0
LINE
8
S-GRID
10
25.22291
20
21.66263
30
0
11
25.20754
21
21.63432
31
0
0
LINE
8
S-GRID
10
25.20754
20
21.63432
30
0
11
25.19783
21
21.60303
31
0
0
LINE
8
S-GRID
10
25.19783
20
21.60303
30
0
11
25.19444
21
21.56944
31
0
0
LINE
8
S-GRID
10
25.19444
20
21.56944
30
0
11
25.19783
21
21.53586
31
0
0
LINE
8
S-GRID
10
25.19783
20
21.53586
30
0
11
25.20754
21
21.50457
31
0
0
LINE
8
S-GRID
10
25.20754
20
21.50457
30
0
11
25.22291
21
21.47626
31
0
0
LINE
8
S-GRID
10
25.22291
20
21.47626
30
0
11
25.24326
21
21.45159
31
0
0
LINE
8
S-GRID
10
25.24326
20
21.45159
30
0
11
25.26793
21
21.43124
31
0
0
LINE
8
S-GRID
10
25.26793
20
21.43124
30
0
11
25.29624
21
21.41588
31
0
0
LINE
8
S-GRID
10
25.29624
20
21.41588
30
0
11
25.32752
21
21.40616
31
0
0
LINE
8
S-GRID
10
25.32752
20
21.40616
30
0
11
25.36111
21
21.40278
31
0
0
LINE
8
S-GRID
10
25.36111
20
21.40278
30
0
11
25.3947
21
21.40616
31
0
0
LINE
8
S-GRID
10
25.3947
20
21.40616
30
0
11
25.42599
21
21.41588
31
0
0
LINE
8
S-GRID
10
25.42599
20
21.41588
30
0
11
25.4543
21
21.43124
31
0
0
LINE
8
S-GRID
10
25.4543
20
21.43124
30
0
11
25.47896
21
21.45159
31
0
0
LINE
8
S-GRID
10
25.47896
20
21.45159
30
0
11
25.49931
21
21.47626
31
0
0
LINE
8
S-GRID
10
25.49931
20
21.47626
30
0
11
25.51468
21
21.50457
31
0
0
LINE
8
S-GRID
10
25.51468
20
21.50457
30
0
11
25.52439
21
21.53586
31
0
0
LINE
8
S-GRID
10
25.52439
20
21.53586
30
0
11
25.52778
21
21.56944
31
0
0
TEXT
8
S-GRID
10
25.36111
20
21.51389
30
0
40
0.12
1
G
50
0
72
1
11
25.36111
21
21.51389
31
0
0
LINE
8
S-GRID
6
DASHED
10
29.11111
20
7.02778
30
0
11
29.11111
21
21.40278
31
0
0
LINE
8
S-GRID
10
29.27778
20
21.56944
30
0
11
29.27439
21
21.60303
31
0
0
LINE
8
S-GRID
10
29.27439
20
21.60303
30
0
11
29.26468
21
21.63432
31
0
0
LINE
8
S-GRID
10
29.26468
20
21.63432
30
0
11
29.24931
21
21.66263
31
0
0
LINE
8
S-GRID
10
29.24931
20
21.66263
30
0
11
29.22896
21
21.6873
31
0
0
LINE
8
S-GRID
10
29.22896
20
21.6873
30
0
11
29.2043
21
21.70765
31
0
0
LINE
8
S-GRID
10
29.2043
20
21.70765
30
0
11
29.17599
21
21.72301
31
0
0
LINE
8
S-GRID
10
29.17599
20
21.72301
30
0
11
29.1447
21
21.73273
31
0
0
LINE
8
S-GRID
10
29.1447
20
21.73273
30
0
11
29.11111
21
21.73611
31
0
0
LINE
8
S-GRID
10
29.11111
20
21.73611
30
0
11
29.07752
21
21.73273
31
0
0
LINE
8
S-GRID
10
29.07752
20
21.73273
30
0
11
29.04624
21
21.72301
31
0
0
LINE
8
S-GRID
10
29.04624
20
21.72301
30
0
11
29.01793
21
21.70765
31
0
0
LINE
8
S-GRID
10
29.01793
20
21.70765
30
0
11
28.99326
21
21.6873
31
0
0
LINE
8
S-GRID
10
28.99326
20
21.6873
30
0
11
28.97291
21
21.66263
31
0
0
LINE
8
S-GRID
10
28.97291
20
21.66263
30
0
11
28.95754
21
21.63432
31
0
0
LINE
8
S-GRID
10
28.95754
20
21.63432
30
0
11
28.94783
21
21.60303
31
0
0
LINE
8
S-GRID
10
28.94783
20
21.60303
30
0
11
28.94444
21
21.56944
31
0
0
LINE
8
S-GRID
10
28.94444
20
21.56944
30
0
11
28.94783
21
21.53586
31
0
0
LINE
8
S-GRID
10
28.94783
20
21.53586
30
0
11
28.95754
21
21.50457
31
0
0
LINE
8
S-GRID
10
28.95754
20
21.50457
30
0
11
28.97291
21
21.47626
31
0
0
LINE
8
S-GRID
10
28.97291
20
21.47626
30
0
11
28.99326
21
21.45159
31
0
0
LINE
8
S-GRID
10
28.99326
20
21.45159
30
0
11
29.01793
21
21.43124
31
0
0
LINE
8
S-GRID
10
29.01793
20
21.43124
30
0
11
29.04624
21
21.41588
31
0
0
LINE
8
S-GRID
10
29.04624
20
21.41588
30
0
11
29.07752
21
21.40616
31
0
0
LINE
8
S-GRID
10
29.07752
20
21.40616
30
0
11
29.11111
21
21.40278
31
0
0
LINE
8
S-GRID
10
29.11111
20
21.40278
30
0
11
29.1447
21
21.40616
31
0
0
LINE
8
S-GRID
10
29.1447
20
21.40616
30
0
11
29.17599
21
21.41588
31
0
0
LINE
8
S-GRID
10
29.17599
20
21.41588
30
0
11
29.2043
21
21.43124
31
0
0
LINE
8
S-GRID
10
29.2043
20
21.43124
30
0
11
29.22896
21
21.45159
31
0
0
LINE
8
S-GRID
10
29.22896
20
21.45159
30
0
11
29.24931
21
21.47626
31
0
0
LINE
8
S-GRID
10
29.24931
20
21.47626
30
0
11
29.26468
21
21.50457
31
0
0
LINE
8
S-GRID
10
29.26468
20
21.50457
30
0
11
29.27439
21
21.53586
31
0
0
LINE
8
S-GRID
10
29.27439
20
21.53586
30
0
11
29.27778
21
21.56944
31
0
0
TEXT
8
S-GRID
10
29.11111
20
21.51389
30
0
40
0.12
1
H
50
0
72
1
11
29.11111
21
21.51389
31
0
0
LINE
8
S-GRID
6
DASHED
10
1.19444
20
7.77778
30
0
11
29.94444
21
7.77778
31
0
0
LINE
8
S-GRID
10
1.19444
20
7.77778
30
0
11
1.19106
21
7.81137
31
0
0
LINE
8
S-GRID
10
1.19106
20
7.81137
30
0
11
1.18135
21
7.84265
31
0
0
LINE
8
S-GRID
10
1.18135
20
7.84265
30
0
11
1.16598
21
7.87096
31
0
0
LINE
8
S-GRID
10
1.16598
20
7.87096
30
0
11
1.14563
21
7.89563
31
0
0
LINE
8
S-GRID
10
1.14563
20
7.89563
30
0
11
1.12096
21
7.91598
31
0
0
LINE
8
S-GRID
10
1.12096
20
7.91598
30
0
11
1.09265
21
7.93135
31
0
0
LINE
8
S-GRID
10
1.09265
20
7.93135
30
0
11
1.06137
21
7.94106
31
0
0
LINE
8
S-GRID
10
1.06137
20
7.94106
30
0
11
1.02778
21
7.94444
31
0
0
LINE
8
S-GRID
10
1.02778
20
7.94444
30
0
11
0.99419
21
7.94106
31
0
0
LINE
8
S-GRID
10
0.99419
20
7.94106
30
0
11
0.9629
21
7.93135
31
0
0
LINE
8
S-GRID
10
0.9629
20
7.93135
30
0
11
0.93459
21
7.91598
31
0
0
LINE
8
S-GRID
10
0.93459
20
7.91598
30
0
11
0.90993
21
7.89563
31
0
0
LINE
8
S-GRID
10
0.90993
20
7.89563
30
0
11
0.88958
21
7.87096
31
0
0
LINE
8
S-GRID
10
0.88958
20
7.87096
30
0
11
0.87421
21
7.84265
31
0
0
LINE
8
S-GRID
10
0.87421
20
7.84265
30
0
11
0.8645
21
7.81137
31
0
0
LINE
8
S-GRID
10
0.8645
20
7.81137
30
0
11
0.86111
21
7.77778
31
0
0
LINE
8
S-GRID
10
0.86111
20
7.77778
30
0
11
0.8645
21
7.74419
31
0
0
LINE
8
S-GRID
10
0.8645
20
7.74419
30
0
11
0.87421
21
7.7129
31
0
0
LINE
8
S-GRID
10
0.87421
20
7.7129
30
0
11
0.88958
21
7.68459
31
0
0
LINE
8
S-GRID
10
0.88958
20
7.68459
30
0
11
0.90993
21
7.65993
31
0
0
LINE
8
S-GRID
10
0.90993
20
7.65993
30
0
11
0.93459
21
7.63958
31
0
0
LINE
8
S-GRID
10
0.93459
20
7.63958
30
0
11
0.9629
21
7.62421
31
0
0
LINE
8
S-GRID
10
0.9629
20
7.62421
30
0
11
0.99419
21
7.6145
31
0
0
LINE
8
S-GRID
10
0.99419
20
7.6145
30
0
11
1.02778
21
7.61111
31
0
0
LINE
8
S-GRID
10
1.02778
20
7.61111
30
0
11
1.06137
21
7.6145
31
0
0
LINE
8
S-GRID
10
1.06137
20
7.6145
30
0
11
1.09265
21
7.62421
31
0
0
LINE
8
S-GRID
10
1.09265
20
7.62421
30
0
11
1.12096
21
7.63958
31
0
0
LINE
8
S-GRID
10
1.12096
20
7.63958
30
0
11
1.14563
21
7.65993
31
0
0
LINE
8
S-GRID
10
1.14563
20
7.65993
30
0
11
1.16598
21
7.68459
31
0
0
LINE
8
S-GRID
10
1.16598
20
7.68459
30
0
11
1.18135
21
7.7129
31
0
0
LINE
8
S-GRID
10
1.18135
20
7.7129
30
0
11
1.19106
21
7.74419
31
0
0
LINE
8
S-GRID
10
1.19106
20
7.74419
30
0
11
1.19444
21
7.77778
31
0
0
TEXT
8
S-GRID
10
1.02778
20
7.72222
30
0
40
0.12
1
1
50
0
72
1
11
1.02778
21
7.72222
31
0
0
LINE
8
S-GRID
6
DASHED
10
1.19444
20
11.52778
30
0
11
29.94444
21
11.52778
31
0
0
LINE
8
S-GRID
10
1.19444
20
11.52778
30
0
11
1.19106
21
11.56137
31
0
0
LINE
8
S-GRID
10
1.19106
20
11.56137
30
0
11
1.18135
21
11.59265
31
0
0
LINE
8
S-GRID
10
1.18135
20
11.59265
30
0
11
1.16598
21
11.62096
31
0
0
LINE
8
S-GRID
10
1.16598
20
11.62096
30
0
11
1.14563
21
11.64563
31
0
0
LINE
8
S-GRID
10
1.14563
20
11.64563
30
0
11
1.12096
21
11.66598
31
0
0
LINE
8
S-GRID
10
1.12096
20
11.66598
30
0
11
1.09265
21
11.68135
31
0
0
LINE
8
S-GRID
10
1.09265
20
11.68135
30
0
11
1.06137
21
11.69106
31
0
0
LINE
8
S-GRID
10
1.06137
20
11.69106
30
0
11
1.02778
21
11.69444
31
0
0
LINE
8
S-GRID
10
1.02778
20
11.69444
30
0
11
0.99419
21
11.69106
31
0
0
LINE
8
S-GRID
10
0.99419
20
11.69106
30
0
11
0.9629
21
11.68135
31
0
0
LINE
8
S-GRID
10
0.9629
20
11.68135
30
0
11
0.93459
21
11.66598
31
0
0
LINE
8
S-GRID
10
0.93459
20
11.66598
30
0
11
0.90993
21
11.64563
31
0
0
LINE
8
S-GRID
10
0.90993
20
11.64563
30
0
11
0.88958
21
11.62096
31
0
0
LINE
8
S-GRID
10
0.88958
20
11.62096
30
0
11
0.87421
21
11.59265
31
0
0
LINE
8
S-GRID
10
0.87421
20
11.59265
30
0
11
0.8645
21
11.56137
31
0
0
LINE
8
S-GRID
10
0.8645
20
11.56137
30
0
11
0.86111
21
11.52778
31
0
0
LINE
8
S-GRID
10
0.86111
20
11.52778
30
0
11
0.8645
21
11.49419
31
0
0
LINE
8
S-GRID
10
0.8645
20
11.49419
30
0
11
0.87421
21
11.4629
31
0
0
LINE
8
S-GRID
10
0.87421
20
11.4629
30
0
11
0.88958
21
11.43459
31
0
0
LINE
8
S-GRID
10
0.88958
20
11.43459
30
0
11
0.90993
21
11.40993
31
0
0
LINE
8
S-GRID
10
0.90993
20
11.40993
30
0
11
0.93459
21
11.38958
31
0
0
LINE
8
S-GRID
10
0.93459
20
11.38958
30
0
11
0.9629
21
11.37421
31
0
0
LINE
8
S-GRID
10
0.9629
20
11.37421
30
0
11
0.99419
21
11.3645
31
0
0
LINE
8
S-GRID
10
0.99419
20
11.3645
30
0
11
1.02778
21
11.36111
31
0
0
LINE
8
S-GRID
10
1.02778
20
11.36111
30
0
11
1.06137
21
11.3645
31
0
0
LINE
8
S-GRID
10
1.06137
20
11.3645
30
0
11
1.09265
21
11.37421
31
0
0
LINE
8
S-GRID
10
1.09265
20
11.37421
30
0
11
1.12096
21
11.38958
31
0
0
LINE
8
S-GRID
10
1.12096
20
11.38958
30
0
11
1.14563
21
11.40993
31
0
0
LINE
8
S-GRID
10
1.14563
20
11.40993
30
0
11
1.16598
21
11.43459
31
0
0
LINE
8
S-GRID
10
1.16598
20
11.43459
30
0
11
1.18135
21
11.4629
31
0
0
LINE
8
S-GRID
10
1.18135
20
11.4629
30
0
11
1.19106
21
11.49419
31
0
0
LINE
8
S-GRID
10
1.19106
20
11.49419
30
0
11
1.19444
21
11.52778
31
0
0
TEXT
8
S-GRID
10
1.02778
20
11.47222
30
0
40
0.12
1
2
50
0
72
1
11
1.02778
21
11.47222
31
0
0
LINE
8
S-GRID
6
DASHED
10
1.19444
20
15.27778
30
0
11
29.94444
21
15.27778
31
0
0
LINE
8
S-GRID
10
1.19444
20
15.27778
30
0
11
1.19106
21
15.31137
31
0
0
LINE
8
S-GRID
10
1.19106
20
15.31137
30
0
11
1.18135
21
15.34265
31
0
0
LINE
8
S-GRID
10
1.18135
20
15.34265
30
0
11
1.16598
21
15.37096
31
0
0
LINE
8
S-GRID
10
1.16598
20
15.37096
30
0
11
1.14563
21
15.39563
31
0
0
LINE
8
S-GRID
10
1.14563
20
15.39563
30
0
11
1.12096
21
15.41598
31
0
0
LINE
8
S-GRID
10
1.12096
20
15.41598
30
0
11
1.09265
21
15.43135
31
0
0
LINE
8
S-GRID
10
1.09265
20
15.43135
30
0
11
1.06137
21
15.44106
31
0
0
LINE
8
S-GRID
10
1.06137
20
15.44106
30
0
11
1.02778
21
15.44444
31
0
0
LINE
8
S-GRID
10
1.02778
20
15.44444
30
0
11
0.99419
21
15.44106
31
0
0
LINE
8
S-GRID
10
0.99419
20
15.44106
30
0
11
0.9629
21
15.43135
31
0
0
LINE
8
S-GRID
10
0.9629
20
15.43135
30
0
11
0.93459
21
15.41598
31
0
0
LINE
8
S-GRID
10
0.93459
20
15.41598
30
0
11
0.90993
21
15.39563
31
0
0
LINE
8
S-GRID
10
0.90993
20
15.39563
30
0
11
0.88958
21
15.37096
31
0
0
LINE
8
S-GRID
10
0.88958
20
15.37096
30
0
11
0.87421
21
15.34265
31
0
0
LINE
8
S-GRID
10
0.87421
20
15.34265
30
0
11
0.8645
21
15.31137
31
0
0
LINE
8
S-GRID
10
0.8645
20
15.31137
30
0
11
0.86111
21
15.27778
31
0
0
LINE
8
S-GRID
10
0.86111
20
15.27778
30
0
11
0.8645
21
15.24419
31
0
0
LINE
8
S-GRID
10
0.8645
20
15.24419
30
0
11
0.87421
21
15.2129
31
0
0
LINE
8
S-GRID
10
0.87421
20
15.2129
30
0
11
0.88958
21
15.18459
31
0
0
LINE
8
S-GRID
10
0.88958
20
15.18459
30
0
11
0.90993
21
15.15993
31
0
0
LINE
8
S-GRID
10
0.90993
20
15.15993
30
0
11
0.93459
21
15.13958
31
0
0
LINE
8
S-GRID
10
0.93459
20
15.13958
30
0
11
0.9629
21
15.12421
31
0
0
LINE
8
S-GRID
10
0.9629
20
15.12421
30
0
11
0.99419
21
15.1145
31
0
0
LINE
8
S-GRID
10
0.99419
20
15.1145
30
0
11
1.02778
21
15.11111
31
0
0
LINE
8
S-GRID
10
1.02778
20
15.11111
30
0
11
1.06137
21
15.1145
31
0
0
LINE
8
S-GRID
10
1.06137
20
15.1145
30
0
11
1.09265
21
15.12421
31
0
0
LINE
8
S-GRID
10
1.09265
20
15.12421
30
0
11
1.12096
21
15.13958
31
0
0
LINE
8
S-GRID
10
1.12096
20
15.13958
30
0
11
1.14563
21
15.15993
31
0
0
LINE
8
S-GRID
10
1.14563
20
15.15993
30
0
11
1.16598
21
15.18459
31
0
0
LINE
8
S-GRID
10
1.16598
20
15.18459
30
0
11
1.18135
21
15.2129
31
0
0
LINE
8
S-GRID
10
1.18135
20
15.2129
30
0
11
1.19106
21
15.24419
31
0
0
LINE
8
S-GRID
10
1.19106
20
15.24419
30
0
11
1.19444
21
15.27778
31
0
0
TEXT
8
S-GRID
10
1.02778
20
15.22222
30
0
40
0.12
1
3
50
0
72
1
11
1.02778
21
15.22222
31
0
0
LINE
8
S-GRID
6
DASHED
10
1.19444
20
19.27778
30
0
11
29.94444
21
19.27778
31
0
0
LINE
8
S-GRID
10
1.19444
20
19.27778
30
0
11
1.19106
21
19.31137
31
0
0
LINE
8
S-GRID
10
1.19106
20
19.31137
30
0
11
1.18135
21
19.34265
31
0
0
LINE
8
S-GRID
10
1.18135
20
19.34265
30
0
11
1.16598
21
19.37096
31
0
0
LINE
8
S-GRID
10
1.16598
20
19.37096
30
0
11
1.14563
21
19.39563
31
0
0
LINE
8
S-GRID
10
1.14563
20
19.39563
30
0
11
1.12096
21
19.41598
31
0
0
LINE
8
S-GRID
10
1.12096
20
19.41598
30
0
11
1.09265
21
19.43135
31
0
0
LINE
8
S-GRID
10
1.09265
20
19.43135
30
0
11
1.06137
21
19.44106
31
0
0
LINE
8
S-GRID
10
1.06137
20
19.44106
30
0
11
1.02778
21
19.44444
31
0
0
LINE
8
S-GRID
10
1.02778
20
19.44444
30
0
11
0.99419
21
19.44106
31
0
0
LINE
8
S-GRID
10
0.99419
20
19.44106
30
0
11
0.9629
21
19.43135
31
0
0
LINE
8
S-GRID
10
0.9629
20
19.43135
30
0
11
0.93459
21
19.41598
31
0
0
LINE
8
S-GRID
10
0.93459
20
19.41598
30
0
11
0.90993
21
19.39563
31
0
0
LINE
8
S-GRID
10
0.90993
20
19.39563
30
0
11
0.88958
21
19.37096
31
0
0
LINE
8
S-GRID
10
0.88958
20
19.37096
30
0
11
0.87421
21
19.34265
31
0
0
LINE
8
S-GRID
10
0.87421
20
19.34265
30
0
11
0.8645
21
19.31137
31
0
0
LINE
8
S-GRID
10
0.8645
20
19.31137
30
0
11
0.86111
21
19.27778
31
0
0
LINE
8
S-GRID
10
0.86111
20
19.27778
30
0
11
0.8645
21
19.24419
31
0
0
LINE
8
S-GRID
10
0.8645
20
19.24419
30
0
11
0.87421
21
19.2129
31
0
0
LINE
8
S-GRID
10
0.87421
20
19.2129
30
0
11
0.88958
21
19.18459
31
0
0
LINE
8
S-GRID
10
0.88958
20
19.18459
30
0
11
0.90993
21
19.15993
31
0
0
LINE
8
S-GRID
10
0.90993
20
19.15993
30
0
11
0.93459
21
19.13958
31
0
0
LINE
8
S-GRID
10
0.93459
20
19.13958
30
0
11
0.9629
21
19.12421
31
0
0
LINE
8
S-GRID
10
0.9629
20
19.12421
30
0
11
0.99419
21
19.1145
31
0
0
LINE
8
S-GRID
10
0.99419
20
19.1145
30
0
11
1.02778
21
19.11111
31
0
0
LINE
8
S-GRID
10
1.02778
20
19.11111
30
0
11
1.06137
21
19.1145
31
0
0
LINE
8
S-GRID
10
1.06137
20
19.1145
30
0
11
1.09265
21
19.12421
31
0
0
LINE
8
S-GRID
10
1.09265
20
19.12421
30
0
11
1.12096
21
19.13958
31
0
0
LINE
8
S-GRID
10
1.12096
20
19.13958
30
0
11
1.14563
21
19.15993
31
0
0
LINE
8
S-GRID
10
1.14563
20
19.15993
30
0
11
1.16598
21
19.18459
31
0
0
LINE
8
S-GRID
10
1.16598
20
19.18459
30
0
11
1.18135
21
19.2129
31
0
0
LINE
8
S-GRID
10
1.18135
20
19.2129
30
0
11
1.19106
21
19.24419
31
0
0
LINE
8
S-GRID
10
1.19106
20
19.24419
30
0
11
1.19444
21
19.27778
31
0
0
TEXT
8
S-GRID
10
1.02778
20
19.22222
30
0
40
0.12
1
4
50
0
72
1
11
1.02778
21
19.22222
31
0
0
LINE
8
S-BEAM
10
3.19444
20
7.7309
30
0
11
29.11111
21
7.7309
31
0
0
LINE
8
S-BEAM
10
3.19444
20
7.82465
30
0
11
29.11111
21
7.82465
31
0
0
LINE
8
S-BEAM
10
3.19444
20
11.4809
30
0
11
29.11111
21
11.4809
31
0
0
LINE
8
S-BEAM
10
3.19444
20
11.57465
30
0
11
29.11111
21
11.57465
31
0
0
LINE
8
S-BEAM
10
3.19444
20
15.2309
30
0
11
29.11111
21
15.2309
31
0
0
LINE
8
S-BEAM
10
3.19444
20
15.32465
30
0
11
29.11111
21
15.32465
31
0
0
LINE
8
S-BEAM
10
3.19444
20
19.2309
30
0
11
29.11111
21
19.2309
31
0
0
LINE
8
S-BEAM
10
3.19444
20
19.32465
30
0
11
29.11111
21
19.32465
31
0
0
LINE
8
S-BEAM
10
3.19444
20
7.77778
30
0
11
3.19444
21
19.27778
31
0
0
LINE
8
S-BEAM
10
6.94444
20
7.77778
30
0
11
6.94444
21
19.27778
31
0
0
LINE
8
S-BEAM
10
10.69444
20
7.77778
30
0
11
10.69444
21
19.27778
31
0
0
LINE
8
S-BEAM
10
14.11111
20
7.77778
30
0
11
14.11111
21
19.27778
31
0
0
LINE
8
S-BEAM
10
17.86111
20
7.77778
30
0
11
17.86111
21
19.27778
31
0
0
LINE
8
S-BEAM
10
21.61111
20
7.77778
30
0
11
21.61111
21
19.27778
31
0
0
LINE
8
S-BEAM
10
25.36111
20
7.77778
30
0
11
25.36111
21
19.27778
31
0
0
LINE
8
S-BEAM
10
29.11111
20
7.77778
30
0
11
29.11111
21
19.27778
31
0
0
LINE
8
S-JOIS
6
DASHED
10
3.81944
20
7.77778
30
0
11
3.81944
21
19.27778
31
0
0
LINE
8
S-JOIS
6
DASHED
10
4.44444
20
7.77778
30
0
11
4.44444
21
19.27778
31
0
0
LINE
8
S-JOIS
6
DASHED
10
5.06944
20
7.77778
30
0
11
5.06944
21
19.27778
31
0
0
LINE
8
S-JOIS
6
DASHED
10
5.69444
20
7.77778
30
0
11
5.69444
21
19.27778
31
0
0
LINE
8
S-JOIS
6
DASHED
10
6.31944
20
7.77778
30
0
11
6.31944
21
19.27778
31
0
0
TEXT
8
S-ANNO
10
5.06944
20
13.40278
30
0
40
0.06
1
24K7 @ 5'-0" O.C.
50
0
72
1
11
5.06944
21
13.40278
31
0
0
LINE
8
S-JOIS
6
DASHED
10
7.56944
20
7.77778
30
0
11
7.56944
21
19.27778
31
0
0
LINE
8
S-JOIS
6
DASHED
10
8.19444
20
7.77778
30
0
11
8.19444
21
19.27778
31
0
0
LINE
8
S-JOIS
6
DASHED
10
8.81944
20
7.77778
30
0
11
8.81944
21
19.27778
31
0
0
LINE
8
S-JOIS
6
DASHED
10
9.44444
20
7.77778
30
0
11
9.44444
21
19.27778
31
0
0
LINE
8
S-JOIS
6
DASHED
10
10.06944
20
7.77778
30
0
11
10.06944
21
19.27778
31
0
0
TEXT
8
S-ANNO
10
8.81944
20
13.40278
30
0
40
0.06
1
24K7 @ 5'-0" O.C.
50
0
72
1
11
8.81944
21
13.40278
31
0
0
LINE
8
S-JOIS
6
DASHED
10
11.31944
20
7.77778
30
0
11
11.31944
21
19.27778
31
0
0
LINE
8
S-JOIS
6
DASHED
10
11.94444
20
7.77778
30
0
11
11.94444
21
19.27778
31
0
0
LINE
8
S-JOIS
6
DASHED
10
12.56944
20
7.77778
30
0
11
12.56944
21
19.27778
31
0
0
LINE
8
S-JOIS
6
DASHED
10
13.19444
20
7.77778
30
0
11
13.19444
21
19.27778
31
0
0
LINE
8
S-JOIS
6
DASHED
10
13.81944
20
7.77778
30
0
11
13.81944
21
19.27778
31
0
0
TEXT
8
S-ANNO
10
12.40278
20
13.40278
30
0
40
0.06
1
24K7 @ 5'-0" O.C.
50
0
72
1
11
12.40278
21
13.40278
31
0
0
LINE
8
S-JOIS
6
DASHED
10
14.73611
20
7.77778
30
0
11
14.73611
21
19.27778
31
0
0
LINE
8
S-JOIS
6
DASHED
10
15.36111
20
7.77778
30
0
11
15.36111
21
19.27778
31
0
0
LINE
8
S-JOIS
6
DASHED
10
15.98611
20
7.77778
30
0
11
15.98611
21
19.27778
31
0
0
LINE
8
S-JOIS
6
DASHED
10
16.61111
20
7.77778
30
0
11
16.61111
21
19.27778
31
0
0
LINE
8
S-JOIS
6
DASHED
10
17.23611
20
7.77778
30
0
11
17.23611
21
19.27778
31
0
0
TEXT
8
S-ANNO
10
15.98611
20
13.40278
30
0
40
0.06
1
24K7 @ 5'-0" O.C.
50
0
72
1
11
15.98611
21
13.40278
31
0
0
LINE
8
S-JOIS
6
DASHED
10
18.48611
20
7.77778
30
0
11
18.48611
21
19.27778
31
0
0
LINE
8
S-JOIS
6
DASHED
10
19.11111
20
7.77778
30
0
11
19.11111
21
19.27778
31
0
0
LINE
8
S-JOIS
6
DASHED
10
19.73611
20
7.77778
30
0
11
19.73611
21
19.27778
31
0
0
LINE
8
S-JOIS
6
DASHED
10
20.36111
20
7.77778
30
0
11
20.36111
21
19.27778
31
0
0
LINE
8
S-JOIS
6
DASHED
10
20.98611
20
7.77778
30
0
11
20.98611
21
19.27778
31
0
0
TEXT
8
S-ANNO
10
19.73611
20
13.40278
30
0
40
0.06
1
24K7 @ 5'-0" O.C.
50
0
72
1
11
19.73611
21
13.40278
31
0
0
LINE
8
S-JOIS
6
DASHED
10
22.23611
20
7.77778
30
0
11
22.23611
21
19.27778
31
0
0
LINE
8
S-JOIS
6
DASHED
10
22.86111
20
7.77778
30
0
11
22.86111
21
19.27778
31
0
0
LINE
8
S-JOIS
6
DASHED
10
23.48611
20
7.77778
30
0
11
23.48611
21
19.27778
31
0
0
LINE
8
S-JOIS
6
DASHED
10
24.11111
20
7.77778
30
0
11
24.11111
21
19.27778
31
0
0
LINE
8
S-JOIS
6
DASHED
10
24.73611
20
7.77778
30
0
11
24.73611
21
19.27778
31
0
0
TEXT
8
S-ANNO
10
23.48611
20
13.40278
30
0
40
0.06
1
24K7 @ 5'-0" O.C.
50
0
72
1
11
23.48611
21
13.40278
31
0
0
LINE
8
S-JOIS
6
DASHED
10
25.98611
20
7.77778
30
0
11
25.98611
21
19.27778
31
0
0
LINE
8
S-JOIS
6
DASHED
10
26.61111
20
7.77778
30
0
11
26.61111
21
19.27778
31
0
0
LINE
8
S-JOIS
6
DASHED
10
27.23611
20
7.77778
30
0
11
27.23611
21
19.27778
31
0
0
LINE
8
S-JOIS
6
DASHED
10
27.86111
20
7.77778
30
0
11
27.86111
21
19.27778
31
0
0
LINE
8
S-JOIS
6
DASHED
10
28.48611
20
7.77778
30
0
11
28.48611
21
19.27778
31
0
0
TEXT
8
S-ANNO
10
27.23611
20
13.40278
30
0
40
0.06
1
24K7 @ 5'-0" O.C.
50
0
72
1
11
27.23611
21
13.40278
31
0
0
TEXT
8
S-ANNO
10
5.06944
20
7.90278
30
0
40
0.06
1
W24x55
50
0
0
TEXT
8
S-ANNO
10
5.06944
20
11.65278
30
0
40
0.06
1
W24x55
50
0
0
TEXT
8
S-ANNO
10
5.06944
20
15.40278
30
0
40
0.06
1
W24x55
50
0
0
TEXT
8
S-ANNO
10
5.06944
20
19.40278
30
0
40
0.06
1
W24x55
50
0
0
LINE
8
A-COLS
10
3.13194
20
7.71528
30
0
11
3.25694
21
7.71528
31
0
0
LINE
8
A-COLS
10
3.25694
20
7.71528
30
0
11
3.25694
21
7.84028
31
0
0
LINE
8
A-COLS
10
3.25694
20
7.84028
30
0
11
3.13194
21
7.84028
31
0
0
LINE
8
A-COLS
10
3.13194
20
7.84028
30
0
11
3.13194
21
7.71528
31
0
0
LINE
8
A-COLS
10
3.15694
20
7.74028
30
0
11
3.23194
21
7.74028
31
0
0
LINE
8
A-COLS
10
3.23194
20
7.74028
30
0
11
3.23194
21
7.75694
31
0
0
LINE
8
A-COLS
10
3.23194
20
7.75694
30
0
11
3.20139
21
7.75694
31
0
0
LINE
8
A-COLS
10
3.20139
20
7.75694
30
0
11
3.20139
21
7.79861
31
0
0
LINE
8
A-COLS
10
3.20139
20
7.79861
30
0
11
3.23194
21
7.79861
31
0
0
LINE
8
A-COLS
10
3.23194
20
7.79861
30
0
11
3.23194
21
7.81528
31
0
0
LINE
8
A-COLS
10
3.23194
20
7.81528
30
0
11
3.15694
21
7.81528
31
0
0
LINE
8
A-COLS
10
3.15694
20
7.81528
30
0
11
3.15694
21
7.79861
31
0
0
LINE
8
A-COLS
10
3.15694
20
7.79861
30
0
11
3.1875
21
7.79861
31
0
0
LINE
8
A-COLS
10
3.1875
20
7.79861
30
0
11
3.1875
21
7.75694
31
0
0
LINE
8
A-COLS
10
3.1875
20
7.75694
30
0
11
3.15694
21
7.75694
31
0
0
LINE
8
A-COLS
10
3.15694
20
7.75694
30
0
11
3.15694
21
7.74028
31
0
0
LINE
8
A-COLS
10
3.13194
20
11.46528
30
0
11
3.25694
21
11.46528
31
0
0
LINE
8
A-COLS
10
3.25694
20
11.46528
30
0
11
3.25694
21
11.59028
31
0
0
LINE
8
A-COLS
10
3.25694
20
11.59028
30
0
11
3.13194
21
11.59028
31
0
0
LINE
8
A-COLS
10
3.13194
20
11.59028
30
0
11
3.13194
21
11.46528
31
0
0
LINE
8
A-COLS
10
3.15694
20
11.49028
30
0
11
3.23194
21
11.49028
31
0
0
LINE
8
A-COLS
10
3.23194
20
11.49028
30
0
11
3.23194
21
11.50694
31
0
0
LINE
8
A-COLS
10
3.23194
20
11.50694
30
0
11
3.20139
21
11.50694
31
0
0
LINE
8
A-COLS
10
3.20139
20
11.50694
30
0
11
3.20139
21
11.54861
31
0
0
LINE
8
A-COLS
10
3.20139
20
11.54861
30
0
11
3.23194
21
11.54861
31
0
0
LINE
8
A-COLS
10
3.23194
20
11.54861
30
0
11
3.23194
21
11.56528
31
0
0
LINE
8
A-COLS
10
3.23194
20
11.56528
30
0
11
3.15694
21
11.56528
31
0
0
LINE
8
A-COLS
10
3.15694
20
11.56528
30
0
11
3.15694
21
11.54861
31
0
0
LINE
8
A-COLS
10
3.15694
20
11.54861
30
0
11
3.1875
21
11.54861
31
0
0
LINE
8
A-COLS
10
3.1875
20
11.54861
30
0
11
3.1875
21
11.50694
31
0
0
LINE
8
A-COLS
10
3.1875
20
11.50694
30
0
11
3.15694
21
11.50694
31
0
0
LINE
8
A-COLS
10
3.15694
20
11.50694
30
0
11
3.15694
21
11.49028
31
0
0
LINE
8
A-COLS
10
3.13194
20
15.21528
30
0
11
3.25694
21
15.21528
31
0
0
LINE
8
A-COLS
10
3.25694
20
15.21528
30
0
11
3.25694
21
15.34028
31
0
0
LINE
8
A-COLS
10
3.25694
20
15.34028
30
0
11
3.13194
21
15.34028
31
0
0
LINE
8
A-COLS
10
3.13194
20
15.34028
30
0
11
3.13194
21
15.21528
31
0
0
LINE
8
A-COLS
10
3.15694
20
15.24028
30
0
11
3.23194
21
15.24028
31
0
0
LINE
8
A-COLS
10
3.23194
20
15.24028
30
0
11
3.23194
21
15.25694
31
0
0
LINE
8
A-COLS
10
3.23194
20
15.25694
30
0
11
3.20139
21
15.25694
31
0
0
LINE
8
A-COLS
10
3.20139
20
15.25694
30
0
11
3.20139
21
15.29861
31
0
0
LINE
8
A-COLS
10
3.20139
20
15.29861
30
0
11
3.23194
21
15.29861
31
0
0
LINE
8
A-COLS
10
3.23194
20
15.29861
30
0
11
3.23194
21
15.31528
31
0
0
LINE
8
A-COLS
10
3.23194
20
15.31528
30
0
11
3.15694
21
15.31528
31
0
0
LINE
8
A-COLS
10
3.15694
20
15.31528
30
0
11
3.15694
21
15.29861
31
0
0
LINE
8
A-COLS
10
3.15694
20
15.29861
30
0
11
3.1875
21
15.29861
31
0
0
LINE
8
A-COLS
10
3.1875
20
15.29861
30
0
11
3.1875
21
15.25694
31
0
0
LINE
8
A-COLS
10
3.1875
20
15.25694
30
0
11
3.15694
21
15.25694
31
0
0
LINE
8
A-COLS
10
3.15694
20
15.25694
30
0
11
3.15694
21
15.24028
31
0
0
LINE
8
A-COLS
10
3.13194
20
19.21528
30
0
11
3.25694
21
19.21528
31
0
0
LINE
8
A-COLS
10
3.25694
20
19.21528
30
0
11
3.25694
21
19.34028
31
0
0
LINE
8
A-COLS
10
3.25694
20
19.34028
30
0
11
3.13194
21
19.34028
31
0
0
LINE
8
A-COLS
10
3.13194
20
19.34028
30
0
11
3.13194
21
19.21528
31
0
0
LINE
8
A-COLS
10
3.15694
20
19.24028
30
0
11
3.23194
21
19.24028
31
0
0
LINE
8
A-COLS
10
3.23194
20
19.24028
30
0
11
3.23194
21
19.25694
31
0
0
LINE
8
A-COLS
10
3.23194
20
19.25694
30
0
11
3.20139
21
19.25694
31
0
0
LINE
8
A-COLS
10
3.20139
20
19.25694
30
0
11
3.20139
21
19.29861
31
0
0
LINE
8
A-COLS
10
3.20139
20
19.29861
30
0
11
3.23194
21
19.29861
31
0
0
LINE
8
A-COLS
10
3.23194
20
19.29861
30
0
11
3.23194
21
19.31528
31
0
0
LINE
8
A-COLS
10
3.23194
20
19.31528
30
0
11
3.15694
21
19.31528
31
0
0
LINE
8
A-COLS
10
3.15694
20
19.31528
30
0
11
3.15694
21
19.29861
31
0
0
LINE
8
A-COLS
10
3.15694
20
19.29861
30
0
11
3.1875
21
19.29861
31
0
0
LINE
8
A-COLS
10
3.1875
20
19.29861
30
0
11
3.1875
21
19.25694
31
0
0
LINE
8
A-COLS
10
3.1875
20
19.25694
30
0
11
3.15694
21
19.25694
31
0
0
LINE
8
A-COLS
10
3.15694
20
19.25694
30
0
11
3.15694
21
19.24028
31
0
0
LINE
8
A-COLS
10
6.88194
20
7.71528
30
0
11
7.00694
21
7.71528
31
0
0
LINE
8
A-COLS
10
7.00694
20
7.71528
30
0
11
7.00694
21
7.84028
31
0
0
LINE
8
A-COLS
10
7.00694
20
7.84028
30
0
11
6.88194
21
7.84028
31
0
0
LINE
8
A-COLS
10
6.88194
20
7.84028
30
0
11
6.88194
21
7.71528
31
0
0
LINE
8
A-COLS
10
6.90694
20
7.74028
30
0
11
6.98194
21
7.74028
31
0
0
LINE
8
A-COLS
10
6.98194
20
7.74028
30
0
11
6.98194
21
7.75694
31
0
0
LINE
8
A-COLS
10
6.98194
20
7.75694
30
0
11
6.95139
21
7.75694
31
0
0
LINE
8
A-COLS
10
6.95139
20
7.75694
30
0
11
6.95139
21
7.79861
31
0
0
LINE
8
A-COLS
10
6.95139
20
7.79861
30
0
11
6.98194
21
7.79861
31
0
0
LINE
8
A-COLS
10
6.98194
20
7.79861
30
0
11
6.98194
21
7.81528
31
0
0
LINE
8
A-COLS
10
6.98194
20
7.81528
30
0
11
6.90694
21
7.81528
31
0
0
LINE
8
A-COLS
10
6.90694
20
7.81528
30
0
11
6.90694
21
7.79861
31
0
0
LINE
8
A-COLS
10
6.90694
20
7.79861
30
0
11
6.9375
21
7.79861
31
0
0
LINE
8
A-COLS
10
6.9375
20
7.79861
30
0
11
6.9375
21
7.75694
31
0
0
LINE
8
A-COLS
10
6.9375
20
7.75694
30
0
11
6.90694
21
7.75694
31
0
0
LINE
8
A-COLS
10
6.90694
20
7.75694
30
0
11
6.90694
21
7.74028
31
0
0
LINE
8
A-COLS
10
6.88194
20
11.46528
30
0
11
7.00694
21
11.46528
31
0
0
LINE
8
A-COLS
10
7.00694
20
11.46528
30
0
11
7.00694
21
11.59028
31
0
0
LINE
8
A-COLS
10
7.00694
20
11.59028
30
0
11
6.88194
21
11.59028
31
0
0
LINE
8
A-COLS
10
6.88194
20
11.59028
30
0
11
6.88194
21
11.46528
31
0
0
LINE
8
A-COLS
10
6.90694
20
11.49028
30
0
11
6.98194
21
11.49028
31
0
0
LINE
8
A-COLS
10
6.98194
20
11.49028
30
0
11
6.98194
21
11.50694
31
0
0
LINE
8
A-COLS
10
6.98194
20
11.50694
30
0
11
6.95139
21
11.50694
31
0
0
LINE
8
A-COLS
10
6.95139
20
11.50694
30
0
11
6.95139
21
11.54861
31
0
0
LINE
8
A-COLS
10
6.95139
20
11.54861
30
0
11
6.98194
21
11.54861
31
0
0
LINE
8
A-COLS
10
6.98194
20
11.54861
30
0
11
6.98194
21
11.56528
31
0
0
LINE
8
A-COLS
10
6.98194
20
11.56528
30
0
11
6.90694
21
11.56528
31
0
0
LINE
8
A-COLS
10
6.90694
20
11.56528
30
0
11
6.90694
21
11.54861
31
0
0
LINE
8
A-COLS
10
6.90694
20
11.54861
30
0
11
6.9375
21
11.54861
31
0
0
LINE
8
A-COLS
10
6.9375
20
11.54861
30
0
11
6.9375
21
11.50694
31
0
0
LINE
8
A-COLS
10
6.9375
20
11.50694
30
0
11
6.90694
21
11.50694
31
0
0
LINE
8
A-COLS
10
6.90694
20
11.50694
30
0
11
6.90694
21
11.49028
31
0
0
LINE
8
A-COLS
10
6.88194
20
15.21528
30
0
11
7.00694
21
15.21528
31
0
0
LINE
8
A-COLS
10
7.00694
20
15.21528
30
0
11
7.00694
21
15.34028
31
0
0
LINE
8
A-COLS
10
7.00694
20
15.34028
30
0
11
6.88194
21
15.34028
31
0
0
LINE
8
A-COLS
10
6.88194
20
15.34028
30
0
11
6.88194
21
15.21528
31
0
0
LINE
8
A-COLS
10
6.90694
20
15.24028
30
0
11
6.98194
21
15.24028
31
0
0
LINE
8
A-COLS
10
6.98194
20
15.24028
30
0
11
6.98194
21
15.25694
31
0
0
LINE
8
A-COLS
10
6.98194
20
15.25694
30
0
11
6.95139
21
15.25694
31
0
0
LINE
8
A-COLS
10
6.95139
20
15.25694
30
0
11
6.95139
21
15.29861
31
0
0
LINE
8
A-COLS
10
6.95139
20
15.29861
30
0
11
6.98194
21
15.29861
31
0
0
LINE
8
A-COLS
10
6.98194
20
15.29861
30
0
11
6.98194
21
15.31528
31
0
0
LINE
8
A-COLS
10
6.98194
20
15.31528
30
0
11
6.90694
21
15.31528
31
0
0
LINE
8
A-COLS
10
6.90694
20
15.31528
30
0
11
6.90694
21
15.29861
31
0
0
LINE
8
A-COLS
10
6.90694
20
15.29861
30
0
11
6.9375
21
15.29861
31
0
0
LINE
8
A-COLS
10
6.9375
20
15.29861
30
0
11
6.9375
21
15.25694
31
0
0
LINE
8
A-COLS
10
6.9375
20
15.25694
30
0
11
6.90694
21
15.25694
31
0
0
LINE
8
A-COLS
10
6.90694
20
15.25694
30
0
11
6.90694
21
15.24028
31
0
0
LINE
8
A-COLS
10
6.88194
20
19.21528
30
0
11
7.00694
21
19.21528
31
0
0
LINE
8
A-COLS
10
7.00694
20
19.21528
30
0
11
7.00694
21
19.34028
31
0
0
LINE
8
A-COLS
10
7.00694
20
19.34028
30
0
11
6.88194
21
19.34028
31
0
0
LINE
8
A-COLS
10
6.88194
20
19.34028
30
0
11
6.88194
21
19.21528
31
0
0
LINE
8
A-COLS
10
6.90694
20
19.24028
30
0
11
6.98194
21
19.24028
31
0
0
LINE
8
A-COLS
10
6.98194
20
19.24028
30
0
11
6.98194
21
19.25694
31
0
0
LINE
8
A-COLS
10
6.98194
20
19.25694
30
0
11
6.95139
21
19.25694
31
0
0
LINE
8
A-COLS
10
6.95139
20
19.25694
30
0
11
6.95139
21
19.29861
31
0
0
LINE
8
A-COLS
10
6.95139
20
19.29861
30
0
11
6.98194
21
19.29861
31
0
0
LINE
8
A-COLS
10
6.98194
20
19.29861
30
0
11
6.98194
21
19.31528
31
0
0
LINE
8
A-COLS
10
6.98194
20
19.31528
30
0
11
6.90694
21
19.31528
31
0
0
LINE
8
A-COLS
10
6.90694
20
19.31528
30
0
11
6.90694
21
19.29861
31
0
0
LINE
8
A-COLS
10
6.90694
20
19.29861
30
0
11
6.9375
21
19.29861
31
0
0
LINE
8
A-COLS
10
6.9375
20
19.29861
30
0
11
6.9375
21
19.25694
31
0
0
LINE
8
A-COLS
10
6.9375
20
19.25694
30
0
11
6.90694
21
19.25694
31
0
0
LINE
8
A-COLS
10
6.90694
20
19.25694
30
0
11
6.90694
21
19.24028
31
0
0
LINE
8
A-COLS
10
10.63194
20
7.71528
30
0
11
10.75694
21
7.71528
31
0
0
LINE
8
A-COLS
10
10.75694
20
7.71528
30
0
11
10.75694
21
7.84028
31
0
0
LINE
8
A-COLS
10
10.75694
20
7.84028
30
0
11
10.63194
21
7.84028
31
0
0
LINE
8
A-COLS
10
10.63194
20
7.84028
30
0
11
10.63194
21
7.71528
31
0
0
LINE
8
A-COLS
10
10.65694
20
7.74028
30
0
11
10.73194
21
7.74028
31
0
0
LINE
8
A-COLS
10
10.73194
20
7.74028
30
0
11
10.73194
21
7.75694
31
0
0
LINE
8
A-COLS
10
10.73194
20
7.75694
30
0
11
10.70139
21
7.75694
31
0
0
LINE
8
A-COLS
10
10.70139
20
7.75694
30
0
11
10.70139
21
7.79861
31
0
0
LINE
8
A-COLS
10
10.70139
20
7.79861
30
0
11
10.73194
21
7.79861
31
0
0
LINE
8
A-COLS
10
10.73194
20
7.79861
30
0
11
10.73194
21
7.81528
31
0
0
LINE
8
A-COLS
10
10.73194
20
7.81528
30
0
11
10.65694
21
7.81528
31
0
0
LINE
8
A-COLS
10
10.65694
20
7.81528
30
0
11
10.65694
21
7.79861
31
0
0
LINE
8
A-COLS
10
10.65694
20
7.79861
30
0
11
10.6875
21
7.79861
31
0
0
LINE
8
A-COLS
10
10.6875
20
7.79861
30
0
11
10.6875
21
7.75694
31
0
0
LINE
8
A-COLS
10
10.6875
20
7.75694
30
0
11
10.65694
21
7.75694
31
0
0
LINE
8
A-COLS
10
10.65694
20
7.75694
30
0
11
10.65694
21
7.74028
31
0
0
LINE
8
A-COLS
10
10.63194
20
11.46528
30
0
11
10.75694
21
11.46528
31
0
0
LINE
8
A-COLS
10
10.75694
20
11.46528
30
0
11
10.75694
21
11.59028
31
0
0
LINE
8
A-COLS
10
10.75694
20
11.59028
30
0
11
10.63194
21
11.59028
31
0
0
LINE
8
A-COLS
10
10.63194
20
11.59028
30
0
11
10.63194
21
11.46528
31
0
0
LINE
8
A-COLS
10
10.65694
20
11.49028
30
0
11
10.73194
21
11.49028
31
0
0
LINE
8
A-COLS
10
10.73194
20
11.49028
30
0
11
10.73194
21
11.50694
31
0
0
LINE
8
A-COLS
10
10.73194
20
11.50694
30
0
11
10.70139
21
11.50694
31
0
0
LINE
8
A-COLS
10
10.70139
20
11.50694
30
0
11
10.70139
21
11.54861
31
0
0
LINE
8
A-COLS
10
10.70139
20
11.54861
30
0
11
10.73194
21
11.54861
31
0
0
LINE
8
A-COLS
10
10.73194
20
11.54861
30
0
11
10.73194
21
11.56528
31
0
0
LINE
8
A-COLS
10
10.73194
20
11.56528
30
0
11
10.65694
21
11.56528
31
0
0
LINE
8
A-COLS
10
10.65694
20
11.56528
30
0
11
10.65694
21
11.54861
31
0
0
LINE
8
A-COLS
10
10.65694
20
11.54861
30
0
11
10.6875
21
11.54861
31
0
0
LINE
8
A-COLS
10
10.6875
20
11.54861
30
0
11
10.6875
21
11.50694
31
0
0
LINE
8
A-COLS
10
10.6875
20
11.50694
30
0
11
10.65694
21
11.50694
31
0
0
LINE
8
A-COLS
10
10.65694
20
11.50694
30
0
11
10.65694
21
11.49028
31
0
0
LINE
8
A-COLS
10
10.63194
20
15.21528
30
0
11
10.75694
21
15.21528
31
0
0
LINE
8
A-COLS
10
10.75694
20
15.21528
30
0
11
10.75694
21
15.34028
31
0
0
LINE
8
A-COLS
10
10.75694
20
15.34028
30
0
11
10.63194
21
15.34028
31
0
0
LINE
8
A-COLS
10
10.63194
20
15.34028
30
0
11
10.63194
21
15.21528
31
0
0
LINE
8
A-COLS
10
10.65694
20
15.24028
30
0
11
10.73194
21
15.24028
31
0
0
LINE
8
A-COLS
10
10.73194
20
15.24028
30
0
11
10.73194
21
15.25694
31
0
0
LINE
8
A-COLS
10
10.73194
20
15.25694
30
0
11
10.70139
21
15.25694
31
0
0
LINE
8
A-COLS
10
10.70139
20
15.25694
30
0
11
10.70139
21
15.29861
31
0
0
LINE
8
A-COLS
10
10.70139
20
15.29861
30
0
11
10.73194
21
15.29861
31
0
0
LINE
8
A-COLS
10
10.73194
20
15.29861
30
0
11
10.73194
21
15.31528
31
0
0
LINE
8
A-COLS
10
10.73194
20
15.31528
30
0
11
10.65694
21
15.31528
31
0
0
LINE
8
A-COLS
10
10.65694
20
15.31528
30
0
11
10.65694
21
15.29861
31
0
0
LINE
8
A-COLS
10
10.65694
20
15.29861
30
0
11
10.6875
21
15.29861
31
0
0
LINE
8
A-COLS
10
10.6875
20
15.29861
30
0
11
10.6875
21
15.25694
31
0
0
LINE
8
A-COLS
10
10.6875
20
15.25694
30
0
11
10.65694
21
15.25694
31
0
0
LINE
8
A-COLS
10
10.65694
20
15.25694
30
0
11
10.65694
21
15.24028
31
0
0
LINE
8
A-COLS
10
10.63194
20
19.21528
30
0
11
10.75694
21
19.21528
31
0
0
LINE
8
A-COLS
10
10.75694
20
19.21528
30
0
11
10.75694
21
19.34028
31
0
0
LINE
8
A-COLS
10
10.75694
20
19.34028
30
0
11
10.63194
21
19.34028
31
0
0
LINE
8
A-COLS
10
10.63194
20
19.34028
30
0
11
10.63194
21
19.21528
31
0
0
LINE
8
A-COLS
10
10.65694
20
19.24028
30
0
11
10.73194
21
19.24028
31
0
0
LINE
8
A-COLS
10
10.73194
20
19.24028
30
0
11
10.73194
21
19.25694
31
0
0
LINE
8
A-COLS
10
10.73194
20
19.25694
30
0
11
10.70139
21
19.25694
31
0
0
LINE
8
A-COLS
10
10.70139
20
19.25694
30
0
11
10.70139
21
19.29861
31
0
0
LINE
8
A-COLS
10
10.70139
20
19.29861
30
0
11
10.73194
21
19.29861
31
0
0
LINE
8
A-COLS
10
10.73194
20
19.29861
30
0
11
10.73194
21
19.31528
31
0
0
LINE
8
A-COLS
10
10.73194
20
19.31528
30
0
11
10.65694
21
19.31528
31
0
0
LINE
8
A-COLS
10
10.65694
20
19.31528
30
0
11
10.65694
21
19.29861
31
0
0
LINE
8
A-COLS
10
10.65694
20
19.29861
30
0
11
10.6875
21
19.29861
31
0
0
LINE
8
A-COLS
10
10.6875
20
19.29861
30
0
11
10.6875
21
19.25694
31
0
0
LINE
8
A-COLS
10
10.6875
20
19.25694
30
0
11
10.65694
21
19.25694
31
0
0
LINE
8
A-COLS
10
10.65694
20
19.25694
30
0
11
10.65694
21
19.24028
31
0
0
LINE
8
A-COLS
10
14.04861
20
7.71528
30
0
11
14.17361
21
7.71528
31
0
0
LINE
8
A-COLS
10
14.17361
20
7.71528
30
0
11
14.17361
21
7.84028
31
0
0
LINE
8
A-COLS
10
14.17361
20
7.84028
30
0
11
14.04861
21
7.84028
31
0
0
LINE
8
A-COLS
10
14.04861
20
7.84028
30
0
11
14.04861
21
7.71528
31
0
0
LINE
8
A-COLS
10
14.07361
20
7.74028
30
0
11
14.14861
21
7.74028
31
0
0
LINE
8
A-COLS
10
14.14861
20
7.74028
30
0
11
14.14861
21
7.75694
31
0
0
LINE
8
A-COLS
10
14.14861
20
7.75694
30
0
11
14.11806
21
7.75694
31
0
0
LINE
8
A-COLS
10
14.11806
20
7.75694
30
0
11
14.11806
21
7.79861
31
0
0
LINE
8
A-COLS
10
14.11806
20
7.79861
30
0
11
14.14861
21
7.79861
31
0
0
LINE
8
A-COLS
10
14.14861
20
7.79861
30
0
11
14.14861
21
7.81528
31
0
0
LINE
8
A-COLS
10
14.14861
20
7.81528
30
0
11
14.07361
21
7.81528
31
0
0
LINE
8
A-COLS
10
14.07361
20
7.81528
30
0
11
14.07361
21
7.79861
31
0
0
LINE
8
A-COLS
10
14.07361
20
7.79861
30
0
11
14.10417
21
7.79861
31
0
0
LINE
8
A-COLS
10
14.10417
20
7.79861
30
0
11
14.10417
21
7.75694
31
0
0
LINE
8
A-COLS
10
14.10417
20
7.75694
30
0
11
14.07361
21
7.75694
31
0
0
LINE
8
A-COLS
10
14.07361
20
7.75694
30
0
11
14.07361
21
7.74028
31
0
0
LINE
8
A-COLS
10
14.04861
20
11.46528
30
0
11
14.17361
21
11.46528
31
0
0
LINE
8
A-COLS
10
14.17361
20
11.46528
30
0
11
14.17361
21
11.59028
31
0
0
LINE
8
A-COLS
10
14.17361
20
11.59028
30
0
11
14.04861
21
11.59028
31
0
0
LINE
8
A-COLS
10
14.04861
20
11.59028
30
0
11
14.04861
21
11.46528
31
0
0
LINE
8
A-COLS
10
14.07361
20
11.49028
30
0
11
14.14861
21
11.49028
31
0
0
LINE
8
A-COLS
10
14.14861
20
11.49028
30
0
11
14.14861
21
11.50694
31
0
0
LINE
8
A-COLS
10
14.14861
20
11.50694
30
0
11
14.11806
21
11.50694
31
0
0
LINE
8
A-COLS
10
14.11806
20
11.50694
30
0
11
14.11806
21
11.54861
31
0
0
LINE
8
A-COLS
10
14.11806
20
11.54861
30
0
11
14.14861
21
11.54861
31
0
0
LINE
8
A-COLS
10
14.14861
20
11.54861
30
0
11
14.14861
21
11.56528
31
0
0
LINE
8
A-COLS
10
14.14861
20
11.56528
30
0
11
14.07361
21
11.56528
31
0
0
LINE
8
A-COLS
10
14.07361
20
11.56528
30
0
11
14.07361
21
11.54861
31
0
0
LINE
8
A-COLS
10
14.07361
20
11.54861
30
0
11
14.10417
21
11.54861
31
0
0
LINE
8
A-COLS
10
14.10417
20
11.54861
30
0
11
14.10417
21
11.50694
31
0
0
LINE
8
A-COLS
10
14.10417
20
11.50694
30
0
11
14.07361
21
11.50694
31
0
0
LINE
8
A-COLS
10
14.07361
20
11.50694
30
0
11
14.07361
21
11.49028
31
0
0
LINE
8
A-COLS
10
14.04861
20
15.21528
30
0
11
14.17361
21
15.21528
31
0
0
LINE
8
A-COLS
10
14.17361
20
15.21528
30
0
11
14.17361
21
15.34028
31
0
0
LINE
8
A-COLS
10
14.17361
20
15.34028
30
0
11
14.04861
21
15.34028
31
0
0
LINE
8
A-COLS
10
14.04861
20
15.34028
30
0
11
14.04861
21
15.21528
31
0
0
LINE
8
A-COLS
10
14.07361
20
15.24028
30
0
11
14.14861
21
15.24028
31
0
0
LINE
8
A-COLS
10
14.14861
20
15.24028
30
0
11
14.14861
21
15.25694
31
0
0
LINE
8
A-COLS
10
14.14861
20
15.25694
30
0
11
14.11806
21
15.25694
31
0
0
LINE
8
A-COLS
10
14.11806
20
15.25694
30
0
11
14.11806
21
15.29861
31
0
0
LINE
8
A-COLS
10
14.11806
20
15.29861
30
0
11
14.14861
21
15.29861
31
0
0
LINE
8
A-COLS
10
14.14861
20
15.29861
30
0
11
14.14861
21
15.31528
31
0
0
LINE
8
A-COLS
10
14.14861
20
15.31528
30
0
11
14.07361
21
15.31528
31
0
0
LINE
8
A-COLS
10
14.07361
20
15.31528
30
0
11
14.07361
21
15.29861
31
0
0
LINE
8
A-COLS
10
14.07361
20
15.29861
30
0
11
14.10417
21
15.29861
31
0
0
LINE
8
A-COLS
10
14.10417
20
15.29861
30
0
11
14.10417
21
15.25694
31
0
0
LINE
8
A-COLS
10
14.10417
20
15.25694
30
0
11
14.07361
21
15.25694
31
0
0
LINE
8
A-COLS
10
14.07361
20
15.25694
30
0
11
14.07361
21
15.24028
31
0
0
LINE
8
A-COLS
10
14.04861
20
19.21528
30
0
11
14.17361
21
19.21528
31
0
0
LINE
8
A-COLS
10
14.17361
20
19.21528
30
0
11
14.17361
21
19.34028
31
0
0
LINE
8
A-COLS
10
14.17361
20
19.34028
30
0
11
14.04861
21
19.34028
31
0
0
LINE
8
A-COLS
10
14.04861
20
19.34028
30
0
11
14.04861
21
19.21528
31
0
0
LINE
8
A-COLS
10
14.07361
20
19.24028
30
0
11
14.14861
21
19.24028
31
0
0
LINE
8
A-COLS
10
14.14861
20
19.24028
30
0
11
14.14861
21
19.25694
31
0
0
LINE
8
A-COLS
10
14.14861
20
19.25694
30
0
11
14.11806
21
19.25694
31
0
0
LINE
8
A-COLS
10
14.11806
20
19.25694
30
0
11
14.11806
21
19.29861
31
0
0
LINE
8
A-COLS
10
14.11806
20
19.29861
30
0
11
14.14861
21
19.29861
31
0
0
LINE
8
A-COLS
10
14.14861
20
19.29861
30
0
11
14.14861
21
19.31528
31
0
0
LINE
8
A-COLS
10
14.14861
20
19.31528
30
0
11
14.07361
21
19.31528
31
0
0
LINE
8
A-COLS
10
14.07361
20
19.31528
30
0
11
14.07361
21
19.29861
31
0
0
LINE
8
A-COLS
10
14.07361
20
19.29861
30
0
11
14.10417
21
19.29861
31
0
0
LINE
8
A-COLS
10
14.10417
20
19.29861
30
0
11
14.10417
21
19.25694
31
0
0
LINE
8
A-COLS
10
14.10417
20
19.25694
30
0
11
14.07361
21
19.25694
31
0
0
LINE
8
A-COLS
10
14.07361
20
19.25694
30
0
11
14.07361
21
19.24028
31
0
0
LINE
8
A-COLS
10
17.79861
20
7.71528
30
0
11
17.92361
21
7.71528
31
0
0
LINE
8
A-COLS
10
17.92361
20
7.71528
30
0
11
17.92361
21
7.84028
31
0
0
LINE
8
A-COLS
10
17.92361
20
7.84028
30
0
11
17.79861
21
7.84028
31
0
0
LINE
8
A-COLS
10
17.79861
20
7.84028
30
0
11
17.79861
21
7.71528
31
0
0
LINE
8
A-COLS
10
17.82361
20
7.74028
30
0
11
17.89861
21
7.74028
31
0
0
LINE
8
A-COLS
10
17.89861
20
7.74028
30
0
11
17.89861
21
7.75694
31
0
0
LINE
8
A-COLS
10
17.89861
20
7.75694
30
0
11
17.86806
21
7.75694
31
0
0
LINE
8
A-COLS
10
17.86806
20
7.75694
30
0
11
17.86806
21
7.79861
31
0
0
LINE
8
A-COLS
10
17.86806
20
7.79861
30
0
11
17.89861
21
7.79861
31
0
0
LINE
8
A-COLS
10
17.89861
20
7.79861
30
0
11
17.89861
21
7.81528
31
0
0
LINE
8
A-COLS
10
17.89861
20
7.81528
30
0
11
17.82361
21
7.81528
31
0
0
LINE
8
A-COLS
10
17.82361
20
7.81528
30
0
11
17.82361
21
7.79861
31
0
0
LINE
8
A-COLS
10
17.82361
20
7.79861
30
0
11
17.85417
21
7.79861
31
0
0
LINE
8
A-COLS
10
17.85417
20
7.79861
30
0
11
17.85417
21
7.75694
31
0
0
LINE
8
A-COLS
10
17.85417
20
7.75694
30
0
11
17.82361
21
7.75694
31
0
0
LINE
8
A-COLS
10
17.82361
20
7.75694
30
0
11
17.82361
21
7.74028
31
0
0
LINE
8
A-COLS
10
17.79861
20
11.46528
30
0
11
17.92361
21
11.46528
31
0
0
LINE
8
A-COLS
10
17.92361
20
11.46528
30
0
11
17.92361
21
11.59028
31
0
0
LINE
8
A-COLS
10
17.92361
20
11.59028
30
0
11
17.79861
21
11.59028
31
0
0
LINE
8
A-COLS
10
17.79861
20
11.59028
30
0
11
17.79861
21
11.46528
31
0
0
LINE
8
A-COLS
10
17.82361
20
11.49028
30
0
11
17.89861
21
11.49028
31
0
0
LINE
8
A-COLS
10
17.89861
20
11.49028
30
0
11
17.89861
21
11.50694
31
0
0
LINE
8
A-COLS
10
17.89861
20
11.50694
30
0
11
17.86806
21
11.50694
31
0
0
LINE
8
A-COLS
10
17.86806
20
11.50694
30
0
11
17.86806
21
11.54861
31
0
0
LINE
8
A-COLS
10
17.86806
20
11.54861
30
0
11
17.89861
21
11.54861
31
0
0
LINE
8
A-COLS
10
17.89861
20
11.54861
30
0
11
17.89861
21
11.56528
31
0
0
LINE
8
A-COLS
10
17.89861
20
11.56528
30
0
11
17.82361
21
11.56528
31
0
0
LINE
8
A-COLS
10
17.82361
20
11.56528
30
0
11
17.82361
21
11.54861
31
0
0
LINE
8
A-COLS
10
17.82361
20
11.54861
30
0
11
17.85417
21
11.54861
31
0
0
LINE
8
A-COLS
10
17.85417
20
11.54861
30
0
11
17.85417
21
11.50694
31
0
0
LINE
8
A-COLS
10
17.85417
20
11.50694
30
0
11
17.82361
21
11.50694
31
0
0
LINE
8
A-COLS
10
17.82361
20
11.50694
30
0
11
17.82361
21
11.49028
31
0
0
LINE
8
A-COLS
10
17.79861
20
15.21528
30
0
11
17.92361
21
15.21528
31
0
0
LINE
8
A-COLS
10
17.92361
20
15.21528
30
0
11
17.92361
21
15.34028
31
0
0
LINE
8
A-COLS
10
17.92361
20
15.34028
30
0
11
17.79861
21
15.34028
31
0
0
LINE
8
A-COLS
10
17.79861
20
15.34028
30
0
11
17.79861
21
15.21528
31
0
0
LINE
8
A-COLS
10
17.82361
20
15.24028
30
0
11
17.89861
21
15.24028
31
0
0
LINE
8
A-COLS
10
17.89861
20
15.24028
30
0
11
17.89861
21
15.25694
31
0
0
LINE
8
A-COLS
10
17.89861
20
15.25694
30
0
11
17.86806
21
15.25694
31
0
0
LINE
8
A-COLS
10
17.86806
20
15.25694
30
0
11
17.86806
21
15.29861
31
0
0
LINE
8
A-COLS
10
17.86806
20
15.29861
30
0
11
17.89861
21
15.29861
31
0
0
LINE
8
A-COLS
10
17.89861
20
15.29861
30
0
11
17.89861
21
15.31528
31
0
0
LINE
8
A-COLS
10
17.89861
20
15.31528
30
0
11
17.82361
21
15.31528
31
0
0
LINE
8
A-COLS
10
17.82361
20
15.31528
30
0
11
17.82361
21
15.29861
31
0
0
LINE
8
A-COLS
10
17.82361
20
15.29861
30
0
11
17.85417
21
15.29861
31
0
0
LINE
8
A-COLS
10
17.85417
20
15.29861
30
0
11
17.85417
21
15.25694
31
0
0
LINE
8
A-COLS
10
17.85417
20
15.25694
30
0
11
17.82361
21
15.25694
31
0
0
LINE
8
A-COLS
10
17.82361
20
15.25694
30
0
11
17.82361
21
15.24028
31
0
0
LINE
8
A-COLS
10
17.79861
20
19.21528
30
0
11
17.92361
21
19.21528
31
0
0
LINE
8
A-COLS
10
17.92361
20
19.21528
30
0
11
17.92361
21
19.34028
31
0
0
LINE
8
A-COLS
10
17.92361
20
19.34028
30
0
11
17.79861
21
19.34028
31
0
0
LINE
8
A-COLS
10
17.79861
20
19.34028
30
0
11
17.79861
21
19.21528
31
0
0
LINE
8
A-COLS
10
17.82361
20
19.24028
30
0
11
17.89861
21
19.24028
31
0
0
LINE
8
A-COLS
10
17.89861
20
19.24028
30
0
11
17.89861
21
19.25694
31
0
0
LINE
8
A-COLS
10
17.89861
20
19.25694
30
0
11
17.86806
21
19.25694
31
0
0
LINE
8
A-COLS
10
17.86806
20
19.25694
30
0
11
17.86806
21
19.29861
31
0
0
LINE
8
A-COLS
10
17.86806
20
19.29861
30
0
11
17.89861
21
19.29861
31
0
0
LINE
8
A-COLS
10
17.89861
20
19.29861
30
0
11
17.89861
21
19.31528
31
0
0
LINE
8
A-COLS
10
17.89861
20
19.31528
30
0
11
17.82361
21
19.31528
31
0
0
LINE
8
A-COLS
10
17.82361
20
19.31528
30
0
11
17.82361
21
19.29861
31
0
0
LINE
8
A-COLS
10
17.82361
20
19.29861
30
0
11
17.85417
21
19.29861
31
0
0
LINE
8
A-COLS
10
17.85417
20
19.29861
30
0
11
17.85417
21
19.25694
31
0
0
LINE
8
A-COLS
10
17.85417
20
19.25694
30
0
11
17.82361
21
19.25694
31
0
0
LINE
8
A-COLS
10
17.82361
20
19.25694
30
0
11
17.82361
21
19.24028
31
0
0
LINE
8
A-COLS
10
21.54861
20
7.71528
30
0
11
21.67361
21
7.71528
31
0
0
LINE
8
A-COLS
10
21.67361
20
7.71528
30
0
11
21.67361
21
7.84028
31
0
0
LINE
8
A-COLS
10
21.67361
20
7.84028
30
0
11
21.54861
21
7.84028
31
0
0
LINE
8
A-COLS
10
21.54861
20
7.84028
30
0
11
21.54861
21
7.71528
31
0
0
LINE
8
A-COLS
10
21.57361
20
7.74028
30
0
11
21.64861
21
7.74028
31
0
0
LINE
8
A-COLS
10
21.64861
20
7.74028
30
0
11
21.64861
21
7.75694
31
0
0
LINE
8
A-COLS
10
21.64861
20
7.75694
30
0
11
21.61806
21
7.75694
31
0
0
LINE
8
A-COLS
10
21.61806
20
7.75694
30
0
11
21.61806
21
7.79861
31
0
0
LINE
8
A-COLS
10
21.61806
20
7.79861
30
0
11
21.64861
21
7.79861
31
0
0
LINE
8
A-COLS
10
21.64861
20
7.79861
30
0
11
21.64861
21
7.81528
31
0
0
LINE
8
A-COLS
10
21.64861
20
7.81528
30
0
11
21.57361
21
7.81528
31
0
0
LINE
8
A-COLS
10
21.57361
20
7.81528
30
0
11
21.57361
21
7.79861
31
0
0
LINE
8
A-COLS
10
21.57361
20
7.79861
30
0
11
21.60417
21
7.79861
31
0
0
LINE
8
A-COLS
10
21.60417
20
7.79861
30
0
11
21.60417
21
7.75694
31
0
0
LINE
8
A-COLS
10
21.60417
20
7.75694
30
0
11
21.57361
21
7.75694
31
0
0
LINE
8
A-COLS
10
21.57361
20
7.75694
30
0
11
21.57361
21
7.74028
31
0
0
LINE
8
A-COLS
10
21.54861
20
11.46528
30
0
11
21.67361
21
11.46528
31
0
0
LINE
8
A-COLS
10
21.67361
20
11.46528
30
0
11
21.67361
21
11.59028
31
0
0
LINE
8
A-COLS
10
21.67361
20
11.59028
30
0
11
21.54861
21
11.59028
31
0
0
LINE
8
A-COLS
10
21.54861
20
11.59028
30
0
11
21.54861
21
11.46528
31
0
0
LINE
8
A-COLS
10
21.57361
20
11.49028
30
0
11
21.64861
21
11.49028
31
0
0
LINE
8
A-COLS
10
21.64861
20
11.49028
30
0
11
21.64861
21
11.50694
31
0
0
LINE
8
A-COLS
10
21.64861
20
11.50694
30
0
11
21.61806
21
11.50694
31
0
0
LINE
8
A-COLS
10
21.61806
20
11.50694
30
0
11
21.61806
21
11.54861
31
0
0
LINE
8
A-COLS
10
21.61806
20
11.54861
30
0
11
21.64861
21
11.54861
31
0
0
LINE
8
A-COLS
10
21.64861
20
11.54861
30
0
11
21.64861
21
11.56528
31
0
0
LINE
8
A-COLS
10
21.64861
20
11.56528
30
0
11
21.57361
21
11.56528
31
0
0
LINE
8
A-COLS
10
21.57361
20
11.56528
30
0
11
21.57361
21
11.54861
31
0
0
LINE
8
A-COLS
10
21.57361
20
11.54861
30
0
11
21.60417
21
11.54861
31
0
0
LINE
8
A-COLS
10
21.60417
20
11.54861
30
0
11
21.60417
21
11.50694
31
0
0
LINE
8
A-COLS
10
21.60417
20
11.50694
30
0
11
21.57361
21
11.50694
31
0
0
LINE
8
A-COLS
10
21.57361
20
11.50694
30
0
11
21.57361
21
11.49028
31
0
0
LINE
8
A-COLS
10
21.54861
20
15.21528
30
0
11
21.67361
21
15.21528
31
0
0
LINE
8
A-COLS
10
21.67361
20
15.21528
30
0
11
21.67361
21
15.34028
31
0
0
LINE
8
A-COLS
10
21.67361
20
15.34028
30
0
11
21.54861
21
15.34028
31
0
0
LINE
8
A-COLS
10
21.54861
20
15.34028
30
0
11
21.54861
21
15.21528
31
0
0
LINE
8
A-COLS
10
21.57361
20
15.24028
30
0
11
21.64861
21
15.24028
31
0
0
LINE
8
A-COLS
10
21.64861
20
15.24028
30
0
11
21.64861
21
15.25694
31
0
0
LINE
8
A-COLS
10
21.64861
20
15.25694
30
0
11
21.61806
21
15.25694
31
0
0
LINE
8
A-COLS
10
21.61806
20
15.25694
30
0
11
21.61806
21
15.29861
31
0
0
LINE
8
A-COLS
10
21.61806
20
15.29861
30
0
11
21.64861
21
15.29861
31
0
0
LINE
8
A-COLS
10
21.64861
20
15.29861
30
0
11
21.64861
21
15.31528
31
0
0
LINE
8
A-COLS
10
21.64861
20
15.31528
30
0
11
21.57361
21
15.31528
31
0
0
LINE
8
A-COLS
10
21.57361
20
15.31528
30
0
11
21.57361
21
15.29861
31
0
0
LINE
8
A-COLS
10
21.57361
20
15.29861
30
0
11
21.60417
21
15.29861
31
0
0
LINE
8
A-COLS
10
21.60417
20
15.29861
30
0
11
21.60417
21
15.25694
31
0
0
LINE
8
A-COLS
10
21.60417
20
15.25694
30
0
11
21.57361
21
15.25694
31
0
0
LINE
8
A-COLS
10
21.57361
20
15.25694
30
0
11
21.57361
21
15.24028
31
0
0
LINE
8
A-COLS
10
21.54861
20
19.21528
30
0
11
21.67361
21
19.21528
31
0
0
LINE
8
A-COLS
10
21.67361
20
19.21528
30
0
11
21.67361
21
19.34028
31
0
0
LINE
8
A-COLS
10
21.67361
20
19.34028
30
0
11
21.54861
21
19.34028
31
0
0
LINE
8
A-COLS
10
21.54861
20
19.34028
30
0
11
21.54861
21
19.21528
31
0
0
LINE
8
A-COLS
10
21.57361
20
19.24028
30
0
11
21.64861
21
19.24028
31
0
0
LINE
8
A-COLS
10
21.64861
20
19.24028
30
0
11
21.64861
21
19.25694
31
0
0
LINE
8
A-COLS
10
21.64861
20
19.25694
30
0
11
21.61806
21
19.25694
31
0
0
LINE
8
A-COLS
10
21.61806
20
19.25694
30
0
11
21.61806
21
19.29861
31
0
0
LINE
8
A-COLS
10
21.61806
20
19.29861
30
0
11
21.64861
21
19.29861
31
0
0
LINE
8
A-COLS
10
21.64861
20
19.29861
30
0
11
21.64861
21
19.31528
31
0
0
LINE
8
A-COLS
10
21.64861
20
19.31528
30
0
11
21.57361
21
19.31528
31
0
0
LINE
8
A-COLS
10
21.57361
20
19.31528
30
0
11
21.57361
21
19.29861
31
0
0
LINE
8
A-COLS
10
21.57361
20
19.29861
30
0
11
21.60417
21
19.29861
31
0
0
LINE
8
A-COLS
10
21.60417
20
19.29861
30
0
11
21.60417
21
19.25694
31
0
0
LINE
8
A-COLS
10
21.60417
20
19.25694
30
0
11
21.57361
21
19.25694
31
0
0
LINE
8
A-COLS
10
21.57361
20
19.25694
30
0
11
21.57361
21
19.24028
31
0
0
LINE
8
A-COLS
10
25.29861
20
7.71528
30
0
11
25.42361
21
7.71528
31
0
0
LINE
8
A-COLS
10
25.42361
20
7.71528
30
0
11
25.42361
21
7.84028
31
0
0
LINE
8
A-COLS
10
25.42361
20
7.84028
30
0
11
25.29861
21
7.84028
31
0
0
LINE
8
A-COLS
10
25.29861
20
7.84028
30
0
11
25.29861
21
7.71528
31
0
0
LINE
8
A-COLS
10
25.32361
20
7.74028
30
0
11
25.39861
21
7.74028
31
0
0
LINE
8
A-COLS
10
25.39861
20
7.74028
30
0
11
25.39861
21
7.75694
31
0
0
LINE
8
A-COLS
10
25.39861
20
7.75694
30
0
11
25.36806
21
7.75694
31
0
0
LINE
8
A-COLS
10
25.36806
20
7.75694
30
0
11
25.36806
21
7.79861
31
0
0
LINE
8
A-COLS
10
25.36806
20
7.79861
30
0
11
25.39861
21
7.79861
31
0
0
LINE
8
A-COLS
10
25.39861
20
7.79861
30
0
11
25.39861
21
7.81528
31
0
0
LINE
8
A-COLS
10
25.39861
20
7.81528
30
0
11
25.32361
21
7.81528
31
0
0
LINE
8
A-COLS
10
25.32361
20
7.81528
30
0
11
25.32361
21
7.79861
31
0
0
LINE
8
A-COLS
10
25.32361
20
7.79861
30
0
11
25.35417
21
7.79861
31
0
0
LINE
8
A-COLS
10
25.35417
20
7.79861
30
0
11
25.35417
21
7.75694
31
0
0
LINE
8
A-COLS
10
25.35417
20
7.75694
30
0
11
25.32361
21
7.75694
31
0
0
LINE
8
A-COLS
10
25.32361
20
7.75694
30
0
11
25.32361
21
7.74028
31
0
0
LINE
8
A-COLS
10
25.29861
20
11.46528
30
0
11
25.42361
21
11.46528
31
0
0
LINE
8
A-COLS
10
25.42361
20
11.46528
30
0
11
25.42361
21
11.59028
31
0
0
LINE
8
A-COLS
10
25.42361
20
11.59028
30
0
11
25.29861
21
11.59028
31
0
0
LINE
8
A-COLS
10
25.29861
20
11.59028
30
0
11
25.29861
21
11.46528
31
0
0
LINE
8
A-COLS
10
25.32361
20
11.49028
30
0
11
25.39861
21
11.49028
31
0
0
LINE
8
A-COLS
10
25.39861
20
11.49028
30
0
11
25.39861
21
11.50694
31
0
0
LINE
8
A-COLS
10
25.39861
20
11.50694
30
0
11
25.36806
21
11.50694
31
0
0
LINE
8
A-COLS
10
25.36806
20
11.50694
30
0
11
25.36806
21
11.54861
31
0
0
LINE
8
A-COLS
10
25.36806
20
11.54861
30
0
11
25.39861
21
11.54861
31
0
0
LINE
8
A-COLS
10
25.39861
20
11.54861
30
0
11
25.39861
21
11.56528
31
0
0
LINE
8
A-COLS
10
25.39861
20
11.56528
30
0
11
25.32361
21
11.56528
31
0
0
LINE
8
A-COLS
10
25.32361
20
11.56528
30
0
11
25.32361
21
11.54861
31
0
0
LINE
8
A-COLS
10
25.32361
20
11.54861
30
0
11
25.35417
21
11.54861
31
0
0
LINE
8
A-COLS
10
25.35417
20
11.54861
30
0
11
25.35417
21
11.50694
31
0
0
LINE
8
A-COLS
10
25.35417
20
11.50694
30
0
11
25.32361
21
11.50694
31
0
0
LINE
8
A-COLS
10
25.32361
20
11.50694
30
0
11
25.32361
21
11.49028
31
0
0
LINE
8
A-COLS
10
25.29861
20
15.21528
30
0
11
25.42361
21
15.21528
31
0
0
LINE
8
A-COLS
10
25.42361
20
15.21528
30
0
11
25.42361
21
15.34028
31
0
0
LINE
8
A-COLS
10
25.42361
20
15.34028
30
0
11
25.29861
21
15.34028
31
0
0
LINE
8
A-COLS
10
25.29861
20
15.34028
30
0
11
25.29861
21
15.21528
31
0
0
LINE
8
A-COLS
10
25.32361
20
15.24028
30
0
11
25.39861
21
15.24028
31
0
0
LINE
8
A-COLS
10
25.39861
20
15.24028
30
0
11
25.39861
21
15.25694
31
0
0
LINE
8
A-COLS
10
25.39861
20
15.25694
30
0
11
25.36806
21
15.25694
31
0
0
LINE
8
A-COLS
10
25.36806
20
15.25694
30
0
11
25.36806
21
15.29861
31
0
0
LINE
8
A-COLS
10
25.36806
20
15.29861
30
0
11
25.39861
21
15.29861
31
0
0
LINE
8
A-COLS
10
25.39861
20
15.29861
30
0
11
25.39861
21
15.31528
31
0
0
LINE
8
A-COLS
10
25.39861
20
15.31528
30
0
11
25.32361
21
15.31528
31
0
0
LINE
8
A-COLS
10
25.32361
20
15.31528
30
0
11
25.32361
21
15.29861
31
0
0
LINE
8
A-COLS
10
25.32361
20
15.29861
30
0
11
25.35417
21
15.29861
31
0
0
LINE
8
A-COLS
10
25.35417
20
15.29861
30
0
11
25.35417
21
15.25694
31
0
0
LINE
8
A-COLS
10
25.35417
20
15.25694
30
0
11
25.32361
21
15.25694
31
0
0
LINE
8
A-COLS
10
25.32361
20
15.25694
30
0
11
25.32361
21
15.24028
31
0
0
LINE
8
A-COLS
10
25.29861
20
19.21528
30
0
11
25.42361
21
19.21528
31
0
0
LINE
8
A-COLS
10
25.42361
20
19.21528
30
0
11
25.42361
21
19.34028
31
0
0
LINE
8
A-COLS
10
25.42361
20
19.34028
30
0
11
25.29861
21
19.34028
31
0
0
LINE
8
A-COLS
10
25.29861
20
19.34028
30
0
11
25.29861
21
19.21528
31
0
0
LINE
8
A-COLS
10
25.32361
20
19.24028
30
0
11
25.39861
21
19.24028
31
0
0
LINE
8
A-COLS
10
25.39861
20
19.24028
30
0
11
25.39861
21
19.25694
31
0
0
LINE
8
A-COLS
10
25.39861
20
19.25694
30
0
11
25.36806
21
19.25694
31
0
0
LINE
8
A-COLS
10
25.36806
20
19.25694
30
0
11
25.36806
21
19.29861
31
0
0
LINE
8
A-COLS
10
25.36806
20
19.29861
30
0
11
25.39861
21
19.29861
31
0
0
LINE
8
A-COLS
10
25.39861
20
19.29861
30
0
11
25.39861
21
19.31528
31
0
0
LINE
8
A-COLS
10
25.39861
20
19.31528
30
0
11
25.32361
21
19.31528
31
0
0
LINE
8
A-COLS
10
25.32361
20
19.31528
30
0
11
25.32361
21
19.29861
31
0
0
LINE
8
A-COLS
10
25.32361
20
19.29861
30
0
11
25.35417
21
19.29861
31
0
0
LINE
8
A-COLS
10
25.35417
20
19.29861
30
0
11
25.35417
21
19.25694
31
0
0
LINE
8
A-COLS
10
25.35417
20
19.25694
30
0
11
25.32361
21
19.25694
31
0
0
LINE
8
A-COLS
10
25.32361
20
19.25694
30
0
11
25.32361
21
19.24028
31
0
0
LINE
8
A-COLS
10
29.04861
20
7.71528
30
0
11
29.17361
21
7.71528
31
0
0
LINE
8
A-COLS
10
29.17361
20
7.71528
30
0
11
29.17361
21
7.84028
31
0
0
LINE
8
A-COLS
10
29.17361
20
7.84028
30
0
11
29.04861
21
7.84028
31
0
0
LINE
8
A-COLS
10
29.04861
20
7.84028
30
0
11
29.04861
21
7.71528
31
0
0
LINE
8
A-COLS
10
29.07361
20
7.74028
30
0
11
29.14861
21
7.74028
31
0
0
LINE
8
A-COLS
10
29.14861
20
7.74028
30
0
11
29.14861
21
7.75694
31
0
0
LINE
8
A-COLS
10
29.14861
20
7.75694
30
0
11
29.11806
21
7.75694
31
0
0
LINE
8
A-COLS
10
29.11806
20
7.75694
30
0
11
29.11806
21
7.79861
31
0
0
LINE
8
A-COLS
10
29.11806
20
7.79861
30
0
11
29.14861
21
7.79861
31
0
0
LINE
8
A-COLS
10
29.14861
20
7.79861
30
0
11
29.14861
21
7.81528
31
0
0
LINE
8
A-COLS
10
29.14861
20
7.81528
30
0
11
29.07361
21
7.81528
31
0
0
LINE
8
A-COLS
10
29.07361
20
7.81528
30
0
11
29.07361
21
7.79861
31
0
0
LINE
8
A-COLS
10
29.07361
20
7.79861
30
0
11
29.10417
21
7.79861
31
0
0
LINE
8
A-COLS
10
29.10417
20
7.79861
30
0
11
29.10417
21
7.75694
31
0
0
LINE
8
A-COLS
10
29.10417
20
7.75694
30
0
11
29.07361
21
7.75694
31
0
0
LINE
8
A-COLS
10
29.07361
20
7.75694
30
0
11
29.07361
21
7.74028
31
0
0
LINE
8
A-COLS
10
29.04861
20
11.46528
30
0
11
29.17361
21
11.46528
31
0
0
LINE
8
A-COLS
10
29.17361
20
11.46528
30
0
11
29.17361
21
11.59028
31
0
0
LINE
8
A-COLS
10
29.17361
20
11.59028
30
0
11
29.04861
21
11.59028
31
0
0
LINE
8
A-COLS
10
29.04861
20
11.59028
30
0
11
29.04861
21
11.46528
31
0
0
LINE
8
A-COLS
10
29.07361
20
11.49028
30
0
11
29.14861
21
11.49028
31
0
0
LINE
8
A-COLS
10
29.14861
20
11.49028
30
0
11
29.14861
21
11.50694
31
0
0
LINE
8
A-COLS
10
29.14861
20
11.50694
30
0
11
29.11806
21
11.50694
31
0
0
LINE
8
A-COLS
10
29.11806
20
11.50694
30
0
11
29.11806
21
11.54861
31
0
0
LINE
8
A-COLS
10
29.11806
20
11.54861
30
0
11
29.14861
21
11.54861
31
0
0
LINE
8
A-COLS
10
29.14861
20
11.54861
30
0
11
29.14861
21
11.56528
31
0
0
LINE
8
A-COLS
10
29.14861
20
11.56528
30
0
11
29.07361
21
11.56528
31
0
0
LINE
8
A-COLS
10
29.07361
20
11.56528
30
0
11
29.07361
21
11.54861
31
0
0
LINE
8
A-COLS
10
29.07361
20
11.54861
30
0
11
29.10417
21
11.54861
31
0
0
LINE
8
A-COLS
10
29.10417
20
11.54861
30
0
11
29.10417
21
11.50694
31
0
0
LINE
8
A-COLS
10
29.10417
20
11.50694
30
0
11
29.07361
21
11.50694
31
0
0
LINE
8
A-COLS
10
29.07361
20
11.50694
30
0
11
29.07361
21
11.49028
31
0
0
LINE
8
A-COLS
10
29.04861
20
15.21528
30
0
11
29.17361
21
15.21528
31
0
0
LINE
8
A-COLS
10
29.17361
20
15.21528
30
0
11
29.17361
21
15.34028
31
0
0
LINE
8
A-COLS
10
29.17361
20
15.34028
30
0
11
29.04861
21
15.34028
31
0
0
LINE
8
A-COLS
10
29.04861
20
15.34028
30
0
11
29.04861
21
15.21528
31
0
0
LINE
8
A-COLS
10
29.07361
20
15.24028
30
0
11
29.14861
21
15.24028
31
0
0
LINE
8
A-COLS
10
29.14861
20
15.24028
30
0
11
29.14861
21
15.25694
31
0
0
LINE
8
A-COLS
10
29.14861
20
15.25694
30
0
11
29.11806
21
15.25694
31
0
0
LINE
8
A-COLS
10
29.11806
20
15.25694
30
0
11
29.11806
21
15.29861
31
0
0
LINE
8
A-COLS
10
29.11806
20
15.29861
30
0
11
29.14861
21
15.29861
31
0
0
LINE
8
A-COLS
10
29.14861
20
15.29861
30
0
11
29.14861
21
15.31528
31
0
0
LINE
8
A-COLS
10
29.14861
20
15.31528
30
0
11
29.07361
21
15.31528
31
0
0
LINE
8
A-COLS
10
29.07361
20
15.31528
30
0
11
29.07361
21
15.29861
31
0
0
LINE
8
A-COLS
10
29.07361
20
15.29861
30
0
11
29.10417
21
15.29861
31
0
0
LINE
8
A-COLS
10
29.10417
20
15.29861
30
0
11
29.10417
21
15.25694
31
0
0
LINE
8
A-COLS
10
29.10417
20
15.25694
30
0
11
29.07361
21
15.25694
31
0
0
LINE
8
A-COLS
10
29.07361
20
15.25694
30
0
11
29.07361
21
15.24028
31
0
0
LINE
8
A-COLS
10
29.04861
20
19.21528
30
0
11
29.17361
21
19.21528
31
0
0
LINE
8
A-COLS
10
29.17361
20
19.21528
30
0
11
29.17361
21
19.34028
31
0
0
LINE
8
A-COLS
10
29.17361
20
19.34028
30
0
11
29.04861
21
19.34028
31
0
0
LINE
8
A-COLS
10
29.04861
20
19.34028
30
0
11
29.04861
21
19.21528
31
0
0
LINE
8
A-COLS
10
29.07361
20
19.24028
30
0
11
29.14861
21
19.24028
31
0
0
LINE
8
A-COLS
10
29.14861
20
19.24028
30
0
11
29.14861
21
19.25694
31
0
0
LINE
8
A-COLS
10
29.14861
20
19.25694
30
0
11
29.11806
21
19.25694
31
0
0
LINE
8
A-COLS
10
29.11806
20
19.25694
30
0
11
29.11806
21
19.29861
31
0
0
LINE
8
A-COLS
10
29.11806
20
19.29861
30
0
11
29.14861
21
19.29861
31
0
0
LINE
8
A-COLS
10
29.14861
20
19.29861
30
0
11
29.14861
21
19.31528
31
0
0
LINE
8
A-COLS
10
29.14861
20
19.31528
30
0
11
29.07361
21
19.31528
31
0
0
LINE
8
A-COLS
10
29.07361
20
19.31528
30
0
11
29.07361
21
19.29861
31
0
0
LINE
8
A-COLS
10
29.07361
20
19.29861
30
0
11
29.10417
21
19.29861
31
0
0
LINE
8
A-COLS
10
29.10417
20
19.29861
30
0
11
29.10417
21
19.25694
31
0
0
LINE
8
A-COLS
10
29.10417
20
19.25694
30
0
11
29.07361
21
19.25694
31
0
0
LINE
8
A-COLS
10
29.07361
20
19.25694
30
0
11
29.07361
21
19.24028
31
0
0
LINE
8
S-SLAB
10
3.06944
20
7.65278
30
0
11
29.23569
21
7.65278
31
0
0
LINE
8
S-SLAB
10
29.23569
20
7.65278
30
0
11
29.23569
21
19.40278
31
0
0
LINE
8
S-SLAB
10
29.23569
20
19.40278
30
0
11
3.06944
21
19.40278
31
0
0
LINE
8
S-SLAB
10
3.06944
20
19.40278
30
0
11
3.06944
21
7.65278
31
0
0
LINE
8
S-SLAB
10
3.10069
20
7.68403
30
0
11
29.20444
21
7.68403
31
0
0
LINE
8
S-SLAB
10
29.20444
20
7.68403
30
0
11
29.20444
21
19.37153
31
0
0
LINE
8
S-SLAB
10
29.20444
20
19.37153
30
0
11
3.10069
21
19.37153
31
0
0
LINE
8
S-SLAB
10
3.10069
20
19.37153
30
0
11
3.10069
21
7.68403
31
0
0
LINE
8
A-ANNO-DIMS
10
3.19444
20
6.65278
30
0
11
29.11069
21
6.65278
31
0
0
LINE
8
A-ANNO-DIMS
10
3.19444
20
7.625
30
0
11
3.19444
21
6.61111
31
0
0
LINE
8
A-ANNO-DIMS
10
3.16989
20
6.62823
30
0
11
3.219
21
6.67733
31
0
0
LINE
8
A-ANNO-DIMS
10
29.11069
20
7.625
30
0
11
29.11069
21
6.61111
31
0
0
LINE
8
A-ANNO-DIMS
10
29.08614
20
6.62823
30
0
11
29.13525
21
6.67733
31
0
0
TEXT
8
A-ANNO-DIMS
10
16.15257
20
6.68056
30
0
40
0.0675
1
207'-3 15/16"
50
0
72
1
11
16.15257
21
6.68056
31
0
0
LINE
8
A-ANNO-DIMS
10
3.19444
20
7.15278
30
0
11
6.94444
21
7.15278
31
0
0
LINE
8
A-ANNO-DIMS
10
3.19444
20
7.625
30
0
11
3.19444
21
7.11111
31
0
0
LINE
8
A-ANNO-DIMS
10
3.16989
20
7.12823
30
0
11
3.219
21
7.17733
31
0
0
LINE
8
A-ANNO-DIMS
10
6.94444
20
7.625
30
0
11
6.94444
21
7.11111
31
0
0
LINE
8
A-ANNO-DIMS
10
6.91989
20
7.12823
30
0
11
6.969
21
7.17733
31
0
0
TEXT
8
A-ANNO-DIMS
10
5.06944
20
7.18056
30
0
40
0.0675
1
30'-0"
50
0
72
1
11
5.06944
21
7.18056
31
0
0
LINE
8
A-ANNO-DIMS
10
6.94444
20
7.15278
30
0
11
10.69444
21
7.15278
31
0
0
LINE
8
A-ANNO-DIMS
10
6.94444
20
7.625
30
0
11
6.94444
21
7.11111
31
0
0
LINE
8
A-ANNO-DIMS
10
6.91989
20
7.12823
30
0
11
6.969
21
7.17733
31
0
0
LINE
8
A-ANNO-DIMS
10
10.69444
20
7.625
30
0
11
10.69444
21
7.11111
31
0
0
LINE
8
A-ANNO-DIMS
10
10.66989
20
7.12823
30
0
11
10.719
21
7.17733
31
0
0
TEXT
8
A-ANNO-DIMS
10
8.81944
20
7.18056
30
0
40
0.0675
1
30'-0"
50
0
72
1
11
8.81944
21
7.18056
31
0
0
LINE
8
A-ANNO-DIMS
10
10.69444
20
7.15278
30
0
11
14.11069
21
7.15278
31
0
0
LINE
8
A-ANNO-DIMS
10
10.69444
20
7.625
30
0
11
10.69444
21
7.11111
31
0
0
LINE
8
A-ANNO-DIMS
10
10.66989
20
7.12823
30
0
11
10.719
21
7.17733
31
0
0
LINE
8
A-ANNO-DIMS
10
14.11069
20
7.625
30
0
11
14.11069
21
7.11111
31
0
0
LINE
8
A-ANNO-DIMS
10
14.08614
20
7.12823
30
0
11
14.13525
21
7.17733
31
0
0
TEXT
8
A-ANNO-DIMS
10
12.40257
20
7.18056
30
0
40
0.0675
1
27'-3 15/16"
50
0
72
1
11
12.40257
21
7.18056
31
0
0
LINE
8
A-ANNO-SYMB
10
8.25
20
4.63889
30
0
11
8.24605
21
4.67808
31
0
0
LINE
8
A-ANNO-SYMB
10
8.24605
20
4.67808
30
0
11
8.23472
21
4.71458
31
0
0
LINE
8
A-ANNO-SYMB
10
8.23472
20
4.71458
30
0
11
8.21679
21
4.7476
31
0
0
LINE
8
A-ANNO-SYMB
10
8.21679
20
4.7476
30
0
11
8.19305
21
4.77638
31
0
0
LINE
8
A-ANNO-SYMB
10
8.19305
20
4.77638
30
0
11
8.16427
21
4.80013
31
0
0
LINE
8
A-ANNO-SYMB
10
8.16427
20
4.80013
30
0
11
8.13124
21
4.81805
31
0
0
LINE
8
A-ANNO-SYMB
10
8.13124
20
4.81805
30
0
11
8.09474
21
4.82938
31
0
0
LINE
8
A-ANNO-SYMB
10
8.09474
20
4.82938
30
0
11
8.05556
21
4.83333
31
0
0
LINE
8
A-ANNO-SYMB
10
8.05556
20
4.83333
30
0
11
8.01637
21
4.82938
31
0
0
LINE
8
A-ANNO-SYMB
10
8.01637
20
4.82938
30
0
11
7.97987
21
4.81805
31
0
0
LINE
8
A-ANNO-SYMB
10
7.97987
20
4.81805
30
0
11
7.94684
21
4.80013
31
0
0
LINE
8
A-ANNO-SYMB
10
7.94684
20
4.80013
30
0
11
7.91806
21
4.77638
31
0
0
LINE
8
A-ANNO-SYMB
10
7.91806
20
4.77638
30
0
11
7.89432
21
4.7476
31
0
0
LINE
8
A-ANNO-SYMB
10
7.89432
20
4.7476
30
0
11
7.87639
21
4.71458
31
0
0
LINE
8
A-ANNO-SYMB
10
7.87639
20
4.71458
30
0
11
7.86506
21
4.67808
31
0
0
LINE
8
A-ANNO-SYMB
10
7.86506
20
4.67808
30
0
11
7.86111
21
4.63889
31
0
0
LINE
8
A-ANNO-SYMB
10
7.86111
20
4.63889
30
0
11
7.86506
21
4.5997
31
0
0
LINE
8
A-ANNO-SYMB
10
7.86506
20
4.5997
30
0
11
7.87639
21
4.5632
31
0
0
LINE
8
A-ANNO-SYMB
10
7.87639
20
4.5632
30
0
11
7.89432
21
4.53017
31
0
0
LINE
8
A-ANNO-SYMB
10
7.89432
20
4.53017
30
0
11
7.91806
21
4.5014
31
0
0
LINE
8
A-ANNO-SYMB
10
7.91806
20
4.5014
30
0
11
7.94684
21
4.47765
31
0
0
LINE
8
A-ANNO-SYMB
10
7.94684
20
4.47765
30
0
11
7.97987
21
4.45972
31
0
0
LINE
8
A-ANNO-SYMB
10
7.97987
20
4.45972
30
0
11
8.01637
21
4.44839
31
0
0
LINE
8
A-ANNO-SYMB
10
8.01637
20
4.44839
30
0
11
8.05556
21
4.44444
31
0
0
LINE
8
A-ANNO-SYMB
10
8.05556
20
4.44444
30
0
11
8.09474
21
4.44839
31
0
0
LINE
8
A-ANNO-SYMB
10
8.09474
20
4.44839
30
0
11
8.13124
21
4.45972
31
0
0
LINE
8
A-ANNO-SYMB
10
8.13124
20
4.45972
30
0
11
8.16427
21
4.47765
31
0
0
LINE
8
A-ANNO-SYMB
10
8.16427
20
4.47765
30
0
11
8.19305
21
4.5014
31
0
0
LINE
8
A-ANNO-SYMB
10
8.19305
20
4.5014
30
0
11
8.21679
21
4.53017
31
0
0
LINE
8
A-ANNO-SYMB
10
8.21679
20
4.53017
30
0
11
8.23472
21
4.5632
31
0
0
LINE
8
A-ANNO-SYMB
10
8.23472
20
4.5632
30
0
11
8.24605
21
4.5997
31
0
0
LINE
8
A-ANNO-SYMB
10
8.24605
20
4.5997
30
0
11
8.25
21
4.63889
31
0
0
TEXT
8
A-ANNO-SYMB
10
8.05556
20
4.58333
30
0
40
0.1
1
1
50
0
72
1
11
8.05556
21
4.58333
31
0
0
TEXT
8
A-ANNO-TEXT
10
8.33333
20
4.58333
30
0
40
0.14
1
LEVEL 2 FRAMING PLAN
50
0
0
LINE
8
A-ANNO-TEXT
10
8.33333
20
4.52778
30
0
11
12.5
21
4.52778
31
0
0
TEXT
8
A-ANNO-TEXT
10
8.33333
20
4.36111
30
0
40
0.07
1
SCALE: 1/8" = 1'-0"
50
0
0
LINE
8
G-ANNO-TTLB
10
0.5
20
0.5
30
0
11
35.5
21
0.5
31
0
0
LINE
8
G-ANNO-TTLB
10
35.5
20
0.5
30
0
11
35.5
21
23.5
31
0
0
LINE
8
G-ANNO-TTLB
10
35.5
20
23.5
30
0
11
0.5
21
23.5
31
0
0
LINE
8
G-ANNO-TTLB
10
0.5
20
23.5
30
0
11
0.5
21
0.5
31
0
0
LINE
8
G-ANNO-TTLB
10
33
20
0.5
30
0
11
35.5
21
0.5
31
0
0
LINE
8
G-ANNO-TTLB
10
35.5
20
0.5
30
0
11
35.5
21
23.5
31
0
0
LINE
8
G-ANNO-TTLB
10
35.5
20
23.5
30
0
11
33
21
23.5
31
0
0
LINE
8
G-ANNO-TTLB
10
33
20
23.5
30
0
11
33
21
0.5
31
0
0
LINE
8
G-ANNO-TTLB
10
33
20
21.27778
30
0
11
35.5
21
21.27778
31
0
0
LINE
8
G-ANNO-TTLB
10
33
20
19.05556
30
0
11
35.5
21
19.05556
31
0
0
LINE
8
G-ANNO-TTLB
10
33
20
6.33333
30
0
11
35.5
21
6.33333
31
0
0
LINE
8
G-ANNO-TTLB
10
33
20
4.66667
30
0
11
35.5
21
4.66667
31
0
0
LINE
8
G-ANNO-TTLB
10
33
20
3.27778
30
0
11
35.5
21
3.27778
31
0
0
LINE
8
G-ANNO-TTLB
10
33
20
2.16667
30
0
11
35.5
21
2.16667
31
0
0
TEXT
8
G-ANNO-TTLB
10
33.13889
20
23.16667
30
0
40
0.09
1
ARCADIA DESIGN COLLECTIVE
50
0
0
TEXT
8
G-ANNO-TTLB
10
33.13889
20
22.97222
30
0
40
0.06
1
SYNTHETIC TEST SET - NOT A REAL PROJECT
50
0
0
TEXT
8
G-ANNO-TTLB
10
33.13889
20
22.77778
30
0
40
0.06
1
1200 E CAMELBACK RD, PHOENIX AZ
50
0
0
TEXT
8
G-ANNO-TTLB
10
33.13889
20
21.36111
30
0
40
0.11
1
MESA RIDGE MEDICAL
50
0
0
TEXT
8
G-ANNO-TTLB
10
33.13889
20
21.16667
30
0
40
0.11
1
OFFICE BUILDING
50
0
0
TEXT
8
G-ANNO-TTLB
10
33.13889
20
20.97222
30
0
40
0.06
1
4410 S RIDGE PKWY, PHOENIX AZ
50
0
0
TEXT
8
G-ANNO-TTLB
10
33.13889
20
20.77778
30
0
40
0.06
1
PROJECT NO. 25-118
50
0
0
TEXT
8
G-ANNO-TTLB
10
33.13889
20
6.125
30
0
40
0.07
1
REVISIONS
50
0
0
TEXT
8
G-ANNO-TTLB
10
33.13889
20
4.38889
30
0
40
0.07
1
DATE: 08/04/2026
50
0
0
TEXT
8
G-ANNO-TTLB
10
33.13889
20
4.18056
30
0
40
0.07
1
ISSUE: BID SET
50
0
0
TEXT
8
G-ANNO-TTLB
10
33.13889
20
3
30
0
40
0.07
1
SCALE: 1/8" = 1'-0"
50
0
0
TEXT
8
G-ANNO-TTLB
10
33.13889
20
1.88889
30
0
40
0.09
1
LEVEL 2 FRAMING PLAN
50
0
0
TEXT
8
G-ANNO-TTLB
10
33.13889
20
1.19444
30
0
40
0.3
1
S-101
50
0
0
ENDSEC
0
EOF
